<?xml version="1.0" standalone="no"?>
<svg viewBox="0 0 200 200" xmlns="http://www.w3.org/2000/svg">
  <path fill="#F5F6FF" d="M39,-60.9C49.1,-54.1,54.8,-40.9,63.4,-27.4C72,-13.9,83.4,-0.1,81.7,11.7C80,23.6,65.2,33.6,52.6,42.5C40.1,51.3,29.8,59,17.9,63.7C6,68.5,-7.5,70.2,-18.7,65.9C-29.9,61.7,-38.7,51.4,-46.5,41.1C-54.2,30.7,-60.9,20.2,-65.3,7.7C-69.8,-4.8,-72,-19.4,-67.6,-31.7C-63.3,-44.1,-52.4,-54.3,-40,-60.1C-27.7,-65.9,-13.8,-67.3,0.3,-67.7C14.4,-68.2,28.9,-67.8,39,-60.9Z" transform="translate(100 100)" />
</svg>
