<svg width="160" height="160" viewBox="0 0 160 160" fill="none" xmlns="http://www.w3.org/2000/svg">
<circle cx="80" cy="80" r="80" fill="#F5F6FF"/>
<path d="M82.1351 78.9761L70.787 96.7099L36.0017 123.999H36L43.9846 103.422L46.2051 101.611L46.0024 98.2226L47.8428 93.48L49.8813 92.1523L49.8405 88.3321L51.6895 83.5671L54.4576 81.9012L53.6537 78.5055L55.5354 73.6563L58.3362 72.3606L57.4724 68.6646L60.716 60.3057L64.9101 63.5492C71.0328 68.2829 76.7842 73.4361 82.1351 78.9761Z" fill="#F7BC1C"/>
<path d="M122.799 81.5871C121.924 81.9807 121.474 81.8399 120.385 81.4996C119.028 81.0755 116.979 80.4345 114.318 81.6305C111.658 82.8266 110.777 84.7852 110.193 86.0815C109.725 87.1212 109.532 87.5516 108.657 87.9451C107.781 88.3385 107.331 88.1976 106.243 87.8574C104.886 87.4332 102.836 86.7924 100.177 87.9882L102.291 92.6915C103.166 92.298 103.616 92.4389 104.704 92.7791C105.48 93.0218 106.483 93.3355 107.698 93.3355C108.606 93.3355 109.633 93.16 110.771 92.6485C113.431 91.4525 114.313 89.4938 114.896 88.1976C115.364 87.1578 115.558 86.7274 116.433 86.334C117.308 85.9403 117.759 86.0813 118.846 86.4214C120.203 86.8455 122.253 87.4863 124.913 86.2905L122.799 81.5871Z" fill="#0DC78B"/>
<path d="M79.7239 36C79.221 37.0408 78.6823 37.2883 77.6092 37.7813C76.2182 38.4202 74.3134 39.2953 73.0039 42.0046C71.6946 44.7139 72.1924 46.7501 72.5561 48.237C72.8367 49.3842 72.9774 49.96 72.4743 51.001C71.9715 52.0414 71.4328 52.2888 70.3599 52.7816C68.969 53.4203 67.0641 54.2952 65.7546 57.0044L70.3977 59.2484C70.9005 58.2079 71.4392 57.9606 72.5121 57.4678C73.9031 56.829 75.8081 55.9541 77.1174 53.2448C78.4267 50.5355 77.9289 48.4993 77.5652 47.0124C77.2846 45.8652 77.1439 45.2894 77.647 44.2486C78.1499 43.2078 78.6886 42.9603 79.7617 42.4673C81.1527 41.8284 83.0575 40.9533 84.367 38.244L79.7239 36Z" fill="#364EF7"/>
<path d="M84.5381 50.9045C84.5381 49.4805 85.6924 48.3262 87.1164 48.3262C88.5404 48.3262 89.6948 49.4805 89.6948 50.9045C89.6948 52.3285 88.5404 53.4829 87.1164 53.4829C85.6924 53.4829 84.5381 52.3285 84.5381 50.9045Z" fill="#0C29D0"/>
<path d="M97.4299 38.8723C97.4299 37.4483 98.5843 36.2939 100.008 36.2939C101.432 36.2939 102.587 37.4483 102.587 38.8723C102.587 40.2963 101.432 41.4506 100.008 41.4506C98.5843 41.4506 97.4299 40.2963 97.4299 38.8723Z" fill="#0C29D0"/>
<path d="M105.165 72.362C105.165 70.9539 106.306 69.8125 107.714 69.8125H107.772C109.18 69.8125 110.321 70.9539 110.321 72.362C110.321 73.77 109.18 74.9114 107.772 74.9114H107.714C106.306 74.9114 105.165 73.77 105.165 72.362Z" fill="#0C29D0"/>
<path d="M118.056 64.6256C118.056 63.2176 119.198 62.0762 120.606 62.0762H120.664C122.072 62.0762 123.213 63.2176 123.213 64.6256C123.213 66.0337 122.072 67.1751 120.664 67.1751H120.606C119.198 67.1751 118.056 66.0337 118.056 64.6256Z" fill="#0C29D0"/>
<path d="M56.1763 51.6966C56.1763 50.3092 57.3009 49.1846 58.6883 49.1846H58.821C60.2083 49.1846 61.333 50.3092 61.333 51.6966C61.333 53.0839 60.2083 54.2086 58.821 54.2086H58.6883C57.3009 54.2086 56.1763 53.0839 56.1763 51.6966Z" fill="#0C29D0"/>
<path d="M61.333 38.8059C61.333 37.4186 62.4577 36.2939 63.845 36.2939H63.9777C65.365 36.2939 66.4897 37.4186 66.4897 38.8059C66.4897 40.1933 65.365 41.3179 63.9777 41.3179H63.845C62.4577 41.3179 61.333 40.1933 61.333 38.8059Z" fill="#0C29D0"/>
<path d="M107.743 103.397C107.743 102.009 108.868 100.885 110.255 100.885H110.388C111.775 100.885 112.9 102.009 112.9 103.397C112.9 104.784 111.775 105.909 110.388 105.909H110.255C108.868 105.909 107.743 104.784 107.743 103.397Z" fill="#0C29D0"/>
<path d="M118.056 95.5296C118.056 94.1422 119.181 93.0176 120.568 93.0176H120.701C122.088 93.0176 123.213 94.1422 123.213 95.5296C123.213 96.9169 122.088 98.0416 120.701 98.0416H120.568C119.181 98.0416 118.056 96.9169 118.056 95.5296Z" fill="#0C29D0"/>
<path d="M75.9799 84.9852L72.2895 88.5863C67.1345 83.1855 61.5395 78.2007 55.5354 73.6577L57.4726 68.666C64.1316 73.5992 70.311 79.0499 75.9799 84.9852Z" fill="#FFF3D1"/>
<path d="M68.4904 92.2931L64.7999 95.8942C60.6866 91.5334 56.3086 87.4183 51.6899 83.568L53.6529 78.5059C58.9024 82.7825 63.8563 87.3874 68.4904 92.2931Z" fill="#FFF3D1"/>
<path d="M61.1681 99.4388L57.4794 103.04C54.3905 99.731 51.1762 96.539 47.8433 93.4811L49.8406 88.333C53.7752 91.8636 57.5567 95.573 61.1681 99.4388Z" fill="#FFF3D1"/>
<path d="M54.1224 106.314L50.4319 109.917C48.3315 107.703 46.1794 105.536 43.9844 103.423L46.0024 98.2236C48.7766 100.84 51.4873 103.538 54.1224 106.314Z" fill="#FFF3D1"/>
<path d="M82.1351 78.9766C88.1942 85.2505 93.7359 92.0195 98.7155 99.2337L100.654 102.042L91.9565 104.996L87.7444 104.07L86.9016 106.713L81.8102 108.442L78.0641 107.82L76.6998 110.178L71.7612 111.855L68.4903 111.494L66.586 113.612L62.0515 115.152L57.4793 114.523L56.7934 116.938L36.0017 124" fill="#EDAD00"/>
<path d="M91.9571 104.997L86.9019 106.713C82.5238 100.245 77.6422 94.1925 72.2896 88.5855L75.98 84.9844C81.8707 91.1483 87.2078 97.8314 91.9571 104.997Z" fill="#FFCE4B"/>
<path d="M81.8105 108.442L76.7002 110.178C73.0269 105.169 69.0528 100.399 64.8003 95.8941L68.4908 92.293C73.2813 97.3637 77.7315 102.758 81.8105 108.442Z" fill="#FFCE4B"/>
<path d="M71.7618 111.856L66.5862 113.612C63.6933 109.97 60.6543 106.441 57.4795 103.04L61.1682 99.4385C64.8862 103.416 68.422 107.562 71.7618 111.856Z" fill="#FFCE4B"/>
<path d="M62.0518 115.152L56.7938 116.938C54.7328 114.552 52.61 112.209 50.4321 109.916L54.1226 106.313C56.8522 109.186 59.4993 112.137 62.0518 115.152Z" fill="#FFCE4B"/>
<path fill-rule="evenodd" clip-rule="evenodd" d="M122.687 39.4014L122.687 39.4011L119.729 36.3604C117.621 38.4104 117.447 40.4741 117.319 41.9815L117.319 41.9829C117.225 43.1173 117.18 43.6347 116.453 44.3412C115.726 45.0494 115.207 45.0786 114.072 45.1422C112.561 45.2264 110.494 45.3433 108.384 47.3939C106.276 49.4457 106.102 51.5094 105.975 53.0168L105.975 53.0181L105.974 53.0192C105.88 54.1512 105.837 54.6685 105.108 55.3748C104.383 56.0829 103.864 56.1122 102.728 56.1758C101.218 56.26 99.1488 56.3769 97.0398 58.4275C94.933 60.4792 94.7589 62.543 94.6317 64.0504L94.6316 64.0517C94.537 65.1845 94.4924 65.7019 93.7653 66.4083C93.0382 67.1165 92.5208 67.1457 91.3846 67.2093C89.8737 67.2936 87.8059 67.4104 85.6968 69.4611L88.71 72.5602L88.7097 72.5605L89.2924 73.1587C90.0195 72.4505 90.5386 72.4213 91.6731 72.3577C93.184 72.2735 95.2518 72.1566 97.3609 70.106C99.47 68.0553 99.6436 65.9909 99.7691 64.4835L99.7695 64.4788C99.8655 63.3476 99.9093 62.8306 100.635 62.1251C101.362 61.417 101.882 61.3877 103.016 61.3241C104.527 61.2399 106.595 61.123 108.704 59.0724C110.812 57.0224 110.986 54.9586 111.114 53.4512L111.114 53.4499L111.114 53.4492C111.208 52.3152 111.251 51.7979 111.978 51.0916C112.707 50.3834 113.225 50.3542 114.361 50.2906C115.872 50.2063 117.94 50.0894 120.049 48.0388C122.157 45.9871 122.331 43.9233 122.458 42.4159L122.458 42.4146L122.459 42.4135C122.553 41.2815 122.596 40.7642 123.323 40.0563L122.687 39.4014Z" fill="#9905E8"/>
</svg>
