<svg width="61" height="25" viewBox="0 0 61 25" fill="none" xmlns="http://www.w3.org/2000/svg">
<path d="M42.3574 24.5301C39.5995 24.552 37.4634 23.6232 35.6212 21.9433C35.4019 21.7481 35.3471 21.6264 35.5894 21.3884C36.2802 20.7118 36.959 20.0199 37.6038 19.2995C37.8911 18.9793 38.0501 19.0198 38.3286 19.2995C39.0491 20.0221 39.8638 20.6055 40.8891 20.8281C41.6885 21.0024 42.4868 21.0211 43.239 20.6307C44.1733 20.146 44.3005 19.1931 43.5307 18.4792C43.0921 18.0757 42.5603 17.8388 42.0284 17.5965C41.0163 17.1381 39.9713 16.7488 39.0162 16.1709C37.2913 15.1237 36.4677 13.6148 36.6607 11.5873C36.8395 9.70338 37.8374 8.34803 39.5436 7.63964C42.6447 6.35008 45.5375 6.86547 48.1791 8.91056C48.4094 9.08931 48.4741 9.21431 48.235 9.46433C47.554 10.1771 46.8961 10.9118 46.2491 11.6575C46.0298 11.902 45.8982 11.9108 45.6394 11.7024C44.8148 11.0346 43.8849 10.5872 42.7982 10.5598C42.5439 10.5488 42.2894 10.575 42.0427 10.6377C41.5613 10.7692 41.1731 11.039 41.0646 11.5654C40.956 12.0917 41.1819 12.5292 41.5865 12.8659C42.1348 13.3286 42.8026 13.5962 43.4595 13.8692C44.3367 14.2333 45.214 14.5853 46.0408 15.0579C47.7152 16.0152 48.6879 17.3991 48.5969 19.3773C48.5004 21.4608 47.4619 22.9554 45.5736 23.8392C44.5698 24.3162 43.4686 24.5527 42.3574 24.5301Z" fill="#0C29CF"/>
<path d="M56.2903 18.6941C56.3133 18.8038 56.3386 18.9079 56.3583 19.0154C56.6248 20.5374 57.2882 20.941 58.7938 20.5276C59.0898 20.4453 59.398 20.0966 59.671 20.3214C59.8838 20.4936 59.9309 20.8697 60.0504 21.1548C60.3399 21.8435 60.6228 22.5354 60.9277 23.2197C61.0198 23.4302 61.0659 23.5837 60.8016 23.6989C58.6611 24.6233 56.4822 25.0082 54.3154 23.8743C52.5971 22.9751 51.9282 21.3522 51.8152 19.5198C51.6551 16.9308 51.7724 14.3342 51.7637 11.7419C51.7637 11.2671 51.6672 11.0719 51.1671 11.1388C50.8448 11.1815 50.5092 11.1278 50.1802 11.1519C49.8513 11.176 49.6977 11.1037 49.7098 10.7133C49.7394 9.72638 49.7098 8.73947 49.7263 7.75256C49.7263 7.6111 49.5958 7.34464 49.939 7.37863C50.1254 7.64181 50.0399 7.94227 50.0486 8.22628C50.0607 8.93466 50.0486 9.64414 50.0486 10.3525C50.0486 10.9567 50.0486 10.9556 50.643 10.9611C50.7485 10.9532 50.8544 10.9532 50.9599 10.9611C50.0475 11.0181 50.0475 11.0181 50.0475 10.0312C50.0475 9.34039 50.0475 8.64955 50.0475 7.95872C50.0475 7.76133 50.0146 7.55627 50.1495 7.38082C50.5651 7.36876 50.9807 7.33916 51.3952 7.34902C51.6683 7.35451 51.7637 7.26568 51.8097 6.98715C51.9698 6.02108 52.1793 5.06377 52.346 4.0988C52.4008 3.78189 52.494 3.62727 52.8602 3.64153C53.7857 3.67771 54.7123 3.66675 55.6389 3.67442C55.7979 3.75776 56.0107 3.76434 56.0776 3.98366C56.1872 4.84775 56.0776 5.71733 56.1379 6.58143C56.1485 6.63576 56.1558 6.69069 56.1598 6.74591C56.1498 6.86408 56.1236 6.98031 56.082 7.09133C56.0622 7.16041 56.094 7.21305 56.094 7.13958C56.094 7.13958 56.1214 7.12861 56.1379 7.12203C56.1647 7.11537 56.193 7.11705 56.2188 7.12684C56.2447 7.13664 56.2669 7.15409 56.2826 7.17686C56.3484 7.44881 56.5688 7.34025 56.7213 7.34245C57.8573 7.36109 58.9933 7.36876 60.1294 7.37973C60.2873 7.53654 60.295 7.73831 60.295 7.94117C60.295 8.79869 60.3048 9.6562 60.295 10.5137C60.3147 9.69458 60.295 8.87435 60.3059 8.05521C60.3059 7.81945 60.284 7.57491 60.4715 7.38411C60.681 7.55518 60.5669 7.78765 60.5702 7.98832C60.5845 8.89957 60.5614 9.81191 60.5845 10.7232C60.5932 11.0587 60.5033 11.1618 60.1612 11.1519C58.8859 11.1278 57.6095 11.1377 56.3331 11.1344C56.1554 11.3065 56.2848 11.528 56.2399 11.7221C56.2343 11.7478 56.2236 11.772 56.2086 11.7935C56.1935 11.8149 56.1743 11.8332 56.1521 11.8471C56.104 11.8695 56.0525 11.884 55.9997 11.8899C55.921 11.8942 55.8426 11.8771 55.7727 11.8406C55.7357 11.8092 55.708 11.7682 55.6927 11.7221C55.6806 11.6552 55.6806 11.5873 55.6751 11.5204C55.6696 11.4535 55.7135 11.5204 55.6664 11.4754C55.6378 11.4458 55.6664 11.516 55.6477 11.5401C55.8243 12.0149 55.7903 12.5062 55.7968 12.9942C55.8166 14.5535 55.7475 16.115 55.8341 17.6732C55.8791 17.7453 55.9301 17.8136 55.9866 17.8772C56.0248 17.9694 56.0344 18.0711 56.014 18.1689C56.0534 18.0976 55.9942 17.9737 56.094 17.8991C56.1202 17.891 56.1485 17.8923 56.1739 17.9027C56.1993 17.9131 56.2203 17.932 56.2333 17.9561C56.2793 18.2007 56.1806 18.4551 56.2903 18.6941Z" fill="#0C29CF"/>
<path d="M29.0965 7.38182C30.305 7.32846 31.5134 7.32846 32.7218 7.38182C32.8907 7.5803 32.8764 7.82045 32.8764 8.05841C32.8764 13.164 32.8764 18.2693 32.8764 23.3742C32.8764 24.1122 32.8611 24.1275 32.0989 24.1176C31.0967 24.1045 30.0955 24.1626 29.0943 24.0847C28.9134 23.8874 28.9518 23.6395 28.9507 23.4071C28.9507 18.2898 28.9507 13.1746 28.9507 8.0617C28.9485 7.82593 28.931 7.58359 29.0965 7.38182Z" fill="#0C29CF"/>
<path d="M30.7918 5.04465C30.1711 5.04465 29.5494 5.03587 28.9276 5.04465C28.6721 5.05013 28.523 5.02381 28.5285 4.70142C28.546 3.62349 28.5438 2.54557 28.5285 1.46764C28.5285 1.18911 28.6381 1.13867 28.8838 1.13867C30.1624 1.14744 31.442 1.15183 32.7217 1.13867C33.0354 1.13867 33.0748 1.26697 33.0715 1.52795C33.0606 2.55105 33.0496 3.57415 33.0715 4.59834C33.0814 4.98434 32.9268 5.05232 32.5945 5.03697C31.9914 5.01723 31.3883 5.03697 30.7852 5.03697L30.7918 5.04465Z" fill="#0C29CF"/>
<path d="M24.8112 0.315146C24.8002 0.477438 24.7783 0.644118 24.7783 0.80312C24.7783 8.37821 24.7783 15.9533 24.7783 23.5284C24.7783 23.6907 24.8013 23.8574 24.8134 24.0164C24.7794 24.1995 24.6533 24.2225 24.4844 24.2357C23.1904 24.3168 21.8943 24.2741 20.5993 24.2916C20.2538 24.2916 20.0948 24.1414 20.0576 23.8179C20.0381 23.5992 20.0308 23.3795 20.0356 23.16C20.0356 15.8356 20.0356 8.51163 20.0356 1.18801C20.0356 0.0234578 20.0543 0.0026242 21.2418 0.00701047C22.3889 0.0124933 23.5381 -0.0554927 24.6774 0.14189C24.798 0.331596 24.514 0.341463 24.5261 0.482921C24.4954 0.644384 24.4854 0.809104 24.4965 0.973087V23.2608C24.4915 23.4072 24.497 23.5538 24.5129 23.6995C24.4957 23.5172 24.4906 23.3341 24.4976 23.1512C24.4976 15.7991 24.4976 8.44656 24.4976 1.09371C24.4976 0.82834 24.4186 0.538846 24.65 0.315146C24.7048 0.235462 24.7585 0.235462 24.8112 0.315146Z" fill="#0F29D1"/>
<path d="M29.1033 24.0508C30.0902 24.0508 31.0771 24.0343 32.0574 24.0782C32.5761 24.1012 32.7373 23.9576 32.734 23.4202C32.7121 18.9868 32.7219 14.5534 32.7219 10.12V7.37854H32.8316C32.9961 7.60663 32.9412 7.8709 32.9412 8.12092C32.9412 13.1322 32.9412 18.1439 32.9412 23.156C32.9412 23.3928 32.9336 23.6297 32.9522 23.8654C32.9641 23.9353 32.9898 24.002 33.0279 24.0617C32.9467 24.212 32.8086 24.1516 32.6868 24.1516C31.4302 24.156 30.1731 24.156 28.9157 24.1516C28.8061 24.1516 28.6559 24.2153 28.5769 24.0617C28.6148 24.0034 28.6409 23.9382 28.6537 23.8698C28.6767 18.4089 28.6635 12.948 28.6602 7.4871L28.6537 7.37745C28.7057 7.3452 28.7657 7.32812 28.8269 7.32812C28.8881 7.32812 28.9481 7.3452 29.0002 7.37745C29.0901 7.56934 29.044 7.77331 29.044 7.97069C29.044 13.1333 29.044 18.2956 29.044 23.4575C29.0495 23.6582 28.9936 23.8633 29.1033 24.0508Z" fill="#0D2ACC"/>
<path d="M33.0275 24.0666C32.9979 24.0666 32.9683 24.0556 32.9387 24.0491C32.8499 23.8955 32.8894 23.7278 32.8894 23.5666C32.8894 18.3338 32.8894 13.1009 32.8894 7.86811C32.8894 7.70691 32.8488 7.53914 32.9398 7.38672C33.1482 7.45142 33.0648 7.62796 33.0648 7.75516C33.0692 13.1203 33.0692 18.4865 33.0648 23.8539C33.0588 23.9258 33.0463 23.997 33.0275 24.0666Z" fill="#0C29CF"/>
<path d="M28.6644 24.0476C28.6347 24.0542 28.6051 24.0608 28.5755 24.0651C28.5624 23.8842 28.5372 23.7044 28.5372 23.5234C28.5372 18.3257 28.5372 13.1276 28.5372 7.92914C28.5372 7.74931 28.4198 7.52561 28.6468 7.38086L28.6709 7.42034C28.74 7.57824 28.7093 7.74931 28.7093 7.90721C28.7093 13.1247 28.7093 18.3425 28.7093 23.5607C28.7159 23.7263 28.7565 23.8941 28.6644 24.0476Z" fill="#0C29CF"/>
<path d="M29.103 24.0508C28.9363 23.9313 28.9933 23.7526 28.9933 23.5968C28.9933 18.1922 28.9933 12.7872 28.9933 7.38189C28.9995 7.37539 29.007 7.37022 29.0153 7.36668C29.0236 7.36315 29.0325 7.36133 29.0415 7.36133C29.0506 7.36133 29.0595 7.36315 29.0678 7.36668C29.0761 7.37022 29.0836 7.37539 29.0898 7.38189L29.103 24.0508Z" fill="#0C25D3"/>
<path d="M32.941 7.38672C32.941 12.9427 32.941 18.4986 32.941 24.0546C32.7524 23.8956 32.838 23.6784 32.838 23.4898C32.8328 18.1232 32.8328 12.7562 32.838 7.38891L32.941 7.38672Z" fill="#062AD2"/>
<path d="M60.4649 7.38627C60.4649 8.44336 60.4649 9.50045 60.4561 10.5575C60.4561 10.7056 60.5383 10.9556 60.319 10.9688C60.0295 10.9852 60.1392 10.7067 60.137 10.5532C60.1249 9.49607 60.1282 8.43897 60.126 7.38188C60.1773 7.35109 60.2362 7.33519 60.2961 7.33596C60.3559 7.33674 60.4144 7.35416 60.4649 7.38627Z" fill="#0B29D3"/>
<path d="M50.1572 7.38196C50.1572 8.38641 50.1791 9.38977 50.1572 10.392C50.1462 10.8076 50.2833 10.9557 50.689 10.9118C50.9474 10.8802 51.2096 10.916 51.45 11.016C51.0037 11.016 50.5574 11.016 50.1111 11.016C49.8666 11.016 49.9379 10.8614 49.939 10.7188C49.9455 9.6058 49.9455 8.49278 49.9466 7.38086L50.1572 7.38196Z" fill="#0C29D0"/>
<path d="M56.2902 18.6943C56.0939 18.4607 56.2288 18.1822 56.1882 17.9267C56.0095 17.7326 56.0347 17.488 56.0347 17.2545C56.0347 15.6564 56.0347 14.058 56.0347 12.4592C56.0347 12.2256 56.0105 11.9822 56.1882 11.787C56.2353 11.5677 56.072 11.3067 56.3307 11.1367L56.2978 18.4212C56.2978 18.5122 56.2978 18.6022 56.2902 18.6943Z" fill="#0F26CC"/>
<path d="M56.2793 7.1789H56.0786C56.0422 7.13182 56.0224 7.07396 56.0224 7.01441C56.0224 6.95487 56.0422 6.89701 56.0786 6.84993V6.74027C55.969 5.98693 56.0534 5.2281 56.0227 4.47257C56.015 4.27848 56.0786 4.07561 55.9701 3.89029L55.6411 3.67098C56.1313 3.55364 56.344 3.67865 56.3111 4.24668C56.2563 5.22372 56.2859 6.20185 56.2793 7.1789Z" fill="#0D29C9"/>
<path fill-rule="evenodd" clip-rule="evenodd" d="M0.00235251 15.9768C0.112009 20.8434 3.81074 24.5235 8.80341 24.5235C13.909 24.5191 17.6132 20.8192 17.6078 15.729C17.6023 10.6913 13.8509 6.93888 8.79683 6.96301C3.18898 6.98494 -0.100725 11.3581 0.00235251 15.9768ZM5.77363 12.3561C4.97862 13.3299 4.68913 14.4867 4.64965 15.7215C4.64368 16.5091 4.79697 17.2897 5.10034 18.0166C5.76705 19.5386 6.87569 20.508 8.59182 20.6001C10.3518 20.6955 11.6205 19.8808 12.3783 18.3225C13.2117 16.6108 13.2062 14.8464 12.3629 13.15C11.0372 10.4788 7.63012 10.0851 5.77363 12.3561Z" fill="#0C29CF"/>
<path d="M0.592386 17.9258C0.61998 17.9758 0.63959 18.0298 0.650504 18.0859C0.64688 18.103 0.639217 18.119 0.628153 18.1325C0.617089 18.1461 0.602946 18.1568 0.586905 18.1637C0.509049 18.1977 0.488213 18.1352 0.496986 18.0815C0.505758 18.0278 0.547427 18.0036 0.592386 17.9258Z" fill="#0A2AE3"/>
<path d="M55.9689 17.9259H55.7496C55.6399 17.6441 55.7013 17.3513 55.7002 17.064C55.6929 15.4828 55.6929 13.9012 55.7002 12.3192C55.7002 12.1415 55.6531 11.9551 55.7507 11.7852H55.97C56.0862 11.9233 56.0797 12.0911 56.0797 12.2545C56.0797 13.9893 56.0797 15.7237 56.0797 17.4577C56.0786 17.6211 56.0862 17.7889 55.9689 17.9259Z" fill="#072BCE"/>
<path d="M55.7497 11.7855V17.9262C55.571 17.7651 55.64 17.5512 55.64 17.3593C55.64 15.6849 55.617 14.0093 55.6521 12.3348C55.6609 11.9664 55.3462 11.6034 55.6357 11.2383C55.7453 11.3666 55.6609 11.5431 55.7453 11.6769C55.7497 11.7131 55.7497 11.7493 55.7497 11.7855Z" fill="#1228D4"/>
<path d="M55.969 17.9259V11.7852H56.0787C56.1883 11.9924 56.1302 12.2139 56.1313 12.4277C56.1364 14.0821 56.1364 15.7365 56.1313 17.3908C56.1313 17.5696 56.1773 17.7549 56.0808 17.9259L56.0578 18.1683H55.9942L55.969 17.9259Z" fill="#1225D5"/>
<path d="M56.0786 17.9259C56.0786 15.879 56.0786 13.8321 56.0786 11.7852H56.1883V17.9259H56.0786Z" fill="#0B2DC5"/>
<path d="M55.969 3.89062C56.1883 4.20315 56.0589 4.55405 56.071 4.88631C56.094 5.50368 56.0776 6.12214 56.0776 6.7406C55.844 6.37216 55.9943 5.96533 55.9756 5.57824C55.9482 5.0179 55.969 4.45426 55.969 3.89062Z" fill="#1226D5"/>
<path d="M55.7496 11.675C55.5906 11.5587 55.6564 11.3866 55.64 11.2363C55.9426 11.3164 55.7266 11.5258 55.7496 11.675Z" fill="#072BCE"/>
<path d="M56.0786 6.85156V7.18053C56.0885 7.23207 56.1236 7.30006 56.1027 7.33076C56.0655 7.38559 56.0051 7.34063 55.9931 7.29567C55.9602 7.13886 55.9251 6.97547 56.0786 6.85156Z" fill="#1226D5"/>
<path d="M23.9491 24.0555C22.9095 24.0555 21.8656 24.0423 20.8294 24.0752C20.3907 24.0884 20.3195 23.914 20.3216 23.527C20.337 21.3196 20.3293 19.1122 20.3293 16.9048C20.3293 11.5952 20.337 6.28562 20.3184 0.977133C20.3184 0.428849 20.4642 0.228178 21.0267 0.258882C21.8272 0.301648 22.6321 0.266558 23.4392 0.27204C23.6135 0.27204 23.8087 0.211729 23.9524 0.381697C24.1037 0.5725 24.062 0.800586 24.062 1.01551C24.062 8.4846 24.062 15.9541 24.062 23.4239C24.0588 23.6366 24.1048 23.8647 23.9491 24.0555Z" fill="#0C29CF"/>
<path d="M24.7169 0.270752C24.571 0.504321 24.6072 0.764208 24.6072 1.01751C24.6072 8.4888 24.6072 15.959 24.6072 23.4281C24.6072 23.6342 24.7004 23.8667 24.4975 24.0465C24.401 23.8755 24.4471 23.6891 24.446 23.5103C24.446 15.9805 24.446 8.44822 24.446 0.91334C24.446 0.734599 24.401 0.548184 24.4975 0.37712C24.519 0.339077 24.5514 0.308317 24.5904 0.28878C24.6295 0.269243 24.6735 0.261819 24.7169 0.267463V0.270752Z" fill="#0C29CF"/>
<path d="M23.9492 24.0558V0.380859H24.0589C24.1554 0.551924 24.1093 0.73834 24.1104 0.918177C24.1104 8.44794 24.1104 15.9806 24.1104 23.5163C24.1104 23.695 24.1587 23.8825 24.0589 24.0525H24.0051L23.9492 24.0558Z" fill="#082CCD"/>
<path d="M24.0588 24.0525C24.0588 16.1616 24.0588 8.27103 24.0588 0.380859C24.2376 0.543151 24.1685 0.756981 24.1685 0.948881C24.1685 8.46257 24.1685 15.9759 24.1685 23.4888C24.1685 23.6785 24.2485 23.8946 24.0588 24.0525Z" fill="#0C27D8"/>
<path d="M24.4975 0.380859V24.0514C24.3188 23.9121 24.3879 23.7136 24.3879 23.5415C24.3879 15.9927 24.3879 8.44356 24.3879 0.894053C24.3879 0.718602 24.3298 0.523413 24.4975 0.380859Z" fill="#082AC8"/>
<path d="M28.6646 24.0487C28.6689 18.5081 28.673 12.9671 28.6766 7.42578C28.8433 7.57272 28.7698 7.76791 28.7698 7.94117C28.7742 13.1404 28.7742 18.3399 28.7698 23.5399C28.7742 23.7109 28.8455 23.9094 28.6646 24.0487Z" fill="#0829D3"/>
</svg>
