<svg width="53" height="40" viewBox="0 0 53 40" fill="none" xmlns="http://www.w3.org/2000/svg">
<path d="M21.0989 0.975546C21.0989 0.975546 -0.269386 4.92545 0.00257413 24.0598C0.274534 43.1941 18.3664 39.9759 23.6243 39.3025C26.0072 38.9982 30.747 38.3248 35.2344 37.6772C44.7336 36.3045 51.824 31.6812 52.3873 22.0978C52.4583 20.9743 52.4193 19.8466 52.2707 18.7307C50.9433 8.61633 41.4959 -3.55713 21.0989 0.975546Z" fill="#0DC78B"/>
<path d="M44.1572 20.1615L16.8899 25.9439C15.5178 26.2356 14.086 25.9704 12.9093 25.2066C11.7327 24.4429 10.9076 23.243 10.6154 21.871C10.3256 20.4981 10.5924 19.0663 11.3573 17.8899C12.1221 16.7135 13.3225 15.8887 14.6948 15.5964L41.9621 9.80757C43.335 9.51778 44.7668 9.78459 45.9432 10.5494C47.1195 11.3142 47.9444 12.5146 48.2366 13.887C48.381 14.5668 48.39 15.2685 48.2631 15.9518C48.1362 16.6352 47.8758 17.2868 47.497 17.8695C47.1182 18.4522 46.6282 18.9545 46.0551 19.3478C45.4821 19.7411 44.8372 20.0176 44.1572 20.1615Z" fill="#312F5F"/>
<path d="M20.5746 21.9038C21.5115 21.9038 22.2711 21.1442 22.2711 20.2073C22.2711 19.2703 21.5115 18.5107 20.5746 18.5107C19.6376 18.5107 18.8781 19.2703 18.8781 20.2073C18.8781 21.1442 19.6376 21.9038 20.5746 21.9038Z" fill="white"/>
<path d="M39.6245 17.8501C40.5614 17.8501 41.321 17.0905 41.321 16.1535C41.321 15.2166 40.5614 14.457 39.6245 14.457C38.6875 14.457 37.928 15.2166 37.928 16.1535C37.928 17.0905 38.6875 17.8501 39.6245 17.8501Z" fill="white"/>
<path d="M29.4262 11.0773C29.0831 10.4486 28.7783 9.79995 28.5132 9.1347C27.8291 7.57424 26.9383 6.11284 25.8648 4.78981C24.8216 3.45046 23.4403 2.41336 21.8631 1.7853C21.1934 1.56704 20.5098 1.39397 19.8169 1.26727C20.0072 1.22992 20.2029 1.22992 20.3932 1.26727C20.9198 1.30738 21.4395 1.41176 21.9408 1.57809C23.5951 2.16294 25.0469 3.2102 26.1238 4.59555C27.2131 5.9395 28.0869 7.44462 28.7139 9.05699C28.9599 9.70452 29.1412 10.1772 29.2578 10.5269C29.3409 10.701 29.3977 10.8865 29.4262 11.0773Z" fill="white"/>
<path d="M30.1127 38.4085C30.0674 38.3696 30.6825 37.761 31.4078 36.6537C32.384 35.1883 33.0251 33.5257 33.2856 31.7843C33.4961 30.0327 33.4808 28.2612 33.2403 26.5135C33.0962 25.7888 32.9989 25.0555 32.9489 24.3184C33.0322 24.5002 33.0931 24.6916 33.1302 24.8882C33.2208 25.2637 33.3438 25.8012 33.4734 26.4746C33.7921 28.2421 33.8401 30.0477 33.6158 31.8296C33.3575 33.6221 32.6663 35.3245 31.602 36.7897C31.2843 37.2299 30.9313 37.6435 30.5465 38.0265C30.4204 38.1734 30.2744 38.302 30.1127 38.4085Z" fill="white"/>
<g opacity="0.3">
<path opacity="0.3" d="M49.9593 30.1016C47.4503 28.5597 44.5875 27.688 41.645 27.5698C38.7181 27.4629 35.7881 27.6647 32.9035 28.1719C26.2081 29.1821 19.3508 30.762 13.931 34.8156C12.3371 35.8871 11.0691 37.3769 10.266 39.1216C10.266 39.1216 13.141 40.3066 18.8781 39.9245C24.6151 39.5425 36.4454 37.4834 36.4454 37.4834C36.4454 37.4834 42.4998 36.4603 45.9187 33.9025C49.3376 31.3448 49.9593 30.1016 49.9593 30.1016Z" fill="black"/>
</g>
<path d="M49.8946 13.35C50.0138 13.6673 50.0942 13.9978 50.1342 14.3343C50.2799 15.3017 50.1911 16.2899 49.8752 17.2158C49.3508 18.685 48.3262 19.9228 46.9807 20.7124C45.4332 21.6707 43.4194 22.1888 41.2307 22.655L25.8002 26.0609L21.3388 27.0322C19.8171 27.343 18.276 27.751 16.6507 27.9582C14.9805 28.2541 13.2595 27.9612 11.7813 27.1294C10.3017 26.1848 9.22971 24.72 8.77679 23.0241C8.32532 21.3267 8.53596 19.5212 9.36603 17.9734C10.1737 16.4812 11.4601 15.3043 13.0181 14.6321C13.7736 14.3454 14.5539 14.1286 15.3492 13.9846L17.6479 13.4472L22.0899 12.4111L30.3135 10.4686C32.9036 9.91816 35.2541 9.17351 37.4686 8.74614C38.5193 8.52866 39.5838 8.3837 40.6544 8.3123C41.6133 8.23214 42.5782 8.26474 43.5294 8.40943C45.0648 8.62787 46.5184 9.23651 47.7513 10.1772C48.5151 10.7824 49.1289 11.5558 49.5449 12.437C49.6569 12.6643 49.75 12.9003 49.8234 13.1428C49.8541 13.2227 49.8779 13.305 49.8946 13.3889C49.8946 13.3889 49.7845 13.0587 49.4867 12.4694C49.0508 11.6116 48.4292 10.8617 47.6671 10.2743C46.4433 9.37237 45.0108 8.79537 43.5035 8.59721C42.5662 8.46503 41.6167 8.44113 40.6739 8.52598C39.6116 8.60665 38.556 8.75808 37.5139 8.97925C35.3188 9.43252 32.9813 10.1772 30.3912 10.7405L22.1741 12.6831L17.7321 13.7386L15.4333 14.276C14.6573 14.421 13.8964 14.6378 13.1605 14.9235C11.6729 15.5706 10.4444 16.6966 9.67037 18.1223C8.87858 19.594 8.67714 21.312 9.10702 22.9269C9.54222 24.5322 10.5604 25.9175 11.9626 26.8121C13.378 27.6016 15.0217 27.8806 16.6183 27.6021C18.2047 27.3949 19.7523 26.9934 21.274 26.6826L25.7419 25.7242L41.1854 22.4154C43.1771 22.1102 45.1046 21.4779 46.8901 20.544C48.2142 19.79 49.2299 18.5931 49.7586 17.164C50.0785 16.2572 50.187 15.2894 50.0759 14.3343C49.9917 13.6868 49.8752 13.3565 49.8946 13.35Z" fill="white"/>
<path d="M0.300415 27.226C0.600496 26.8715 0.951882 26.5637 1.34293 26.313C3.14293 24.9844 5.16745 23.9908 7.31959 23.3797C7.75573 23.2272 8.21145 23.1377 8.67291 23.1143C8.70529 23.2179 6.65911 23.7618 4.34744 24.882C2.03578 26.0022 0.365167 27.3102 0.300415 27.226Z" fill="white"/>
<path d="M22.5042 3.65589C22.5436 3.62935 22.5892 3.61356 22.6365 3.6101C22.6838 3.60664 22.7313 3.61563 22.774 3.63617C22.8168 3.65671 22.8535 3.68809 22.8804 3.72719C22.9073 3.76629 22.9235 3.81175 22.9274 3.85906C22.9313 3.90636 22.9227 3.95385 22.9025 3.99682C22.8824 4.03979 22.8513 4.07674 22.8125 4.10399C22.7736 4.13124 22.7283 4.14786 22.6811 4.15217C22.6338 4.15648 22.5862 4.14835 22.5431 4.12858C22.502 4.10586 22.4672 4.07335 22.4417 4.03393C22.4163 3.99451 22.4009 3.94942 22.3971 3.90264C22.3932 3.85587 22.401 3.80888 22.4197 3.76583C22.4384 3.72278 22.4674 3.68502 22.5042 3.65589Z" fill="white"/>
<path d="M25.8906 8.61C25.9299 8.58345 25.9755 8.56766 26.0229 8.5642C26.0702 8.56074 26.1176 8.56972 26.1604 8.59027C26.2032 8.61081 26.2398 8.64219 26.2667 8.68129C26.2936 8.7204 26.3098 8.76586 26.3137 8.81316C26.3176 8.86046 26.3091 8.90796 26.2889 8.95093C26.2688 8.9939 26.2377 9.03084 26.1988 9.05809C26.16 9.08535 26.1147 9.10196 26.0674 9.10627C26.0201 9.11059 25.9726 9.10245 25.9294 9.08269C25.8896 9.05891 25.856 9.02597 25.8315 8.9866C25.8069 8.94724 25.7921 8.90258 25.7883 8.85634C25.7845 8.81011 25.7918 8.76363 25.8096 8.72079C25.8274 8.67794 25.8551 8.63996 25.8906 8.61Z" fill="white"/>
<path d="M5.38356 22.4673C5.42336 22.4446 5.46815 22.432 5.51397 22.4308C5.55979 22.4295 5.60521 22.4396 5.64621 22.4601C5.68721 22.4806 5.72251 22.5109 5.74899 22.5483C5.77546 22.5857 5.79229 22.6291 5.79797 22.6746C5.79871 22.7199 5.78838 22.7647 5.76788 22.8051C5.74737 22.8455 5.7173 22.8803 5.6803 22.9065C5.64329 22.9326 5.60046 22.9494 5.55552 22.9552C5.51057 22.9611 5.46488 22.9558 5.42241 22.94C5.38253 22.9185 5.34836 22.8878 5.32274 22.8504C5.29712 22.813 5.28079 22.7701 5.27509 22.7251C5.26939 22.6802 5.27449 22.6345 5.28998 22.5919C5.30547 22.5494 5.33089 22.5111 5.36413 22.4803" fill="white"/>
<path d="M1.14882 24.7653C1.18835 24.7401 1.23373 24.7255 1.28055 24.723C1.32738 24.7205 1.37405 24.7302 1.41604 24.7511C1.45804 24.7719 1.49393 24.8033 1.52022 24.8421C1.54652 24.8809 1.56232 24.9259 1.56611 24.9726C1.5699 25.0194 1.56155 25.0663 1.54185 25.1088C1.52215 25.1514 1.49179 25.1881 1.45371 25.2155C1.41562 25.2428 1.3711 25.2599 1.32449 25.265C1.27788 25.2701 1.23075 25.263 1.18767 25.2445C1.14779 25.223 1.11362 25.1922 1.088 25.1549C1.06238 25.1175 1.04605 25.0745 1.04035 25.0296C1.03465 24.9846 1.03975 24.939 1.05524 24.8964C1.07072 24.8538 1.09615 24.8155 1.12939 24.7847" fill="white"/>
<g opacity="0.3">
<path opacity="0.3" d="M26.8749 1.28607C26.9267 1.53213 25.0036 2.07605 21.9667 3.05381C18.9298 4.03157 14.7598 5.4885 10.8876 8.23401C9.09182 9.5403 7.49898 11.1048 6.16063 12.8768C5.07303 14.3281 4.20066 15.9289 3.57053 17.6296C2.50859 20.5564 2.64458 22.5831 2.35319 22.5896C2.24959 22.5896 2.09418 22.104 2.01648 21.178C1.94521 19.8691 2.08514 18.5573 2.43089 17.2929C2.94341 15.3989 3.77794 13.6072 4.89796 11.9961C6.26493 10.0219 7.95748 8.29428 9.90332 6.88716C11.8411 5.51726 13.9424 4.39483 16.1584 3.54593C17.9444 2.85923 19.78 2.30941 21.6494 1.90122C24.8288 1.20837 26.8296 1.07238 26.8749 1.28607Z" fill="white"/>
</g>
<g opacity="0.3">
<path opacity="0.3" d="M6.21893 32.0178C5.93402 32.3804 4.70373 31.8754 3.79719 30.6062C2.89066 29.3371 2.81943 28.0161 3.25328 27.8542C3.68712 27.6924 4.41234 28.573 5.19585 29.6285C5.97935 30.6839 6.51031 31.6487 6.21893 32.0178Z" fill="white"/>
</g>
<path d="M33.9782 17.5518C34.1464 18.0162 34.1464 18.5249 33.9782 18.9893C33.833 19.5063 33.5666 19.9814 33.2012 20.375C32.8831 20.7169 32.4967 20.9883 32.0671 21.1714C31.6374 21.3546 31.1741 21.4454 30.7071 21.4381C30.2401 21.4308 29.7799 21.3254 29.3562 21.1289C28.9325 20.9324 28.5548 20.6491 28.2476 20.2973C27.8885 19.9534 27.6597 19.4958 27.6001 19.0022C27.8321 19.4051 28.1056 19.7827 28.416 20.1289C28.7639 20.48 29.1867 20.7479 29.6527 20.9124C30.2215 21.1097 30.8346 21.1411 31.4205 21.0031C32.0068 20.874 32.5439 20.5797 32.9681 20.1548C33.313 19.8007 33.5779 19.3768 33.7451 18.9116C33.8697 18.4676 33.9479 18.0119 33.9782 17.5518Z" fill="white"/>
</svg>
