<svg width="166" height="166" viewBox="0 0 166 166" fill="none" xmlns="http://www.w3.org/2000/svg">
<mask id="mask0" mask-type="alpha" maskUnits="userSpaceOnUse" x="0" y="0" width="166" height="166">
<circle cx="83" cy="83" r="83" fill="#F5F6FF"/>
</mask>
<g mask="url(#mask0)">
<path d="M146.624 67.4629L155.899 71.6348C155.899 71.6348 141.388 92.283 138.419 95.6084C135.451 98.9339 106.199 103.094 106.199 103.094L104.802 90.8621L129.737 86.6297L146.624 67.4629Z" fill="#0DC78B"/>
<path d="M137.114 96.589C137.059 96.589 136.993 95.8514 136.678 94.7147C136.492 94.0499 136.254 93.4009 135.965 92.7738C135.599 92.0138 135.17 91.2857 134.683 90.5972C134.177 89.9204 133.612 89.2892 132.996 88.7107C132.49 88.2414 131.946 87.8147 131.37 87.4349C130.384 86.7819 129.701 86.4978 129.725 86.4494C129.749 86.401 129.907 86.4857 130.221 86.6066C130.662 86.7833 131.087 86.9978 131.491 87.2475C132.095 87.6108 132.666 88.0276 133.196 88.493C133.835 89.0764 134.418 89.7181 134.937 90.4097C135.441 91.1141 135.873 91.8677 136.225 92.6589C136.511 93.3036 136.736 93.9736 136.896 94.6603C137.009 95.1207 137.082 95.59 137.114 96.063C137.145 96.237 137.145 96.4151 137.114 96.589Z" fill="white"/>
<path d="M135.203 91.9209C134.902 92.0506 134.59 92.1558 134.272 92.2353C133.667 92.4227 132.784 92.6767 131.696 92.9729C129.513 93.5776 126.484 94.3152 123.104 95.0287C119.724 95.7422 116.647 96.2682 114.416 96.6068C113.297 96.7761 112.39 96.897 111.761 96.9696C111.438 97.0252 111.11 97.0535 110.782 97.0542C111.096 96.9585 111.418 96.8897 111.743 96.8486L114.38 96.3831C116.599 95.9961 119.67 95.4277 123.044 94.7203C126.418 94.0129 129.447 93.2934 131.642 92.7553L134.242 92.1204C134.555 92.0231 134.877 91.9562 135.203 91.9209Z" fill="white"/>
<path d="M149.043 68.8122C149.11 68.8666 145.355 73.2199 140.663 78.5286C135.971 83.8372 132.113 88.0999 132.017 88.0454C131.92 87.991 135.705 83.6316 140.397 78.323C145.089 73.0143 148.946 68.7517 149.043 68.8122Z" fill="white"/>
<path d="M137.222 83.502C137.259 83.4823 137.3 83.4716 137.342 83.4708C137.384 83.4699 137.425 83.479 137.463 83.4973C137.501 83.5156 137.534 83.5425 137.559 83.5758C137.584 83.6092 137.601 83.6481 137.609 83.6893C137.613 83.7331 137.605 83.7771 137.587 83.8171C137.569 83.8572 137.541 83.8918 137.506 83.9177C137.47 83.9436 137.428 83.9598 137.385 83.9647C137.341 83.9697 137.297 83.9633 137.257 83.946C137.216 83.9288 137.181 83.9014 137.154 83.8664C137.128 83.8315 137.111 83.7902 137.105 83.7467C137.099 83.7031 137.104 83.6588 137.121 83.618C137.137 83.5773 137.164 83.5414 137.198 83.5141" fill="white"/>
<path d="M122.033 93.3472C122.07 93.326 122.111 93.3142 122.154 93.3127C122.196 93.3112 122.238 93.32 122.276 93.3385C122.315 93.357 122.348 93.3845 122.373 93.4186C122.398 93.4528 122.414 93.4926 122.42 93.5345C122.425 93.5787 122.418 93.6233 122.4 93.664C122.383 93.7047 122.354 93.74 122.319 93.7663C122.283 93.7927 122.241 93.8092 122.197 93.8143C122.153 93.8193 122.108 93.8127 122.067 93.795C122.026 93.7774 121.991 93.7493 121.964 93.7137C121.938 93.6781 121.921 93.6361 121.916 93.592C121.911 93.5479 121.917 93.5032 121.934 93.4624C121.952 93.4215 121.98 93.386 122.015 93.3593" fill="white"/>
<path d="M129.338 91.728C129.375 91.7083 129.417 91.6978 129.459 91.6973C129.501 91.6968 129.543 91.7064 129.581 91.7253C129.619 91.7442 129.652 91.7719 129.677 91.806C129.702 91.8401 129.718 91.8797 129.725 91.9214C129.724 91.9632 129.713 92.0043 129.694 92.0413C129.674 92.0783 129.646 92.1101 129.612 92.1343C129.578 92.1584 129.539 92.1741 129.497 92.1802C129.456 92.1863 129.414 92.1825 129.374 92.1692C129.337 92.1504 129.304 92.1228 129.28 92.0887C129.255 92.0546 129.239 92.0151 129.233 91.9735C129.227 91.9319 129.231 91.8895 129.245 91.8499C129.259 91.8103 129.283 91.7747 129.314 91.7462" fill="white"/>
<path d="M141.364 78.856C141.4 78.8348 141.442 78.823 141.484 78.8215C141.527 78.8199 141.569 78.8288 141.607 78.8473C141.645 78.8658 141.678 78.8933 141.703 78.9274C141.728 78.9616 141.744 79.0014 141.751 79.0433C141.755 79.0875 141.749 79.1321 141.731 79.1728C141.713 79.2135 141.685 79.2488 141.649 79.2751C141.613 79.3015 141.571 79.318 141.527 79.3231C141.483 79.3281 141.438 79.3215 141.397 79.3038C141.357 79.2862 141.321 79.2581 141.295 79.2225C141.268 79.1869 141.251 79.1449 141.246 79.1008C141.241 79.0567 141.247 79.012 141.265 78.9711C141.282 78.9303 141.31 78.8947 141.346 78.868" fill="white"/>
<path d="M145.705 73.9321C145.742 73.9073 145.785 73.8926 145.829 73.8893C145.873 73.8861 145.917 73.8945 145.957 73.9137C145.997 73.9328 146.031 73.9621 146.056 73.9986C146.082 74.0351 146.097 74.0776 146.1 74.1217C146.104 74.1658 146.096 74.2102 146.077 74.2503C146.058 74.2904 146.029 74.3249 145.993 74.3503C145.957 74.3757 145.915 74.3912 145.87 74.3953C145.826 74.3993 145.782 74.3917 145.742 74.3732C145.702 74.3532 145.668 74.3233 145.644 74.2864C145.619 74.2496 145.604 74.207 145.6 74.1628C145.597 74.1186 145.604 74.0741 145.623 74.0338C145.641 73.9934 145.67 73.9584 145.705 73.9321Z" fill="white"/>
<g opacity="0.3">
<path opacity="0.3" d="M128.28 87.832C128.347 88.2613 124.586 89.2287 119.882 89.9905C115.178 90.7524 111.296 91.0184 111.23 90.5952C111.163 90.1719 114.918 89.2045 119.628 88.4427C124.338 87.6809 128.208 87.4027 128.28 87.832Z" fill="white"/>
</g>
<path d="M115.71 94.4799C115.746 94.4552 115.789 94.4404 115.833 94.4372C115.877 94.434 115.921 94.4424 115.961 94.4615C116.001 94.4807 116.035 94.51 116.061 94.5465C116.086 94.583 116.101 94.6254 116.104 94.6696C116.108 94.7137 116.1 94.758 116.081 94.7981C116.062 94.8382 116.034 94.8727 115.997 94.8981C115.961 94.9236 115.919 94.9391 115.875 94.9431C115.83 94.9471 115.786 94.9395 115.746 94.9211C115.706 94.901 115.672 94.8711 115.648 94.8343C115.623 94.7975 115.608 94.7549 115.604 94.7106C115.601 94.6664 115.609 94.622 115.627 94.5816C115.645 94.5412 115.674 94.5062 115.71 94.4799Z" fill="white"/>
<path d="M102.184 89.0661C103.453 88.6568 104.817 88.6385 106.096 89.0138C107.376 89.389 108.514 90.1403 109.361 91.1702C110.177 92.2238 110.731 93.4564 110.977 94.7663C111.223 96.0763 111.154 97.4259 110.776 98.7039C110.056 101.261 106.646 104.714 104.337 105.675" fill="#312F5F"/>
<path d="M158.378 68.8106C159.171 67.7787 159.855 66.6684 160.422 65.4972C160.991 64.3203 161.185 62.997 160.978 61.7062C160.869 61.0639 160.6 60.4594 160.197 59.948C159.793 59.4367 159.268 59.035 158.668 58.7797C158.061 58.5455 157.391 58.529 156.773 58.7329C156.154 58.9368 155.625 59.3486 155.276 59.8983L157.737 55.0613C158.04 54.4566 158.342 53.7129 157.943 53.1748C157.732 52.9453 157.445 52.8013 157.135 52.7701C156.825 52.7389 156.514 52.8227 156.262 53.0055C155.77 53.3884 155.383 53.8897 155.137 54.4627L151.51 61.289L148.293 56.2524C147.966 55.7445 147.501 55.1641 146.902 55.2608C146.668 55.3233 146.462 55.463 146.317 55.6572C146.172 55.8514 146.097 56.0888 146.104 56.331C146.137 56.8174 146.277 57.2904 146.515 57.7156C147.453 59.6988 149.152 64.2154 149.152 64.2154L158.378 68.8106Z" fill="#0DC78B"/>
<path d="M104.337 105.332C104.288 105.283 105.165 104.612 106.217 103.227C106.834 102.423 107.308 101.519 107.62 100.555C107.983 99.3678 108.111 98.1209 107.995 96.8848C107.827 94.6213 107.088 92.4372 105.848 90.5362C105.515 89.9429 105.055 89.4309 104.5 89.0367C104.28 88.9143 104.05 88.813 103.811 88.7344C103.879 88.7213 103.948 88.7213 104.016 88.7344C104.207 88.7675 104.39 88.8308 104.561 88.9218C105.162 89.2946 105.668 89.8042 106.036 90.4092C107.36 92.3161 108.145 94.5449 108.309 96.8606C108.443 98.145 108.313 99.4432 107.928 100.676C107.593 101.665 107.083 102.587 106.423 103.397C105.988 103.94 105.504 104.442 104.978 104.896C104.781 105.065 104.566 105.211 104.337 105.332Z" fill="#455A64"/>
<path d="M146.624 67.4628C149.14 69.0715 151.767 70.5 154.484 71.7375C155.567 72.2393 156.903 72.7049 157.882 72.0096C158.214 71.7334 158.461 71.3685 158.594 70.9574C158.727 70.5464 158.74 70.1061 158.632 69.6878C158.399 68.8522 157.956 68.0902 157.344 67.4748C155.568 65.4825 153.261 64.0374 150.693 63.3089C149.793 63.0054 148.831 62.9306 147.894 63.0913C147.427 63.1748 146.99 63.3804 146.628 63.6873C146.265 63.9942 145.991 64.3914 145.832 64.8387C145.662 65.3006 145.645 65.8049 145.783 66.2774C145.921 66.7498 146.208 67.1653 146.6 67.4628" fill="#312F5F"/>
<path d="M158.288 70.8678C158.24 70.8678 157.889 70.1423 157.079 69.1144C156.022 67.7666 154.675 66.6738 153.139 65.9171C151.602 65.1603 149.915 64.7591 148.203 64.7429C146.891 64.7429 146.08 64.9001 146.068 64.8457C146.247 64.7645 146.436 64.7115 146.631 64.6885C147.149 64.591 147.675 64.5344 148.203 64.5192C149.963 64.474 151.707 64.8564 153.287 65.6336C154.867 66.4107 156.234 67.5595 157.272 68.9814C157.587 69.4056 157.865 69.8568 158.101 70.3297C158.193 70.4972 158.256 70.6792 158.288 70.8678Z" fill="#455A64"/>
<path d="M98.5199 133.931C98.6046 134.112 97.4437 134.941 95.3214 135.836C94.0778 136.354 92.7963 136.777 91.4881 137.099C88.2682 137.888 84.9393 138.133 81.6387 137.825C80.2974 137.696 78.9675 137.468 77.6602 137.142C75.4291 136.567 74.1594 135.932 74.2198 135.727C74.2803 135.521 75.6649 135.769 77.8476 136.047C78.948 136.192 80.2661 136.307 81.7233 136.374C83.3015 136.436 84.882 136.411 86.4576 136.301C88.0333 136.184 89.6016 135.982 91.1555 135.696C92.5885 135.412 93.8703 135.092 94.9405 134.802C97.093 134.173 98.4171 133.707 98.5199 133.931Z" fill="#312F5F"/>
<path d="M97.7282 137.25C97.7947 137.449 96.6761 138.06 94.7353 138.701C89.6205 140.312 84.1999 140.705 78.9061 139.85C76.8926 139.499 75.6955 139.051 75.7318 138.852C75.8164 138.392 80.7381 139.094 86.7723 138.634C92.8065 138.175 97.5831 136.808 97.7282 137.25Z" fill="#312F5F"/>
<path d="M75.8282 48.2303C75.8282 48.2303 55.8754 51.9185 56.1294 69.7853C56.3833 87.6522 73.2767 84.6471 78.1863 84.0183C80.4113 83.7341 84.8372 83.1053 89.0273 82.5007C97.8972 81.2189 104.518 76.9018 105.044 67.9533C105.11 66.9042 105.074 65.8512 104.935 64.8092C103.696 55.3649 94.8741 43.9978 75.8282 48.2303Z" fill="#0DC78B"/>
<path d="M97.3589 66.1458L71.8979 71.5451C70.6166 71.8175 69.2797 71.5699 68.181 70.8567C67.0823 70.1435 66.3118 69.0232 66.039 67.742C65.7684 66.46 66.0176 65.1231 66.7317 64.0247C67.4459 62.9262 68.5667 62.156 69.8482 61.8831L95.3092 56.4777C96.5911 56.2072 97.9281 56.4563 99.0265 57.1704C100.125 57.8846 100.895 59.0054 101.168 60.2869C101.303 60.9217 101.311 61.5769 101.193 62.215C101.074 62.8531 100.831 63.4615 100.477 64.0056C100.124 64.5497 99.6662 65.0188 99.1311 65.386C98.596 65.7532 97.9938 66.0114 97.3589 66.1458Z" fill="#312F5F"/>
<path d="M75.3383 67.7708C76.2132 67.7708 76.9224 67.0616 76.9224 66.1867C76.9224 65.3118 76.2132 64.6025 75.3383 64.6025C74.4634 64.6025 73.7542 65.3118 73.7542 66.1867C73.7542 67.0616 74.4634 67.7708 75.3383 67.7708Z" fill="white"/>
<path d="M93.1264 63.9876C94.0013 63.9876 94.7105 63.2784 94.7105 62.4035C94.7105 61.5286 94.0013 60.8193 93.1264 60.8193C92.2515 60.8193 91.5422 61.5286 91.5422 62.4035C91.5422 63.2784 92.2515 63.9876 93.1264 63.9876Z" fill="white"/>
<path d="M83.6038 57.6638C83.2835 57.0769 82.9988 56.4711 82.7513 55.85C82.1126 54.3929 81.2808 53.0283 80.2784 51.7929C79.3043 50.5423 78.0145 49.5739 76.5417 48.9874C75.9164 48.7836 75.2781 48.622 74.6311 48.5037C74.8088 48.4688 74.9916 48.4688 75.1692 48.5037C75.661 48.5411 76.1462 48.6386 76.6143 48.7939C78.1591 49.34 79.5147 50.3179 80.5202 51.6115C81.5374 52.8664 82.3533 54.2718 82.9387 55.7774C83.1685 56.382 83.3378 56.8234 83.4466 57.1499C83.5242 57.3125 83.5772 57.4857 83.6038 57.6638Z" fill="white"/>
<path d="M84.2444 83.1841C84.2021 83.1478 84.7765 82.5795 85.4536 81.5456C86.3652 80.1772 86.9639 78.6248 87.2071 76.9987C87.4036 75.3631 87.3894 73.709 87.1648 72.077C87.0303 71.4003 86.9394 70.7157 86.8927 70.0273C86.9705 70.1972 87.0274 70.3758 87.062 70.5594C87.1466 70.9101 87.2615 71.4119 87.3824 72.0408C87.68 73.6911 87.7249 75.3772 87.5154 77.0411C87.2743 78.7147 86.6288 80.3044 85.635 81.6725C85.3384 82.0835 85.0088 82.4698 84.6495 82.8274C84.5317 82.9646 84.3954 83.0846 84.2444 83.1841Z" fill="white"/>
<g opacity="0.3">
<path opacity="0.3" d="M102.776 75.4271C100.434 73.9874 97.7606 73.1734 95.013 73.063C92.28 72.9633 89.5441 73.1517 86.8505 73.6253C80.5987 74.5686 74.1956 76.0439 69.1349 79.8288C67.6465 80.8294 66.4625 82.2205 65.7126 83.8496C65.7126 83.8496 68.3972 84.9561 73.7542 84.5994C79.1113 84.2426 90.1578 82.3199 90.1578 82.3199C90.1578 82.3199 95.8111 81.3646 99.0036 78.9763C102.196 76.588 102.776 75.4271 102.776 75.4271Z" fill="black"/>
</g>
<path d="M102.716 59.784C102.828 60.0802 102.903 60.3888 102.94 60.703C103.076 61.6063 102.993 62.5291 102.698 63.3936C102.209 64.7655 101.252 65.9214 99.9956 66.6586C98.5505 67.5535 96.6701 68.0372 94.6265 68.4725L80.2181 71.6529L76.0522 72.5598C74.6314 72.8501 73.1923 73.231 71.6747 73.4245C70.1152 73.7008 68.5082 73.4272 67.1279 72.6505C65.7463 71.7685 64.7453 70.4008 64.3224 68.8172C63.9009 67.2323 64.0975 65.5464 64.8726 64.1011C65.6268 62.7077 66.828 61.6088 68.2827 60.9812C68.9882 60.7134 69.7169 60.511 70.4594 60.3765L72.6058 59.8747L76.7536 58.9073L84.4324 57.0934C86.8509 56.5795 89.0457 55.8841 91.1136 55.4851C92.0947 55.282 93.0886 55.1466 94.0884 55.08C94.9837 55.0051 95.8847 55.0356 96.7729 55.1707C98.2065 55.3746 99.5639 55.943 100.715 56.8213C101.428 57.3865 102.001 58.1086 102.39 58.9315C102.494 59.1437 102.581 59.3641 102.65 59.5905C102.679 59.6651 102.701 59.7419 102.716 59.8203C102.716 59.8203 102.614 59.5119 102.336 58.9617C101.929 58.1607 101.348 57.4605 100.637 56.912C99.4938 56.0698 98.1562 55.531 96.7487 55.346C95.8735 55.2226 94.9869 55.2003 94.1065 55.2795C93.1147 55.3548 92.1289 55.4962 91.1559 55.7027C89.1062 56.126 86.9235 56.8213 84.505 57.3473L76.8322 59.1612L72.6845 60.1468L70.538 60.6486C69.8134 60.784 69.1029 60.9864 68.4158 61.2533C67.0267 61.8575 65.8795 62.9089 65.1568 64.2401C64.4175 65.6143 64.2294 67.2185 64.6308 68.7265C65.0371 70.2254 65.9879 71.519 67.2972 72.3543C68.6188 73.0915 70.1537 73.352 71.6445 73.0919C73.1258 72.8984 74.5709 72.5236 75.9918 72.2333L80.1637 71.3385L94.5842 68.2488C96.4439 67.9638 98.2437 67.3734 99.9109 66.5014C101.147 65.7973 102.096 64.6797 102.589 63.3453C102.888 62.4986 102.989 61.5949 102.886 60.703C102.807 60.0984 102.698 59.79 102.716 59.784Z" fill="white"/>
<path d="M56.4072 72.7408C56.6874 72.4097 57.0155 72.1223 57.3807 71.8882C59.0614 70.6477 60.9519 69.7199 62.9614 69.1493C63.3687 69.0068 63.7942 68.9233 64.2251 68.9014C64.2553 68.9981 62.3447 69.506 60.1862 70.552C58.0276 71.598 56.4677 72.8194 56.4072 72.7408Z" fill="white"/>
<path d="M77.14 50.7338C77.1767 50.7091 77.2192 50.6943 77.2634 50.6911C77.3076 50.6879 77.3518 50.6963 77.3918 50.7154C77.4317 50.7346 77.4659 50.7639 77.491 50.8004C77.5161 50.8369 77.5313 50.8793 77.5349 50.9235C77.5385 50.9676 77.5305 51.0119 77.5117 51.052C77.4929 51.0921 77.4639 51.1266 77.4277 51.1521C77.3914 51.1775 77.3491 51.193 77.305 51.197C77.2609 51.201 77.2165 51.1935 77.1762 51.175C77.1379 51.1538 77.1054 51.1235 77.0816 51.0867C77.0579 51.0499 77.0435 51.0078 77.04 50.9641C77.0364 50.9205 77.0436 50.8766 77.0611 50.8364C77.0785 50.7963 77.1056 50.761 77.14 50.7338Z" fill="white"/>
<path d="M80.3021 55.3598C80.3389 55.335 80.3814 55.3203 80.4256 55.3171C80.4698 55.3139 80.514 55.3222 80.554 55.3414C80.5939 55.3606 80.6281 55.3899 80.6532 55.4264C80.6783 55.4629 80.6934 55.5053 80.6971 55.5494C80.7007 55.5936 80.6927 55.6379 80.6739 55.678C80.6551 55.7181 80.6261 55.7526 80.5899 55.778C80.5536 55.8035 80.5113 55.819 80.4672 55.823C80.4231 55.827 80.3787 55.8194 80.3384 55.801C80.3012 55.7788 80.2699 55.7481 80.247 55.7113C80.2241 55.6746 80.2103 55.6329 80.2067 55.5897C80.2032 55.5466 80.21 55.5032 80.2266 55.4632C80.2432 55.4232 80.2691 55.3878 80.3021 55.3598Z" fill="white"/>
<path d="M61.1544 68.2979C61.1915 68.2767 61.2333 68.265 61.2761 68.2638C61.3188 68.2626 61.3612 68.272 61.3995 68.2911C61.4378 68.3102 61.4707 68.3385 61.4954 68.3734C61.5201 68.4084 61.5358 68.4488 61.5411 68.4913C61.5418 68.5336 61.5322 68.5754 61.5131 68.6131C61.4939 68.6508 61.4659 68.6833 61.4313 68.7077C61.3968 68.7322 61.3568 68.7478 61.3149 68.7532C61.2729 68.7587 61.2303 68.7538 61.1906 68.7391C61.1534 68.719 61.1215 68.6903 61.0976 68.6554C61.0737 68.6205 61.0585 68.5805 61.0531 68.5385C61.0478 68.4965 61.0526 68.4539 61.067 68.4142C61.0815 68.3744 61.1052 68.3387 61.1362 68.31" fill="white"/>
<path d="M57.1995 70.4461C57.2364 70.4225 57.2788 70.4089 57.3225 70.4066C57.3662 70.4043 57.4097 70.4133 57.4489 70.4328C57.4881 70.4522 57.5216 70.4815 57.5462 70.5177C57.5707 70.554 57.5855 70.5959 57.589 70.6396C57.5925 70.6832 57.5847 70.727 57.5664 70.7667C57.548 70.8064 57.5196 70.8407 57.4841 70.8662C57.4485 70.8917 57.407 70.9077 57.3635 70.9124C57.32 70.9171 57.276 70.9105 57.2358 70.8933C57.1986 70.8732 57.1667 70.8445 57.1428 70.8096C57.1189 70.7747 57.1036 70.7347 57.0983 70.6927C57.093 70.6508 57.0977 70.6081 57.1122 70.5684C57.1267 70.5286 57.1504 70.4929 57.1814 70.4642" fill="white"/>
<g opacity="0.3">
<path opacity="0.3" d="M81.2215 48.5202C81.2699 48.7499 79.4742 49.2578 76.6384 50.1708C73.8027 51.0838 69.9089 52.4442 66.2932 55.0078C64.6164 56.2276 63.1291 57.6884 61.8794 59.343C60.8639 60.6983 60.0493 62.193 59.4609 63.781C58.4693 66.514 58.5963 68.4065 58.3242 68.4125C58.2275 68.4125 58.0823 67.959 58.0098 67.0944C57.9432 65.8722 58.0739 64.6473 58.3967 63.4666C58.8753 61.6981 59.6546 60.0251 60.7004 58.5207C61.9768 56.6773 63.5572 55.0641 65.3742 53.7502C67.1836 52.4711 69.1457 51.423 71.2149 50.6303C72.8826 49.9891 74.5966 49.4757 76.3422 49.0946C79.3109 48.4476 81.1792 48.3206 81.2215 48.5202Z" fill="white"/>
</g>
<g opacity="0.3">
<path opacity="0.3" d="M61.9336 77.2173C61.6676 77.5559 60.5188 77.0843 59.6723 75.8992C58.8258 74.7141 58.7593 73.4807 59.1644 73.3295C59.5695 73.1784 60.2467 74.0007 60.9783 74.9862C61.7099 75.9718 62.2057 76.8727 61.9336 77.2173Z" fill="white"/>
</g>
<path d="M103.302 86.9191C104.511 87.2638 104.439 104.774 104.179 113.71C104.04 118.499 103.683 123.499 101.24 127.617C98.5196 132.206 93.3379 135.138 88.0111 135.477C81.6081 135.912 75.2716 132.811 70.888 128.113C66.5044 123.415 63.9045 117.284 62.5078 111.014C61.1111 104.744 60.839 98.3164 60.573 91.865C60.573 91.8892 81.3239 80.7217 103.302 86.9191Z" fill="#0DC78B"/>
<g opacity="0.2">
<path opacity="0.2" d="M61.5474 100.355C61.4022 106.002 62.3999 112.514 64.2077 117.224C66.1667 122.327 69.0085 126.898 73.7609 130.768C75.0943 131.765 76.5102 132.647 77.9933 133.404C79.2443 134.05 80.5649 134.551 81.9294 134.898C84.1847 135.545 85.5089 132.751 85.9502 130.448C86.3916 128.144 85.5633 125.731 84.1363 123.851C82.6563 122.024 80.8603 120.478 78.8337 119.286C76.811 118.1 74.8569 116.8 72.9809 115.392C69.9023 112.758 67.4539 109.467 65.8161 105.761C64.1865 102.067 62.8345 98.2576 61.7711 94.3633" fill="black"/>
</g>
<path d="M76.3484 124.257C76.3862 124.237 76.4281 124.227 76.4707 124.227C76.5133 124.226 76.5554 124.236 76.5937 124.255C76.6319 124.273 76.6651 124.301 76.6908 124.335C76.7164 124.369 76.7337 124.409 76.7412 124.45C76.7409 124.493 76.7303 124.535 76.7104 124.572C76.6906 124.61 76.662 124.642 76.6271 124.667C76.5921 124.691 76.5519 124.706 76.5097 124.712C76.4675 124.717 76.4246 124.713 76.3847 124.698C76.3475 124.679 76.3156 124.651 76.2916 124.616C76.2676 124.582 76.2523 124.542 76.247 124.501C76.2417 124.459 76.2464 124.417 76.2609 124.378C76.2754 124.339 76.2992 124.303 76.3303 124.275" fill="white"/>
<path d="M84.1114 123.935C84.1483 123.912 84.1906 123.898 84.2343 123.896C84.278 123.894 84.3216 123.903 84.3608 123.922C84.4 123.941 84.4334 123.971 84.458 124.007C84.4825 124.043 84.4973 124.085 84.5008 124.129C84.5044 124.172 84.4966 124.216 84.4782 124.256C84.4598 124.296 84.4315 124.33 84.3959 124.355C84.3604 124.381 84.3188 124.397 84.2753 124.402C84.2318 124.406 84.1878 124.4 84.1476 124.383C84.11 124.363 84.0775 124.335 84.053 124.3C84.0285 124.266 84.0127 124.226 84.0067 124.184C84.0008 124.142 84.005 124.099 84.019 124.059C84.033 124.019 84.0564 123.983 84.0872 123.953" fill="white"/>
<path d="M92.5881 115.931C92.6248 115.91 92.6662 115.898 92.7085 115.897C92.7509 115.895 92.7929 115.904 92.8311 115.922C92.8692 115.941 92.9022 115.968 92.9273 116.003C92.9524 116.037 92.9687 116.077 92.9749 116.118C92.9797 116.163 92.9729 116.207 92.955 116.248C92.9372 116.289 92.909 116.324 92.8732 116.35C92.8375 116.377 92.7955 116.393 92.7513 116.398C92.7072 116.403 92.6625 116.397 92.6217 116.379C92.581 116.361 92.5456 116.333 92.519 116.298C92.4925 116.262 92.4758 116.22 92.4705 116.176C92.4653 116.132 92.4717 116.087 92.4892 116.046C92.5066 116.006 92.5345 115.97 92.57 115.943" fill="white"/>
<path d="M88.6944 96.1401C88.7318 96.1204 88.7733 96.1099 88.8156 96.1094C88.8578 96.1089 88.8996 96.1185 88.9374 96.1375C88.9753 96.1564 89.008 96.184 89.033 96.2181C89.058 96.2522 89.0745 96.2918 89.0811 96.3335C89.0801 96.3754 89.0695 96.4165 89.05 96.4536C89.0305 96.4906 89.0027 96.5227 88.9688 96.5473C88.9348 96.5719 88.8957 96.5883 88.8544 96.5952C88.8131 96.6022 88.7707 96.5995 88.7306 96.5874C88.693 96.5678 88.6606 96.5396 88.6361 96.505C88.6115 96.4704 88.5957 96.4304 88.5898 96.3884C88.5838 96.3464 88.588 96.3036 88.602 96.2636C88.616 96.2235 88.6394 96.1874 88.6702 96.1583" fill="white"/>
<path d="M96.6396 99.3882C96.6763 99.367 96.7176 99.3552 96.76 99.3537C96.8023 99.3522 96.8444 99.361 96.8825 99.3795C96.9207 99.398 96.9537 99.4255 96.9788 99.4597C97.0038 99.4938 97.0202 99.5336 97.0263 99.5755C97.0304 99.6193 97.023 99.6633 97.0049 99.7034C96.9868 99.7434 96.9586 99.778 96.9231 99.8039C96.8876 99.8298 96.8459 99.846 96.8023 99.851C96.7586 99.8559 96.7144 99.8495 96.674 99.8322C96.6336 99.815 96.5984 99.7876 96.5717 99.7526C96.5451 99.7177 96.528 99.6764 96.5221 99.6329C96.5162 99.5894 96.5217 99.545 96.538 99.5043C96.5544 99.4635 96.581 99.4277 96.6154 99.4003" fill="white"/>
<path d="M67.5561 121.954C67.5935 121.934 67.6351 121.923 67.6773 121.923C67.7196 121.922 67.7614 121.932 67.7992 121.951C67.837 121.97 67.8698 121.997 67.8948 122.032C67.9198 122.066 67.9363 122.105 67.9429 122.147C67.9422 122.189 67.9317 122.23 67.9122 122.267C67.8926 122.304 67.8647 122.336 67.8305 122.36C67.7964 122.384 67.757 122.4 67.7156 122.406C67.6743 122.412 67.632 122.408 67.5924 122.395C67.5548 122.376 67.5223 122.348 67.4978 122.314C67.4732 122.28 67.4573 122.241 67.4513 122.199C67.4454 122.158 67.4496 122.115 67.4637 122.076C67.4777 122.036 67.5011 122 67.532 121.972" fill="white"/>
<path d="M66.2744 115.368C66.3118 115.348 66.3533 115.337 66.3956 115.337C66.4379 115.336 66.4797 115.346 66.5175 115.365C66.5553 115.384 66.5881 115.412 66.613 115.446C66.638 115.48 66.6545 115.519 66.6612 115.561C66.6605 115.603 66.65 115.644 66.6304 115.681C66.6109 115.718 66.5829 115.75 66.5488 115.774C66.5146 115.798 66.4753 115.814 66.4339 115.82C66.3925 115.826 66.3503 115.822 66.3107 115.809C66.2731 115.79 66.2406 115.762 66.2161 115.728C66.1915 115.694 66.1755 115.655 66.1696 115.613C66.1637 115.572 66.1679 115.529 66.1819 115.49C66.196 115.45 66.2194 115.414 66.2502 115.386" fill="white"/>
<path d="M65.712 109.408C65.7494 109.388 65.7909 109.377 65.8332 109.377C65.8755 109.377 65.9173 109.386 65.9551 109.405C65.9929 109.424 66.0256 109.452 66.0506 109.486C66.0756 109.52 66.0921 109.559 66.0988 109.601C66.0995 109.643 66.0898 109.685 66.0707 109.723C66.0515 109.761 66.0235 109.793 65.9889 109.818C65.9544 109.842 65.9144 109.858 65.8725 109.863C65.8305 109.869 65.7879 109.864 65.7483 109.849C65.711 109.829 65.6791 109.8 65.6552 109.765C65.6313 109.73 65.6161 109.69 65.6108 109.648C65.6054 109.606 65.6102 109.564 65.6247 109.524C65.6391 109.484 65.6628 109.449 65.6939 109.42" fill="white"/>
<path d="M65.1504 103.094C65.1878 103.075 65.2293 103.064 65.2716 103.063C65.3139 103.063 65.3556 103.073 65.3935 103.092C65.4313 103.11 65.464 103.138 65.489 103.172C65.514 103.206 65.5305 103.246 65.5371 103.288C65.5365 103.329 65.5259 103.371 65.5064 103.407C65.4869 103.444 65.4589 103.476 65.4248 103.5C65.3906 103.525 65.3512 103.54 65.3099 103.546C65.2685 103.552 65.2263 103.549 65.1866 103.535C65.1491 103.517 65.1166 103.489 65.092 103.455C65.0675 103.421 65.0515 103.381 65.0456 103.34C65.0396 103.298 65.0439 103.256 65.0579 103.216C65.072 103.177 65.0954 103.141 65.1262 103.112" fill="white"/>
<path d="M101.356 97.8393C101.392 97.8145 101.435 97.7998 101.479 97.7966C101.523 97.7933 101.567 97.8017 101.607 97.8209C101.647 97.8401 101.681 97.8694 101.707 97.9059C101.732 97.9424 101.747 97.9848 101.75 98.0289C101.754 98.0731 101.746 98.1174 101.727 98.1575C101.708 98.1976 101.679 98.2321 101.643 98.2575C101.607 98.283 101.565 98.2985 101.521 98.3025C101.476 98.3065 101.432 98.2989 101.392 98.2805C101.352 98.2604 101.318 98.2305 101.294 98.1937C101.269 98.1568 101.254 98.1143 101.25 98.07C101.247 98.0258 101.254 97.9814 101.273 97.941C101.291 97.9006 101.32 97.8656 101.356 97.8393Z" fill="white"/>
<path d="M93.8828 123.346C93.9195 123.325 93.9609 123.313 94.0032 123.312C94.0456 123.31 94.0876 123.319 94.1258 123.338C94.1639 123.356 94.1969 123.384 94.222 123.418C94.2471 123.452 94.2634 123.492 94.2696 123.534C94.2744 123.578 94.2675 123.622 94.2497 123.663C94.2319 123.704 94.2037 123.739 94.1679 123.765C94.1322 123.792 94.0901 123.808 94.046 123.813C94.0019 123.818 93.9572 123.812 93.9164 123.794C93.8757 123.776 93.8402 123.748 93.8137 123.713C93.7872 123.677 93.7704 123.635 93.7652 123.591C93.76 123.547 93.7664 123.502 93.7838 123.461C93.8013 123.421 93.8292 123.385 93.8647 123.358" fill="white"/>
<path d="M94.7349 129.596C94.7716 129.571 94.8142 129.557 94.8584 129.553C94.9026 129.55 94.9468 129.559 94.9868 129.578C95.0267 129.597 95.0609 129.626 95.086 129.663C95.1111 129.699 95.1262 129.742 95.1299 129.786C95.1335 129.83 95.1255 129.874 95.1067 129.914C95.0879 129.954 95.0589 129.989 95.0226 130.014C94.9864 130.04 94.9441 130.055 94.9 130.059C94.8559 130.063 94.8115 130.056 94.7712 130.037C94.7329 130.016 94.7004 129.986 94.6766 129.949C94.6528 129.912 94.6385 129.87 94.6349 129.826C94.6313 129.783 94.6386 129.739 94.656 129.699C94.6735 129.659 94.7006 129.623 94.7349 129.596Z" fill="white"/>
<g opacity="0.3">
<path opacity="0.3" d="M98.4901 91.6069C98.5505 91.7943 96.6762 92.6348 93.4716 93.4994C91.5947 94.0068 89.6913 94.4105 87.77 94.7086C83.0563 95.4417 78.2714 95.6041 73.5188 95.1923C71.5832 95.0235 69.6579 94.7531 67.7507 94.3821C64.4977 93.7291 62.569 93.0217 62.6173 92.8282C62.7141 92.3506 70.671 94.1826 80.6111 93.8077C90.5513 93.4329 98.357 91.1595 98.4901 91.6069Z" fill="white"/>
</g>
<path d="M75.6284 132.116C75.6284 132.116 75.5075 132.038 75.2958 131.862C75.0842 131.687 74.7819 131.409 74.4131 131.04C73.3493 129.996 72.4847 128.766 71.8615 127.412C71.4491 126.476 71.1095 125.51 70.8458 124.522C70.5314 123.476 70.2411 122.345 69.9025 121.154C69.2677 118.766 68.651 116.13 68.0886 113.336C67.1479 108.553 66.4798 103.721 66.0873 98.8615C65.9483 97.0053 65.8697 95.4998 65.8334 94.4538V93.2445C65.8228 93.1037 65.8228 92.9622 65.8334 92.8213C65.8665 92.958 65.8847 93.0979 65.8878 93.2385C65.8878 93.5468 65.9422 93.9399 65.9785 94.4477C66.051 95.4877 66.1659 96.9932 66.3352 98.8434C66.692 102.55 67.3147 107.665 68.4272 113.24C68.9835 116.021 69.5881 118.681 70.2411 121.045C70.5495 122.255 70.8458 123.361 71.1541 124.413C71.4032 125.393 71.7245 126.353 72.1155 127.285C72.7065 128.625 73.5247 129.852 74.534 130.913C74.8847 131.294 75.1749 131.578 75.3684 131.772C75.4628 131.88 75.5497 131.996 75.6284 132.116Z" fill="white"/>
<path d="M89.7041 112.829C89.7887 112.829 90.4357 117.63 91.1552 123.579C91.8747 129.529 92.3645 134.36 92.298 134.372C92.2314 134.384 91.5603 129.565 90.8408 123.616C90.1213 117.666 89.6134 112.835 89.7041 112.829Z" fill="white"/>
<path d="M80.5986 85.6885C80.7627 85.8133 80.9091 85.9598 81.034 86.1238C81.294 86.414 81.6386 86.8433 82.1223 87.3754C83.0353 88.4456 84.2748 89.939 85.6292 91.6078L86.131 92.2124L86.1915 92.285C86.2248 92.3092 86.2501 92.3429 86.264 92.3817C86.2827 92.4251 86.2989 92.4695 86.3124 92.5147V92.6175C86.3426 92.7506 86.3547 92.8775 86.3729 93.0045C86.4212 93.5124 86.4515 94.0021 86.4756 94.4677C86.524 95.3928 86.5421 96.2332 86.5603 96.9346C86.5784 97.636 86.5603 98.2043 86.5603 98.5973C86.5749 98.7999 86.5607 99.0034 86.518 99.202C86.4053 98.4512 86.3427 97.6937 86.3305 96.9346C86.2882 96.209 86.2338 95.3807 86.1794 94.4798C86.1794 94.0142 86.1129 93.5305 86.0584 93.0347C86.0584 92.9138 86.0282 92.7868 86.004 92.6719V92.5813V92.5329C86.004 92.5329 85.9315 92.4543 85.9012 92.3999L85.3994 91.7952C84.045 90.1385 82.8297 88.6209 81.9651 87.5205C81.5298 86.9642 81.1851 86.5168 80.9493 86.1964C80.8119 86.0422 80.6941 85.8716 80.5986 85.6885Z" fill="white"/>
<path d="M90.2427 121.954C89.9977 122.035 89.7441 122.088 89.4869 122.111C88.9911 122.195 88.2776 122.292 87.4009 122.401C85.6354 122.625 83.1685 122.861 80.4779 123.006C77.7873 123.151 75.3083 123.151 73.5307 123.115C72.6479 123.115 71.9284 123.066 71.4326 123.036C71.1727 123.034 70.9136 123.008 70.6587 122.957C70.9142 122.914 71.1737 122.897 71.4326 122.909H73.5367C75.3083 122.909 77.7691 122.842 80.4658 122.709C83.1624 122.576 85.6112 122.371 87.3767 122.208L89.4687 122.014C89.7243 121.97 89.9834 121.95 90.2427 121.954Z" fill="white"/>
<path d="M104.301 98.5954C104.301 98.5954 104.162 98.7223 103.884 98.8916C103.492 99.1355 103.089 99.3594 102.674 99.5628C101.302 100.232 99.8736 100.78 98.4057 101.201C96.943 101.634 95.452 101.966 93.9436 102.193C93.3224 102.317 92.6904 102.377 92.0571 102.374C92.6626 102.202 93.2786 102.068 93.9012 101.975C95.044 101.745 96.616 101.371 98.3151 100.905C99.7681 100.479 101.194 99.9639 102.584 99.3633C103.606 98.8916 104.246 98.553 104.301 98.5954Z" fill="white"/>
<path d="M92.6939 110.953C95.4612 108.186 95.4612 103.699 92.6939 100.932C89.9265 98.1643 85.4397 98.1643 82.6724 100.932C79.905 103.699 79.905 108.186 82.6724 110.953C85.4397 113.72 89.9265 113.72 92.6939 110.953Z" fill="#312F5F"/>
<path d="M89.5755 110.754C92.2284 109.708 93.531 106.709 92.4849 104.056C91.4389 101.403 88.4402 100.101 85.7872 101.147C83.1343 102.193 81.8317 105.192 82.8778 107.845C83.9239 110.498 86.9225 111.8 89.5755 110.754Z" fill="white"/>
<path d="M90.4297 107.055C90.3741 106.778 90.3377 106.497 90.3209 106.215C90.2725 105.683 90.206 104.921 90.1335 103.996L90.2 104.092L87.4368 102.744H87.5879L85.0243 104.443C84.9578 104.57 85.109 104.274 85.0908 104.304V104.491V104.691V105.09C85.0908 105.356 85.1211 105.616 85.1332 105.87C85.1634 106.384 85.1876 106.88 85.2178 107.357L85.1332 107.237L87.8661 108.645H87.7512C88.5372 108.143 89.1842 107.744 89.6377 107.466C89.8771 107.313 90.1254 107.173 90.3814 107.049C90.1892 107.238 89.9762 107.404 89.7465 107.545C89.3172 107.853 88.6823 108.295 87.8782 108.839L87.8238 108.875H87.7633L85.0001 107.527L84.9276 107.49V107.4C84.8974 106.922 84.8611 106.426 84.8308 105.912C84.8308 105.658 84.8006 105.398 84.7825 105.132V104.733V104.534V104.304C84.7825 104.334 84.9215 104.038 84.855 104.159L87.4308 102.478L87.5033 102.43L87.5759 102.472L90.3088 103.881L90.3753 103.911V103.978C90.4176 104.939 90.4418 105.719 90.4539 106.251C90.4748 106.519 90.4666 106.789 90.4297 107.055Z" fill="#0DC78B"/>
<g opacity="0.2">
<path opacity="0.2" d="M60.573 91.8903C60.573 91.8903 81.33 80.5535 103.302 86.9202C103.302 86.9202 93.9002 95.8385 60.573 91.8903Z" fill="black"/>
</g>
<path d="M85.0068 153.726C85.3877 168.491 86.8933 183.262 90.6541 197.544C91.295 199.999 92.0568 202.544 93.8163 204.37C95.5757 206.196 98.6533 207.012 100.685 205.501C102.432 204.213 102.825 201.806 103.067 199.648C104.946 183.832 105.989 167.929 106.193 152.003C106.193 152.003 106.659 139.832 98.0729 139.838C89.4871 139.844 84.777 144.681 85.0068 153.726Z" fill="#0DC78B"/>
<g opacity="0.2">
<path opacity="0.2" d="M90.9989 141.187C92.0752 139.887 94.2397 139.977 95.5518 141.035C96.8638 142.094 97.4382 143.823 97.6317 145.498C98.2363 150.794 95.6364 155.873 94.7114 161.121C93.8226 166.176 94.4997 171.364 94.2579 176.485C94.016 181.606 92.8854 186.842 88.8767 190.035C88.8767 190.035 84.9949 170.293 85.5391 162.754C85.9442 157.233 90.9989 141.187 90.9989 141.187Z" fill="black"/>
</g>
<path d="M92.1467 161.078C92.1859 161.229 92.2102 161.382 92.2193 161.538L92.3644 162.862C92.4854 164.041 92.6546 165.691 92.8602 167.699C93.2895 171.804 93.9123 177.47 94.7164 183.709C95.5206 189.949 96.3489 195.59 96.9778 199.666C97.2922 201.679 97.5461 203.324 97.7275 204.503C97.8061 205.047 97.8726 205.482 97.921 205.815C97.9517 205.966 97.9679 206.12 97.9693 206.274C97.9174 206.129 97.8809 205.979 97.8605 205.827C97.792 205.5 97.7073 205.065 97.6066 204.521C97.3889 203.384 97.0987 201.746 96.7601 199.684C96.0768 195.615 95.2062 189.979 94.402 183.734C93.5979 177.488 93.0114 171.816 92.6425 167.705C92.4551 165.649 92.3221 163.986 92.2435 162.832C92.2072 162.279 92.177 161.838 92.1528 161.507C92.1396 161.365 92.1376 161.221 92.1467 161.078Z" fill="white"/>
<path d="M79.5106 164.404C83.5193 166.363 89.2391 164.773 92.0143 160.722C94.7896 156.671 95.6421 151.652 96.4584 146.815C96.7244 145.189 96.9421 143.345 95.9323 142.045C94.7714 140.557 92.5887 140.485 90.7083 140.545L72.781 141.15C72.781 141.15 66.2571 143.018 66.2571 146.954C66.2571 150.891 74.0266 161.744 79.5106 164.404Z" fill="#312F5F"/>
<path d="M87.6488 141.103C87.7902 141.405 87.9075 141.719 87.9995 142.04C88.132 142.41 88.243 142.787 88.332 143.17C88.4743 143.672 88.5913 144.181 88.6827 144.694C88.8134 145.311 88.9123 145.935 88.979 146.562C89.0757 147.24 89.1059 147.965 89.1543 148.733C89.2044 150.395 89.1093 152.058 88.8701 153.703C88.6131 155.348 88.2083 156.967 87.6609 158.54C87.3767 159.254 87.1288 159.937 86.8144 160.547C86.6632 160.85 86.5302 161.152 86.379 161.43L85.9316 162.222C85.6741 162.676 85.3935 163.116 85.0912 163.54C84.8793 163.872 84.645 164.19 84.3898 164.49C84.1959 164.761 83.9773 165.014 83.7368 165.245C83.8986 164.954 84.0847 164.677 84.2931 164.417C84.5291 164.102 84.7491 163.775 84.9521 163.438C85.194 163.051 85.4842 162.621 85.7442 162.107C85.8832 161.853 86.0223 161.587 86.1735 161.315C86.3246 161.043 86.4395 160.711 86.5846 160.427C86.8809 159.822 87.1167 159.139 87.3948 158.437C87.934 156.881 88.3385 155.281 88.6041 153.655C88.8418 152.027 88.9449 150.383 88.9124 148.739C88.8762 147.983 88.858 147.264 88.7673 146.593C88.6766 145.921 88.6101 145.299 88.5134 144.736C88.4167 144.174 88.3078 143.66 88.2111 143.213C88.1143 142.765 88.0236 142.384 87.9329 142.076C87.8146 141.759 87.7197 141.434 87.6488 141.103Z" fill="#455A64"/>
<path d="M94.2691 163.099C94.3058 163.074 94.3484 163.06 94.3926 163.056C94.4367 163.053 94.481 163.061 94.5209 163.081C94.5609 163.1 94.5951 163.129 94.6202 163.166C94.6453 163.202 94.6604 163.245 94.664 163.289C94.6677 163.333 94.6597 163.377 94.6409 163.417C94.6221 163.457 94.5931 163.492 94.5568 163.517C94.5206 163.543 94.4783 163.558 94.4342 163.562C94.39 163.566 94.3456 163.559 94.3054 163.54C94.2682 163.52 94.2363 163.491 94.2124 163.457C94.1885 163.422 94.1732 163.382 94.1679 163.34C94.1626 163.298 94.1673 163.255 94.1818 163.215C94.1962 163.176 94.22 163.14 94.251 163.111" fill="white"/>
<path d="M21.0487 86.0955C21.0487 86.0955 19.5915 80.1278 18.8116 79.8436C18.0316 79.5595 8.67796 80.9017 8.67796 80.9017C8.67796 80.9017 5.65482 76.6693 5.17111 76.101C4.68741 75.5326 3.68977 76.9414 4.01627 77.5823C4.34277 78.2232 6.57385 84.4086 7.95846 84.6202C9.58439 84.7157 11.2151 84.6934 12.8378 84.5537L13.9745 88.4475L21.0487 86.0955Z" fill="#0DC78B"/>
<path d="M61.4797 109.194C55.5785 111.347 51.8056 112.435 45.8984 114.636C42.6213 115.845 38.4494 117.2 35.3597 117.992C33.2979 118.524 30.9338 118.687 28.9385 117.817C27.2395 117.079 25.994 115.598 24.8754 114.116C19.6333 107.187 16.7129 98.3958 14.6753 89.931L21.7676 88.5947L34.5979 106.54L57.9184 98.5651L61.7639 108.046C61.8453 108.131 61.9039 108.236 61.9342 108.35C61.9644 108.464 61.9655 108.584 61.9371 108.698C61.9088 108.813 61.852 108.918 61.7721 109.005C61.6921 109.092 61.5916 109.157 61.4797 109.194Z" fill="#0DC78B"/>
<path d="M61.7217 94.2109C60.2892 94.6496 59.0024 95.4685 57.9985 96.5806C56.9945 97.6927 56.3109 99.0562 56.0206 100.526C55.7302 101.996 55.8439 103.517 56.3496 104.927C56.8552 106.337 57.7339 107.584 58.8921 108.535C59.8595 109.327 61.2199 109.937 62.3506 108.728C62.7013 108.34 62.9542 107.873 63.0882 107.368C64.3459 102.97 63.8564 98.2564 61.7217 94.2109Z" fill="#312F5F"/>
<path d="M58.1426 96.4791C58.1426 96.4791 58.1426 96.4247 58.2272 96.34C58.323 96.2186 58.4349 96.1108 58.5598 96.0196C58.6611 95.9513 58.7771 95.9078 58.8984 95.8926C59.0398 95.8915 59.18 95.9204 59.3095 95.9773C59.463 96.0391 59.5967 96.1415 59.6965 96.2735L59.9988 96.6726C61.1095 98.1553 61.874 99.868 62.2359 101.685C62.6182 103.501 62.5664 105.382 62.0848 107.175C61.9291 107.726 61.6284 108.225 61.2141 108.62C61.0666 108.769 60.8802 108.874 60.676 108.922C60.676 108.922 60.8634 108.801 61.1295 108.529C61.4889 108.125 61.7442 107.64 61.8731 107.115C62.2767 105.352 62.2953 103.522 61.9276 101.751C61.5712 99.9755 60.8529 98.2919 59.8174 96.8056C59.6118 96.5154 59.4728 96.201 59.2128 96.1345C59.1209 96.0814 59.0166 96.0535 58.9105 96.0535C58.8043 96.0535 58.7001 96.0814 58.6081 96.1345C58.3058 96.3219 58.1607 96.5033 58.1426 96.4791Z" fill="#455A64"/>
<path d="M34.5993 106.57C34.6635 106.736 34.6983 106.912 34.7021 107.09C34.77 107.569 34.7922 108.053 34.7686 108.535C34.7419 109.255 34.6323 109.969 34.4421 110.664C33.7847 113.079 32.2831 115.18 30.2097 116.583C29.8141 116.861 29.3977 117.107 28.9641 117.321C28.8115 117.411 28.6465 117.478 28.4744 117.52C28.4744 117.466 29.1213 117.127 30.0766 116.402C31.3232 115.462 32.3713 114.284 33.1602 112.937C33.5844 112.194 33.9212 111.405 34.1639 110.585C34.3577 109.912 34.4853 109.221 34.5449 108.523C34.6356 107.326 34.5388 106.576 34.5993 106.57Z" fill="white"/>
<path d="M56.8062 100.78C56.8364 100.858 51.8905 102.793 45.7596 105.097C39.6286 107.4 34.6344 109.208 34.6041 109.123C34.5739 109.039 39.5137 107.11 45.6507 104.806C51.7877 102.503 56.7759 100.677 56.8062 100.78Z" fill="white"/>
<path d="M16.9855 89.792C17.0387 89.8785 17.0794 89.9722 17.1064 90.0701L17.4087 90.8924C17.6626 91.5998 18.0133 92.6277 18.5273 93.9156C19.4947 96.4369 20.9458 99.8772 22.7899 103.59C23.715 105.404 24.6522 107.157 25.541 108.705C26.4298 110.253 27.2823 111.619 28.0321 112.738C28.4009 113.306 28.7455 113.808 29.0539 114.249C29.3623 114.691 29.6222 115.072 29.852 115.368L30.3599 116.081C30.4687 116.245 30.5292 116.335 30.5171 116.341C30.4404 116.275 30.3715 116.2 30.3115 116.118L29.7553 115.446C29.5134 115.156 29.2292 114.787 28.9148 114.352C28.6004 113.917 28.2255 113.427 27.8507 112.865C27.0707 111.758 26.2121 110.386 25.287 108.856C24.362 107.326 23.4369 105.579 22.5057 103.735C20.9284 100.579 19.5295 97.3371 18.3157 94.0244C17.8501 92.7486 17.5115 91.7087 17.2938 91.0013C17.1971 90.6687 17.1124 90.3966 17.0459 90.1669C17.0041 90.0464 16.9836 89.9195 16.9855 89.792Z" fill="white"/>
<path d="M39.1877 108.755C39.2226 108.731 39.2512 108.699 39.2709 108.662C39.2907 108.625 39.301 108.583 39.301 108.541C39.301 108.498 39.2907 108.457 39.2709 108.419C39.2512 108.382 39.2226 108.35 39.1877 108.326C39.1491 108.304 39.1054 108.293 39.061 108.293C39.0166 108.293 38.973 108.305 38.9346 108.327C38.8962 108.35 38.8643 108.382 38.8422 108.42C38.82 108.459 38.8083 108.502 38.8083 108.547C38.8083 108.591 38.82 108.635 38.8422 108.673C38.8643 108.712 38.8962 108.744 38.9346 108.766C38.973 108.789 39.0166 108.8 39.061 108.801C39.1054 108.801 39.1491 108.789 39.1877 108.767" fill="white"/>
<path d="M29.3256 111.674C29.3637 111.652 29.3955 111.62 29.4177 111.582C29.44 111.544 29.4519 111.5 29.4523 111.456C29.4527 111.412 29.4416 111.369 29.42 111.33C29.3985 111.292 29.3673 111.259 29.3295 111.237C29.2918 111.214 29.2487 111.201 29.2046 111.2C29.1605 111.199 29.1168 111.21 29.078 111.231C29.0392 111.252 29.0065 111.282 28.9831 111.32C28.9597 111.357 28.9466 111.4 28.9448 111.444C28.9449 111.489 28.9565 111.533 28.9785 111.572C29.0005 111.611 29.0322 111.643 29.0705 111.666C29.1088 111.689 29.1523 111.702 29.197 111.703C29.2417 111.705 29.286 111.695 29.3256 111.674Z" fill="white"/>
<path d="M24.8214 104.661C24.8593 104.639 24.8909 104.607 24.913 104.57C24.9352 104.532 24.9472 104.489 24.9478 104.445C24.9484 104.401 24.9377 104.358 24.9166 104.319C24.8955 104.281 24.8649 104.249 24.8276 104.226C24.7903 104.202 24.7477 104.189 24.7039 104.188C24.6601 104.186 24.6166 104.196 24.5776 104.216C24.5386 104.236 24.5055 104.266 24.4815 104.302C24.4575 104.339 24.4435 104.381 24.4407 104.425C24.4414 104.47 24.4533 104.513 24.4753 104.552C24.4973 104.591 24.5287 104.624 24.5666 104.647C24.6045 104.671 24.6477 104.684 24.6922 104.687C24.7368 104.689 24.7812 104.68 24.8214 104.661Z" fill="white"/>
<path d="M44.9799 106.723C45.018 106.7 45.0498 106.669 45.072 106.631C45.0943 106.593 45.1062 106.549 45.1066 106.505C45.107 106.461 45.0959 106.418 45.0743 106.379C45.0528 106.341 45.0216 106.308 44.9838 106.285C44.9461 106.263 44.903 106.25 44.8589 106.249C44.8148 106.248 44.7711 106.258 44.7323 106.279C44.6935 106.3 44.6608 106.331 44.6374 106.368C44.614 106.406 44.6008 106.449 44.5991 106.493C44.6008 106.537 44.6134 106.58 44.6358 106.618C44.6582 106.656 44.6897 106.688 44.7275 106.71C44.7653 106.733 44.8081 106.746 44.8522 106.748C44.8962 106.751 44.9401 106.742 44.9799 106.723Z" fill="white"/>
<path d="M51.5161 104.473C51.5535 104.453 51.5951 104.443 51.6374 104.442C51.6796 104.442 51.7214 104.452 51.7592 104.47C51.797 104.489 51.8298 104.517 51.8548 104.551C51.8798 104.585 51.8963 104.625 51.9029 104.667C51.9019 104.708 51.8912 104.749 51.8718 104.787C51.8523 104.824 51.8245 104.856 51.7905 104.88C51.7566 104.905 51.7175 104.921 51.6762 104.928C51.6349 104.935 51.5925 104.932 51.5524 104.92C51.5148 104.901 51.4823 104.873 51.4578 104.838C51.4333 104.803 51.4174 104.763 51.4115 104.721C51.4056 104.679 51.4098 104.637 51.4238 104.597C51.4378 104.557 51.4612 104.52 51.492 104.491" fill="white"/>
<path d="M14.5194 90.0037C16.9426 89.8299 19.3507 89.4885 21.7266 88.9819C22.6759 88.7884 23.7763 88.4437 24.0726 87.5187C24.1598 87.1801 24.1492 86.8238 24.0422 86.491C23.9352 86.1582 23.7361 85.8626 23.468 85.6383C22.9094 85.2095 22.2527 84.9269 21.5573 84.816C19.4349 84.3765 17.2313 84.5484 15.2027 85.3118C14.4702 85.5504 13.8078 85.9657 13.2739 86.521C13.0094 86.8021 12.8238 87.1481 12.7357 87.5239C12.6476 87.8996 12.6601 88.292 12.7721 88.6614C12.8847 89.0454 13.1176 89.383 13.4365 89.6246C13.7555 89.8663 14.1435 89.9991 14.5436 90.0037" fill="#312F5F"/>
<path d="M23.7573 86.6009C23.7573 86.6493 23.1527 86.3409 22.1066 86.0628C20.7718 85.7076 19.375 85.6519 18.0162 85.8997C16.6574 86.1474 15.3701 86.6924 14.2465 87.4958C13.3818 88.1004 12.9344 88.6143 12.8921 88.572C12.963 88.4289 13.0592 88.2998 13.1763 88.1911C13.4641 87.8737 13.7775 87.5804 14.1134 87.3144C15.2382 86.4298 16.5625 85.8339 17.9705 85.5789C19.3786 85.3238 20.8277 85.4173 22.1913 85.8512C22.6082 85.9781 23.0129 86.142 23.4006 86.3409C23.5323 86.4084 23.6527 86.4961 23.7573 86.6009Z" fill="#455A64"/>
<path d="M62.8703 153.882C63.2452 168.647 64.7568 183.424 68.5115 197.705C69.1585 200.16 69.9203 202.699 71.6798 204.525C73.4393 206.351 76.5168 207.168 78.5484 205.662C80.2897 204.368 80.6888 201.968 80.9246 199.809C82.805 183.992 83.8505 168.086 84.0566 152.158C84.0566 152.158 84.5161 139.987 75.9364 139.993C67.3567 139.999 62.6406 144.848 62.8703 153.882Z" fill="#0DC78B"/>
<g opacity="0.3">
<path opacity="0.3" d="M70.0478 199.836C69.8362 199.866 69.1469 196.752 68.2339 191.679C67.3209 186.607 66.1298 179.587 65.2107 171.763C64.7452 167.851 64.4066 164.108 64.1284 160.716C63.8503 157.324 63.6266 154.198 63.9652 151.568C64.1494 149.469 64.8268 147.443 65.9423 145.655L66.547 144.875C66.7022 144.69 66.8699 144.517 67.0488 144.355C67.3269 144.089 67.4962 143.974 67.5325 144.01C67.5688 144.047 67.4902 144.234 67.2907 144.555C67.2 144.724 67.0609 144.905 66.9279 145.159C66.7949 145.413 66.6497 145.679 66.4804 145.982C65.6395 147.772 65.1646 149.713 65.0838 151.689C64.9024 154.198 65.2047 157.216 65.5856 160.595C65.9665 163.975 66.3232 167.7 66.7949 171.594C67.7079 179.381 68.7055 186.419 69.3524 191.546C69.9994 196.674 70.2654 199.8 70.0478 199.836Z" fill="white"/>
</g>
<path d="M74.7642 206.305C74.7399 206.25 74.7216 206.194 74.7098 206.135L74.5828 205.639L74.1293 203.717C73.7545 202.048 73.2526 199.617 72.6964 196.606C71.608 190.56 70.4713 182.186 69.6732 172.875C69.2621 168.219 68.9356 163.775 68.6514 159.736C68.5063 157.723 68.3733 155.8 68.2463 154.004C68.0976 152.336 68.0512 150.66 68.1072 148.986C68.1602 147.598 68.4232 146.226 68.8872 144.916C69.2378 143.927 69.7485 143.002 70.3988 142.177C70.8117 141.659 71.2939 141.199 71.8317 140.811C72.0234 140.674 72.2256 140.553 72.4364 140.448C71.7088 140.954 71.0608 141.565 70.5136 142.262C69.8891 143.086 69.4012 144.004 69.0686 144.983C68.6321 146.281 68.3897 147.635 68.3491 149.004C68.3064 150.669 68.365 152.334 68.5244 153.992C68.6635 155.806 68.8025 157.704 68.9537 159.724C69.2621 163.757 69.5946 168.189 70.0058 172.85C70.8099 182.156 71.9103 190.542 72.9443 196.576C73.4642 199.599 73.9359 202.018 74.2744 203.699C74.4437 204.521 74.5768 205.168 74.6675 205.627C74.7098 205.839 74.74 206.002 74.7642 206.135C74.7695 206.192 74.7695 206.248 74.7642 206.305Z" fill="white"/>
<path d="M70.3318 155.031C70.3686 155.006 70.4111 154.991 70.4553 154.988C70.4995 154.985 70.5437 154.993 70.5837 155.012C70.6236 155.031 70.6578 155.061 70.6829 155.097C70.708 155.134 70.7232 155.176 70.7268 155.22C70.7304 155.264 70.7224 155.309 70.7036 155.349C70.6848 155.389 70.6558 155.423 70.6196 155.449C70.5833 155.474 70.541 155.49 70.4969 155.494C70.4528 155.498 70.4084 155.49 70.3681 155.472C70.3298 155.451 70.2973 155.42 70.2735 155.384C70.2498 155.347 70.2354 155.305 70.2319 155.261C70.2283 155.217 70.2355 155.173 70.253 155.133C70.2704 155.093 70.2975 155.058 70.3318 155.031Z" fill="white"/>
<path d="M87.8545 63.709C88.0116 64.1426 88.0116 64.6176 87.8545 65.0513C87.7189 65.5341 87.4702 65.9776 87.129 66.3452C86.832 66.6645 86.4712 66.9179 86.07 67.0889C85.6688 67.2599 85.2362 67.3447 84.8001 67.3379C84.3641 67.331 83.9343 67.2327 83.5387 67.0492C83.1431 66.8657 82.7904 66.6011 82.5036 66.2726C82.1682 65.9516 81.9546 65.5242 81.8989 65.0634C82.1156 65.4396 82.3709 65.7922 82.6608 66.1154C82.9856 66.4433 83.3804 66.6934 83.8156 66.847C84.3466 67.0312 84.9191 67.0606 85.4662 66.9317C86.0137 66.8112 86.5152 66.5363 86.9113 66.1396C87.2334 65.8089 87.4808 65.4131 87.6369 64.9787C87.7533 64.5642 87.8262 64.1386 87.8545 63.709Z" fill="white"/>
</g>
</svg>
