<svg width="112" height="112" viewBox="0 0 112 112" fill="none" xmlns="http://www.w3.org/2000/svg">
<mask id="mask0" mask-type="alpha" maskUnits="userSpaceOnUse" x="0" y="0" width="112" height="112">
<circle cx="56" cy="56" r="56" fill="#F5F6FF"/>
</mask>
<g mask="url(#mask0)">
<path d="M81.6034 37.4795C82.2509 38.4687 82.6566 39.5963 82.7876 40.7713C82.9187 41.9462 82.7716 43.1356 82.3581 44.2431C81.8923 45.4729 81.0817 46.8424 81.7153 47.9696C82.3488 49.0969 83.9884 49.1807 85.2648 49.6186C86.3609 50.0337 87.2761 50.8212 87.8501 51.8431C88.424 52.865 88.6203 54.0563 88.4043 55.2084C88.1073 55.9929 87.9741 56.8299 88.0131 57.6679C88.3178 58.4882 88.824 59.2186 89.485 59.792C90.1863 60.6265 90.6561 61.6306 90.8474 62.7038C91.0387 63.7769 90.9447 64.8815 90.5749 65.9069C90.2051 66.9323 89.5724 67.8427 88.7403 68.5467C87.9081 69.2508 86.9056 69.7239 85.833 69.9188C84.8474 69.9564 83.8774 70.1775 82.9729 70.5709C82.0413 71.1672 81.5848 72.3224 80.9141 73.226C80.2567 74.0983 79.3426 74.7427 78.3002 75.0687C77.2578 75.3947 76.1394 75.3859 75.1022 75.0436C74.065 74.7013 73.1611 74.0427 72.5175 73.1603C71.8739 72.2778 71.5229 71.2159 71.5139 70.1237" fill="#263238"/>
<path d="M65.3277 30.3807C67.6288 28.9181 68.1785 25.5456 66.9394 23.1233C66.2496 21.9481 65.2982 20.9476 64.1592 20.1995C63.0201 19.4515 61.724 18.976 60.3714 18.8099C58.4207 18.5125 56.4272 18.6807 54.5539 19.3009C52.6806 19.921 50.9805 20.9754 49.5925 22.378C48.1112 23.9059 46.9187 25.8996 44.9344 26.5983C43.1736 27.2039 41.2078 26.6542 39.3446 26.8964C38.1084 27.117 36.9375 27.6124 35.9184 28.3461C34.8994 29.0798 34.0581 30.033 33.4567 31.1353C32.2711 33.3532 31.5574 35.7924 31.3605 38.2996C31.0904 40.582 30.9134 43.0881 29.3296 44.7557C27.7458 46.4233 25.3515 46.7215 23.4231 47.8767C21.6603 49.0388 20.4226 50.845 19.975 52.9084C19.5275 54.9718 19.9058 57.1285 21.0288 58.9165C21.7834 60.0251 22.892 61.0499 22.9666 62.3914C23.0411 63.733 22.2585 64.7019 21.8859 65.8757C21.6917 66.6302 21.6616 67.4174 21.7974 68.1845C21.9333 68.9515 22.232 69.6806 22.6734 70.3224C23.1149 70.9643 23.6888 71.504 24.3565 71.9053C25.0241 72.3066 25.7701 72.5601 26.544 72.6487C28.1371 72.7418 29.842 72.1177 31.2674 72.835C32.6928 73.5524 33.2145 75.2479 34.1275 76.5615C35.0582 77.8186 36.3927 78.7175 37.9074 79.1076C39.422 79.4977 41.0248 79.3553 42.4469 78.7043C43.6115 78.136 44.7201 77.1857 46.0244 77.2695C47.3286 77.3534 48.3441 78.4714 49.6298 78.7136C51.2974 79.0396 52.8905 77.782 53.8873 76.4218C54.8841 75.0616 55.5736 73.4033 56.8499 72.276C58.5175 70.7947 60.8652 70.4128 62.9707 69.6954C65.3129 68.8907 67.4548 67.5916 69.2509 65.8864C71.047 64.1812 72.4553 62.1096 73.3805 59.8122C74.3056 57.5149 74.7259 55.0454 74.6127 52.5713C74.4996 50.0973 73.8558 47.6764 72.7248 45.4731" fill="#263238"/>
<path d="M70.1915 34.023C71.1449 34.1256 72.0249 34.5831 72.6565 35.3045C73.2882 36.0259 73.6255 36.9586 73.6013 37.9172L71.3188 89.576C71.2256 95.6781 62.3099 99.1065 55.7792 98.9575C49.174 98.7991 48.969 95.5663 48.8852 89.7623C48.7454 80.064 48.7547 76.4214 48.7547 76.4773C48.7547 76.5332 40.4167 75.0798 38.7118 64.1984C37.8733 58.7857 38.1621 49.9166 38.6373 42.6685C39.0565 36.1471 43.3979 28.1444 49.9006 28.8525L70.1915 34.023Z" fill="#B78876"/>
<path d="M41.0679 50.215C41.0651 50.5787 41.2033 50.9293 41.4534 51.1934C41.7035 51.4574 42.0462 51.6143 42.4095 51.6311C42.5872 51.645 42.7659 51.6234 42.9352 51.5675C43.1045 51.5115 43.261 51.4224 43.3954 51.3053C43.5299 51.1882 43.6396 51.0455 43.7183 50.8855C43.7969 50.7255 43.8429 50.5514 43.8535 50.3734C43.8586 50.01 43.7209 49.659 43.4701 49.396C43.2192 49.133 42.8752 48.9788 42.5119 48.9667C42.3344 48.9501 42.1554 48.9696 41.9856 49.0239C41.8158 49.0783 41.6587 49.1665 41.5238 49.2831C41.389 49.3997 41.2791 49.5423 41.2007 49.7025C41.1223 49.8626 41.0772 50.037 41.0679 50.215Z" fill="#263238"/>
<path d="M40.5463 47.29C40.7139 47.467 41.776 46.6844 43.2759 46.6937C44.7758 46.703 45.8752 47.4577 46.0708 47.2713C46.2664 47.085 45.9776 46.8614 45.4932 46.5167C44.8473 46.062 44.0752 45.8209 43.2852 45.8273C42.5024 45.8199 41.7379 46.0649 41.1052 46.526C40.6208 46.9173 40.4624 47.2061 40.5463 47.29Z" fill="#263238"/>
<path d="M55.7411 50.215C55.736 50.5794 55.8733 50.9313 56.1239 51.1959C56.3745 51.4604 56.7186 51.6166 57.0827 51.6311C57.2597 51.6437 57.4374 51.6212 57.6056 51.5646C57.7738 51.5081 57.9291 51.4188 58.0626 51.3018C58.196 51.1848 58.3049 51.0425 58.383 50.8832C58.461 50.7238 58.5067 50.5505 58.5174 50.3734C58.5249 50.0108 58.3893 49.6599 58.14 49.3966C57.8906 49.1333 57.5476 48.9788 57.1851 48.9667C57.0076 48.9501 56.8286 48.9696 56.6588 49.0239C56.489 49.0783 56.3319 49.1665 56.197 49.2831C56.0622 49.3997 55.9522 49.5423 55.8739 49.7025C55.7955 49.8626 55.7504 50.037 55.7411 50.215Z" fill="#263238"/>
<path d="M55.3035 47.5974C55.4712 47.7838 56.5333 47.0012 58.0332 47.0105C59.5331 47.0198 60.6324 47.7651 60.8281 47.5881C61.0237 47.4111 60.7349 47.1782 60.2598 46.8242C59.6111 46.375 58.8408 46.1345 58.0518 46.1348C57.2699 46.1332 56.5072 46.3776 55.8718 46.8335C55.3781 47.1875 55.2197 47.5136 55.3035 47.5974Z" fill="#263238"/>
<path d="M49.8263 58.7207C49.0379 58.4697 48.2208 58.3195 47.3947 58.2735C47.0127 58.2735 46.6494 58.1524 46.5842 57.8916C46.5484 57.4958 46.6363 57.0987 46.8357 56.755L47.9816 53.839C49.5654 49.6932 50.7113 46.2742 50.5436 46.209C50.3759 46.1437 48.9505 49.4696 47.3761 53.6154C46.9941 54.6402 46.6308 55.6184 46.2768 56.55C46.0393 57.0154 45.9702 57.5487 46.0811 58.0592C46.1343 58.1947 46.2184 58.3158 46.3268 58.4129C46.4352 58.5099 46.5649 58.5803 46.7053 58.6182C46.9178 58.6773 47.137 58.7086 47.3575 58.7114C48.1768 58.8173 49.0061 58.8204 49.8263 58.7207Z" fill="#263238"/>
<path d="M48.7546 76.4775C53.8743 76.5707 58.9191 75.2386 63.3253 72.6299C63.3253 72.6299 59.5988 80.2972 48.7546 79.2537V76.4775Z" fill="#AA6550"/>
<path d="M50.4596 62.3352C50.7457 61.9773 51.1181 61.698 51.5418 61.5236C51.9655 61.3492 52.4267 61.2855 52.8818 61.3384C53.2145 61.3692 53.5374 61.4678 53.8305 61.628C54.1237 61.7882 54.381 62.0067 54.5867 62.27C54.7862 62.5208 54.904 62.8269 54.924 63.1468C54.944 63.4667 54.8653 63.785 54.6985 64.0587C54.4577 64.328 54.1417 64.519 53.7913 64.6071C53.441 64.6951 53.0722 64.6761 52.7328 64.5525C52.0224 64.2992 51.3699 63.9064 50.8136 63.3973C50.6435 63.277 50.498 63.1251 50.3851 62.9501C50.3286 62.8678 50.2983 62.7704 50.2983 62.6706C50.2983 62.5708 50.3286 62.4733 50.3851 62.3911" fill="#AA6550"/>
<path d="M54.2414 59.7638C53.9991 59.7638 53.9898 61.3849 52.5924 62.5587C51.1949 63.7326 49.4621 63.4903 49.4528 63.7605C49.4435 64.0307 49.8348 64.0773 50.5707 64.0959C51.5292 64.1066 52.4603 63.7764 53.1979 63.1643C53.9059 62.5839 54.363 61.7531 54.4743 60.8445C54.5395 60.1644 54.3532 59.7545 54.2414 59.7638Z" fill="#263238"/>
<path d="M54.6323 44.9697C54.7814 45.3796 56.272 45.1839 58.0327 45.4075C59.7935 45.6311 61.2189 46.1062 61.4518 45.7336C61.5636 45.5659 61.3121 45.1746 60.7438 44.802C59.9772 44.3152 59.1099 44.0094 58.2076 43.9077C57.3053 43.8061 56.3917 43.9111 55.536 44.2151C54.8652 44.4573 54.5671 44.774 54.6323 44.9697Z" fill="#263238"/>
<path d="M41.1053 44.5503C41.3661 44.895 42.4096 44.5503 43.6486 44.5503C44.8877 44.5503 45.9404 44.7832 46.192 44.4291C46.2944 44.2615 46.1268 43.9167 45.6703 43.5907C45.0511 43.2097 44.3339 43.0182 43.6072 43.0397C42.8805 43.0612 42.176 43.2948 41.5804 43.7118C41.1332 44.0285 40.9935 44.3826 41.1053 44.5503Z" fill="#263238"/>
<path d="M64.1825 28.0325C64.1848 29.1246 63.9471 30.2039 63.4862 31.194C63.0252 32.1841 62.3523 33.0608 61.5151 33.762C60.6779 34.4633 59.6967 34.9719 58.6412 35.2521C57.5856 35.5322 56.4813 35.5769 55.4066 35.3831C53.7389 35.0756 51.9223 34.2372 50.4782 35.1222C49.0342 36.0072 48.9038 38.3363 47.5623 39.5008C45.6431 41.1685 42.5967 39.6033 40.1651 40.33C38.3019 40.8797 37.1094 42.6777 35.861 44.1963C34.6126 45.7148 32.74 47.1402 30.8582 46.5812C30.9166 44.8871 31.1698 43.2053 31.6128 41.5691C32.0509 39.927 33.037 38.484 34.4077 37.4792C35.2347 37.0593 36.0372 36.5927 36.8113 36.0818C38.3764 34.8241 38.7397 32.6254 39.6993 30.874C40.3325 29.7417 41.2265 28.7766 42.3071 28.0589C43.3878 27.3411 44.624 26.8914 45.9133 26.7469C48.056 26.5326 50.2546 27.1754 52.3415 26.6444C53.888 26.2624 55.2296 25.2563 56.7947 24.9581C59.8318 24.3805 62.6639 26.5699 64.8719 28.7406" fill="#263238"/>
<path d="M69.9489 51.576C70.1917 51.6928 70.3886 51.8871 70.5085 52.1283C70.6284 52.3695 70.6645 52.6438 70.6111 52.9078C70.5576 53.1718 70.4177 53.4104 70.2134 53.586C70.0091 53.7615 69.7522 53.864 69.4831 53.8771C65.8311 54.7063 65.3467 47.57 66.1665 45.4925C64.7857 44.3663 63.5524 43.0704 62.4959 41.6355C61.3261 39.3522 60.7464 36.8125 60.8097 34.2477C59.4961 34.3223 53.8877 32.4683 54.4839 32.3006C55.8441 31.9093 58.639 31.0243 59.375 29.8411C60.1133 28.5737 61.1712 27.522 62.443 26.7913C63.7149 26.0606 65.1562 25.6762 66.623 25.6768C68.1046 25.7935 69.5086 26.3865 70.6252 27.3671C71.7419 28.3478 72.5112 29.6634 72.8184 31.1175C74.5953 31.1814 76.3222 31.723 77.8173 32.6854C79.3125 33.6477 80.5207 34.9952 81.3148 36.5861C82.1304 38.2564 82.5285 40.0996 82.475 41.9576C82.4214 43.8155 81.9178 45.6328 81.0074 47.2532C80.4169 48.0184 80.0349 48.9236 79.8987 49.8804C79.8987 51.0916 80.7745 52.0511 81.408 53.048C83.1315 55.7776 83.001 59.5694 81.6688 62.504C80.3366 65.4386 79.3956 66.5193 77.5044 67.1156C73.7779 68.2801 78.0914 75.9195 71.9147 75.9195" fill="#263238"/>
<path d="M69.7712 54.5936C69.7919 54.0566 69.9481 53.5336 70.2253 53.0732C70.5024 52.6128 70.8916 52.2299 71.3564 51.9603C71.8213 51.6907 72.3468 51.543 72.8841 51.5311C73.4214 51.5191 73.9529 51.6432 74.4293 51.8919C75.5287 52.5347 76.3671 53.8111 76.2926 56.2706C76.0224 62.792 69.4917 61.1989 69.4917 61.0126C69.4917 60.8262 69.6594 57.3047 69.7712 54.5936Z" fill="#B78876"/>
<path d="M71.6354 58.6083C71.6354 58.6083 71.7472 58.6921 71.9336 58.7853C72.0657 58.8507 72.2094 58.8893 72.3565 58.8989C72.5036 58.9084 72.6512 58.8888 72.7906 58.8412C73.2258 58.5923 73.5861 58.2309 73.8336 57.7949C74.0811 57.3589 74.2067 56.8644 74.1974 56.3631C74.2422 55.8014 74.1561 55.2369 73.9459 54.7141C73.8966 54.5033 73.7959 54.3079 73.6529 54.1454C73.5099 53.9828 73.3289 53.8582 73.126 53.7825C72.9955 53.7411 72.8546 53.7474 72.7283 53.8003C72.602 53.8532 72.4987 53.9492 72.4366 54.0713C72.3435 54.2483 72.3807 54.3787 72.3435 54.388C72.3062 54.3973 72.2037 54.2762 72.2689 54.006C72.3164 53.8458 72.4144 53.7053 72.5484 53.6055C72.6394 53.5412 72.7423 53.4958 72.8511 53.4718C72.9599 53.4478 73.0723 53.4458 73.1819 53.4657C73.4487 53.5305 73.6946 53.6619 73.8966 53.8476C74.0987 54.0334 74.2502 54.2674 74.3371 54.5278C74.5916 55.1142 74.7003 55.7535 74.6539 56.391C74.6683 56.9809 74.5067 57.5617 74.1898 58.0595C73.8729 58.5572 73.415 58.9493 72.8745 59.1859C72.6964 59.2286 72.511 59.2307 72.3319 59.192C72.1529 59.1533 71.9849 59.0748 71.8404 58.9623C71.6354 58.7667 71.5609 58.6176 71.6354 58.6083Z" fill="#AA6550"/>
<path d="M21.4292 58.8133C21.4292 58.8133 21.2802 58.6083 21.0566 58.1891C20.7246 57.5892 20.5245 56.9254 20.4696 56.242C20.3664 55.1658 20.6113 54.0849 21.1684 53.1583C22.0043 51.9966 23.1992 51.1422 24.5688 50.7267C26.0408 50.1305 27.8388 49.7951 29.4226 48.584C31.0007 47.2182 32 45.3029 32.2175 43.2271C32.5715 41.0751 32.3945 38.8205 32.5622 36.5287C32.6285 35.3712 32.8606 34.2292 33.2516 33.1376C33.64 32.0204 34.3145 31.0246 35.208 30.2496C36.1325 29.5147 37.2476 29.059 38.4221 28.936C39.5733 28.8067 40.737 28.8412 41.8784 29.0384C43.005 29.2801 44.1478 29.439 45.2975 29.5136C45.8721 29.5494 46.448 29.4689 46.9907 29.2768C47.5334 29.0847 48.0317 28.785 48.4557 28.3956C49.1522 27.5979 49.7496 26.7189 50.2352 25.7777C50.6957 24.9394 51.3507 24.2238 52.145 23.6909C53.5971 22.7496 55.3433 22.3718 57.0547 22.6288C58.47 22.8563 59.7898 23.487 60.8557 24.4455C61.6619 25.1744 62.3392 26.0343 62.8587 26.9889C63.2835 27.8147 63.6207 28.6828 63.8649 29.5788C63.8649 29.5788 63.8649 29.5136 63.8649 29.3925C63.8432 29.2133 63.8089 29.0358 63.7624 28.8614C63.5975 28.1831 63.3536 27.5265 63.0357 26.905C62.5357 25.9128 61.8638 25.0171 61.0514 24.2592C59.9609 23.2411 58.5984 22.5614 57.1292 22.3028C55.3297 22.0146 53.4869 22.3957 51.9493 23.3741C51.1053 23.9348 50.4036 24.6844 49.8998 25.5635C49.4342 26.4745 48.8551 27.3228 48.1763 28.0882C47.7909 28.4368 47.3385 28.7033 46.8468 28.8715C46.3551 29.0396 45.8343 29.106 45.3162 29.0664C44.1912 28.9898 43.0734 28.831 41.9716 28.5913C40.7846 28.3811 39.5734 28.3434 38.3755 28.4795C37.1169 28.6142 35.922 29.1019 34.9285 29.8862C33.9743 30.7131 33.2545 31.7767 32.8417 32.9699C32.4373 34.104 32.1958 35.2896 32.1243 36.4915C31.9659 38.8299 32.1243 41.0751 31.8169 43.1526C31.6157 45.1341 30.6701 46.9653 29.171 48.2766C27.6991 49.4038 25.9197 49.8044 24.4291 50.4286C23.0041 50.8799 21.7711 51.7949 20.9261 53.0279C20.3604 54.0049 20.1313 55.1407 20.274 56.2606C20.3514 56.9613 20.5837 57.6359 20.9541 58.2357C21.0819 58.4515 21.2421 58.6463 21.4292 58.8133Z" fill="#455A64"/>
<path d="M38.4875 42.1182C38.4875 42.1182 38.4876 42.6585 38.3944 43.5994C38.2643 44.9304 37.8717 46.2223 37.2392 47.4005C36.815 48.2108 36.2787 48.9572 35.6461 49.6178C34.9042 50.3699 34.0718 51.0271 33.168 51.5742C32.6646 51.893 32.2016 52.2715 31.7891 52.7014C31.3365 53.1651 31.015 53.7406 30.8575 54.3691C30.6573 55.6469 30.6573 56.9482 30.8575 58.226C30.9554 58.8254 30.9325 59.4382 30.7901 60.0286C30.6477 60.619 30.3887 61.1749 30.0284 61.6637C29.2136 62.4708 28.2439 63.1046 27.1776 63.527C26.1619 63.9485 25.2188 64.5269 24.3827 65.2412C24.0171 65.5954 23.7175 66.0118 23.4977 66.4709C23.3091 66.8991 23.1927 67.3556 23.153 67.8218C23.0899 68.5149 23.1808 69.2134 23.4192 69.8672C23.6576 70.5211 24.0375 71.1142 24.5318 71.6042C24.808 71.8593 25.1223 72.0699 25.4634 72.2284C25.5808 72.2893 25.7063 72.3332 25.836 72.3588C25.4185 72.0868 25.0285 71.7748 24.6715 71.4272C24.2299 70.9407 23.8961 70.3663 23.6922 69.7417C23.4883 69.1172 23.4188 68.4565 23.4883 67.8032C23.5838 66.912 23.9973 66.0851 24.6529 65.4741C25.4648 64.8054 26.3723 64.2621 27.3453 63.8624C28.4756 63.4124 29.5025 62.7373 30.3637 61.878C30.7905 61.3649 31.0819 60.7532 31.2115 60.0986C31.3232 59.4433 31.3514 58.7765 31.2954 58.1142C31.1081 56.8791 31.1081 55.6228 31.2954 54.3877C31.6457 53.2997 32.3945 52.3845 33.3915 51.8257C34.311 51.2557 35.1559 50.5735 35.9069 49.7948C36.5501 49.0939 37.0926 48.3069 37.5187 47.4564C38.1327 46.2281 38.4879 44.8868 38.5621 43.5156C38.5935 43.1467 38.5935 42.7758 38.5621 42.407C38.5497 42.3079 38.5247 42.2108 38.4875 42.1182Z" fill="#455A64"/>
<path d="M85.0314 69.5644C85.113 69.549 85.1916 69.5207 85.2643 69.4806C85.4942 69.399 85.7133 69.2895 85.9164 69.1545C86.6963 68.6584 87.3374 67.9724 87.7797 67.1608C88.1527 66.5279 88.3922 65.8253 88.4835 65.0963C88.5749 64.3673 88.516 63.6273 88.3107 62.9219C88.0292 61.9995 87.5237 61.1611 86.8394 60.4816C86.155 59.8021 85.313 59.3026 84.3886 59.0277L84.491 59.3351C85.2916 58.3738 85.8847 57.2573 86.2332 56.0558C86.4212 55.3884 86.4602 54.6878 86.3475 54.0036C86.2348 53.3194 85.9732 52.6683 85.581 52.0964C85.1579 51.4832 84.5512 51.0201 83.8482 50.7735C83.1301 50.5698 82.3752 50.5316 81.6403 50.6617C80.9415 50.7772 80.2311 50.8053 79.5255 50.7455C79.1917 50.6982 78.874 50.5722 78.5986 50.3778C78.3232 50.1834 78.098 49.9262 77.9417 49.6276C77.4977 48.6892 77.4245 47.6178 77.7367 46.6277C77.9883 45.6216 78.4261 44.6527 78.6684 43.6186C79.1112 41.629 78.8477 39.5472 77.9231 37.7307C77.1137 36.1203 75.807 34.8135 74.1965 34.0042C72.831 33.3044 71.3031 32.9827 69.7713 33.0725L69.9297 33.2123C69.777 32.0869 69.2128 31.058 68.3459 30.3242C67.7221 29.771 66.9693 29.3833 66.1566 29.197C65.649 29.085 65.1261 29.0598 64.6101 29.1224C64.4318 29.1505 64.2569 29.1974 64.0884 29.2622C64.7622 29.1685 65.4476 29.2001 66.11 29.3553C66.8834 29.5676 67.5955 29.9603 68.1875 30.5013C68.983 31.2094 69.493 32.1832 69.6223 33.2402V33.3893H69.7713C71.2416 33.3224 72.7035 33.6437 74.0102 34.3209C75.5503 35.1073 76.8 36.3636 77.5784 37.9077C78.4426 39.6368 78.6829 41.6115 78.2584 43.4975C78.0349 44.4757 77.597 45.4353 77.3268 46.4973C76.988 47.5971 77.0745 48.7841 77.569 49.8232C77.7601 50.1844 78.0332 50.4956 78.3666 50.7319C78.6999 50.9682 79.0841 51.1228 79.4882 51.1834C80.2374 51.2519 80.9924 51.2206 81.7334 51.0902C82.4033 50.9794 83.089 51.0111 83.7457 51.1834C84.3607 51.3947 84.8904 51.8001 85.255 52.3386C85.6165 52.8555 85.8585 53.4463 85.9632 54.0684C86.068 54.6904 86.0329 55.3279 85.8605 55.9347C85.5387 57.0868 84.9803 58.1593 84.2209 59.0836L84.0439 59.3072L84.3233 59.391C85.1943 59.6368 85.9907 60.0948 86.6411 60.724C87.2914 61.3533 87.7755 62.1341 88.0498 62.9964C88.2565 63.6622 88.3259 64.363 88.2539 65.0564C88.1818 65.7498 87.9698 66.4213 87.6306 67.0304C87.208 67.8345 86.5976 68.5249 85.8512 69.0427C85.3388 69.4153 85.0128 69.5365 85.0314 69.5644Z" fill="#455A64"/>
<path d="M63.5022 30.5947C64.0149 30.8612 64.4632 31.2364 64.8158 31.6941C65.5609 33.0829 65.7315 34.7085 65.2909 36.2218V36.3895H65.4493C66.3927 36.6426 67.2647 37.1108 67.9969 37.7573C68.7291 38.4038 69.3016 39.2111 69.6696 40.116C69.8731 40.6271 69.9896 41.1687 70.0143 41.7184C69.9939 42.3006 69.9254 42.8802 69.8093 43.4512C69.6755 44.0645 69.5914 44.6876 69.5578 45.3145C69.5087 45.9964 69.6891 46.6752 70.0702 47.2429C70.9255 48.3232 72.0455 49.164 73.3215 49.6838C74.4391 50.1774 75.4683 50.8509 76.368 51.6775C77.8459 53.1332 78.7208 55.0926 78.8182 57.1648C78.8618 58.5659 78.5645 59.9566 77.9517 61.2173C77.5139 62.149 77.1505 62.5402 77.1878 62.5682C77.2953 62.4832 77.3895 62.3828 77.4673 62.2701C77.7068 61.9778 77.9218 61.6662 78.1101 61.3385C78.9856 59.7538 79.3185 57.9261 79.0577 56.1345C78.797 54.343 77.957 52.686 76.6661 51.4166C75.7457 50.5497 74.6879 49.8414 73.5358 49.3204C72.3324 48.831 71.2742 48.0421 70.4615 47.0286C69.7348 46.0318 70.0609 44.7368 70.2565 43.563C70.3778 42.9648 70.4433 42.3566 70.4521 41.7463C70.427 41.1448 70.2978 40.5522 70.0702 39.9949C69.6691 39.0375 69.0501 38.187 68.2624 37.5109C67.4748 36.8349 66.5402 36.352 65.5331 36.1007L65.6543 36.3056C65.8698 35.5161 65.9223 34.691 65.8086 33.8805C65.6949 33.0701 65.4173 32.2913 64.9928 31.5916C64.7281 31.2295 64.3754 30.9409 63.968 30.7531C63.8224 30.6752 63.6651 30.6217 63.5022 30.5947Z" fill="#455A64"/>
<path d="M-7.79573 95.5293H-21.6584C-23.7638 95.5293 -25.6364 97.9608 -24.8818 99.9545L-10.9074 127.111C-10.643 127.626 -10.2426 128.057 -9.7498 128.36C-9.25697 128.662 -8.69063 128.823 -8.11249 128.826H8.78724C9.18415 128.783 9.56441 128.643 9.89416 128.418C10.2239 128.193 10.493 127.89 10.6773 127.536C10.8617 127.182 10.9558 126.788 10.9511 126.389C10.9464 125.99 10.8432 125.598 10.6505 125.248L-2.83015 98.6223C-3.28622 97.6943 -3.99316 96.9127 -4.87081 96.366C-5.74847 95.8193 -6.76173 95.5295 -7.79573 95.5293Z" fill="#455A64"/>
<path d="M-8.73645 97.1699H-22.5991C-22.996 97.1697 -23.3864 97.2714 -23.7328 97.4652C-24.0793 97.6591 -24.3702 97.9385 -24.5777 98.2769C-24.7852 98.6153 -24.9024 99.0013 -24.9181 99.398C-24.9338 99.7946 -24.8474 100.189 -24.6673 100.542L-11.0562 127.112C-10.7927 127.627 -10.3925 128.06 -9.89947 128.362C-9.40645 128.664 -8.83967 128.825 -8.26132 128.827H8.45208C8.68516 128.828 8.91465 128.769 9.11853 128.656C9.32241 128.543 9.49383 128.38 9.61636 128.181C9.73888 127.983 9.8084 127.757 9.81823 127.524C9.82807 127.291 9.77789 127.059 9.67252 126.852L-3.78019 100.254C-4.23686 99.3288 -4.94291 98.55 -5.81866 98.0051C-6.69442 97.4603 -7.70503 97.171 -8.73645 97.1699Z" fill="#263238"/>
<path d="M32.1991 145.464C31.7613 139.921 42.1955 85.8401 41.1987 86.073C38.4038 86.632 32.7022 87.9363 25.0349 97.532C21.0476 102.526 12.3368 127.968 10.1941 134.359L4.14782 131.462C3.19856 131.008 2.11044 130.937 1.11072 131.266L-12.6122 135.813C-12.6122 135.813 6.0204 169.817 15.169 169.649C16.7248 169.649 18.0663 169.538 19.2588 169.416L-0.156296 205.927C-0.156296 205.927 -20.1025 222.771 -20.9409 225.864H45.8102C45.8102 225.864 32.6277 150.998 32.1991 145.464Z" fill="#FF725E"/>
<path d="M48.4745 83.493L38.6831 86.53C33.8666 90.3218 32.0871 97.9518 32.2548 104.073L28.6028 154.846L28.2954 172.389C28.2954 172.389 56.3281 187.612 87.6587 167.898L82.4509 154.054L91.9349 121.038C92.615 116.221 93.0342 106.243 91.7765 101.473C88.5531 89.3622 81.4262 84.0612 71.6627 81.9092C71.6627 81.9092 62.2346 90.7224 53.5984 89.1572C52.2308 88.9291 50.9804 88.2454 50.0503 87.2172C49.1201 86.189 48.5648 84.8765 48.4745 83.493Z" fill="#263238"/>
<path d="M66.9114 99.5909C66.9114 99.7306 59.2441 99.8331 49.7974 99.8331C40.3506 99.8331 32.6833 99.7306 32.6833 99.5909C32.6833 99.4511 40.3413 99.3486 49.7974 99.3486C59.2534 99.3486 66.9114 99.4604 66.9114 99.5909Z" fill="#FAFAFA"/>
<path d="M69.5196 93.4978C69.0577 93.5369 68.5934 93.5369 68.1315 93.4978H64.3491L51.9025 93.2556L39.4467 93.0693L35.7201 92.9855C35.256 92.9926 34.792 92.9645 34.332 92.9016C34.7899 92.8188 35.2551 92.7845 35.7201 92.7991C36.6052 92.7991 37.9002 92.7432 39.4467 92.7246C42.6328 92.7246 47.0394 92.7246 51.9118 92.7712C56.7843 92.8178 61.1815 93.0041 64.3677 93.1532C65.9608 93.2277 67.2464 93.2929 68.0942 93.3581C68.5727 93.3588 69.0501 93.4056 69.5196 93.4978Z" fill="#FAFAFA"/>
<path d="M48.8848 85.7285C48.8848 85.8683 46.1831 86.4552 42.8386 87.2843C39.494 88.1135 36.8109 88.8308 36.7737 88.7004C38.6872 87.8722 40.6825 87.2477 42.7268 86.8372C44.734 86.2488 46.7985 85.8771 48.8848 85.7285Z" fill="#FAFAFA"/>
<path d="M73.4423 85.9159C72.5234 86.0178 71.5937 85.961 70.694 85.7483C69.7756 85.6815 68.8749 85.4611 68.0295 85.0961C68.9454 84.9941 69.872 85.0508 70.7685 85.2638C71.6903 85.3281 72.5944 85.5486 73.4423 85.9159Z" fill="#FAFAFA"/>
<path d="M64.033 108.143C63.6215 108.22 63.2034 108.258 62.7846 108.255C61.9834 108.301 60.8189 108.348 59.3842 108.395C56.5055 108.478 52.5274 108.544 48.1395 108.544C43.7515 108.544 39.7548 108.469 36.8947 108.376C35.4507 108.329 34.2862 108.283 33.485 108.236C33.0655 108.246 32.6464 108.205 32.2366 108.115C32.6528 108.054 33.0739 108.032 33.4943 108.05H36.8947H48.1395H59.3749H62.7846C63.203 108.032 63.622 108.063 64.033 108.143Z" fill="#FAFAFA"/>
<path d="M64.1823 136.083L62.7382 141.673L33.8578 120.6L25.9855 109.476C24.5559 107.602 22.538 106.264 20.256 105.675C18.1133 105.256 16.2593 106.187 13.9675 107.445L7.35296 111.554C6.95588 111.788 6.6381 112.136 6.44052 112.553C6.24294 112.97 6.17461 113.436 6.24432 113.892C6.3468 114.498 6.69149 114.935 7.59517 114.535C9.59817 113.603 13.8185 112.392 13.8185 112.392L14.9271 123.041L19.8275 126.59L24.7185 130.363L57.3255 162.765C58.9585 164.388 60.953 165.601 63.1454 166.305C65.3378 167.008 67.6657 167.182 69.9383 166.812C72.2109 166.442 74.3634 165.539 76.2195 164.176C78.0756 162.814 79.5823 161.031 80.6162 158.973L85.4513 145.232L64.1823 136.083Z" fill="#B78876"/>
<path d="M13.7533 112.951C13.7068 112.951 13.8465 112.578 14.1819 112.084C14.6341 111.409 15.2853 110.891 16.0452 110.603C16.4385 110.467 16.8607 110.437 17.2695 110.515C17.6782 110.594 18.0592 110.778 18.3742 111.05C18.8494 111.507 18.8307 111.982 18.7935 111.982C18.7562 111.982 18.6258 111.637 18.1786 111.32C17.8884 111.127 17.5582 111.003 17.2128 110.956C16.8675 110.909 16.516 110.941 16.1849 111.05C15.5103 111.321 14.9145 111.757 14.4521 112.317C14.0328 112.699 13.7999 112.979 13.7533 112.951Z" fill="#AA6550"/>
<path d="M104.856 213.976C101.838 213.306 96.8163 193.546 96.8163 193.546C96.8163 193.546 99.164 186.838 99.164 184.835C99.164 182.832 88.1055 178.91 88.1055 178.91C88.1055 178.91 93.0339 142.045 95.6145 119.351C96.0151 117.488 96.2573 116.211 96.2852 115.755C96.2852 115.019 96.6486 111.097 96.6579 109.643C96.9286 106.349 96.7784 103.034 96.2107 99.7774C95.8567 93.4051 78.1558 82.5982 76.7117 83.4367C71.2617 86.6135 62.2249 113.882 57.3991 133.484C52.4428 130.922 46.2848 127.791 45.5115 127.652C44.1886 127.428 43.8066 129.916 43.8066 129.916V156.989L55.3868 165.066C58.3773 179.236 64.349 200.393 67.1998 208.359C71.6903 220.936 68.1314 224.392 73.125 226.404L128.687 225.864C133.047 222.184 107.875 214.61 104.856 213.976Z" fill="#FF725E"/>
<path d="M71.383 104.939C71.3833 105.371 71.3428 105.801 71.2619 106.225C71.1408 107.045 70.9545 108.228 70.675 109.681C70.1253 112.588 69.2309 116.585 68.0944 120.954C66.9578 125.323 65.7839 129.246 64.8243 132.041C64.3492 133.447 63.9393 134.575 63.6319 135.338C63.4906 135.745 63.3128 136.138 63.1008 136.512C63.1924 136.093 63.317 135.682 63.4735 135.283L64.5355 131.947C65.4113 129.152 66.5385 125.202 67.6751 120.842C68.8117 116.482 69.7527 112.458 70.3768 109.616L71.0942 106.197C71.1561 105.771 71.2527 105.35 71.383 104.939Z" fill="#263238"/>
<path d="M89.5787 96.2932C88.5856 96.3442 87.5905 96.3442 86.5975 96.2932C84.2192 96.2318 81.8451 96.527 79.5543 97.1689C77.2798 97.8542 75.2641 99.2078 73.7689 101.054C73.2071 101.858 72.7265 102.716 72.3342 103.616C72.3533 103.347 72.4162 103.082 72.5206 102.833C72.7575 102.132 73.0965 101.47 73.5267 100.867C75.0024 98.9024 77.0693 97.4624 79.4239 96.759C81.7574 96.0979 84.1865 95.8396 86.6068 95.9951C87.5384 95.9951 88.2744 96.0975 88.7868 96.1534C89.0564 96.1584 89.3236 96.2055 89.5787 96.2932Z" fill="#263238"/>
</g>
</svg>
