<svg width="230" height="230" viewBox="0 0 230 230" fill="none" xmlns="http://www.w3.org/2000/svg">
<mask id="mask0" mask-type="alpha" maskUnits="userSpaceOnUse" x="0" y="0" width="230" height="230">
<circle cx="115" cy="115" r="115" fill="#C4C4C4"/>
</mask>
<g mask="url(#mask0)">
<path d="M249.698 128.115C249.698 128.115 249.698 127.942 249.659 127.613C249.62 127.284 249.608 126.793 249.569 126.152C249.569 125.834 249.536 125.471 249.508 125.081C249.48 124.691 249.385 124.256 249.318 123.793L249.084 122.292C249.048 122.016 248.988 121.744 248.906 121.478C248.833 121.199 248.761 120.921 248.683 120.614C247.971 117.733 246.824 114.978 245.281 112.444C243.262 109.069 240.611 106.115 237.473 103.744L236.146 102.751C235.677 102.45 235.192 102.166 234.707 101.87L233.971 101.424C233.728 101.267 233.475 101.127 233.212 101.006L231.617 100.242C231.35 100.113 231.06 99.9794 230.809 99.8567L229.961 99.5444L228.232 98.9198C227.675 98.7246 227.039 98.5964 226.431 98.4346C225.821 98.256 225.201 98.1145 224.574 98.0108C223.296 97.7738 222.002 97.6247 220.704 97.5646C220.04 97.5646 219.376 97.4754 218.701 97.4866L216.677 97.5925C216.337 97.5925 215.991 97.5925 215.651 97.6539L214.63 97.8156C213.95 97.9271 213.258 98.0052 212.572 98.1502C211.185 98.4572 209.819 98.8559 208.485 99.3437L207.47 99.7173L206.962 99.9069L206.471 100.147L204.492 101.1C203.845 101.452 203.226 101.859 202.584 102.216C202.272 102.417 201.937 102.589 201.636 102.812L200.755 103.487C199.532 104.394 198.371 105.381 197.281 106.443L195.719 108.155L195.329 108.585L194.977 109.053L194.275 109.99L193.572 110.932L192.953 111.942L192.34 112.968L192.033 113.475C191.938 113.648 191.854 113.832 191.771 114.033L190.728 116.191C190.455 116.944 190.17 117.703 189.897 118.461C187.793 124.731 187.793 131.516 189.897 137.785L190.728 140.055L191.765 142.213L192.027 142.771L192.34 143.278L192.953 144.293L193.572 145.303L194.275 146.245L194.977 147.182L195.329 147.65L195.719 148.08L197.275 149.792C198.367 150.853 199.528 151.84 200.75 152.748L201.653 153.423C201.954 153.651 202.289 153.818 202.601 154.019C203.242 154.398 203.861 154.811 204.508 155.135L206.488 156.094L206.979 156.328C207.146 156.401 207.319 156.456 207.486 156.518L208.501 156.891C209.836 157.381 211.202 157.781 212.589 158.09C213.275 158.23 213.967 158.313 214.647 158.425L215.673 158.581C216.013 158.626 216.354 158.626 216.694 158.648L218.724 158.754C219.393 158.754 220.057 158.698 220.72 158.676C222.03 158.612 223.334 158.462 224.624 158.224L225.093 158.152C225.249 158.124 225.405 158.074 225.555 158.04L226.476 157.806C227.083 157.639 227.697 157.516 228.283 157.321L230.006 156.691L230.853 156.378L231.668 155.999L233.257 155.235C233.519 155.111 233.773 154.97 234.016 154.811L234.752 154.365C235.237 154.069 235.728 153.807 236.191 153.484L237.518 152.497C240.656 150.124 243.307 147.168 245.325 143.791C246.869 141.257 248.016 138.502 248.727 135.621L248.95 134.762C249.033 134.495 249.092 134.22 249.129 133.943L249.363 132.442C249.43 131.979 249.514 131.55 249.558 131.16C249.603 130.769 249.597 130.407 249.614 130.083C249.653 129.448 249.687 128.968 249.703 128.622C249.72 128.276 249.742 128.126 249.742 128.126C249.742 128.126 249.742 128.293 249.742 128.622C249.742 128.951 249.709 129.448 249.681 130.089C249.681 130.407 249.653 130.769 249.631 131.165C249.608 131.561 249.519 131.991 249.452 132.454C249.385 132.916 249.313 133.424 249.229 133.959C249.197 134.239 249.141 134.515 249.062 134.785C248.989 135.063 248.917 135.342 248.844 135.649C248.147 138.547 247.009 141.322 245.47 143.875C243.458 147.279 240.807 150.261 237.663 152.658L236.33 153.657C235.867 153.963 235.371 154.248 234.886 154.549L234.144 155.001C233.901 155.163 233.646 155.304 233.38 155.425L231.779 156.2L230.965 156.59L230.112 156.902L228.372 157.544C227.786 157.739 227.167 157.867 226.554 158.035L225.634 158.274C225.477 158.308 225.321 158.358 225.165 158.386L224.685 158.458C223.397 158.704 222.092 158.859 220.782 158.921C220.118 158.921 219.449 159.011 218.768 159.005L216.727 158.905C216.381 158.877 216.036 158.905 215.696 158.838L214.664 158.681C213.978 158.57 213.275 158.486 212.584 158.347C211.185 158.036 209.808 157.634 208.462 157.142L207.436 156.769L206.923 156.579L206.427 156.339L204.38 155.352C203.728 154.995 203.097 154.588 202.45 154.203C202.138 154.003 201.798 153.83 201.497 153.601L200.588 152.921C199.354 152.007 198.182 151.012 197.08 149.943L195.507 148.214L195.111 147.779L194.754 147.31L194.046 146.362L193.332 145.409L192.713 144.394L192.089 143.373L191.776 142.86L191.514 142.302L190.46 140.122L189.624 137.83C187.495 131.497 187.495 124.643 189.624 118.311C189.908 117.547 190.181 116.783 190.466 116.024C190.75 115.266 191.168 114.569 191.514 113.844C191.603 113.665 191.687 113.481 191.782 113.286L192.089 112.773L192.713 111.752L193.338 110.732L194.046 109.784L194.754 108.835L195.111 108.367L195.507 107.932L197.08 106.203C198.183 105.135 199.355 104.14 200.588 103.225L201.497 102.545C201.798 102.322 202.138 102.149 202.456 101.942C203.097 101.563 203.728 101.151 204.38 100.827L206.377 99.8679L206.873 99.6281C207.04 99.5556 207.213 99.4998 207.386 99.4329L208.412 99.0592C209.758 98.5696 211.135 98.1691 212.533 97.8602C213.225 97.7152 213.922 97.6371 214.614 97.5256L215.645 97.3694C215.986 97.3248 216.331 97.3248 216.677 97.3025L218.718 97.2021C219.393 97.2021 220.068 97.2579 220.731 97.2802C222.042 97.3455 223.346 97.5002 224.635 97.7431C225.267 97.846 225.891 97.9894 226.503 98.1725C227.117 98.3398 227.73 98.4681 228.322 98.6633L230.056 99.299L230.915 99.6113L231.729 100.002L233.33 100.777C233.594 100.901 233.849 101.042 234.094 101.201L234.83 101.652C235.321 101.954 235.811 102.238 236.28 102.545L237.613 103.543C240.756 105.941 243.407 108.924 245.42 112.327C246.958 114.88 248.096 117.654 248.794 120.552C248.867 120.854 248.939 121.11 249.012 121.422C249.091 121.69 249.147 121.965 249.179 122.242L249.402 123.748C249.469 124.216 249.547 124.64 249.581 125.036C249.614 125.432 249.614 125.795 249.631 126.118C249.659 126.754 249.675 127.234 249.692 127.579C249.709 127.925 249.698 128.115 249.698 128.115Z" fill="#263238"/>
<path d="M218.936 106.488C218.792 104.97 218.744 103.445 218.791 101.921C218.744 100.395 218.792 98.8675 218.936 97.3477C219.083 98.8673 219.131 100.395 219.081 101.921C219.131 103.445 219.083 104.97 218.936 106.488Z" fill="#263238"/>
<path d="M201.664 128.115C201.664 128.193 198.702 128.26 195.055 128.26C191.408 128.26 188.452 128.193 188.452 128.115C188.452 128.037 191.408 127.97 195.055 127.97C198.702 127.97 201.664 128.026 201.664 128.115Z" fill="#263238"/>
<path d="M218.936 158.877C218.792 157.225 218.744 155.565 218.791 153.908C218.744 152.252 218.792 150.595 218.936 148.944C219.083 150.594 219.131 152.252 219.081 153.908C219.131 155.565 219.083 157.225 218.936 158.877Z" fill="#263238"/>
<path d="M216.403 111.228L214.73 114.312C214.518 114.713 214.429 115.167 214.472 115.618C214.516 116.069 214.691 116.497 214.976 116.85L216.822 119.12L220.915 119.07L222.828 116.878C223.138 116.521 223.331 116.078 223.381 115.608C223.431 115.139 223.335 114.665 223.107 114.251L221.434 111.178C221.324 110.98 221.162 110.815 220.966 110.701C220.769 110.587 220.545 110.528 220.318 110.531L217.48 110.565C217.258 110.57 217.041 110.634 216.851 110.75C216.662 110.867 216.508 111.032 216.403 111.228Z" fill="#455A64"/>
<path d="M219.309 145.699L213.593 139.023L216.85 119.12L220.943 119.069L224.278 138.778L219.309 145.699Z" fill="#455A64"/>
<path d="M220.893 119.159C220.248 119.319 219.582 119.381 218.919 119.343C218.257 119.402 217.59 119.366 216.939 119.237C217.584 119.078 218.25 119.016 218.913 119.053C219.575 118.993 220.242 119.028 220.893 119.159Z" fill="#263238"/>
<path d="M221.802 112.064C221.652 112.459 221.454 112.834 221.211 113.18C220.81 113.843 220.235 114.747 219.538 115.723C218.841 116.699 218.233 117.563 217.759 118.171C217.524 118.52 217.246 118.838 216.934 119.119C217.113 118.741 217.333 118.384 217.592 118.054L219.298 115.561L221.01 113.068C221.234 112.704 221.5 112.367 221.802 112.064Z" fill="#263238"/>
<path d="M222.583 128.991C221.311 129.998 219.982 130.929 218.601 131.78C217.275 132.72 215.893 133.579 214.463 134.351C215.734 133.334 217.063 132.394 218.445 131.534C219.771 130.603 221.153 129.754 222.583 128.991Z" fill="#FAFAFA"/>
<path d="M221.507 123.425C220.528 124.239 219.507 125.002 218.45 125.711C216.744 126.949 215.383 127.981 215.333 127.942C217.192 126.182 219.266 124.664 221.507 123.425Z" fill="#FAFAFA"/>
<path d="M220.754 119.103C220.111 119.657 219.405 120.135 218.651 120.525C217.954 120.997 217.205 121.39 216.42 121.696C217.063 121.141 217.769 120.664 218.523 120.274C219.221 119.802 219.969 119.409 220.754 119.103Z" fill="#FAFAFA"/>
<path d="M219.03 116.013C218.415 115.571 217.826 115.092 217.268 114.58C216.647 114.142 216.051 113.669 215.483 113.163C216.898 113.781 218.122 114.764 219.03 116.013Z" fill="#FAFAFA"/>
<path d="M220.999 112.784C220.456 112.537 219.955 112.205 219.515 111.802C219.016 111.474 218.575 111.065 218.21 110.592C218.754 110.839 219.254 111.17 219.694 111.573C220.193 111.902 220.634 112.311 220.999 112.784Z" fill="#FAFAFA"/>
<path d="M222.867 116.872C222.319 116.677 221.808 116.391 221.356 116.024C220.851 115.738 220.397 115.37 220.012 114.937C220.552 115.126 221.057 115.403 221.506 115.756C222.019 116.049 222.479 116.426 222.867 116.872Z" fill="#FAFAFA"/>
<path d="M223.581 135.142C222.315 136.24 220.988 137.264 219.604 138.209C218.276 139.231 216.891 140.177 215.455 141.042C216.719 139.942 218.047 138.918 219.431 137.975C220.759 136.952 222.144 136.006 223.581 135.142Z" fill="#FAFAFA"/>
<path d="M139.025 19.3157C139.025 19.3157 139.025 19.1596 138.986 18.864C138.947 18.5684 138.941 18.1223 138.902 17.5534C138.902 17.2634 138.868 16.94 138.846 16.5831C138.824 16.2261 138.735 15.8469 138.673 15.4287C138.612 15.0104 138.539 14.5642 138.461 14.0846C138.369 13.575 138.249 13.0706 138.104 12.5733C137.468 9.98559 136.443 7.50924 135.065 5.22857C133.253 2.20089 130.874 -0.449819 128.061 -2.57904L126.867 -3.46576C126.449 -3.73903 126.008 -4.02345 125.573 -4.26325C125.138 -4.50306 124.703 -4.82094 124.229 -5.03844L122.796 -5.73554L122.071 -6.08131L121.307 -6.36015L119.757 -6.91784C119.232 -7.09072 118.68 -7.20784 118.134 -7.35283C117.584 -7.51358 117.026 -7.64023 116.461 -7.73206C115.311 -7.94598 114.149 -8.08015 112.981 -8.1336C112.39 -8.1336 111.787 -8.21167 111.185 -8.20609L109.367 -8.11129C109.06 -8.11129 108.748 -8.11129 108.447 -8.04994L107.526 -7.91052C106.913 -7.81014 106.288 -7.73764 105.675 -7.60937C104.429 -7.3336 103.203 -6.97401 102.005 -6.53304L101.091 -6.19842L100.633 -6.02554L100.193 -5.81362L98.4139 -4.95478C97.8562 -4.64248 97.2985 -4.27441 96.7018 -3.93422C96.4174 -3.75018 96.1162 -3.59961 95.8485 -3.37653L95.0399 -2.76865C93.9403 -1.95708 92.8969 -1.07205 91.9168 -0.119641L90.5171 1.41957L90.1657 1.80995L89.8534 2.22822L89.2232 3.07033L88.5875 3.91801L88.0298 4.82146L87.4721 5.73607L87.1932 6.19337C87.1096 6.34952 87.0371 6.51125 86.959 6.67298C86.6467 7.31618 86.3344 7.96309 86.0221 8.61373C85.7767 9.28853 85.5258 9.96891 85.2748 10.6493C83.3865 16.2841 83.3865 22.3809 85.2748 28.0156C85.5258 28.696 85.7711 29.3764 86.0221 30.0512C86.2731 30.726 86.6467 31.3506 86.9534 31.9975L87.1877 32.4771L87.4665 32.9344L88.0242 33.8435L88.5819 34.7525L89.2121 35.6002L89.8423 36.4423L90.1601 36.8605L90.5115 37.2453L91.9001 38.7957C92.8816 39.7466 93.9249 40.6315 95.0232 41.4447L95.8318 42.0526C96.0995 42.2589 96.3895 42.4095 96.6851 42.6103C97.2428 42.9505 97.8004 43.3186 98.3972 43.6309L100.176 44.4897L100.617 44.7016L101.074 44.8745L101.989 45.2091C103.186 45.6501 104.412 46.0097 105.658 46.2854C106.277 46.4137 106.896 46.4862 107.51 46.5866L108.43 46.726C108.737 46.7651 109.043 46.7651 109.35 46.7874L111.168 46.8822C111.776 46.8822 112.373 46.832 112.964 46.8097C114.134 46.7562 115.298 46.622 116.449 46.4081C117.014 46.3163 117.573 46.1897 118.123 46.0289C118.68 45.8839 119.238 45.7668 119.74 45.5939L121.29 45.0362L122.054 44.7574L122.796 44.3726L124.224 43.6866C124.703 43.4691 125.122 43.1624 125.568 42.9114C126.014 42.6605 126.443 42.3872 126.861 42.114L128.055 41.2272C130.87 39.099 133.248 36.4481 135.059 33.4196C136.446 31.1427 137.479 28.668 138.121 26.0805C138.188 25.8128 138.255 25.5562 138.322 25.3053C138.395 25.0647 138.447 24.8185 138.478 24.5691C138.556 24.0895 138.623 23.6434 138.69 23.2251C138.757 22.8068 138.829 22.422 138.863 22.0707C138.896 21.7194 138.902 21.3903 138.919 21.1003C138.958 20.5426 138.986 20.0909 139.002 19.7898C139.019 19.4886 139.041 19.3436 139.041 19.3436C139.041 19.3436 139.041 19.4942 139.041 19.7898C139.041 20.0853 139.013 20.5315 138.991 21.1059C138.991 21.3959 138.963 21.7194 138.947 22.0763C138.93 22.4332 138.846 22.818 138.79 23.2363L138.59 24.5914C138.557 24.8401 138.507 25.0861 138.439 25.3276C138.372 25.5786 138.305 25.8407 138.238 26.1084C137.614 28.7139 136.592 31.208 135.21 33.5033C133.403 36.5668 131.018 39.2505 128.189 41.4057L126.995 42.3036C126.571 42.5824 126.131 42.8613 125.69 43.1122C125.25 43.3632 124.82 43.6699 124.341 43.8985L122.896 44.5957L122.166 44.9414L121.396 45.2258L119.835 45.7835C119.305 45.962 118.747 46.0735 118.201 46.2241C117.651 46.3857 117.092 46.5141 116.528 46.6089C115.367 46.8284 114.193 46.9682 113.014 47.0272C112.417 47.0272 111.81 47.1052 111.202 47.0997L109.361 47.0104C109.055 47.0104 108.742 47.0104 108.436 46.9491L107.51 46.8097C106.891 46.7093 106.261 46.6368 105.636 46.5085C104.377 46.2302 103.138 45.8688 101.927 45.4266L101.007 45.092L100.488 44.9303L100.042 44.7128L98.2577 43.8149C97.6722 43.497 97.1089 43.1289 96.5233 42.7832C96.2389 42.6047 95.9657 42.4486 95.6645 42.2255L94.8447 41.612C93.734 40.7912 92.6795 39.8969 91.6882 38.9351L90.2773 37.3792L89.9203 36.9888L89.5969 36.565L88.9611 35.7173L88.3309 34.8919L87.7732 33.9773L87.2156 33.0571L86.9311 32.5942L86.6969 32.1091L85.7488 30.1516L84.996 28.0881C84.0799 25.2525 83.5949 22.2954 83.5571 19.3157C83.5949 16.3361 84.0799 13.3789 84.996 10.5433C85.2469 9.85179 85.5035 9.16584 85.7544 8.48546C86.0054 7.80508 86.3846 7.1749 86.6969 6.5224C86.775 6.36067 86.8531 6.19895 86.9367 6.03722L87.2156 5.57434L87.7732 4.65415L88.3309 3.73955L88.9723 2.88629L89.608 2.03303L89.9259 1.61476L90.2828 1.21881C90.7569 0.700159 91.2253 0.181507 91.6994 -0.331565C92.6883 -1.30267 93.743 -2.20453 94.8559 -3.03077L95.6757 -3.64422C95.9489 -3.85056 96.2333 -4.00672 96.5345 -4.20191C97.1201 -4.54767 97.6833 -4.91574 98.2689 -5.23362L100.065 -6.09804L100.511 -6.31554L100.974 -6.48842L101.894 -6.82303C103.105 -7.26519 104.344 -7.62661 105.602 -7.90494C106.227 -8.03321 106.857 -8.10571 107.476 -8.20609L108.402 -8.34552C108.709 -8.38455 109.021 -8.38455 109.328 -8.40686L111.168 -8.49609C111.776 -8.49609 112.378 -8.4459 112.981 -8.42359C114.158 -8.36428 115.33 -8.22453 116.489 -8.00533C117.053 -7.91096 117.612 -7.78246 118.162 -7.62053C118.719 -7.46995 119.277 -7.35841 119.796 -7.17995L121.357 -6.62227L122.127 -6.33785L122.857 -5.99208L124.307 -5.26151C124.787 -5.04401 125.211 -4.70382 125.662 -4.47517C126.114 -4.24652 126.544 -3.91749 126.962 -3.66653L128.161 -2.76865C130.989 -0.614077 133.373 2.06752 135.182 5.12819C136.565 7.42535 137.586 9.92131 138.21 12.5287C138.354 13.0279 138.471 13.5342 138.562 14.0456C138.634 14.5308 138.696 14.9825 138.763 15.4008C138.829 15.819 138.891 16.2038 138.919 16.5608C138.947 16.9177 138.952 17.2411 138.963 17.5311C138.963 18.0888 139.002 18.5405 139.013 18.8473C139.025 19.154 139.025 19.3157 139.025 19.3157Z" fill="#263238"/>
<path d="M111.364 2.16766C111.22 0.418592 111.172 -1.33699 111.219 -3.09132C111.172 -4.84379 111.22 -6.59752 111.364 -8.34473C111.507 -6.59752 111.556 -4.84379 111.509 -3.09132C111.556 -1.33699 111.507 0.418592 111.364 2.16766Z" fill="#263238"/>
<path d="M95.8318 19.315C95.8318 19.3931 93.1717 19.46 89.8925 19.46C86.6133 19.46 83.9531 19.3931 83.9531 19.315C85.9291 19.1643 87.9114 19.1141 89.8925 19.1644C91.8735 19.1141 93.8559 19.1643 95.8318 19.315Z" fill="#263238"/>
<path d="M138.902 19.3156C137.046 19.4587 135.185 19.5071 133.325 19.4606C131.465 19.507 129.603 19.4586 127.748 19.3156C129.603 19.1657 131.465 19.1154 133.325 19.1651C135.185 19.1153 137.047 19.1655 138.902 19.3156Z" fill="#263238"/>
<path d="M111.364 46.9713C111.22 45.1328 111.172 43.2881 111.219 41.4446C111.172 39.6012 111.22 37.7565 111.364 35.918C111.507 37.7565 111.555 39.6012 111.509 41.4446C111.555 43.2881 111.507 45.1328 111.364 46.9713Z" fill="#263238"/>
<path d="M119.862 12.4287H102.752V29.5385H119.862V12.4287Z" fill="#455A64"/>
<path d="M107.989 12.584C108.045 12.6453 106.874 13.8276 105.418 15.3222C103.963 16.8168 102.859 18.0605 102.797 18.0047C103.496 16.9607 104.303 15.9941 105.207 15.1215C106.041 14.1792 106.974 13.3286 107.989 12.584Z" fill="#FAFAFA"/>
<path d="M111.781 12.7012C111.71 12.8718 111.614 13.0314 111.497 13.1752C111.302 13.4652 111.006 13.8779 110.627 14.3798C109.874 15.3892 108.792 16.7556 107.537 18.2055C106.283 19.6555 105.084 20.9215 104.191 21.8138C103.751 22.2543 103.383 22.6113 103.121 22.8455C102.996 22.9818 102.854 23.1001 102.697 23.1968C103.113 22.6587 103.564 22.1483 104.046 21.6688C104.894 20.7486 106.065 19.438 107.32 18.0159C108.575 16.5938 109.673 15.2275 110.465 14.2571C110.872 13.7121 111.311 13.1924 111.781 12.7012Z" fill="#FAFAFA"/>
<path d="M116.103 12.7012C115.976 12.9415 115.827 13.1693 115.657 13.3816C115.351 13.811 114.899 14.4188 114.33 15.1661C113.215 16.6552 111.575 18.6796 109.701 20.8434C107.827 23.0072 106.065 24.9034 104.754 26.2418C104.096 26.9166 103.561 27.452 103.182 27.8089C102.994 28.0128 102.789 28.1995 102.568 28.3666C102.728 28.1443 102.905 27.9354 103.098 27.742L104.604 26.1135C105.875 24.736 107.615 22.8232 109.484 20.6649C111.352 18.5067 112.992 16.5046 114.168 15.049L115.568 13.3258C115.726 13.1009 115.905 12.8918 116.103 12.7012Z" fill="#FAFAFA"/>
<path d="M119.656 15.775C119.718 15.8308 117.085 18.8925 113.778 22.6123C110.471 26.332 107.738 29.3157 107.688 29.2599C107.638 29.2041 110.259 26.148 113.561 22.4227C116.862 18.6973 119.595 15.7248 119.656 15.775Z" fill="#FAFAFA"/>
<path d="M120.007 20.749C119.807 21.2401 119.557 21.7092 119.26 22.1488C118.764 22.9853 118.033 24.123 117.174 25.3388C116.316 26.5545 115.501 27.6197 114.854 28.367C114.538 28.7911 114.179 29.1816 113.784 29.5326C114.047 29.0767 114.352 28.6455 114.693 28.2443C115.25 27.4636 116.076 26.3817 116.923 25.1715C117.771 23.9613 118.535 22.8459 119.076 22.0373C119.349 21.5821 119.661 21.1511 120.007 20.749Z" fill="#FAFAFA"/>
<path d="M119.918 20.6147C119.918 20.6928 116.015 20.7597 111.252 20.7597C106.489 20.7597 102.585 20.6928 102.585 20.6147C102.585 20.5367 106.489 20.4697 111.252 20.4697C116.015 20.4697 119.918 20.5367 119.918 20.6147Z" fill="#263238"/>
<path d="M111.386 12.7295C111.47 12.7295 111.531 16.5441 111.531 21.2565C111.531 25.969 111.47 29.7891 111.386 29.7891C111.303 29.7891 111.241 25.969 111.241 21.2565C111.241 16.5441 111.308 12.7295 111.386 12.7295Z" fill="#263238"/>
<path d="M111.297 12.1716C111.107 12.1742 110.919 12.146 110.739 12.088C110.24 11.9624 109.754 11.7887 109.289 11.5693C108.596 11.2393 107.953 10.8152 107.376 10.3089C107.021 10.0167 106.706 9.67922 106.439 9.3051C106.296 9.0772 106.23 8.80945 106.25 8.54106C106.259 8.39528 106.307 8.25459 106.388 8.13318C106.469 8.01177 106.581 7.91394 106.712 7.84953C106.976 7.74547 107.269 7.74547 107.532 7.84953C107.771 7.92504 107.996 8.03595 108.201 8.17857C108.576 8.43517 108.929 8.72243 109.256 9.0374C109.806 9.57039 110.281 10.1765 110.666 10.8387C110.923 11.2847 111.135 11.7555 111.297 12.2441C111.373 12.4205 111.417 12.6096 111.425 12.8018C111.15 12.1675 110.839 11.5494 110.494 10.9503C110.091 10.3236 109.614 9.74866 109.071 9.23817C108.75 8.93926 108.405 8.66695 108.04 8.42395C107.876 8.28515 107.683 8.1862 107.475 8.13491C107.267 8.08361 107.05 8.08138 106.841 8.12838C106.467 8.29011 106.456 8.83106 106.685 9.17125C106.933 9.52487 107.225 9.84534 107.555 10.1249C108.109 10.6249 108.723 11.0539 109.384 11.402C110.007 11.6924 110.646 11.9494 111.297 12.1716Z" fill="#263238"/>
<path d="M111.274 12.2668C111.266 12.0798 111.281 11.8925 111.319 11.7092C111.395 11.1868 111.502 10.6691 111.637 10.1588C111.834 9.39866 112.083 8.65325 112.384 7.92804C112.551 7.52093 112.747 7.09708 112.942 6.66766C113.051 6.42216 113.222 6.20898 113.438 6.04863C113.572 5.95989 113.734 5.92338 113.894 5.94599C114.053 5.96859 114.198 6.04875 114.303 6.17132C114.442 6.39956 114.533 6.65381 114.57 6.91849C114.608 7.18316 114.591 7.45269 114.52 7.71054C114.45 8.17441 114.329 8.62898 114.158 9.06572C113.866 9.80626 113.441 10.4868 112.903 11.0734C112.544 11.466 112.133 11.8075 111.681 12.0884C111.521 12.2001 111.344 12.2866 111.157 12.3449C111.738 11.9224 112.274 11.4422 112.758 10.9117C113.256 10.3299 113.648 9.66557 113.918 8.9486C114.076 8.52913 114.186 8.09327 114.247 7.64919C114.285 7.41891 114.302 7.18551 114.297 6.95209C114.292 6.73228 114.222 6.51886 114.096 6.33863C114.038 6.2673 113.955 6.22071 113.864 6.20828C113.773 6.19586 113.681 6.21853 113.605 6.27171C113.432 6.40499 113.294 6.57938 113.204 6.7792C112.986 7.19747 112.786 7.61016 112.613 8.01169C112.309 8.722 112.042 9.44802 111.815 10.1867C111.453 11.4693 111.325 12.2724 111.274 12.2668Z" fill="#263238"/>
<path d="M257.756 28.3558C257.75 28.2853 257.75 28.2144 257.756 28.1439L257.728 27.5249C257.689 26.9672 257.728 26.1641 257.605 25.1045C257.371 22.0074 256.861 18.9374 256.083 15.9306C255.524 13.7561 254.821 11.6211 253.98 9.53947C252.99 7.05832 251.8 4.66169 250.422 2.37321C247.062 -3.21346 242.671 -8.11119 237.484 -12.0597C231.185 -16.8448 223.856 -20.0914 216.08 -21.5404C209.492 -22.7497 202.733 -22.6683 196.176 -21.3006C193.875 -20.7991 191.608 -20.1509 189.389 -19.3598C179.951 -15.9133 171.744 -9.75276 165.799 -1.65329C164.249 0.455462 162.865 2.68179 161.661 5.00549C161.036 6.17105 160.506 7.38123 159.96 8.59698C159.413 9.81274 158.962 11.0675 158.56 12.3446C157.703 14.9051 157.056 17.5312 156.625 20.1969C155.74 25.6058 155.74 31.1226 156.625 36.5315C157.054 39.1934 157.699 41.8158 158.554 44.3726C158.962 45.6553 159.464 46.8877 159.954 48.1258C160.445 49.3639 161.031 50.5517 161.661 51.7173C162.861 54.0527 164.243 56.2903 165.793 58.4095C171.739 66.5104 179.949 72.6711 189.389 76.1161C191.608 76.9129 193.877 77.5613 196.182 78.0568C202.736 79.4249 209.494 79.5063 216.08 78.2966C223.856 76.8476 231.185 73.601 237.484 68.816C242.672 64.8676 247.062 59.9699 250.422 54.383C251.799 52.0939 252.989 49.6974 253.98 47.2168C254.822 45.1261 255.525 42.9817 256.083 40.7978C256.847 37.7842 257.342 34.7085 257.561 31.6071C257.661 30.542 257.644 29.7277 257.683 29.1812L257.711 28.5622C257.705 28.4935 257.705 28.4245 257.711 28.3558C257.716 28.4245 257.716 28.4935 257.711 28.5622V29.1812C257.711 29.7389 257.711 30.5475 257.644 31.6127C257.475 34.7293 257.013 37.8231 256.267 40.8536C255.724 43.0444 255.034 45.1963 254.203 47.2949C253.225 49.795 252.042 52.2105 250.668 54.5169C247.313 60.1637 242.912 65.119 237.701 69.1171C231.362 73.9634 223.977 77.258 216.136 78.7372C211.791 79.564 207.358 79.8227 202.946 79.5068C200.635 79.3437 198.338 79.0251 196.07 78.5532C193.744 78.0533 191.453 77.4031 189.21 76.6069C179.661 73.1366 171.353 66.915 165.336 58.7274C163.766 56.5948 162.365 54.3423 161.148 51.9906C160.518 50.8139 159.977 49.5869 159.424 48.36C158.872 47.1331 158.415 45.8616 158.008 44.5678C157.14 41.9784 156.485 39.3224 156.05 36.6263C155.154 31.1547 155.154 25.5737 156.05 20.1021C156.483 17.4079 157.136 14.7537 158.002 12.1662C158.415 10.8723 158.928 9.62313 159.424 8.37391C159.921 7.12469 160.512 5.92009 161.148 4.74337C162.363 2.3923 163.764 0.14147 165.336 -1.9879C171.35 -10.1749 179.656 -16.395 189.205 -19.8618C191.447 -20.6598 193.738 -21.3118 196.064 -21.8137C202.681 -23.1773 209.499 -23.2455 216.141 -22.0144C223.98 -20.5338 231.364 -17.2393 237.701 -12.3943C242.914 -8.39626 247.316 -3.44105 250.673 2.2059C252.047 4.52245 253.229 6.94712 254.209 9.45582C255.04 11.5544 255.729 13.7063 256.272 15.8971C257.019 18.9276 257.48 22.0214 257.65 25.138C257.733 26.2087 257.694 27.0229 257.717 27.5695V28.1885C257.733 28.2435 257.746 28.2994 257.756 28.3558Z" fill="#263238"/>
<path d="M178.051 28.3554C178.051 28.5116 173.144 28.6454 167.093 28.6454C161.042 28.6454 156.134 28.5116 156.134 28.3554C156.134 28.1993 161.042 28.0654 167.093 28.0654C173.144 28.0654 178.051 28.1993 178.051 28.3554Z" fill="#263238"/>
<path d="M206.705 79.3838C206.544 79.3838 206.41 74.8164 206.41 69.1893C206.41 63.5623 206.544 58.9893 206.705 58.9893C206.867 58.9893 206.995 63.5567 206.995 69.1893C206.995 74.822 206.861 79.3838 206.705 79.3838Z" fill="#263238"/>
<path d="M191.129 5.03324C192.153 3.84663 193.459 2.93768 194.927 2.39074C196.395 1.8438 197.978 1.67659 199.528 1.90462V7.66552C200.918 7.72938 202.274 8.12144 203.484 8.80964C204.693 9.49784 205.723 10.4626 206.488 11.6251C206.488 11.6251 210.353 7.30303 213.086 7.56514V1.75962C213.086 1.75962 217.765 1.51982 220.642 6.5613L215.846 10.5432L212.985 19.5442C212.985 19.5442 217.402 27.3519 217.882 41.4948L217.765 54.6896H194.609L194.515 45.4376C194.495 43.371 194.607 41.3053 194.849 39.2529C195.524 33.5868 197.208 22.6115 200.37 19.5387L196.968 10.8722L191.129 5.03324Z" fill="#0DC78B"/>
<path d="M212.985 19.5441C212.985 19.6221 210.158 19.7058 206.678 19.7337C203.198 19.7616 200.365 19.7337 200.365 19.6333C200.365 19.5329 203.187 19.466 206.672 19.4437C210.158 19.4214 212.985 19.4604 212.985 19.5441Z" fill="#263238"/>
<path d="M205.116 14.0239C204.876 14.2596 204.578 14.4271 204.252 14.5091C203.477 14.7671 202.642 14.7807 201.859 14.5481C201.077 14.3135 200.388 13.8419 199.885 13.1985C199.655 12.9524 199.496 12.6475 199.428 12.3174C199.467 12.3174 199.64 12.6297 200.041 13.0647C200.557 13.629 201.213 14.0465 201.943 14.2749C202.67 14.4832 203.44 14.4947 204.174 14.3083C204.776 14.1689 205.094 13.9849 205.116 14.0239Z" fill="#263238"/>
<path d="M214.005 11.7646C214.031 12.1379 213.931 12.509 213.721 12.8187C213.258 13.5977 212.51 14.1658 211.635 14.4025C210.77 14.6222 209.861 14.5991 209.009 14.3356C208.652 14.2618 208.315 14.1115 208.021 13.895C208.372 13.9504 208.719 14.0305 209.059 14.1348C209.88 14.331 210.736 14.331 211.557 14.1348C212.367 13.9111 213.071 13.4097 213.548 12.7183C213.722 12.4111 213.875 12.0925 214.005 11.7646Z" fill="#263238"/>
<path d="M216.85 30.3802C216.85 30.408 216.549 30.5196 216.035 30.8207C215.327 31.2661 214.664 31.7798 214.056 32.3544C213.16 33.2406 212.14 33.9921 211.027 34.5851C210.338 34.9026 209.589 35.0681 208.83 35.0703C208.024 35.0653 207.222 34.947 206.449 34.719C204.859 34.2728 203.465 33.5701 202.132 33.1463C200.976 32.7147 199.73 32.5767 198.507 32.7447C197.686 32.8665 196.915 33.2119 196.277 33.743C196.055 33.9547 195.844 34.1781 195.646 34.4122C195.646 34.4122 195.674 34.3342 195.758 34.1947C195.882 33.9916 196.03 33.8043 196.199 33.637C196.833 33.0531 197.624 32.6657 198.474 32.5217C199.733 32.3169 201.023 32.4378 202.222 32.873C203.582 33.2913 204.982 33.9884 206.533 34.4178C208.083 34.8472 209.667 34.9197 210.922 34.3174C212.018 33.7412 213.029 33.0169 213.927 32.1648C214.556 31.5971 215.247 31.1014 215.985 30.6869C216.19 30.5801 216.403 30.4888 216.621 30.4136C216.77 30.3802 216.846 30.369 216.85 30.3802Z" fill="#FAFAFA"/>
<path d="M213.961 22.623C213.961 22.6509 213.721 22.623 213.309 22.623C212.728 22.7239 212.179 22.9567 211.702 23.3034C211.067 23.7049 210.381 24.3128 209.472 24.7924C208.489 25.3123 207.416 25.6362 206.31 25.7461C205.203 25.8636 204.085 25.7594 203.019 25.4393C202.156 25.187 201.337 24.8013 200.593 24.2961C200.094 23.9517 199.637 23.5492 199.233 23.0971C199.071 22.9326 198.936 22.7445 198.831 22.5394C199.413 23.1114 200.042 23.6337 200.71 24.1009C201.448 24.5784 202.253 24.9448 203.097 25.1884C204.131 25.4827 205.212 25.5773 206.282 25.4672C207.351 25.3577 208.391 25.0514 209.349 24.5638C210.23 24.1176 210.927 23.5265 211.58 23.1361C212.09 22.7904 212.679 22.5759 213.292 22.5115C213.458 22.5006 213.625 22.5138 213.788 22.5505C213.911 22.623 213.967 22.623 213.961 22.623Z" fill="#FAFAFA"/>
<path d="M213.587 16.6448C213.587 16.6448 213.587 16.695 213.492 16.762C213.384 16.8646 213.254 16.9426 213.113 16.9906C212.582 17.148 212.012 17.1023 211.512 16.8623C210.834 16.4943 210.102 16.2346 209.343 16.0927C208.403 16.0107 207.456 16.113 206.555 16.3939C205.573 16.656 204.664 17.0018 203.766 17.2081C202.998 17.4133 202.202 17.4998 201.407 17.4646C200.868 17.4376 200.34 17.299 199.857 17.0575C199.723 16.997 199.598 16.9202 199.483 16.8289C199.405 16.7731 199.366 16.7341 199.372 16.7285C200.009 17.0484 200.706 17.229 201.418 17.2583C202.191 17.2622 202.96 17.1589 203.705 16.9516C204.553 16.7341 205.456 16.3939 206.454 16.115C207.391 15.8219 208.378 15.7232 209.354 15.825C210.141 15.9784 210.895 16.2651 211.585 16.6727C212.041 16.9149 212.569 16.988 213.074 16.8791C213.254 16.8215 213.426 16.7429 213.587 16.6448Z" fill="#FAFAFA"/>
<path d="M216.225 10.3095C216.225 10.3095 216.013 10.1088 215.55 9.88011C214.894 9.57054 214.163 9.45448 213.442 9.5455C212.377 9.70317 211.357 10.0832 210.448 10.6609C209.326 11.4155 208.107 12.0123 206.823 12.4343C206.129 12.6214 205.401 12.6424 204.698 12.4957C204.061 12.3347 203.446 12.1008 202.863 11.7985C201.936 11.2444 200.916 10.8662 199.852 10.6832C199.133 10.5762 198.4 10.7221 197.777 11.0959C197.572 11.262 197.385 11.4489 197.219 11.6536C197.219 11.6536 197.219 11.5811 197.314 11.4639C197.428 11.2918 197.569 11.1393 197.732 11.0122C198.362 10.5813 199.128 10.3967 199.885 10.4936C200.404 10.5321 200.914 10.6526 201.396 10.8505C201.915 11.0513 202.439 11.3189 202.997 11.5866C203.564 11.8713 204.16 12.0921 204.776 12.2447C205.435 12.3802 206.117 12.3592 206.767 12.1834C208.026 11.7644 209.225 11.1852 210.336 10.4601C211.276 9.86263 212.337 9.48165 213.442 9.34473C214.196 9.26545 214.957 9.41714 215.623 9.77973C215.8 9.8812 215.963 10.0049 216.108 10.1478C216.186 10.2482 216.231 10.304 216.225 10.3095Z" fill="#FAFAFA"/>
<path d="M219.276 4.77671C219.276 4.86594 217.915 4.4421 216.209 4.39748C214.502 4.35287 213.141 4.6819 213.119 4.59267C215.122 3.88202 217.319 3.94768 219.276 4.77671Z" fill="#FAFAFA"/>
<path d="M191.804 5.93178C191.804 5.93178 191.804 5.80351 191.932 5.63621C192.13 5.41097 192.4 5.26122 192.696 5.21236C193.118 5.16511 193.544 5.17825 193.962 5.2514C194.46 5.3042 194.961 5.33026 195.462 5.32948C196.755 5.26972 198.041 5.09805 199.305 4.81641C198.974 5.01915 198.609 5.16082 198.228 5.23467C197.33 5.48722 196.401 5.61667 195.468 5.61948C194.953 5.61916 194.439 5.58563 193.928 5.51909C193.533 5.43402 193.128 5.39843 192.724 5.41313C192.461 5.44062 192.213 5.54543 192.01 5.71428C191.871 5.83697 191.82 5.93736 191.804 5.93178Z" fill="#FAFAFA"/>
<path d="M217.77 41.2886C217.455 41.1807 217.132 41.0932 216.805 41.0265C215.899 40.9302 214.984 41.1007 214.173 41.5173C213.606 41.7834 213.069 42.1107 212.573 42.4932C212.015 42.9003 211.457 43.3799 210.9 43.8707C210.278 44.3981 209.601 44.8562 208.881 45.237C208.084 45.6343 207.2 45.826 206.31 45.7947C204.469 45.7278 202.891 44.9303 201.519 44.2499L197.894 42.3594L195.457 41.0599L194.805 40.6919C194.654 40.6026 194.582 40.558 194.587 40.5469C194.674 40.5648 194.757 40.5968 194.833 40.6417L195.513 40.9596L197.989 42.1753L201.642 44.0101C203.008 44.6793 204.57 45.4434 206.315 45.5047C207.162 45.5254 207.999 45.3337 208.752 44.947C209.459 44.5805 210.123 44.1372 210.732 43.6253C211.335 43.1513 211.892 42.6717 212.45 42.2646C212.97 41.8805 213.531 41.555 214.123 41.2942C214.97 40.8812 215.924 40.7372 216.856 40.8815C217.105 40.9293 217.347 41.01 217.575 41.1213C217.648 41.1677 217.713 41.224 217.77 41.2886Z" fill="#FAFAFA"/>
<path d="M217.876 49.9495C217.558 49.9104 217.238 49.8881 216.917 49.8826C216.046 49.9344 215.197 50.1761 214.43 50.5909C213.437 51.0761 212.394 51.907 211.084 52.6264C210.392 53.0171 209.637 53.2832 208.853 53.4128C208.013 53.5247 207.161 53.4945 206.332 53.3235C204.771 52.9421 203.24 52.4443 201.753 51.8345C200.551 51.3567 199.266 51.1181 197.972 51.1318C197.1 51.1503 196.245 51.3779 195.479 51.7955C194.95 52.1078 194.71 52.3532 194.693 52.3532C194.676 52.3532 194.738 52.2807 194.855 52.1636C195.026 51.9953 195.212 51.844 195.413 51.7118C196.178 51.2401 197.052 50.9732 197.95 50.9366C199.282 50.8903 200.609 51.1122 201.854 51.5891C203.333 52.1805 204.852 52.6687 206.399 53.0503C207.195 53.2155 208.013 53.2457 208.819 53.1395C209.567 53.0214 210.288 52.7721 210.95 52.4034C212.232 51.7118 213.298 50.8864 214.329 50.418C215.126 50.0053 216.009 49.7874 216.906 49.7822C217.148 49.7865 217.39 49.8183 217.625 49.877C217.712 49.8866 217.797 49.9111 217.876 49.9495Z" fill="#FAFAFA"/>
<path d="M175.219 108.061C175.211 107.996 175.211 107.93 175.219 107.866C175.219 107.732 175.219 107.542 175.191 107.308C175.152 106.8 175.191 106.042 175.074 105.049C174.871 102.162 174.408 99.2985 173.691 96.4943C173.173 94.4689 172.519 92.4808 171.733 90.5438C170.813 88.2353 169.705 86.0063 168.42 83.8794C165.293 78.6799 161.207 74.121 156.38 70.4448C150.515 65.9994 143.694 62.9824 136.459 61.6333C130.331 60.5048 124.042 60.5825 117.944 61.862C115.801 62.3247 113.69 62.9264 111.626 63.6633C102.844 66.8716 95.2066 72.6052 89.675 80.1429C88.2332 82.105 86.9466 84.1766 85.827 86.3388C85.2693 87.4207 84.7507 88.5696 84.2432 89.6849C83.7357 90.8003 83.3174 91.9826 82.9382 93.1705C82.1443 95.5535 81.5437 97.9966 81.1424 100.476C80.3171 105.51 80.3171 110.645 81.1424 115.679C81.5384 118.159 82.1391 120.603 82.9382 122.984C83.3118 124.172 83.7859 125.321 84.2376 126.476C84.6893 127.63 85.2414 128.734 85.8214 129.822C86.9429 131.984 88.2314 134.056 89.675 136.018C95.2032 143.56 102.841 149.296 111.626 152.503C113.69 153.24 115.801 153.841 117.944 154.304C124.044 155.583 130.335 155.661 136.465 154.533C143.7 153.187 150.52 150.167 156.38 145.716C161.209 142.039 165.296 137.481 168.426 132.281C169.707 130.153 170.813 127.924 171.733 125.617C172.509 123.677 173.154 121.687 173.663 119.661C174.38 116.854 174.843 113.989 175.046 111.1C175.14 110.113 175.124 109.355 175.163 108.869C175.163 108.618 175.163 108.429 175.191 108.312C175.184 108.247 175.184 108.181 175.191 108.116C175.199 108.181 175.199 108.247 175.191 108.312V108.869C175.191 109.377 175.191 110.141 175.135 111.134C174.978 114.034 174.55 116.913 173.858 119.733C172.74 124.203 170.986 128.489 168.649 132.459C165.523 137.716 161.426 142.33 156.575 146.056C150.673 150.568 143.798 153.637 136.498 155.018C130.307 156.17 123.95 156.106 117.782 154.828C115.615 154.365 113.48 153.76 111.391 153.016C102.498 149.786 94.7602 143.993 89.1564 136.369C87.6927 134.383 86.3874 132.285 85.2526 130.095C84.6614 128.98 84.1372 127.864 83.6465 126.715C83.1557 125.566 82.7095 124.384 82.3303 123.185C81.5311 120.762 80.9324 118.278 80.5401 115.757C80.1386 113.213 79.9298 110.642 79.9155 108.066C79.9326 105.489 80.1414 102.917 80.5401 100.37C80.9448 97.8613 81.5547 95.3899 82.3638 92.9809C82.743 91.7763 83.2226 90.6107 83.6855 89.4451C84.1484 88.2796 84.7005 87.1642 85.2916 86.0656C86.4264 83.8769 87.7317 81.781 89.1954 79.7972C94.7969 72.1742 102.533 66.383 111.425 63.1558C113.511 62.4126 115.644 61.8071 117.81 61.3433C123.978 60.066 130.334 60.0016 136.526 61.1537C143.827 62.5319 150.703 65.6013 156.603 70.1157C161.456 73.8361 165.554 78.449 168.677 83.7065C169.957 85.8557 171.058 88.1072 171.967 90.4378C173.823 95.0975 174.905 100.029 175.168 105.038C175.241 106.031 175.207 106.789 175.224 107.302V107.86C175.231 107.927 175.229 107.994 175.219 108.061Z" fill="#263238"/>
<path d="M127.709 78.6089C127.548 78.6089 127.419 74.5713 127.419 69.5856C127.419 64.5999 127.548 60.5566 127.709 60.5566C127.871 60.5566 127.999 64.5999 127.999 69.5856C127.999 74.5713 127.866 78.6089 127.709 78.6089Z" fill="#263238"/>
<path d="M101.046 108.061C101.046 108.222 96.4787 108.351 90.8461 108.351C85.2134 108.351 80.646 108.222 80.646 108.061C80.646 107.899 85.2134 107.771 90.8461 107.771C96.4787 107.771 101.046 107.899 101.046 108.061Z" fill="#263238"/>
<path d="M175.006 108.061C175.006 108.222 170.701 108.351 165.392 108.351C160.083 108.351 155.777 108.222 155.777 108.061C155.777 107.899 160.083 107.771 165.392 107.771C170.701 107.771 175.006 107.899 175.006 108.061Z" fill="#263238"/>
<path d="M127.709 155.559C127.548 155.559 127.419 151.309 127.419 146.078C127.419 140.847 127.548 136.598 127.709 136.598C127.871 136.598 127.999 140.847 127.999 146.078C127.999 151.309 127.866 155.559 127.709 155.559Z" fill="#263238"/>
<path d="M99.5625 91.2518L121.234 85.0225C121.234 85.0225 120.487 91.2518 127.709 91.2518C134.931 91.2518 135.176 85.0225 135.176 85.0225L155.85 91.2518V103.699H144.395L144.144 131.099H111.77V103.214H101.308L99.5625 91.2518Z" fill="#0DC78B"/>
<path d="M144.322 111.218C144.322 111.218 144.239 111.251 144.06 111.301C143.798 111.372 143.529 111.417 143.257 111.435C142.205 111.498 141.158 111.233 140.262 110.677C138.85 109.785 137.754 108.472 137.128 106.923C136.722 105.971 136.47 104.96 136.381 103.929C136.262 102.767 136.387 101.593 136.749 100.482C136.95 99.8705 137.329 99.3327 137.837 98.9373C138.119 98.7375 138.451 98.6207 138.796 98.6C139.141 98.5793 139.485 98.6556 139.788 98.8201C140.392 99.1818 140.862 99.7298 141.127 100.382C141.41 101.037 141.561 101.742 141.573 102.456C141.595 104.002 141.171 105.522 140.352 106.833C139.533 108.145 138.354 109.192 136.955 109.851C136.199 110.188 135.389 110.389 134.563 110.442C133.72 110.48 132.876 110.37 132.07 110.119C130.396 109.603 128.93 108.565 127.887 107.158C127.334 106.44 126.931 105.618 126.703 104.742C126.475 103.865 126.427 102.951 126.56 102.055C126.694 101.113 127.188 100.259 127.938 99.6734C128.318 99.37 128.771 99.1724 129.252 99.1009C129.733 99.0294 130.224 99.0865 130.676 99.2663C131.131 99.466 131.518 99.7934 131.791 100.209C132.041 100.615 132.217 101.063 132.31 101.53C132.481 102.443 132.447 103.382 132.21 104.28C131.793 106.037 130.908 107.648 129.65 108.942C128.465 110.178 126.938 111.032 125.266 111.396C123.593 111.76 121.849 111.616 120.258 110.983C118.76 110.393 117.496 109.327 116.661 107.949C115.874 106.67 115.486 105.184 115.546 103.683C115.575 102.972 115.724 102.27 115.986 101.609C116.232 100.951 116.677 100.385 117.258 99.9913C117.549 99.8176 117.871 99.7044 118.207 99.6584C118.542 99.6124 118.883 99.6346 119.21 99.7236C119.832 99.8869 120.394 100.223 120.833 100.694C121.217 101.144 121.492 101.676 121.636 102.25C121.781 102.824 121.79 103.423 121.664 104.001C121.475 105.029 121.038 105.996 120.392 106.817C119.366 108.138 117.958 109.112 116.36 109.606C115.36 109.918 114.308 110.028 113.265 109.929C112.996 109.905 112.729 109.86 112.467 109.795L112.2 109.728C112.291 109.736 112.383 109.749 112.473 109.768C112.736 109.82 113.003 109.854 113.27 109.868C114.304 109.945 115.342 109.818 116.327 109.494C117.889 108.998 119.263 108.037 120.264 106.739C120.885 105.936 121.304 104.995 121.485 103.995C121.601 103.446 121.588 102.877 121.449 102.332C121.31 101.788 121.047 101.283 120.682 100.856C120.27 100.417 119.742 100.103 119.16 99.9523C118.861 99.8723 118.548 99.8533 118.242 99.8964C117.935 99.9395 117.64 100.044 117.375 100.203C116.838 100.574 116.428 101.102 116.204 101.715C115.952 102.353 115.81 103.03 115.786 103.717C115.735 105.171 116.124 106.607 116.901 107.838C117.697 109.159 118.904 110.183 120.336 110.755C121.878 111.358 123.565 111.491 125.182 111.135C126.799 110.78 128.274 109.953 129.421 108.758C130.643 107.5 131.502 105.936 131.908 104.23C132.132 103.372 132.164 102.475 132.003 101.603C131.944 101.17 131.782 100.758 131.53 100.401C131.279 100.044 130.946 99.7525 130.559 99.5507C130.154 99.3913 129.715 99.3413 129.285 99.4059C128.855 99.4706 128.45 99.6475 128.111 99.9188C127.421 100.463 126.968 101.252 126.845 102.122C126.719 102.98 126.767 103.855 126.987 104.694C127.206 105.533 127.592 106.32 128.122 107.007C129.125 108.366 130.535 109.37 132.148 109.873C132.926 110.112 133.739 110.217 134.552 110.186C135.343 110.137 136.119 109.948 136.844 109.628C138.197 108.993 139.339 107.983 140.135 106.717C140.931 105.452 141.347 103.984 141.333 102.49C141.327 101.805 141.185 101.128 140.915 100.499C140.672 99.8935 140.239 99.383 139.682 99.0432C139.415 98.896 139.112 98.8268 138.807 98.8436C138.503 98.8603 138.209 98.9624 137.959 99.138C137.486 99.508 137.132 100.008 136.939 100.577C136.586 101.655 136.458 102.794 136.565 103.923C136.647 104.938 136.888 105.933 137.279 106.873C137.882 108.4 138.946 109.7 140.324 110.593C141.198 111.149 142.222 111.426 143.257 111.385C143.616 111.357 143.972 111.301 144.322 111.218Z" fill="#FAFAFA"/>
<path d="M79.5253 155.849C79.5253 155.849 88.7438 156.1 89.4855 151.388C90.2273 146.675 90.6678 140.897 90.6678 140.897H92.6811C92.6811 140.897 92.0788 150.936 91.3649 153.167C90.6511 155.397 86.7529 157.355 84.9404 157.583C83.1279 157.812 78.1924 157.583 78.1924 157.583L79.5253 155.849Z" fill="#455A64"/>
<path d="M90.6509 139.313L112.958 126.486C114.104 126.551 115.205 126.951 116.125 127.636C117.045 128.321 117.743 129.261 118.134 130.34C118.521 131.288 118.711 132.305 118.691 133.329C118.641 134.328 118.286 135.288 117.675 136.081C117.064 136.873 116.226 137.46 115.273 137.763L92.7143 145.286L90.6509 139.313Z" fill="#455A64"/>
<path d="M86.0947 135.415L106.796 122.767C107.37 122.422 108.028 122.239 108.698 122.239C109.368 122.239 110.025 122.422 110.599 122.767C111.614 123.369 112.618 124.512 113.037 126.671C114.013 131.74 111.877 132.85 111.877 132.85L88.3757 141.076L86.0947 135.415Z" fill="#455A64"/>
<path d="M93.183 141.556C93.7407 143.201 93.5734 144.863 92.7536 145.27C91.9338 145.677 90.8017 144.673 90.2161 143.039C89.6306 141.405 89.8313 139.727 90.6511 139.319C91.4709 138.912 92.603 139.911 93.183 141.556Z" fill="#263238"/>
<path d="M89.0334 137.289C89.619 138.934 89.4238 140.596 88.604 141.003C87.7842 141.41 86.6521 140.407 86.0665 138.773C85.481 137.139 85.6817 135.46 86.496 135.053C87.3102 134.646 88.4534 135.644 89.0334 137.289Z" fill="#263238"/>
<path d="M115.039 137.853C114.988 137.853 115.323 137.206 115.529 136.107C115.814 134.679 115.677 133.199 115.134 131.848C114.592 130.497 113.667 129.334 112.473 128.5C111.564 127.853 110.889 127.63 110.912 127.58C111.076 127.597 111.237 127.642 111.386 127.714C111.808 127.874 112.212 128.08 112.59 128.327C113.857 129.144 114.84 130.333 115.402 131.732C115.964 133.13 116.079 134.669 115.73 136.135C115.629 136.575 115.481 137.003 115.29 137.412C115.232 137.572 115.147 137.721 115.039 137.853Z" fill="#263238"/>
<path d="M105.753 123.732C106.059 123.539 106.42 123.453 106.78 123.487C107.653 123.53 108.481 123.889 109.111 124.496C109.72 125.099 110.208 125.813 110.55 126.599C110.72 126.905 110.843 127.236 110.912 127.58C110.691 127.307 110.503 127.007 110.354 126.688C109.969 125.961 109.481 125.294 108.904 124.708C108.317 124.147 107.564 123.791 106.757 123.693C106.422 123.688 106.087 123.701 105.753 123.732Z" fill="#263238"/>
<path d="M108.608 130.128C107.768 130.765 106.872 131.325 105.931 131.801C105.034 132.36 104.09 132.84 103.109 133.234C103.948 132.595 104.844 132.035 105.786 131.561C106.679 130.995 107.624 130.515 108.608 130.128Z" fill="#FAFAFA"/>
<path d="M110.689 128.913C110.728 128.98 110.589 129.142 110.377 129.27C110.165 129.398 109.953 129.449 109.914 129.376C109.875 129.304 110.014 129.147 110.226 129.019C110.438 128.891 110.65 128.841 110.689 128.913Z" fill="#FAFAFA"/>
<path d="M103.455 125.867C102.5 126.495 101.512 127.07 100.494 127.59C99.5232 128.203 98.5197 128.761 97.4878 129.263C98.3643 128.519 99.3244 127.879 100.349 127.356C101.325 126.744 102.367 126.245 103.455 125.867Z" fill="#FAFAFA"/>
<path d="M105.463 124.412C105.513 124.474 105.329 124.691 105.061 124.887C104.794 125.082 104.531 125.199 104.504 125.132C104.476 125.065 104.637 124.853 104.911 124.658C105.184 124.463 105.418 124.346 105.463 124.412Z" fill="#FAFAFA"/>
<path d="M112.975 126.471C112.913 126.532 112.843 126.586 112.769 126.632L112.15 127.045C111.592 127.402 110.817 127.898 109.83 128.506C107.856 129.716 105.106 131.345 102.022 133.096C98.9381 134.847 96.1832 136.392 94.1532 137.507L91.7384 138.807L91.0748 139.147C90.999 139.19 90.9185 139.223 90.835 139.247C90.835 139.247 90.9019 139.186 91.0469 139.091L91.6826 138.706L94.0528 137.329L101.899 132.839L109.707 128.328L112.072 126.945L112.724 126.577C112.886 126.499 112.97 126.459 112.975 126.471Z" fill="#263238"/>
<path d="M66.5866 128.026L64.9136 161.443L79.2238 162.792L80.0157 154.678C80.0157 154.678 85.0349 155.927 86.5908 151.259C87.5724 148.276 88.4424 124.914 88.4424 124.914L66.5866 128.026Z" fill="#FFBE9D"/>
<path d="M91.5656 128.366C90.3443 131.272 85.7378 133.765 85.7378 133.765L84.9738 141.16C84.2905 141.112 83.6048 141.112 82.9215 141.16C83.2896 137.685 78.8169 138.371 78.3652 140.73C77.9246 143.005 80.5179 144.528 80.5179 144.528C78.7277 147.272 78.0027 148.722 75.4652 151.293C72.7158 154.081 71.238 154.304 68.3994 154.221L65.2763 154.076C65.2763 154.076 64.1609 151.404 63.3467 145.097C62.9563 142.063 60.5583 138.087 61.261 133.157C63.1794 119.136 78.6887 121.624 78.6887 121.624C84.4942 117.101 94.421 121.535 91.5656 128.366Z" fill="#263238"/>
<path d="M88.4648 188.256L91.1417 191.669L100.762 177.526C100.41 177.096 100.054 176.734 95.8988 171.391C91.599 165.814 87.4665 160.154 80.5289 159C75.6771 158.18 70.3735 157.583 66.3302 157.583C62.9507 157.616 59.454 159.039 56.3811 161.258C53.436 163.434 51.104 166.335 49.6118 169.68C48.1196 173.024 47.5179 176.697 47.8652 180.342L50.8544 205.946L48.2668 230.082H89.6415L88.4648 188.256Z" fill="#0DC78B"/>
<path d="M94.7385 169.88C94.6924 169.889 94.6452 169.889 94.5991 169.88H94.192H92.6249C91.9445 169.88 91.108 169.919 90.1488 170.014C89.0629 170.111 87.9889 170.312 86.9421 170.616C86.3373 170.799 85.7539 171.045 85.2021 171.353C84.6151 171.7 84.0785 172.126 83.6071 172.619C82.6121 173.761 81.6812 174.959 80.8187 176.204C80.3116 176.866 79.7379 177.473 79.1066 178.017C78.4384 178.622 77.6441 179.072 76.781 179.333C75.8895 179.557 74.9566 179.557 74.0651 179.333C73.1666 179.122 72.2819 178.855 71.4161 178.536C70.5628 178.225 69.6753 178.019 68.7726 177.922C67.9005 177.858 67.0247 177.978 66.2017 178.273C64.6437 178.888 63.2195 179.799 62.0079 180.956C60.8144 182.032 59.7772 183.136 58.6283 184.051C57.6199 184.945 56.4422 185.628 55.1651 186.059C54.0818 186.334 52.9468 186.334 51.8636 186.059C51.0473 185.867 50.2774 185.515 49.5994 185.021C49.1715 184.71 48.7952 184.334 48.484 183.906L48.2777 183.555C48.2514 183.517 48.2307 183.476 48.2163 183.432C48.6032 184.011 49.095 184.512 49.6663 184.91C50.3376 185.38 51.096 185.712 51.897 185.886C52.9555 186.132 54.0581 186.117 55.1093 185.841C56.3453 185.4 57.4822 184.72 58.4554 183.839C59.5708 182.93 60.6081 181.826 61.8015 180.738C63.0338 179.552 64.4872 178.62 66.079 177.995C66.9394 177.685 67.8548 177.558 68.7671 177.621C69.6982 177.722 70.6126 177.942 71.4886 178.273C72.3474 178.584 73.2224 178.849 74.1097 179.065C74.9577 179.275 75.8438 179.275 76.6918 179.065C77.5 178.825 78.2474 178.414 78.8835 177.861C79.4998 177.33 80.0603 176.737 80.5565 176.093C81.4381 174.842 82.3915 173.642 83.4119 172.501C83.9075 171.997 84.4705 171.563 85.085 171.213C85.6504 170.902 86.249 170.655 86.8696 170.477C87.9319 170.183 89.0211 169.996 90.1209 169.919C91.0912 169.841 91.9278 169.83 92.6137 169.83C93.2997 169.83 93.8239 169.83 94.1808 169.869H94.5879C94.6384 169.864 94.6893 169.868 94.7385 169.88Z" fill="#FAFAFA"/>
<path d="M98.9493 175.267C98.1113 175.28 97.2772 175.385 96.462 175.58C95.5101 175.819 94.5906 176.173 93.7238 176.634C92.5686 177.229 91.5131 178 90.5952 178.92C89.4909 180.043 88.6508 181.397 88.1358 182.885C87.8179 183.672 87.5112 184.508 87.1152 185.334C86.7145 186.198 86.1674 186.987 85.4979 187.665C84.7898 188.4 83.8509 188.871 82.8378 188.998C81.7996 189.072 80.7561 188.989 79.7426 188.752C78.725 188.504 77.6714 188.438 76.6307 188.557C75.5771 188.76 74.6413 189.359 74.0152 190.23C73.3724 191.095 72.8942 192.07 72.6042 193.108C72.2975 194.128 72.0856 195.171 71.8011 196.186C71.5459 197.198 71.1298 198.162 70.5687 199.041C70.0046 199.872 69.278 200.58 68.4327 201.122C66.8641 202.133 64.9778 202.53 63.1347 202.237C61.4059 201.936 60.0061 201.083 58.7345 200.408C57.6229 199.734 56.4131 199.237 55.1486 198.936C54.1916 198.725 53.2001 198.725 52.2431 198.936C51.6407 199.073 51.0861 199.37 50.6369 199.794C50.3302 200.084 50.2298 200.296 50.2075 200.28C50.229 200.228 50.2571 200.179 50.2912 200.135C50.3796 199.997 50.4804 199.869 50.5923 199.75C51.0416 199.308 51.6027 198.998 52.2152 198.852C53.1883 198.616 54.2016 198.599 55.1821 198.802C56.4667 199.09 57.6977 199.579 58.8294 200.252C60.112 200.921 61.5062 201.752 63.1737 202.025C64.9574 202.29 66.7762 201.893 68.2877 200.91C69.1003 200.384 69.7983 199.699 70.34 198.896C70.8828 198.037 71.2821 197.096 71.5223 196.108C71.8067 195.11 72.0186 194.067 72.3309 193.024C72.6281 191.95 73.1216 190.94 73.7865 190.046C74.4547 189.12 75.4527 188.485 76.5749 188.273C77.6488 188.149 78.7362 188.215 79.7872 188.468C80.7726 188.703 81.7877 188.79 82.7987 188.724C83.7527 188.605 84.6377 188.164 85.3083 187.475C86.6746 186.142 87.2602 184.363 87.9071 182.796C88.21 182.02 88.5834 181.273 89.0225 180.565C89.4207 179.911 89.9005 179.309 90.4502 178.775C92.106 177.148 94.1753 176.004 96.4342 175.468C96.8301 175.368 97.1926 175.334 97.5049 175.284C97.8172 175.234 98.0626 175.239 98.2968 175.239H98.782L98.9493 175.267Z" fill="#FAFAFA"/>
<path d="M49.2876 220.647C49.2912 220.599 49.3025 220.552 49.3211 220.508C49.3545 220.396 49.3936 220.262 49.4493 220.101C49.6384 219.583 49.8893 219.091 50.1966 218.634C50.6825 217.908 51.3081 217.286 52.037 216.805C52.4906 216.498 52.9816 216.25 53.4981 216.068C54.0716 215.853 54.6722 215.718 55.2827 215.667C56.6788 215.59 58.079 215.693 59.4486 215.974C60.9209 216.236 62.4769 216.621 64.1276 216.894C65.8412 217.218 67.6005 217.218 69.3141 216.894C70.2129 216.715 71.0784 216.397 71.8795 215.951C72.6989 215.492 73.3968 214.844 73.915 214.061C74.4148 213.263 74.7504 212.374 74.9021 211.445C75.0582 210.535 75.1624 209.617 75.2144 208.696C75.3483 206.889 75.51 205.037 76.419 203.548C76.8576 202.833 77.4454 202.22 78.1423 201.753C78.7961 201.325 79.4911 200.965 80.2169 200.676C81.6111 200.119 82.9551 199.723 84.0817 199.159C85.1055 198.67 86.0257 197.989 86.792 197.152C87.3604 196.511 87.7964 195.764 88.0747 194.954C88.2883 194.255 88.4193 193.532 88.4651 192.802C88.4714 192.85 88.4714 192.899 88.4651 192.947V193.371C88.4352 193.92 88.3378 194.463 88.1751 194.988C87.9084 195.821 87.4781 196.593 86.9091 197.258C86.1399 198.126 85.2077 198.835 84.1653 199.343C83.0499 199.929 81.678 200.325 80.3061 200.899C79.5956 201.182 78.9171 201.539 78.2817 201.965C77.6164 202.413 77.0568 203.001 76.6421 203.688C75.7833 205.11 75.6216 206.906 75.4933 208.707C75.4428 209.642 75.3385 210.573 75.181 211.495C75.0225 212.462 74.6737 213.387 74.1548 214.217C73.6201 215.043 72.8978 215.731 72.0468 216.225C71.2189 216.682 70.3254 217.01 69.3978 217.195C67.6468 217.515 65.8513 217.501 64.1053 217.156C62.4323 216.872 60.8931 216.481 59.4263 216.213C58.0803 215.924 56.7028 215.808 55.3273 215.868C54.7316 215.915 54.1448 216.041 53.5818 216.241C52.2551 216.695 51.1055 217.555 50.297 218.701C49.8839 219.307 49.545 219.96 49.2876 220.647Z" fill="#FAFAFA"/>
<path d="M100.327 142.225L98.1855 143.083C98.1855 143.083 98.5368 145.058 98.8603 149.436C98.9385 150.457 98.7895 151.482 98.424 152.439C98.0586 153.395 97.4857 154.259 96.7467 154.968C89.4968 161.811 70.6525 158.989 67.1893 158.253C64.0774 157.589 65.2151 155.693 65.2151 155.693L65.2541 154.929C62.6553 155.024 62.8505 158.041 62.8505 158.041C63.5401 158.787 64.3961 159.36 65.3489 159.714C67.6508 160.678 70.1055 161.225 72.5989 161.331C76.3967 161.521 83.4291 161.732 89.1008 161.097C97.0199 160.204 99.814 155.314 100.684 153.099C100.928 152.485 101.075 151.836 101.119 151.175C101.465 145.71 100.327 142.225 100.327 142.225Z" fill="#263238"/>
<path d="M111.358 179.645L104.665 149.725L107.292 140.418L107.13 140.468C107.13 139.765 107.13 136.631 107.008 136.374C106.972 136.231 106.889 136.103 106.772 136.012C106.656 135.92 106.512 135.871 106.363 135.871C106.215 135.871 106.071 135.92 105.955 136.012C105.838 136.103 105.755 136.231 105.719 136.374C105.64 136.644 105.614 136.926 105.641 137.205C105.691 138.466 105.641 139.698 105.675 140.947L105.602 140.975C105.53 140.089 105.351 137.869 105.346 136.358C105.367 136.028 105.326 135.696 105.223 135.382C105.177 135.225 105.083 135.086 104.954 134.986C104.825 134.886 104.667 134.829 104.504 134.824C104.354 134.853 104.215 134.924 104.103 135.027C103.991 135.13 103.909 135.263 103.868 135.41C103.791 135.731 103.779 136.065 103.834 136.391C103.896 137.847 104.041 139.654 104.002 141.165C103.647 139.485 103.384 137.787 103.215 136.079C103.204 135.742 103.134 135.41 103.009 135.097C102.954 134.949 102.855 134.822 102.725 134.731C102.596 134.64 102.442 134.591 102.284 134.59C102.131 134.626 101.992 134.705 101.884 134.817C101.775 134.93 101.701 135.072 101.671 135.226C101.6 135.548 101.585 135.88 101.626 136.207C101.767 138.204 101.908 140.204 102.05 142.208H101.994C101.722 140.425 101.325 138.664 100.806 136.938C100.758 136.725 100.669 136.525 100.544 136.347C100.48 136.261 100.396 136.193 100.298 136.15C100.2 136.107 100.093 136.09 99.9863 136.101C99.8814 136.132 99.7869 136.191 99.7132 136.271C99.6394 136.352 99.5892 136.451 99.5681 136.558C99.529 136.772 99.529 136.992 99.5681 137.205C99.7763 139.09 99.9213 140.981 100.003 142.877L98.7929 146.034C98.5586 145.71 97.9061 144.729 97.9061 144.729L98.185 143.663C98.4248 141.873 98.0679 141.154 97.9061 140.914C97.7444 140.674 96.2721 144.578 95.9989 145.013C95.7256 145.448 97.4879 149.396 97.421 149.636L98.1961 158.559L101.726 180.181L100.282 178.34L93.0654 188.992L95.9654 191.691C99.0104 194.837 103.617 195.595 107.677 192.835C112.629 189.371 112.311 184.308 111.358 179.645Z" fill="#FFBE9D"/>
<path d="M83.7972 215.583C83.7151 215.121 83.6815 214.652 83.6968 214.183C83.6968 213.252 83.6466 211.953 83.6076 210.385C83.5406 207.173 83.4235 202.745 83.1893 197.854C82.9551 192.963 82.6316 188.541 82.4085 185.34C82.297 183.767 82.2022 182.484 82.1353 181.553C82.0819 181.088 82.0819 180.618 82.1353 180.153C82.2693 180.6 82.3553 181.06 82.3918 181.525C82.5201 182.418 82.6762 183.706 82.8491 185.306C83.1893 188.502 83.563 192.93 83.7972 197.826C84.0314 202.723 84.0816 207.168 84.0481 210.38C84.0481 211.992 83.9924 213.291 83.9478 214.189C83.9487 214.658 83.8982 215.125 83.7972 215.583Z" fill="#263238"/>
<path d="M83.9587 223.507C83.8025 223.507 83.5404 222.392 83.401 220.998C83.2615 219.604 83.2448 218.444 83.401 218.427C83.5571 218.41 83.8137 219.542 83.9587 220.937C84.1037 222.331 84.1204 223.491 83.9587 223.507Z" fill="#263238"/>
<path d="M81.2709 161.297C80.7828 161.383 80.3005 161.498 79.8265 161.643C78.5792 162.153 77.5508 163.084 76.921 164.275C76.4704 165.075 76.177 165.953 76.0565 166.863C75.9508 167.914 76.0205 168.975 76.2629 170.003C76.5384 171.147 76.9464 172.255 77.4786 173.304C77.7463 173.862 78.0363 174.42 78.3709 174.977C78.5327 175.245 78.7 175.535 78.8729 175.786C79.0457 176.037 79.2688 176.288 79.4696 176.544C82.8157 180.638 85.8328 184.352 87.9297 187.113C88.9837 188.496 89.8147 189.622 90.3612 190.431C90.6688 190.83 90.9306 191.262 91.142 191.719C90.7869 191.363 90.464 190.977 90.1772 190.565C89.5804 189.801 88.6993 188.713 87.6118 187.369L79.0179 176.868C78.8115 176.606 78.6107 176.36 78.3988 176.076C78.1869 175.792 78.0475 175.518 77.8746 175.234C77.5456 174.676 77.2388 174.118 76.9656 173.561C76.4226 172.466 76.0108 171.311 75.7387 170.12C75.4982 169.031 75.4435 167.909 75.5769 166.802C75.7256 165.836 76.0629 164.91 76.5696 164.075C76.9846 163.385 77.5212 162.777 78.1534 162.279C78.6338 161.911 79.1758 161.631 79.754 161.453C79.9618 161.383 80.177 161.336 80.3953 161.314C80.5535 161.286 80.7143 161.274 80.875 161.281C81.1371 161.264 81.2709 161.275 81.2709 161.297Z" fill="#263238"/>
</g>
</svg>
