<svg width="230" height="230" viewBox="0 0 230 230" fill="none" xmlns="http://www.w3.org/2000/svg">
<mask id="mask0" mask-type="alpha" maskUnits="userSpaceOnUse" x="0" y="0" width="230" height="230">
<circle cx="115" cy="115" r="115" fill="#C4C4C4"/>
</mask>
<g mask="url(#mask0)">
<path d="M82.1697 58.9167L85.4319 105.123C85.6903 108.759 87.3175 112.162 89.9855 114.646C92.6535 117.13 96.1639 118.51 99.8093 118.509C101.782 118.509 103.735 118.104 105.545 117.319C107.355 116.534 108.985 115.385 110.333 113.944C111.681 112.503 112.718 110.8 113.381 108.942C114.044 107.083 114.318 105.108 114.187 103.14C113.899 98.7422 113.636 95.1428 113.636 95.1428C113.636 95.1428 124.826 93.4027 124.965 82.218C125.044 75.773 123.929 61.0981 122.982 49.8688C122.669 46.2071 120.993 42.7962 118.285 40.311C115.578 37.8258 112.036 36.4473 108.361 36.4482H101.584C98.8201 36.6095 96.1164 37.3236 93.6333 38.5484C91.1501 39.7732 88.9379 41.4837 87.1276 43.5787C85.3174 45.6738 83.9458 48.1107 83.0942 50.7452C82.2426 53.3798 81.9282 56.1584 82.1697 58.9167Z" fill="#B78876"/>
<path d="M113.647 95.004C113.647 95.004 106.577 95.5791 99.0664 90.8594C99.0664 90.8594 102.512 98.9107 113.672 97.9043L113.647 95.004Z" fill="#AA6550"/>
<path d="M119.487 63.4085C119.491 63.8251 119.332 64.2269 119.044 64.528C118.756 64.829 118.361 65.0055 117.945 65.0197C117.742 65.0359 117.538 65.0113 117.344 64.9474C117.151 64.8835 116.972 64.7816 116.819 64.6476C116.666 64.5136 116.541 64.3503 116.451 64.1673C116.362 63.9843 116.31 63.7853 116.299 63.582C116.295 63.1656 116.453 62.764 116.74 62.4623C117.027 62.1606 117.42 61.9825 117.836 61.9657C118.039 61.9496 118.244 61.9743 118.438 62.0384C118.632 62.1026 118.811 62.2049 118.965 62.3393C119.119 62.4738 119.244 62.6376 119.334 62.8212C119.424 63.0048 119.475 63.2045 119.487 63.4085Z" fill="#263238"/>
<path d="M121.034 61.1075C120.836 61.3157 119.626 60.4234 117.911 60.4283C116.196 60.4333 114.936 61.291 114.743 61.0827C114.654 60.9885 114.857 60.587 115.402 60.2102C116.146 59.6958 117.031 59.4239 117.936 59.4318C118.826 59.4282 119.695 59.7096 120.415 60.235C120.955 60.6415 121.133 61.0183 121.034 61.1075Z" fill="#263238"/>
<path d="M102.715 63.4081C102.719 63.8247 102.56 64.2265 102.272 64.5276C101.984 64.8286 101.59 65.0051 101.173 65.0193C100.97 65.0355 100.766 65.0109 100.573 64.947C100.38 64.8831 100.201 64.7812 100.048 64.6472C99.8942 64.5132 99.7691 64.3499 99.6798 64.1669C99.5905 63.9839 99.5387 63.7849 99.5274 63.5816C99.5233 63.1644 99.6821 62.7621 99.97 62.4603C100.258 62.1584 100.652 61.9808 101.069 61.9654C101.273 61.9499 101.477 61.9751 101.67 62.0396C101.864 62.1041 102.042 62.2065 102.195 62.3408C102.349 62.4752 102.474 62.6388 102.563 62.8221C102.652 63.0053 102.704 63.2045 102.715 63.4081Z" fill="#263238"/>
<path d="M104.143 61.4248C103.945 61.633 102.73 60.7357 101.015 60.7407C99.2993 60.7456 98.0401 61.6083 97.8467 61.3951C97.7575 61.3009 97.9558 60.929 98.5061 60.5275C99.2517 60.0157 100.135 59.7425 101.039 59.7441C101.929 59.7473 102.796 60.0281 103.518 60.5473C104.059 60.9588 104.237 61.3356 104.143 61.4248Z" fill="#263238"/>
<path d="M110.379 74.1762C110.379 74.0771 111.44 73.8936 113.171 73.6804C113.607 73.6309 114.023 73.5466 114.098 73.2442C114.136 72.7914 114.034 72.338 113.805 71.9452C113.395 70.8843 112.962 69.7704 112.506 68.6037C110.707 63.8443 109.398 59.9326 109.591 59.8632C109.785 59.7938 111.401 63.5915 113.205 68.3459C113.638 69.5226 114.053 70.6447 114.45 71.7122C114.613 72.208 114.901 72.7732 114.673 73.4326C114.611 73.5874 114.513 73.7258 114.389 73.8367C114.264 73.9477 114.115 74.0283 113.954 74.0721C113.712 74.141 113.462 74.176 113.21 74.1762C111.465 74.2655 110.384 74.2754 110.379 74.1762Z" fill="#263238"/>
<path d="M105.324 75.3664C105.601 75.3664 105.606 77.2156 107.203 78.5393C108.799 79.863 110.782 79.6598 110.797 79.9176C110.827 80.0366 110.356 80.2795 109.518 80.3043C108.424 80.3196 107.361 79.9492 106.513 79.2582C105.7 78.5939 105.177 77.639 105.056 76.5959C104.986 75.8027 105.195 75.3565 105.324 75.3664Z" fill="#263238"/>
<path d="M104.585 54.6922C104.417 55.188 102.701 54.9401 100.683 55.188C98.6656 55.4359 97.0345 55.9812 96.7668 55.5598C96.6478 55.3615 96.9304 54.9203 97.5897 54.4691C98.4664 53.9152 99.4577 53.568 100.488 53.4537C101.519 53.3395 102.562 53.4612 103.539 53.8097C104.307 54.1072 104.659 54.484 104.585 54.6922Z" fill="#263238"/>
<path d="M120.405 56.1351C120.102 56.5267 118.917 56.1351 117.495 56.1004C116.072 56.0657 114.867 56.3631 114.589 55.9566C114.465 55.7583 114.654 55.3666 115.184 54.9948C115.892 54.5516 116.715 54.3291 117.55 54.3556C118.384 54.3821 119.191 54.6564 119.869 55.1435C120.37 55.5401 120.539 55.9715 120.405 56.1351Z" fill="#263238"/>
<path d="M85.9631 67.3095C85.7698 67.2252 78.2786 65.0388 78.5265 72.6837C78.7744 80.3285 86.3944 78.509 86.4044 78.2859C86.4143 78.0628 85.9631 67.3095 85.9631 67.3095Z" fill="#B78876"/>
<path d="M83.9494 75.4656C83.9147 75.4656 83.8205 75.5647 83.5974 75.6738C83.286 75.8179 82.9312 75.8374 82.6059 75.7283C81.7879 75.4556 81.069 74.1964 80.9847 72.8181C80.9466 72.1634 81.0532 71.5083 81.2971 70.8995C81.3636 70.6559 81.4887 70.4323 81.6616 70.2482C81.8344 70.0642 82.0497 69.9252 82.2886 69.8435C82.4407 69.7983 82.6037 69.8078 82.7495 69.8703C82.8953 69.9328 83.0146 70.0443 83.0868 70.1856C83.1959 70.3938 83.1513 70.5475 83.1909 70.5623C83.2306 70.5772 83.3545 70.4285 83.2801 70.1112C83.231 69.924 83.119 69.7595 82.9629 69.6452C82.8565 69.5685 82.736 69.5137 82.6084 69.4839C82.4808 69.4542 82.3485 69.45 82.2192 69.4716C81.9076 69.5444 81.6197 69.6955 81.3828 69.9107C81.1459 70.1258 80.968 70.3979 80.8657 70.7012C80.5642 71.3747 80.4298 72.1112 80.4741 72.8479C80.5732 74.3897 81.4061 75.8225 82.5216 76.0902C82.7293 76.1435 82.9464 76.1494 83.1567 76.1073C83.3669 76.0653 83.565 75.9764 83.7363 75.8473C83.9395 75.6539 83.9792 75.4804 83.9494 75.4656Z" fill="#AA6550"/>
<path d="M81.6895 67.052C82.8546 66.7695 84.8724 67.8453 85.3682 68.936C85.8639 70.0267 85.973 71.2661 86.4688 72.3618C86.9646 73.4574 88.085 74.4391 89.255 74.1614C89.6503 74.0378 90.0058 73.8116 90.2854 73.5059C90.5649 73.2003 90.7585 72.826 90.8465 72.4213C91.015 71.6044 91.0235 70.7625 90.8712 69.9424C90.4201 66.3728 89.6715 62.833 89.5277 59.2337C89.3839 55.6344 89.8946 51.9012 91.7835 48.8225C93.6724 45.7437 97.1378 43.5028 100.707 43.7953C103.082 43.9837 105.264 45.2231 107.623 45.5553C109.029 45.7413 110.459 45.6044 111.805 45.1551C113.15 44.7059 114.375 43.956 115.387 42.9624C115.645 42.7096 116.835 41.9213 116.835 41.9213C116.835 41.7379 116.661 40.1415 116.032 39.5565C111.347 35.2284 102.909 34.0187 96.7214 35.5903C90.5341 37.1619 84.7336 41.5395 82.0713 47.3103C79.409 53.0811 80.2022 61.192 81.6697 67.0421" fill="#263238"/>
<path d="M123.087 48.168C123.087 48.168 93.7469 38.7483 81.0551 64.112C81.0551 64.112 79.1562 57.7612 79.1562 54.3552C79.1562 52.0796 80.5147 38.5351 94.4558 34.2715C94.4558 34.2715 115.452 26.2598 123.087 48.168Z" fill="#0DC78B"/>
<path d="M97.8612 48.8028C98.3825 49.6432 99.0918 50.3511 99.9334 50.8706C100.775 51.3902 101.726 51.7071 102.711 51.7965C103.695 51.8859 104.688 51.7453 105.609 51.3858C106.53 51.0263 107.356 50.4578 108.02 49.7249C108.311 50.4543 108.824 51.0742 109.486 51.4975C110.148 51.9208 110.925 52.1264 111.71 52.0854C112.494 52.0444 113.246 51.7589 113.861 51.2689C114.475 50.7789 114.92 50.109 115.134 49.3531C115.929 50.2396 116.902 50.9491 117.99 51.4353C119.105 51.8468 120.518 51.6882 121.247 50.7561C121.976 49.8241 121.777 48.3516 121.044 47.3898C120.242 46.4804 119.217 45.7967 118.069 45.4067C114.591 43.8771 110.768 43.2988 106.993 43.731C103.25 44.2268 99.6262 46.0512 97.2861 49.016" fill="#263238"/>
<g opacity="0.4">
<path opacity="0.4" d="M123.086 48.168C120.645 45.5958 117.299 44.0754 113.756 43.9291C105.099 43.5474 88.9025 48.4159 81.0346 64.112C81.0346 64.112 79.1357 57.7612 79.1357 54.3552C79.1357 52.0796 80.4942 38.5351 94.4353 34.2715C94.4551 34.2715 115.451 26.2598 123.086 48.168Z" fill="black"/>
</g>
<path d="M82.2793 61.1417C86.6272 54.4834 92.6261 48.9803 99.3736 44.7811C106.121 40.5819 117.271 36.4026 124.955 34.3699C127.266 33.7552 129.67 33.2197 132.025 33.6262C134.38 34.0328 136.68 35.6093 137.261 37.9147C137.994 40.815 132.848 45.2868 130.434 47.0419C128.019 48.7969 123.086 51.3799 123.086 51.3799C123.086 51.3799 123.156 46.0057 114.549 44.9001C102.849 43.3682 82.2793 61.1417 82.2793 61.1417Z" fill="#0DC78B"/>
<path d="M106.344 39.2148C106.344 39.2148 110.567 36.8748 114.816 36.3294C114.107 35.7779 113.333 35.3151 112.511 34.9512C110.205 35.3324 107.975 36.0823 105.907 37.1722L106.344 39.2148Z" fill="#E0E0E0"/>
<path d="M130.156 104.785L120.85 102.733L117.063 101.786L113.91 96.8975C113.91 96.8975 112.422 105.638 106.775 110.343C106.011 110.968 105.115 111.413 104.154 111.643C103.193 111.873 102.193 111.883 101.228 111.672C99.9536 111.404 98.4564 111.077 97.3459 110.779C97.1079 110.715 96.8501 110.63 96.5724 110.531C92.49 109.015 89.0887 106.082 86.9892 102.267C85.7398 100.046 84.6838 97.7651 85.0457 96.8975L80.6284 106.044L54.6003 118.032L39.8213 154.134L68.4621 162.602L69.3545 192.349L63.9605 229.849L144.985 229.904L142.109 146.47" fill="#0DC78B"/>
<path d="M109.209 137.085C109.044 137.099 108.879 137.099 108.714 137.085L107.271 137.051L102.12 136.867H102.021V136.783C101.936 134.547 101.832 131.9 101.718 129.069C101.584 124.989 101.465 121.3 101.371 118.588C101.341 117.269 101.317 116.194 101.297 115.41C101.297 115.058 101.297 114.771 101.297 114.548C101.284 114.447 101.284 114.346 101.297 114.245C101.32 114.343 101.331 114.442 101.331 114.543C101.331 114.771 101.366 115.038 101.386 115.405C101.426 116.189 101.48 117.264 101.545 118.578C101.654 121.29 101.802 124.979 101.966 129.054C102.065 131.89 102.154 134.537 102.234 136.773L102.125 136.669L107.276 136.942L108.714 137.036C108.88 137.034 109.046 137.051 109.209 137.085Z" fill="#263238"/>
<path d="M104.801 125.033C104.915 124.953 105.049 124.908 105.188 124.904C105.51 124.883 105.831 124.955 106.113 125.113C106.394 125.27 106.624 125.506 106.775 125.791C106.916 126.07 106.966 126.385 106.918 126.694C106.866 127.043 106.712 127.37 106.477 127.634C106.242 127.898 105.936 128.088 105.595 128.181C105.249 128.253 104.891 128.229 104.559 128.111C104.226 127.993 103.933 127.786 103.711 127.512C103.531 127.291 103.405 127.031 103.343 126.753C103.281 126.475 103.284 126.187 103.354 125.91C103.431 125.534 103.617 125.189 103.889 124.919C104.078 124.735 104.216 124.676 104.221 124.691C104.226 124.706 104.122 124.795 103.964 124.988C103.744 125.26 103.596 125.582 103.532 125.925C103.482 126.172 103.488 126.428 103.55 126.672C103.611 126.917 103.727 127.144 103.889 127.338C104.087 127.572 104.345 127.748 104.634 127.85C104.923 127.951 105.234 127.973 105.535 127.913C105.828 127.831 106.091 127.667 106.294 127.44C106.496 127.214 106.631 126.934 106.68 126.634C106.722 126.388 106.694 126.136 106.6 125.905C106.507 125.674 106.351 125.473 106.15 125.325C105.878 125.108 105.541 124.988 105.193 124.983C104.935 125.003 104.801 125.053 104.801 125.033Z" fill="#263238"/>
<path d="M103.925 114.557C104.04 114.456 104.181 114.391 104.332 114.368C104.743 114.281 105.173 114.345 105.542 114.547C105.803 114.68 106.027 114.878 106.191 115.122C106.382 115.407 106.477 115.746 106.464 116.089C106.448 116.48 106.315 116.857 106.081 117.171C105.848 117.485 105.525 117.721 105.155 117.849C104.777 117.945 104.378 117.928 104.009 117.8C103.641 117.671 103.318 117.436 103.083 117.125C102.873 116.856 102.747 116.532 102.721 116.193C102.705 115.9 102.753 115.608 102.859 115.335C103.013 114.947 103.286 114.617 103.638 114.393C103.76 114.301 103.907 114.246 104.059 114.234C104.059 114.234 103.915 114.309 103.697 114.477C103.391 114.713 103.16 115.034 103.033 115.399C102.933 115.661 102.903 115.944 102.945 116.221C102.986 116.498 103.099 116.76 103.271 116.981C103.48 117.248 103.763 117.449 104.084 117.559C104.405 117.669 104.751 117.683 105.081 117.601C105.4 117.487 105.679 117.283 105.882 117.012C106.086 116.741 106.205 116.417 106.226 116.079C106.239 115.801 106.174 115.525 106.038 115.282C105.902 115.039 105.701 114.839 105.457 114.705C105.124 114.509 104.736 114.425 104.352 114.467C104.079 114.502 103.935 114.576 103.925 114.557Z" fill="#263238"/>
<path d="M101.287 154.57C101.287 154.57 101.327 154.546 101.411 154.516L101.783 154.372C102.115 154.258 102.586 154.05 103.186 153.772C104.861 152.928 106.399 151.834 107.747 150.53C109.729 148.578 111.48 146.406 112.968 144.055C114.827 141.197 116.525 138.238 118.054 135.191C120.803 129.636 123.216 123.921 125.278 118.076C126.086 115.836 126.715 114.016 127.157 112.762L127.652 111.314C127.707 111.165 127.756 111.041 127.791 110.942C127.805 110.899 127.823 110.858 127.846 110.818C127.842 110.864 127.832 110.909 127.816 110.952C127.786 111.051 127.747 111.175 127.702 111.334C127.588 111.686 127.434 112.172 127.241 112.821C126.829 114.086 126.224 115.915 125.431 118.161C123.423 124.021 121.035 129.745 118.282 135.295C116.75 138.351 115.041 141.316 113.166 144.174C111.661 146.537 109.884 148.715 107.871 150.664C106.501 151.966 104.935 153.045 103.231 153.861C102.764 154.075 102.286 154.262 101.798 154.422L101.416 154.541C101.375 154.557 101.331 154.567 101.287 154.57Z" fill="#263238"/>
<path d="M118.356 144.67C118.569 144.67 123.502 144.333 123.502 144.333C123.502 144.333 121.465 147.932 119.343 149.291H115.024L118.356 144.67Z" fill="#FAFAFA"/>
<path d="M100.424 165.473C100.508 165.392 100.601 165.32 100.701 165.259L101.534 164.684C102.253 164.189 103.289 163.445 104.534 162.488C107.013 160.589 110.315 157.753 113.844 154.511C115.609 152.89 117.315 151.363 118.772 149.895C120.08 148.609 121.295 147.23 122.406 145.771C123.152 144.786 123.816 143.741 124.39 142.647C124.608 142.266 124.742 141.953 124.846 141.745C124.893 141.635 124.951 141.531 125.019 141.433C124.987 141.547 124.946 141.658 124.895 141.765C124.806 141.978 124.682 142.3 124.479 142.692C123.934 143.811 123.289 144.878 122.55 145.88C121.453 147.364 120.245 148.763 118.936 150.064C117.473 151.551 115.778 153.083 114.013 154.7C110.483 157.942 107.176 160.768 104.643 162.632C103.379 163.569 102.323 164.283 101.589 164.764C101.217 165.002 100.925 165.175 100.726 165.299C100.632 165.368 100.531 165.426 100.424 165.473Z" fill="#263238"/>
<path d="M86.5234 220.569C86.5234 220.569 86.5234 220.524 86.5829 220.45C86.6424 220.375 86.7069 220.256 86.7862 220.122C86.9696 219.84 87.2473 219.423 87.6191 218.898C88.3628 217.857 89.5129 216.389 91.03 214.664C94.084 211.238 98.3625 206.563 103.072 201.387L115.214 188.155L118.907 184.189L119.899 183.113L120.167 182.84L120.266 182.751C120.266 182.751 120.241 182.791 120.186 182.855L119.939 183.148L118.947 184.258L115.313 188.299L103.266 201.546L91.1688 214.773C89.6369 216.478 88.4669 217.921 87.6984 218.942C87.3167 219.438 87.0242 219.86 86.8308 220.137L86.6077 220.45C86.5829 220.491 86.5547 220.531 86.5234 220.569Z" fill="#263238"/>
<path d="M129.512 104.558C129.938 105.197 139.516 106.263 141.861 108.603C144.206 110.943 167.642 128.831 167.642 128.831L150.939 151.309L140.161 148.934L129.512 104.558Z" fill="#0DC78B"/>
<path opacity="0.4" d="M164.801 126.649L146.075 150.238L150.939 151.309L167.621 128.806L164.801 126.649Z" fill="black"/>
<path d="M134.612 127.958C134.528 127.702 134.464 127.44 134.419 127.174C134.364 126.922 134.3 126.609 134.255 126.242C134.211 125.875 134.136 125.459 134.111 124.993C134.087 124.527 134.037 124.001 134.037 123.471C134.037 122.94 134.037 122.341 134.082 121.726C134.178 120.389 134.385 119.062 134.701 117.76C135.039 116.463 135.485 115.198 136.035 113.977C136.298 113.422 136.531 112.886 136.813 112.41C137.096 111.934 137.339 111.493 137.592 111.101C137.845 110.71 138.088 110.373 138.306 110.07C138.486 109.811 138.68 109.561 138.886 109.322C139.048 109.106 139.229 108.906 139.426 108.722C139.291 108.954 139.137 109.174 138.965 109.381C138.811 109.589 138.623 109.842 138.425 110.154C138.226 110.467 137.974 110.799 137.745 111.201C137.517 111.602 137.25 112.028 137.002 112.514C136.754 113 136.506 113.506 136.253 114.071C135.731 115.287 135.304 116.542 134.974 117.824C134.665 119.11 134.455 120.418 134.344 121.736C134.31 122.346 134.265 122.926 134.28 123.466C134.295 124.006 134.28 124.512 134.32 124.953C134.359 125.395 134.389 125.831 134.424 126.198C134.459 126.565 134.503 126.877 134.543 127.13C134.593 127.403 134.616 127.68 134.612 127.958Z" fill="#263238"/>
<path d="M142.109 146.44C141.341 144.951 140.651 143.424 140.041 141.864C139.351 140.339 138.739 138.78 138.207 137.193C138.975 138.681 139.666 140.207 140.279 141.764C140.971 143.289 141.582 144.85 142.109 146.44Z" fill="#263238"/>
<path d="M68.4629 130.11C68.4233 130.11 68.0217 129.391 67.2632 128.276C66.2734 126.823 65.1407 125.473 63.882 124.245C62.6169 123.027 61.2354 121.936 59.7571 120.988C58.6169 120.264 57.8682 119.887 57.8881 119.848C58.0781 119.9 58.2612 119.975 58.4334 120.071C58.9186 120.301 59.3918 120.556 59.8513 120.834C61.3764 121.743 62.7906 122.826 64.0654 124.062C65.336 125.301 66.4604 126.682 67.4168 128.177C67.7788 128.752 68.0514 129.228 68.22 129.57C68.3229 129.739 68.4044 129.921 68.4629 130.11Z" fill="#263238"/>
<path opacity="0.4" d="M39.8213 154.12L40.9764 151.309L72.6564 159.935L71.402 163.46L39.8213 154.12Z" fill="black"/>
<path d="M124.396 143.01H136.458V147.967L121.024 147.868C121.024 147.868 123.409 144.998 124.396 143.01Z" fill="#FAFAFA"/>
<g opacity="0.2">
<path opacity="0.2" d="M81.3721 107.135C81.8084 111.002 82.2843 114.993 84.198 118.384C86.1117 121.775 89.8547 124.447 93.7069 123.877C96.275 123.496 98.4515 121.78 100.202 119.857C101.952 117.933 103.419 115.756 105.328 113.996C106.482 115.24 107.773 116.349 109.175 117.303C110.592 118.263 112.293 118.712 113.999 118.577C115.68 118.374 116.607 117.705 117.137 116.099C115.342 116.654 114.356 116.57 112.566 116.227C110.59 115.849 108.734 114.998 107.157 113.749C106.106 112.921 105.724 111.676 104.391 111.766C103.156 111.835 102.19 112.812 101.377 113.749C100.064 115.251 98.6241 116.638 97.0732 117.893C95.5859 119.068 94.1481 119.876 92.2543 119.822C89.1359 119.752 86.5826 117.303 84.8623 114.7C83.2744 112.301 82.1012 109.651 81.3919 106.862" fill="black"/>
</g>
<path d="M117.881 102.312C117.91 102.402 117.928 102.495 117.936 102.589C117.936 102.773 117.995 103.04 118.03 103.387C118.104 104.081 118.179 105.088 118.208 106.362C118.276 109.621 117.964 112.877 117.281 116.064V116.144V116.223H117.207C115.445 116.636 113.605 116.587 111.868 116.079C110.447 115.699 109.104 115.072 107.901 114.225C107.087 113.672 106.358 113.004 105.735 112.242C105.567 112.036 105.412 111.821 105.269 111.597C105.213 111.521 105.165 111.44 105.125 111.354C105.934 112.412 106.904 113.336 108 114.091C109.197 114.899 110.521 115.499 111.917 115.866C113.617 116.346 115.411 116.389 117.133 115.99L117.038 116.084V116.005C117.714 112.834 118.046 109.599 118.03 106.357C118.03 105.113 117.975 104.106 117.936 103.407C117.936 103.085 117.901 102.822 117.886 102.609C117.87 102.511 117.869 102.41 117.881 102.312Z" fill="#263238"/>
<path d="M102.82 112.093C102.781 112.199 102.727 112.299 102.661 112.39C102.495 112.665 102.313 112.93 102.116 113.184C101.376 114.107 100.56 114.968 99.6769 115.757C99.1266 116.252 98.5069 116.803 97.8376 117.368C97.5005 117.65 97.1633 117.948 96.7865 118.245C96.3985 118.538 95.9892 118.802 95.562 119.034C94.6444 119.54 93.6312 119.849 92.5873 119.941C91.4484 120.038 90.3071 119.785 89.3152 119.217C88.3496 118.642 87.484 117.913 86.7521 117.06C86.0583 116.288 85.4125 115.473 84.8186 114.621C83.8174 113.176 82.9716 111.629 82.2951 110.006C81.8418 108.914 81.4706 107.791 81.1846 106.644C81.0804 106.238 81.016 105.92 80.9763 105.702C80.9488 105.593 80.9322 105.482 80.9268 105.37C80.9722 105.473 81.0054 105.581 81.0259 105.692C81.0854 105.906 81.1647 106.218 81.2788 106.619C81.604 107.749 81.9998 108.856 82.4637 109.936C83.1583 111.534 84.0137 113.058 85.0169 114.482C85.6082 115.323 86.2506 116.126 86.9405 116.887C87.6485 117.718 88.4855 118.429 89.4194 118.994C90.3682 119.536 91.4588 119.778 92.5477 119.688C93.5615 119.601 94.5468 119.307 95.443 118.825C95.8637 118.602 96.2665 118.347 96.6477 118.062C97.0096 117.784 97.3567 117.482 97.6938 117.204C98.3681 116.644 98.9927 116.118 99.548 115.623C100.434 114.858 101.263 114.03 102.027 113.144C102.29 112.827 102.483 112.564 102.612 112.385C102.673 112.282 102.742 112.184 102.82 112.093Z" fill="#263238"/>
<path d="M92.1396 169.057L95.9621 163.485C95.9621 163.485 98.5897 154.353 98.2327 153.073C97.8757 151.794 96.7156 147.035 96.9883 146.975C97.261 146.916 100.122 145.855 101.673 149.672C102.64 152.052 102.957 155.185 103.062 157.208C103.073 157.458 103.138 157.703 103.253 157.925C103.368 158.147 103.53 158.342 103.728 158.495C103.925 158.649 104.153 158.758 104.397 158.815C104.641 158.872 104.894 158.875 105.139 158.824C107.781 158.279 112.179 157.451 113.225 157.704C114.742 158.066 116.1 159.999 116.229 160.649C116.358 161.298 115.317 162.761 115.317 162.761C115.317 162.761 116.606 163.42 117.003 164.417C117.057 164.551 117.102 164.684 117.141 164.813C117.263 165.213 117.277 165.637 117.184 166.044C117.091 166.451 116.894 166.826 116.611 167.134L116.204 167.58C116.204 167.58 117.816 168.021 118.014 168.943C118.122 169.617 118.103 170.304 117.96 170.971L116.447 172.533C116.869 172.926 117.145 173.45 117.231 174.02C117.31 174.873 115.044 176.994 115.044 176.994L105.322 180.465L101.465 181.456L92.1396 169.057Z" fill="#B78876"/>
<path d="M115.347 162.771C114.236 163.07 113.111 163.313 111.976 163.5C110.861 163.772 109.732 163.987 108.595 164.144C108.899 163.995 109.22 163.884 109.552 163.812C110.151 163.643 110.989 163.435 111.926 163.247C112.863 163.058 113.711 162.92 114.336 162.84C114.668 162.772 115.008 162.749 115.347 162.771Z" fill="#AA6550"/>
<path d="M116.235 167.58C115.409 167.968 114.547 168.275 113.662 168.497C112.803 168.806 111.917 169.031 111.015 169.172C111.841 168.784 112.703 168.477 113.588 168.254C114.447 167.946 115.333 167.72 116.235 167.58Z" fill="#AA6550"/>
<path d="M116.816 172.324C115.945 172.846 115.031 173.292 114.084 173.658C113.172 174.105 112.223 174.473 111.248 174.758C112.119 174.237 113.033 173.791 113.98 173.425C114.892 172.978 115.841 172.61 116.816 172.324Z" fill="#AA6550"/>
<path d="M69.7412 203.494L105.496 179.509L96.4733 163.148L63.8415 179.93L67.5449 162.3L45.3987 155.746L39.856 185.939C39.0033 199.364 49.7715 210.202 62.7508 206.677C65.2388 206.004 67.6001 204.929 69.7412 203.494Z" fill="#B78876"/>
<path d="M59.1168 189.419C59.0524 189.276 59.0105 189.123 58.9929 188.968C58.9193 188.55 58.8779 188.127 58.8689 187.703C58.8503 186.293 59.1663 184.898 59.7911 183.633C60.4245 182.371 61.351 181.28 62.493 180.45C62.8333 180.198 63.1949 179.975 63.5738 179.786C63.7097 179.706 63.8568 179.648 64.0101 179.612C64.0101 179.657 63.4301 179.94 62.6021 180.604C61.518 181.451 60.6367 182.529 60.0225 183.76C59.4084 184.99 59.077 186.343 59.0524 187.718C59.0276 188.759 59.1912 189.414 59.1168 189.419Z" fill="#AA6550"/>
<path d="M150.939 151.309C151.163 151.001 176.402 166.38 176.402 166.38L184.493 203.241L196.139 207.515C196.139 207.515 199.773 166.494 197.007 160.109C194.24 153.723 166.194 130.749 166.194 130.749L150.939 151.309Z" fill="#B78876"/>
<path d="M181.914 163.555C181.352 164.4 180.604 165.105 179.728 165.617C178.897 166.202 177.944 166.592 176.941 166.757C177.847 166.352 178.731 165.898 179.589 165.399C180.398 164.828 181.174 164.212 181.914 163.555Z" fill="#AA6550"/>
<path d="M120.583 151.388L122.561 186.767L162.897 184.04L161.678 157.704L155.803 149.797L120.583 151.388Z" fill="#263238"/>
<path d="M111.416 187.555C111.535 188.234 114.961 220.276 114.961 220.276L174.994 216.107L185.152 214.743L180.467 184.908L173.293 183.188L111.416 187.555Z" fill="#0DC78B"/>
<path opacity="0.4" d="M173.293 183.182L111.416 187.554C111.535 188.234 114.961 220.275 114.961 220.275L177.463 215.927L173.293 183.182Z" fill="black"/>
<path d="M156.849 184.446L122.561 186.767L120.583 151.388L155.803 149.797L156.849 184.446Z" fill="#455A64"/>
<path d="M133.369 150.813L134.093 161.715L135.927 160.664L136.944 161.715L138.208 160.664L140.161 161.715V150.506L133.369 150.813Z" fill="#263238"/>
<path d="M147.7 185.19L145.355 158.637L168.275 164.953L170.486 183.282L147.7 185.19Z" fill="#0DC78B"/>
<path d="M168.261 164.958C168.22 165.026 168.172 165.089 168.117 165.146L167.676 165.667L165.99 167.59L160.135 174.159L160.046 174.259L159.952 174.164L156.858 170.892L148.693 162.266L146.239 159.628L145.579 158.904C145.498 158.824 145.426 158.734 145.366 158.637C145.457 158.705 145.541 158.782 145.619 158.865L146.313 159.559L148.822 162.137L157.042 170.714L160.155 173.991H159.972L165.921 167.481L167.661 165.607L168.132 165.112C168.17 165.056 168.213 165.005 168.261 164.958Z" fill="#263238"/>
<path d="M155.426 169.875C155.491 169.91 153.855 173.043 151.777 176.876C149.7 180.708 147.965 183.787 147.9 183.752C147.836 183.717 149.472 180.584 151.549 176.752C153.626 172.919 155.372 169.841 155.426 169.875Z" fill="#263238"/>
<path d="M169.953 183.281C169.893 183.316 168.307 180.778 166.408 177.615C164.509 174.452 163.017 171.849 163.081 171.809C163.146 171.769 164.727 174.313 166.626 177.481C168.525 180.649 170.017 183.247 169.953 183.281Z" fill="#263238"/>
<path d="M160.012 184.154L158.515 167.243L173.11 171.269L174.518 182.939L160.012 184.154Z" fill="#0DC78B"/>
<path opacity="0.4" d="M160.012 184.154L158.515 167.243L173.11 171.269L174.518 182.939L160.012 184.154Z" fill="white"/>
<path d="M173.109 171.269C173.005 171.435 172.884 171.589 172.747 171.73C172.475 172.052 172.118 172.464 171.686 172.964L167.968 177.159L167.879 177.263L167.785 177.164L165.801 175.081C163.764 172.945 161.929 170.996 160.611 169.578L159.064 167.888C158.864 167.689 158.681 167.473 158.519 167.243C158.739 167.418 158.944 167.61 159.133 167.818L160.745 169.449C162.098 170.838 163.952 172.766 165.99 174.903L167.973 176.99H167.765L171.547 172.855L172.668 171.67C172.802 171.523 172.95 171.388 173.109 171.269Z" fill="#263238"/>
<path d="M164.93 174.401C164.989 174.436 163.968 176.439 162.644 178.863C161.885 180.359 161.047 181.813 160.136 183.221C160.818 181.695 161.579 180.206 162.416 178.759C163.176 177.263 164.015 175.808 164.93 174.401Z" fill="#263238"/>
<path d="M174.181 182.939C173.343 181.791 172.575 180.594 171.881 179.354C171.111 178.158 170.417 176.914 169.804 175.631C171.404 177.979 172.866 180.419 174.181 182.939Z" fill="#263238"/>
<path d="M169.312 170.555V171.913L171.444 172.161L171.558 171.125L169.312 170.555Z" fill="white"/>
<path d="M161.786 163.658V165.641L165.812 166.306L166.035 164.789L161.786 163.658Z" fill="white"/>
<path d="M146.075 195.075L145.877 185.189L137.86 185.73L138.718 195.774L146.075 195.075Z" fill="#0DC78B"/>
<path d="M172.218 200.27L158.759 201.547L159.888 213.451L173.348 212.174L172.218 200.27Z" fill="#FAFAFA"/>
<path d="M173.328 212.189C173.312 212.114 173.3 212.038 173.294 211.961C173.294 211.798 173.249 211.584 173.219 211.317C173.16 210.742 173.07 209.923 172.961 208.897C172.748 206.805 172.466 203.85 172.089 200.296L172.208 200.395L158.757 201.689C158.728 201.718 158.976 201.426 158.872 201.55V201.639V201.743V201.942L158.911 202.348L158.986 203.151C159.04 203.682 159.09 204.207 159.139 204.733C159.233 205.779 159.333 206.8 159.427 207.802C159.61 209.785 159.789 211.693 159.947 213.443L159.823 213.344L169.536 212.482L172.292 212.249L173.031 212.194C173.118 212.187 173.206 212.187 173.294 212.194C173.217 212.212 173.139 212.224 173.061 212.229L172.347 212.313L169.62 212.601L159.848 213.592H159.734V213.478C159.561 211.723 159.377 209.829 159.184 207.836C159.091 206.845 158.994 205.822 158.891 204.767C158.842 204.242 158.792 203.716 158.743 203.181C158.718 202.918 158.693 202.651 158.663 202.383L158.629 201.976V201.778V201.674V201.585C158.524 201.709 158.767 201.411 158.748 201.441L172.203 200.187H172.312V200.296C172.629 203.88 172.892 206.865 173.08 208.977C173.165 209.993 173.229 210.801 173.279 211.376C173.279 211.639 173.313 211.847 173.323 212.006C173.329 212.067 173.331 212.128 173.328 212.189Z" fill="#263238"/>
<path d="M171.147 203.136C171.147 203.211 168.801 203.513 165.891 203.821C164.14 204.051 162.377 204.194 160.611 204.247C160.611 204.178 162.956 203.87 165.867 203.563C168.777 203.255 171.142 203.067 171.147 203.136Z" fill="#263238"/>
<path d="M171.067 205.159C170.599 205.328 170.116 205.449 169.624 205.521C168.722 205.7 167.468 205.908 166.075 206.071C164.682 206.235 163.407 206.324 162.49 206.354C161.995 206.398 161.498 206.398 161.003 206.354C161.493 206.257 161.991 206.201 162.49 206.185C163.402 206.101 164.662 205.987 166.05 205.824C167.438 205.66 168.692 205.481 169.6 205.328C170.084 205.235 170.574 205.179 171.067 205.159Z" fill="#263238"/>
<path d="M171.638 209.582C171.168 209.749 170.683 209.87 170.19 209.944C169.288 210.122 168.033 210.331 166.64 210.494C165.247 210.658 163.978 210.747 163.056 210.777C162.561 210.825 162.063 210.825 161.568 210.777C162.059 210.68 162.556 210.624 163.056 210.608C163.968 210.529 165.232 210.41 166.62 210.246C168.008 210.083 169.263 209.904 170.17 209.751C170.654 209.658 171.145 209.601 171.638 209.582Z" fill="#263238"/>
<path d="M170.959 207.316C169.34 207.682 167.704 207.96 166.055 208.149C164.414 208.428 162.759 208.62 161.098 208.724C162.717 208.364 164.353 208.086 166.001 207.892C167.643 207.616 169.297 207.424 170.959 207.316Z" fill="#263238"/>
<path d="M182.842 225.754C182.842 225.754 193.922 218.422 194.775 214.673C195.628 210.925 196.138 207.515 196.138 207.515L184.299 202.611L185.474 206.875C185.474 206.875 181.23 209.398 180.794 212.457C180.507 214.495 175.018 217.985 175.018 217.985C174.562 217.434 173.981 216.998 173.323 216.714C172.666 216.431 171.95 216.307 171.236 216.354L166.625 216.681L169.743 223.706L182.842 225.754Z" fill="#B78876"/>
<path d="M187.169 215.704C187.008 215.803 186.832 215.875 186.649 215.917C186.302 216.031 185.786 216.145 185.161 216.344C184.456 216.594 183.804 216.974 183.238 217.464C182.524 218.072 181.726 218.573 180.868 218.951C179.281 219.627 177.518 219.775 175.841 219.373C175.546 219.316 175.263 219.21 175.003 219.06C174.896 219 174.81 218.91 174.755 218.8C174.701 218.691 174.68 218.567 174.696 218.446C174.704 218.37 174.731 218.298 174.774 218.236C174.818 218.174 174.876 218.123 174.943 218.089C175.043 218.054 175.097 218.089 175.097 218.089C175.097 218.089 175.043 218.089 174.968 218.143C174.916 218.181 174.874 218.23 174.844 218.287C174.814 218.344 174.797 218.406 174.795 218.471C174.785 218.573 174.808 218.675 174.86 218.764C174.911 218.853 174.989 218.924 175.082 218.966C175.336 219.091 175.606 219.176 175.885 219.219C177.526 219.553 179.229 219.38 180.769 218.723C181.607 218.35 182.389 217.859 183.089 217.266C183.683 216.773 184.366 216.399 185.102 216.165C185.736 215.987 186.252 215.902 186.589 215.813C186.779 215.762 186.973 215.725 187.169 215.704Z" fill="#AA6550"/>
<path d="M179.495 221.392C179.495 221.431 178.925 221.104 177.983 220.712C176.755 220.21 175.461 219.888 174.141 219.755C173.754 219.716 173.373 219.706 173.006 219.696H172.936L172.897 219.636C172.323 218.738 171.631 217.921 170.839 217.207C170.239 216.667 169.848 216.389 169.848 216.359C169.848 216.33 169.967 216.399 170.155 216.518C170.422 216.691 170.681 216.878 170.928 217.078C171.774 217.767 172.505 218.586 173.095 219.503L172.991 219.443C173.368 219.443 173.754 219.443 174.151 219.503C175.497 219.632 176.813 219.986 178.043 220.549C178.413 220.717 178.773 220.909 179.119 221.124C179.257 221.193 179.385 221.283 179.495 221.392Z" fill="#AA6550"/>
<path d="M182.49 219.379C182.49 219.448 181.742 219.731 180.869 220.227C179.997 220.722 179.357 221.243 179.308 221.184C180.126 220.23 181.252 219.591 182.49 219.379Z" fill="#AA6550"/>
<path d="M188.494 206.191C188.494 206.27 187.72 206.191 186.838 206.414C185.956 206.637 185.351 207.093 185.281 207.028C185.691 206.612 186.206 206.314 186.772 206.166C187.338 206.019 187.933 206.027 188.494 206.191Z" fill="#AA6550"/>
</g>
</svg>
