<svg width="230" height="230" viewBox="0 0 230 230" fill="none" xmlns="http://www.w3.org/2000/svg">
<mask id="mask0" mask-type="alpha" maskUnits="userSpaceOnUse" x="0" y="0" width="230" height="230">
<circle cx="115" cy="115" r="115" fill="#C4C4C4"/>
</mask>
<g mask="url(#mask0)">
<path d="M237.852 186.072C237.852 186.121 182.821 186.163 114.952 186.163C47.0829 186.163 -7.96191 186.121 -7.96191 186.072C-7.96191 186.023 47.0585 185.98 114.952 185.98C182.845 185.98 237.852 186.016 237.852 186.072Z" fill="#263238"/>
<path d="M162.916 36.8223H66.9715C64.7474 36.8223 62.9443 38.6253 62.9443 40.8494V182.044C62.9443 184.268 64.7474 186.071 66.9715 186.071H162.916C165.14 186.071 166.943 184.268 166.943 182.044V40.8494C166.943 38.6253 165.14 36.8223 162.916 36.8223Z" fill="#263238"/>
<path d="M163.617 47.4707H66.1768V172.11H163.617V47.4707Z" fill="white"/>
<path d="M118.935 178.571C118.934 179.36 118.699 180.131 118.261 180.786C117.822 181.442 117.199 181.953 116.47 182.254C115.741 182.555 114.939 182.634 114.166 182.48C113.392 182.325 112.682 181.945 112.124 181.387C111.567 180.829 111.187 180.118 111.033 179.345C110.88 178.571 110.959 177.769 111.261 177.041C111.563 176.312 112.074 175.689 112.73 175.251C113.386 174.813 114.157 174.579 114.946 174.579C115.47 174.579 115.989 174.682 116.473 174.883C116.957 175.084 117.397 175.378 117.768 175.749C118.138 176.119 118.432 176.56 118.632 177.044C118.832 177.528 118.935 178.047 118.935 178.571Z" fill="#455A64"/>
<path d="M130.182 41.1211H99.7076C99.4727 41.1211 99.2822 41.3115 99.2822 41.5465V42.3449C99.2822 42.5799 99.4727 42.7703 99.7076 42.7703H130.182C130.416 42.7703 130.607 42.5799 130.607 42.3449V41.5465C130.607 41.3115 130.416 41.1211 130.182 41.1211Z" fill="#455A64"/>
<path d="M97.0132 67.5049H75.141C74.2552 67.5049 73.5371 68.223 73.5371 69.1088V90.981C73.5371 91.8668 74.2552 92.5848 75.141 92.5848H97.0132C97.899 92.5848 98.6171 91.8668 98.6171 90.981V69.1088C98.6171 68.223 97.899 67.5049 97.0132 67.5049Z" fill="#0DC78B"/>
<path d="M90.294 76.0518H81.8143C81.3252 76.0518 80.9287 76.4483 80.9287 76.9374V80.6333C80.9287 81.1224 81.3252 81.5189 81.8143 81.5189H90.294C90.7832 81.5189 91.1797 81.1224 91.1797 80.6333V76.9374C91.1797 76.4483 90.7832 76.0518 90.294 76.0518Z" fill="#FAFAFA"/>
<path d="M93.0945 78.4219H79.057C78.8567 78.4219 78.6943 78.5842 78.6943 78.7845V83.3033C78.6943 83.5036 78.8567 83.6659 79.057 83.6659H93.0945C93.2947 83.6659 93.4571 83.5036 93.4571 83.3033V78.7845C93.4571 78.5842 93.2947 78.4219 93.0945 78.4219Z" fill="#FAFAFA"/>
<path d="M91.1802 78.4219C91.2659 79.0258 91.3021 79.6356 91.2883 80.2454V80.35H91.1802C89.925 80.3814 88.0945 80.4023 86.0548 80.4023C84.015 80.4023 82.1845 80.3814 80.9293 80.35H80.8212V80.2454C80.8075 79.6356 80.8436 79.0258 80.9293 78.4219C81.0172 79.0255 81.0533 79.6356 81.0374 80.2454L80.9293 80.1373C82.1845 80.106 84.015 80.085 86.0548 80.085C88.0945 80.085 89.925 80.106 91.1802 80.1373L91.0722 80.2454C91.0562 79.6356 91.0923 79.0255 91.1802 78.4219Z" fill="#263238"/>
<path d="M80.8801 83.621C80.7895 83.621 80.7197 82.4844 80.7197 81.0827C80.7197 79.681 80.7895 78.5479 80.8801 78.5479C80.9708 78.5479 81.037 79.681 81.037 81.0827C81.037 82.4844 80.9673 83.621 80.8801 83.621Z" fill="#263238"/>
<path d="M91.1897 83.6666C91.099 83.6666 91.0293 82.5717 91.0293 81.2259C91.0293 79.88 91.099 78.7852 91.1897 78.7852C91.2803 78.7852 91.3466 79.88 91.3466 81.2259C91.3466 82.5717 91.2769 83.6666 91.1897 83.6666Z" fill="#263238"/>
<path d="M125.384 67.5049H103.512C102.626 67.5049 101.908 68.223 101.908 69.1088V90.981C101.908 91.8668 102.626 92.5848 103.512 92.5848H125.384C126.27 92.5848 126.988 91.8668 126.988 90.981V69.1088C126.988 68.223 126.27 67.5049 125.384 67.5049Z" fill="#E0E0E0"/>
<path d="M118.67 76.0518H110.19C109.701 76.0518 109.305 76.4483 109.305 76.9374V80.6333C109.305 81.1224 109.701 81.5189 110.19 81.5189H118.67C119.159 81.5189 119.556 81.1224 119.556 80.6333V76.9374C119.556 76.4483 119.159 76.0518 118.67 76.0518Z" fill="#0DC78B"/>
<path d="M121.469 78.4219H107.432C107.232 78.4219 107.069 78.5842 107.069 78.7845V83.3033C107.069 83.5036 107.232 83.6659 107.432 83.6659H121.469C121.67 83.6659 121.832 83.5036 121.832 83.3033V78.7845C121.832 78.5842 121.67 78.4219 121.469 78.4219Z" fill="#0DC78B"/>
<path d="M119.554 78.4219C119.637 79.026 119.672 79.6358 119.659 80.2454V80.35H119.551C118.296 80.3814 116.462 80.4023 114.425 80.4023C112.389 80.4023 110.552 80.3814 109.3 80.35H109.188V80.2454C109.172 79.6356 109.208 79.0255 109.296 78.4219C109.384 79.0255 109.42 79.6356 109.404 80.2454L109.296 80.1373C110.548 80.106 112.382 80.085 114.422 80.085C116.462 80.085 118.292 80.106 119.547 80.1373L119.439 80.2454C119.426 79.6354 119.464 79.0253 119.554 78.4219Z" fill="#263238"/>
<path d="M109.251 83.621C109.164 83.621 109.091 82.4844 109.091 81.0827C109.091 79.681 109.164 78.5479 109.251 78.5479C109.338 78.5479 109.412 79.681 109.412 81.0827C109.412 82.4844 109.342 83.621 109.251 83.621Z" fill="#263238"/>
<path d="M119.562 83.6666C119.475 83.6666 119.405 82.5717 119.405 81.2259C119.405 79.88 119.475 78.7852 119.562 78.7852C119.649 78.7852 119.723 79.88 119.723 81.2259C119.723 82.5717 119.653 83.6666 119.562 83.6666Z" fill="#263238"/>
<path d="M153.759 67.5049H131.887C131.001 67.5049 130.283 68.223 130.283 69.1088V90.981C130.283 91.8668 131.001 92.5848 131.887 92.5848H153.759C154.645 92.5848 155.363 91.8668 155.363 90.981V69.1088C155.363 68.223 154.645 67.5049 153.759 67.5049Z" fill="#E0E0E0"/>
<path d="M147.044 76.0518H138.564C138.075 76.0518 137.679 76.4483 137.679 76.9374V80.6333C137.679 81.1224 138.075 81.5189 138.564 81.5189H147.044C147.533 81.5189 147.93 81.1224 147.93 80.6333V76.9374C147.93 76.4483 147.533 76.0518 147.044 76.0518Z" fill="#455A64"/>
<path d="M149.844 78.4219H135.807C135.607 78.4219 135.444 78.5842 135.444 78.7845V83.3033C135.444 83.5036 135.607 83.6659 135.807 83.6659H149.844C150.045 83.6659 150.207 83.5036 150.207 83.3033V78.7845C150.207 78.5842 150.045 78.4219 149.844 78.4219Z" fill="#455A64"/>
<path d="M147.926 78.4219C148.014 79.0255 148.05 79.6356 148.034 80.2454V80.35H147.922C146.671 80.3814 144.837 80.4023 142.8 80.4023C140.764 80.4023 138.927 80.3814 137.675 80.35H137.563V80.2454C137.547 79.6356 137.583 79.0255 137.671 78.4219C137.757 79.0258 137.793 79.6356 137.779 80.2454L137.671 80.1373C138.923 80.106 140.757 80.085 142.797 80.085C144.837 80.085 146.667 80.106 147.919 80.1373L147.811 80.2454C147.799 79.6355 147.838 79.0256 147.926 78.4219Z" fill="#263238"/>
<path d="M137.627 83.621C137.54 83.621 137.467 82.4844 137.467 81.0827C137.467 79.681 137.54 78.5479 137.627 78.5479C137.714 78.5479 137.788 79.681 137.788 81.0827C137.788 82.4844 137.714 83.621 137.627 83.621Z" fill="#263238"/>
<path d="M147.938 83.6666C147.851 83.6666 147.777 82.5717 147.777 81.2259C147.777 79.88 147.851 78.7852 147.938 78.7852C148.025 78.7852 148.098 79.88 148.098 81.2259C148.098 82.5717 148.028 83.6666 147.938 83.6666Z" fill="#263238"/>
<path d="M97.0132 99.0596H75.141C74.2552 99.0596 73.5371 99.7777 73.5371 100.663V122.536C73.5371 123.421 74.2552 124.14 75.141 124.14H97.0132C97.899 124.14 98.6171 123.421 98.6171 122.536V100.663C98.6171 99.7777 97.899 99.0596 97.0132 99.0596Z" fill="#E0E0E0"/>
<path d="M80.8447 111.162L82.0128 115.235L90.0322 115.266L91.3119 111.368C90.8684 111.222 90.3998 111.167 89.9346 111.208L89.7951 106.867C89.793 106.769 89.7669 106.674 89.7192 106.589C89.6715 106.504 89.6036 106.433 89.5216 106.38C89.4396 106.328 89.3459 106.297 89.2489 106.289C89.1519 106.281 89.0545 106.298 88.9653 106.337L88.1843 106.685H83.6515L83.132 106.424C83.0424 106.378 82.9426 106.357 82.8422 106.361C82.7418 106.365 82.6442 106.395 82.5587 106.448C82.4733 106.501 82.4029 106.575 82.3543 106.663C82.3057 106.751 82.2806 106.85 82.2813 106.95V111.235C81.8129 111.11 81.3234 111.085 80.8447 111.162Z" fill="#0DC78B"/>
<path d="M82.4277 115.238L82.0059 115.236L81.9903 118.943L82.4122 118.944L82.4277 115.238Z" fill="#263238"/>
<path d="M83.9082 115.255L83.4863 115.253L83.4784 117.146L83.9003 117.148L83.9082 115.255Z" fill="#263238"/>
<path d="M88.1543 115.272L87.7324 115.271L87.7245 117.164L88.1464 117.166L88.1543 115.272Z" fill="#263238"/>
<path d="M90.0352 115.269L89.6133 115.268L89.5978 118.974L90.0196 118.976L90.0352 115.269Z" fill="#263238"/>
<path d="M83.7119 112.888C83.6804 112.888 83.6594 111.493 83.6664 109.788C83.6734 108.083 83.7084 106.688 83.74 106.688C83.7715 106.688 83.7925 108.083 83.7855 109.788C83.7785 111.493 83.7435 112.888 83.7119 112.888Z" fill="#263238"/>
<path d="M88.2373 112.909C88.2058 112.909 88.1848 111.515 88.1918 109.81C88.1988 108.105 88.2338 106.71 88.2654 106.71C88.2969 106.71 88.3179 108.105 88.3109 109.81C88.3039 111.515 88.2724 112.909 88.2373 112.909Z" fill="#263238"/>
<path d="M89.9279 111.211C89.8618 111.239 89.7928 111.26 89.7222 111.274L89.6071 111.302L89.4781 111.351L89.3247 111.406L89.1643 111.493C88.8979 111.645 88.6784 111.867 88.5297 112.135C88.3465 112.482 88.2689 112.874 88.3066 113.265V113.324H86.1099L83.7076 113.307H83.6588V113.258C83.6541 112.891 83.5582 112.532 83.3798 112.212C83.2479 111.971 83.0744 111.755 82.8673 111.574C82.6752 111.419 82.4658 111.286 82.2432 111.18C82.3081 111.194 82.3712 111.215 82.4314 111.242C82.6017 111.316 82.7612 111.412 82.9056 111.528C83.1317 111.709 83.3221 111.93 83.467 112.18C83.6591 112.505 83.7647 112.874 83.7738 113.251L83.7215 113.202H86.1239H88.2647L88.2124 113.261C88.1761 112.859 88.2573 112.454 88.446 112.097C88.6114 111.817 88.8534 111.591 89.1434 111.445L89.3108 111.364L89.4676 111.312L89.6036 111.267L89.7187 111.246C89.7873 111.228 89.8573 111.217 89.9279 111.211Z" fill="#263238"/>
<path d="M83.6238 113.279C83.6238 113.297 83.4739 113.325 83.2507 113.426C82.963 113.556 82.7116 113.755 82.5185 114.005C82.335 114.261 82.2155 114.557 82.1699 114.869C82.163 115.002 82.149 115.135 82.128 115.267C82.082 115.136 82.0689 114.996 82.0897 114.859C82.1174 114.524 82.2382 114.204 82.4383 113.935C82.6436 113.668 82.9205 113.465 83.2368 113.349C83.358 113.294 83.491 113.27 83.6238 113.279Z" fill="#263238"/>
<path d="M89.9446 115.357C89.9271 115.357 89.9236 115.186 89.8574 114.921C89.7731 114.58 89.6108 114.262 89.3832 113.994C89.1531 113.729 88.8657 113.521 88.5429 113.384C88.2919 113.279 88.1245 113.251 88.128 113.234C88.2796 113.223 88.4317 113.249 88.5708 113.311C88.9207 113.429 89.2323 113.639 89.4728 113.92C89.7133 114.2 89.8738 114.54 89.9376 114.904C89.9769 115.052 89.9793 115.208 89.9446 115.357Z" fill="#263238"/>
<path d="M125.384 99.0596H103.512C102.626 99.0596 101.908 99.7777 101.908 100.663V122.536C101.908 123.421 102.626 124.14 103.512 124.14H125.384C126.27 124.14 126.988 123.421 126.988 122.536V100.663C126.988 99.7777 126.27 99.0596 125.384 99.0596Z" fill="#E0E0E0"/>
<path d="M153.759 99.0596H131.887C131.001 99.0596 130.283 99.7777 130.283 100.663V122.536C130.283 123.421 131.001 124.14 131.887 124.14H153.759C154.645 124.14 155.363 123.421 155.363 122.536V100.663C155.363 99.7777 154.645 99.0596 153.759 99.0596Z" fill="#0DC78B"/>
<path d="M97.0132 130.615H75.141C74.2552 130.615 73.5371 131.333 73.5371 132.219V154.091C73.5371 154.977 74.2552 155.695 75.141 155.695H97.0132C97.899 155.695 98.6171 154.977 98.6171 154.091V132.219C98.6171 131.333 97.899 130.615 97.0132 130.615Z" fill="#0DC78B"/>
<path d="M125.384 130.615H103.512C102.626 130.615 101.908 131.333 101.908 132.219V154.091C101.908 154.977 102.626 155.695 103.512 155.695H125.384C126.27 155.695 126.988 154.977 126.988 154.091V132.219C126.988 131.333 126.27 130.615 125.384 130.615Z" fill="#E0E0E0"/>
<path d="M153.759 130.615H131.887C131.001 130.615 130.283 131.333 130.283 132.219V154.091C130.283 154.977 131.001 155.695 131.887 155.695H153.759C154.645 155.695 155.363 154.977 155.363 154.091V132.219C155.363 131.333 154.645 130.615 153.759 130.615Z" fill="#E0E0E0"/>
<path d="M111.316 163.973C111.812 163.973 112.215 163.57 112.215 163.073C112.215 162.577 111.812 162.174 111.316 162.174C110.819 162.174 110.416 162.577 110.416 163.073C110.416 163.57 110.819 163.973 111.316 163.973Z" fill="#263238"/>
<path d="M115.845 163.073C115.844 163.251 115.791 163.424 115.692 163.572C115.592 163.719 115.452 163.834 115.287 163.902C115.123 163.969 114.942 163.986 114.768 163.951C114.594 163.916 114.434 163.83 114.308 163.704C114.183 163.578 114.097 163.418 114.063 163.244C114.029 163.069 114.047 162.889 114.115 162.724C114.183 162.56 114.298 162.42 114.446 162.321C114.594 162.223 114.768 162.17 114.945 162.17C115.064 162.17 115.181 162.193 115.291 162.239C115.4 162.284 115.499 162.351 115.583 162.435C115.666 162.519 115.733 162.618 115.778 162.728C115.823 162.837 115.845 162.955 115.845 163.073Z" fill="#263238"/>
<path d="M119.478 163.073C119.478 163.252 119.425 163.426 119.326 163.575C119.226 163.724 119.085 163.839 118.92 163.908C118.754 163.976 118.573 163.994 118.397 163.958C118.222 163.923 118.061 163.837 117.935 163.71C117.809 163.584 117.723 163.422 117.689 163.247C117.654 163.072 117.673 162.89 117.742 162.725C117.811 162.56 117.927 162.419 118.076 162.32C118.225 162.222 118.4 162.169 118.578 162.17C118.817 162.171 119.046 162.266 119.215 162.436C119.383 162.605 119.478 162.834 119.478 163.073Z" fill="#263238"/>
<path d="M79.2941 57.9141H74.7056C74.6593 57.9141 74.615 57.8957 74.5823 57.863C74.5496 57.8303 74.5312 57.786 74.5312 57.7398C74.5312 57.6935 74.5496 57.6492 74.5823 57.6165C74.615 57.5838 74.6593 57.5654 74.7056 57.5654H79.2941C79.3403 57.5654 79.3847 57.5838 79.4174 57.6165C79.4501 57.6492 79.4684 57.6935 79.4684 57.7398C79.4684 57.786 79.4501 57.8303 79.4174 57.863C79.3847 57.8957 79.3403 57.9141 79.2941 57.9141Z" fill="#263238"/>
<path d="M76.4875 59.3816C76.4514 59.3815 76.4162 59.3706 76.3864 59.3503L74.3257 57.8824C74.3021 57.8668 74.2827 57.8455 74.2693 57.8206C74.2559 57.7956 74.249 57.7677 74.249 57.7394C74.2506 57.7114 74.2583 57.6841 74.2715 57.6594C74.2848 57.6347 74.3033 57.6132 74.3257 57.5964L76.4491 56.1495C76.4677 56.1333 76.4895 56.1212 76.5131 56.114C76.5366 56.1068 76.5614 56.1047 76.5859 56.1078C76.6103 56.111 76.6338 56.1192 76.6548 56.1321C76.6758 56.145 76.6939 56.1621 76.7078 56.1825C76.7217 56.2028 76.7311 56.2259 76.7354 56.2501C76.7398 56.2744 76.7389 56.2993 76.7329 56.3232C76.7269 56.3471 76.7159 56.3694 76.7007 56.3888C76.6854 56.4081 76.6662 56.424 76.6444 56.4354L74.7302 57.7429L76.5921 59.0644C76.6226 59.0857 76.6455 59.1162 76.6575 59.1514C76.6694 59.1867 76.6697 59.2248 76.6584 59.2603C76.6471 59.2957 76.6248 59.3266 76.5947 59.3485C76.5645 59.3703 76.5282 59.3819 76.491 59.3816H76.4875Z" fill="#263238"/>
<path d="M153.407 57.9307H148.819C148.773 57.9307 148.728 57.9123 148.696 57.8796C148.663 57.8469 148.645 57.8026 148.645 57.7564C148.645 57.7101 148.663 57.6658 148.696 57.6331C148.728 57.6004 148.773 57.582 148.819 57.582H153.407C153.454 57.582 153.498 57.6004 153.531 57.6331C153.563 57.6658 153.582 57.7101 153.582 57.7564C153.582 57.8026 153.563 57.8469 153.531 57.8796C153.498 57.9123 153.454 57.9307 153.407 57.9307Z" fill="#263238"/>
<path d="M151.556 59.3818C151.527 59.3816 151.499 59.3745 151.473 59.3611C151.448 59.3478 151.426 59.3286 151.409 59.3051C151.385 59.2668 151.376 59.2205 151.384 59.1758C151.392 59.131 151.418 59.0912 151.455 59.0645L153.372 57.7535L151.514 56.4355C151.477 56.4083 151.451 56.3676 151.443 56.322C151.436 56.2764 151.446 56.2296 151.472 56.1915C151.485 56.1726 151.502 56.1566 151.522 56.1443C151.541 56.1319 151.563 56.1236 151.585 56.1197C151.608 56.1158 151.631 56.1164 151.654 56.1216C151.676 56.1267 151.697 56.1363 151.716 56.1496L153.777 57.6175C153.801 57.6326 153.82 57.6538 153.833 57.6789C153.846 57.7041 153.852 57.7323 153.85 57.7605C153.85 57.7884 153.843 57.8157 153.83 57.8405C153.817 57.8653 153.799 57.8869 153.777 57.9035L151.653 59.3504C151.625 59.3703 151.591 59.3812 151.556 59.3818Z" fill="#263238"/>
<path d="M91.0918 140.578L82.4134 140.593C81.9532 140.594 81.5807 140.968 81.5815 141.428L81.5907 146.672C81.5915 147.132 81.9652 147.505 82.4255 147.504L91.1039 147.489C91.5641 147.488 91.9366 147.114 91.9358 146.654L91.9266 141.41C91.9258 140.95 91.5521 140.577 91.0918 140.578Z" fill="#E0E0E0"/>
<path d="M89.1059 141.867C89.1013 141.823 89.1013 141.778 89.1059 141.734C89.1059 141.632 89.1128 141.506 89.1268 141.358C89.1651 140.894 89.1651 140.427 89.1268 139.963C89.07 139.284 88.792 138.642 88.3353 138.136C88.057 137.852 87.7021 137.654 87.3137 137.568C86.8903 137.483 86.4587 137.447 86.0271 137.46C85.1484 137.46 84.2837 137.641 83.684 138.129C83.4051 138.359 83.1852 138.651 83.0425 138.983C82.9184 139.273 82.8373 139.58 82.8019 139.893C82.7547 140.357 82.7547 140.824 82.8019 141.288C82.8158 141.441 82.8263 141.567 82.8332 141.664C82.8332 141.752 82.8332 141.797 82.8332 141.797C82.8187 141.755 82.8093 141.712 82.8054 141.668C82.8054 141.584 82.774 141.455 82.7531 141.295C82.6873 140.833 82.6733 140.365 82.7112 139.9C82.7439 139.577 82.8238 139.259 82.9483 138.959C83.0916 138.61 83.3178 138.301 83.6073 138.059C83.932 137.799 84.309 137.613 84.7126 137.512C85.1416 137.406 85.5818 137.354 86.0236 137.355C86.4646 137.342 86.9055 137.38 87.3381 137.466C87.7476 137.56 88.1209 137.77 88.412 138.073C88.882 138.599 89.163 139.266 89.2105 139.97C89.2465 140.435 89.2372 140.902 89.1826 141.365C89.1826 141.529 89.1512 141.654 89.1407 141.738C89.1325 141.782 89.1209 141.825 89.1059 141.867Z" fill="#263238"/>
<path d="M89.7842 140.546L81.1058 140.561C80.6456 140.562 80.2731 140.936 80.2739 141.396L80.2831 146.64C80.2839 147.1 80.6576 147.473 81.1179 147.472L89.7963 147.457C90.2565 147.456 90.629 147.082 90.6282 146.622L90.619 141.378C90.6182 140.918 90.2444 140.545 89.7842 140.546Z" fill="#FAFAFA"/>
<path d="M89.7893 147.463C89.9008 147.453 90.0101 147.425 90.1135 147.383C90.2359 147.329 90.3426 147.245 90.4239 147.138C90.5371 146.996 90.5986 146.819 90.5982 146.636C90.5982 145.793 90.5982 144.583 90.5738 143.09C90.5738 142.717 90.5738 142.323 90.5738 141.915C90.5738 141.713 90.5738 141.497 90.5738 141.298C90.5506 141.093 90.448 140.905 90.2879 140.775C90.1176 140.643 89.9026 140.582 89.6882 140.604H88.9908H87.5438H81.1074C80.9748 140.605 80.8445 140.639 80.7291 140.705C80.6137 140.77 80.517 140.864 80.4484 140.977C80.3786 141.088 80.3401 141.216 80.3368 141.347C80.3368 141.486 80.3368 141.622 80.3368 141.762C80.3368 142.32 80.3368 142.867 80.3368 143.404V146.511C80.3298 146.628 80.3428 146.746 80.3751 146.86C80.4107 146.966 80.4677 147.065 80.5425 147.149C80.6176 147.232 80.7097 147.298 80.8127 147.342C80.9156 147.386 81.0269 147.407 81.1387 147.403H84.9602H88.5027H89.4685H89.7195H89.8032H89.7195H89.4685H88.5062L84.9602 147.431H82.5195H81.1248C80.9976 147.435 80.871 147.412 80.7536 147.363C80.6363 147.313 80.531 147.239 80.4449 147.145C80.3567 147.051 80.2911 146.938 80.2531 146.814C80.2159 146.691 80.2006 146.562 80.2078 146.434C80.2078 145.444 80.2078 144.405 80.2078 143.327C80.2078 142.791 80.2078 142.243 80.2078 141.685C80.2078 141.546 80.2078 141.41 80.2078 141.263C80.2131 141.113 80.2576 140.966 80.3368 140.838C80.4167 140.707 80.5289 140.599 80.6626 140.524C80.7963 140.449 80.947 140.409 81.1004 140.409H87.5369H89.6742C89.9124 140.387 90.1498 140.459 90.3367 140.608C90.4259 140.68 90.4999 140.77 90.5544 140.871C90.6089 140.972 90.6427 141.083 90.654 141.197C90.654 141.417 90.654 141.619 90.654 141.825C90.654 142.233 90.654 142.627 90.654 143C90.654 144.492 90.654 145.702 90.654 146.546C90.6508 146.738 90.5833 146.923 90.4622 147.072C90.3736 147.18 90.2598 147.263 90.131 147.316C90.0335 147.397 89.9149 147.448 89.7893 147.463Z" fill="#263238"/>
<path d="M119.237 140.578L110.559 140.593C110.099 140.594 109.726 140.968 109.727 141.428L109.736 146.672C109.737 147.132 110.111 147.505 110.571 147.504L119.249 147.489C119.71 147.488 120.082 147.114 120.081 146.654L120.072 141.41C120.071 140.95 119.698 140.577 119.237 140.578Z" fill="#0DC78B"/>
<path d="M117.25 141.867C117.246 141.823 117.246 141.778 117.25 141.734C117.25 141.632 117.257 141.506 117.271 141.358C117.31 140.894 117.31 140.427 117.271 139.963C117.215 139.284 116.937 138.642 116.48 138.136C116.202 137.852 115.847 137.654 115.458 137.568C115.035 137.483 114.603 137.447 114.172 137.46C113.293 137.46 112.428 137.641 111.829 138.129C111.55 138.359 111.33 138.651 111.187 138.983C111.063 139.273 110.982 139.58 110.946 139.893C110.899 140.357 110.899 140.824 110.946 141.288C110.96 141.441 110.971 141.567 110.978 141.664C110.978 141.752 110.978 141.797 110.978 141.797C110.963 141.755 110.954 141.712 110.95 141.668C110.95 141.584 110.919 141.455 110.898 141.295C110.832 140.833 110.818 140.365 110.856 139.9C110.888 139.577 110.968 139.259 111.093 138.959C111.236 138.61 111.462 138.301 111.752 138.059C112.077 137.799 112.454 137.613 112.857 137.512C113.286 137.406 113.726 137.354 114.168 137.355C114.609 137.342 115.05 137.38 115.483 137.466C115.892 137.56 116.265 137.77 116.557 138.073C117.026 138.599 117.307 139.266 117.355 139.97C117.391 140.435 117.382 140.902 117.327 141.365C117.327 141.529 117.296 141.654 117.285 141.738C117.279 141.782 117.268 141.825 117.25 141.867Z" fill="#263238"/>
<path d="M117.929 140.545L109.25 140.56C108.79 140.561 108.418 140.935 108.418 141.395L108.428 146.639C108.428 147.099 108.802 147.472 109.262 147.471L117.941 147.456C118.401 147.455 118.773 147.081 118.773 146.621L118.764 141.377C118.763 140.917 118.389 140.544 117.929 140.545Z" fill="#0DC78B"/>
<path d="M117.933 147.463C118.044 147.453 118.154 147.425 118.257 147.383C118.379 147.329 118.486 147.245 118.567 147.138C118.681 146.996 118.742 146.819 118.742 146.636C118.742 145.793 118.742 144.583 118.717 143.09C118.717 142.717 118.717 142.323 118.717 141.915C118.717 141.713 118.717 141.497 118.717 141.298C118.694 141.093 118.592 140.905 118.431 140.775C118.261 140.643 118.046 140.582 117.832 140.604H117.134H115.687H109.251C109.118 140.605 108.988 140.639 108.873 140.705C108.757 140.77 108.661 140.864 108.592 140.977C108.522 141.088 108.484 141.216 108.48 141.347C108.48 141.486 108.48 141.622 108.48 141.762C108.48 142.32 108.48 142.867 108.48 143.404V146.511C108.473 146.628 108.486 146.746 108.519 146.86C108.554 146.966 108.611 147.065 108.686 147.149C108.762 147.232 108.854 147.298 108.958 147.342C109.062 147.386 109.173 147.407 109.286 147.403H113.097H116.643H117.605H117.856H117.94H117.856H117.605H116.643L113.097 147.431H110.656H109.293C109.166 147.435 109.039 147.412 108.922 147.363C108.804 147.313 108.699 147.239 108.613 147.145C108.525 147.051 108.459 146.938 108.421 146.814C108.385 146.691 108.371 146.562 108.379 146.434C108.379 145.444 108.379 144.405 108.379 143.327C108.379 142.791 108.379 142.243 108.379 141.685C108.379 141.546 108.379 141.41 108.379 141.263C108.385 141.113 108.429 140.966 108.508 140.838C108.588 140.707 108.7 140.599 108.834 140.524C108.968 140.449 109.119 140.409 109.272 140.409H115.708H117.846C118.084 140.387 118.321 140.459 118.508 140.608C118.688 140.755 118.803 140.966 118.829 141.197C118.829 141.417 118.829 141.619 118.829 141.825C118.829 142.233 118.829 142.627 118.829 143C118.829 144.492 118.829 145.702 118.829 146.546C118.828 146.711 118.777 146.873 118.684 147.01C118.591 147.147 118.459 147.254 118.306 147.316C118.2 147.403 118.069 147.454 117.933 147.463Z" fill="#263238"/>
<path d="M148.497 140.575L139.819 140.59C139.358 140.591 138.986 140.965 138.987 141.425L138.996 146.669C138.997 147.129 139.37 147.502 139.831 147.501L148.509 147.486C148.969 147.485 149.342 147.111 149.341 146.651L149.332 141.407C149.331 140.947 148.957 140.574 148.497 140.575Z" fill="#455A64"/>
<path d="M146.511 141.867C146.507 141.823 146.507 141.778 146.511 141.734C146.511 141.632 146.518 141.506 146.532 141.358C146.57 140.894 146.57 140.427 146.532 139.963C146.474 139.284 146.196 138.643 145.741 138.136C145.462 137.852 145.107 137.654 144.719 137.568C144.296 137.483 143.864 137.447 143.432 137.46C142.55 137.46 141.689 137.641 141.086 138.129C140.809 138.36 140.59 138.652 140.448 138.983C140.324 139.273 140.243 139.58 140.207 139.893C140.16 140.357 140.16 140.824 140.207 141.288C140.221 141.441 140.232 141.567 140.239 141.664C140.244 141.708 140.244 141.753 140.239 141.797C140.224 141.755 140.215 141.712 140.211 141.668C140.211 141.584 140.179 141.455 140.158 141.295C140.093 140.833 140.079 140.365 140.116 139.9C140.147 139.576 140.227 139.259 140.354 138.959C140.496 138.609 140.722 138.3 141.013 138.059C141.337 137.799 141.714 137.613 142.118 137.512C142.547 137.406 142.987 137.353 143.429 137.355C143.87 137.342 144.311 137.38 144.743 137.466C145.153 137.56 145.526 137.771 145.817 138.073C146.288 138.598 146.568 139.266 146.612 139.97C146.651 140.434 146.643 140.902 146.588 141.365C146.588 141.529 146.556 141.654 146.546 141.738C146.538 141.782 146.526 141.825 146.511 141.867Z" fill="#263238"/>
<path d="M147.189 140.543L138.511 140.558C138.051 140.559 137.678 140.933 137.679 141.393L137.688 146.637C137.689 147.097 138.063 147.47 138.523 147.469L147.202 147.454C147.662 147.453 148.034 147.079 148.033 146.619L148.024 141.375C148.023 140.915 147.65 140.542 147.189 140.543Z" fill="#455A64"/>
<path d="M147.195 147.463C147.306 147.453 147.415 147.425 147.519 147.383C147.641 147.329 147.748 147.245 147.829 147.138C147.942 146.996 148.004 146.819 148.003 146.636C148.003 145.793 148.003 144.583 147.979 143.09C147.979 142.717 147.979 142.323 147.979 141.915C147.979 141.713 147.979 141.497 147.979 141.298C147.956 141.092 147.852 140.904 147.69 140.775C147.521 140.642 147.307 140.581 147.093 140.604H146.396H144.949H138.513C138.38 140.605 138.25 140.639 138.134 140.705C138.019 140.77 137.922 140.864 137.854 140.977C137.784 141.088 137.745 141.216 137.742 141.347C137.742 141.486 137.742 141.622 137.742 141.762C137.742 142.32 137.742 142.867 137.742 143.404V146.511C137.735 146.628 137.748 146.746 137.78 146.86C137.815 146.967 137.872 147.066 137.948 147.149C138.023 147.232 138.115 147.298 138.218 147.342C138.321 147.386 138.432 147.407 138.544 147.403H142.352H145.894H146.86H147.111H147.195H147.111H146.86H145.894L142.352 147.431H139.911H138.544C138.417 147.435 138.291 147.411 138.175 147.362C138.058 147.313 137.953 147.239 137.868 147.145C137.78 147.05 137.713 146.937 137.672 146.814C137.638 146.691 137.624 146.562 137.631 146.434C137.631 145.444 137.631 144.405 137.631 143.327C137.631 142.791 137.631 142.243 137.631 141.685C137.631 141.546 137.631 141.41 137.631 141.263C137.636 141.113 137.68 140.966 137.76 140.838C137.839 140.707 137.95 140.599 138.084 140.524C138.217 140.449 138.367 140.41 138.52 140.409H144.96H147.097C147.335 140.387 147.572 140.459 147.759 140.608C147.849 140.68 147.923 140.77 147.977 140.871C148.032 140.972 148.065 141.083 148.077 141.197C148.077 141.417 148.077 141.619 148.077 141.825C148.077 142.233 148.077 142.627 148.077 143C148.077 144.492 148.077 145.702 148.077 146.546C148.074 146.738 148.006 146.923 147.885 147.072C147.796 147.18 147.683 147.263 147.554 147.316C147.451 147.4 147.326 147.451 147.195 147.463Z" fill="#263238"/>
<path d="M109.715 111.846L110.883 115.932L118.902 115.967L120.175 112.055C119.732 111.909 119.263 111.855 118.798 111.898L118.665 107.564C118.662 107.467 118.636 107.372 118.588 107.288C118.54 107.204 118.472 107.132 118.39 107.08C118.308 107.028 118.215 106.996 118.119 106.988C118.022 106.98 117.925 106.996 117.835 107.034L117.054 107.383L112.522 107.362L112.002 107.1C111.913 107.055 111.813 107.033 111.712 107.038C111.612 107.042 111.514 107.072 111.429 107.125C111.343 107.178 111.273 107.252 111.224 107.339C111.176 107.427 111.151 107.526 111.151 107.627V111.916C110.683 111.79 110.193 111.766 109.715 111.846Z" fill="#455A64"/>
<path d="M111.297 115.924L110.875 115.922L110.859 119.628L111.281 119.63L111.297 115.924Z" fill="#263238"/>
<path d="M112.786 115.927L112.364 115.925L112.356 117.818L112.778 117.82L112.786 115.927Z" fill="#263238"/>
<path d="M117.026 115.955L116.604 115.953L116.597 117.846L117.018 117.848L117.026 115.955Z" fill="#263238"/>
<path d="M118.898 115.966L118.477 115.964L118.461 119.67L118.883 119.672L118.898 115.966Z" fill="#263238"/>
<path d="M112.582 113.575C112.551 113.575 112.529 112.181 112.537 110.476C112.544 108.771 112.575 107.376 112.61 107.376C112.645 107.376 112.659 108.771 112.652 110.476C112.645 112.181 112.614 113.575 112.582 113.575Z" fill="#263238"/>
<path d="M117.107 113.593C117.076 113.593 117.055 112.198 117.062 110.493C117.069 108.788 117.1 107.394 117.135 107.394C117.171 107.394 117.188 108.788 117.178 110.493C117.167 112.198 117.139 113.593 117.107 113.593Z" fill="#263238"/>
<path d="M118.798 111.898C118.729 111.922 118.659 111.942 118.589 111.958L118.477 111.986L118.344 112.038L118.195 112.094L118.034 112.181C117.767 112.33 117.547 112.551 117.4 112.819C117.216 113.167 117.139 113.561 117.176 113.952V114.008H114.98H112.577H112.529V113.959C112.526 113.593 112.432 113.233 112.253 112.913C112.118 112.668 111.94 112.449 111.727 112.268C111.535 112.113 111.325 111.981 111.103 111.874C111.166 111.887 111.228 111.907 111.287 111.933C111.458 112.007 111.619 112.103 111.765 112.219C111.991 112.401 112.182 112.623 112.326 112.875C112.517 113.2 112.622 113.568 112.633 113.945L112.581 113.893H114.983H117.124L117.072 113.952C117.037 113.541 117.124 113.128 117.323 112.767C117.483 112.489 117.719 112.263 118.003 112.115L118.174 112.031L118.331 111.979L118.466 111.937L118.582 111.916C118.653 111.901 118.725 111.896 118.798 111.898Z" fill="#263238"/>
<path d="M112.504 113.963C112.504 113.984 112.354 114.012 112.131 114.113C111.842 114.241 111.589 114.441 111.398 114.693C111.206 114.946 111.082 115.243 111.036 115.556C111.029 115.689 111.015 115.822 110.995 115.954C110.95 115.823 110.936 115.683 110.956 115.546C110.981 115.211 111.102 114.89 111.305 114.622C111.51 114.356 111.785 114.153 112.1 114.036C112.227 113.979 112.366 113.954 112.504 113.963Z" fill="#263238"/>
<path d="M118.815 116.041C118.798 116.041 118.794 115.87 118.728 115.609C118.645 115.267 118.482 114.949 118.254 114.681C118.023 114.416 117.734 114.207 117.41 114.071C117.163 113.966 116.992 113.935 116.995 113.918C117.148 113.906 117.301 113.933 117.441 113.994C117.791 114.114 118.102 114.326 118.343 114.606C118.583 114.887 118.744 115.227 118.808 115.591C118.848 115.738 118.85 115.893 118.815 116.041Z" fill="#263238"/>
<path d="M138.182 110.776L139.353 114.852L147.373 114.887L148.652 110.985C148.209 110.839 147.74 110.784 147.275 110.825L147.146 106.494C147.143 106.397 147.117 106.302 147.068 106.217C147.02 106.132 146.952 106.06 146.87 106.008C146.788 105.956 146.694 105.925 146.597 105.917C146.5 105.909 146.402 105.926 146.313 105.964L145.532 106.313L141.016 106.296L140.497 106.034C140.407 105.988 140.307 105.965 140.206 105.969C140.105 105.973 140.007 106.003 139.921 106.056C139.835 106.109 139.764 106.183 139.715 106.272C139.667 106.36 139.642 106.46 139.643 106.561V110.846C139.166 110.718 138.668 110.694 138.182 110.776Z" fill="#FAFAFA"/>
<path d="M139.764 114.85L139.342 114.849L139.326 118.555L139.748 118.557L139.764 114.85Z" fill="#263238"/>
<path d="M141.252 114.856L140.83 114.854L140.822 116.748L141.244 116.75L141.252 114.856Z" fill="#263238"/>
<path d="M145.5 114.875L145.078 114.873L145.07 116.766L145.492 116.768L145.5 114.875Z" fill="#263238"/>
<path d="M147.361 114.896L146.939 114.895L146.924 118.601L147.346 118.603L147.361 114.896Z" fill="#263238"/>
<path d="M141.047 112.502C141.016 112.502 140.998 111.107 141.005 109.402C141.012 107.697 141.044 106.306 141.076 106.306C141.107 106.306 141.128 107.7 141.121 109.405C141.114 111.11 141.097 112.502 141.047 112.502Z" fill="#263238"/>
<path d="M145.576 112.523C145.541 112.523 145.524 111.128 145.531 109.423C145.538 107.718 145.569 106.323 145.601 106.323C145.632 106.323 145.653 107.718 145.646 109.423C145.639 111.128 145.608 112.523 145.576 112.523Z" fill="#263238"/>
<path d="M147.264 110.825C147.198 110.854 147.129 110.875 147.058 110.887L146.943 110.915L146.814 110.964L146.66 111.02L146.5 111.107C146.234 111.259 146.014 111.481 145.866 111.749C145.682 112.095 145.605 112.488 145.642 112.878V112.938H143.442H141.04H140.991V112.889C140.988 112.522 140.892 112.162 140.712 111.843C140.577 111.597 140.399 111.377 140.186 111.194C139.995 111.038 139.785 110.907 139.562 110.804C139.627 110.812 139.691 110.832 139.75 110.863C139.92 110.936 140.08 111.033 140.224 111.149C140.449 111.33 140.64 111.551 140.785 111.801C140.976 112.126 141.082 112.494 141.092 112.871L141.04 112.823H143.442H145.583L145.531 112.882C145.495 112.469 145.583 112.055 145.785 111.693C145.944 111.415 146.18 111.189 146.465 111.044L146.633 110.961L146.789 110.908L146.925 110.866L147.044 110.846C147.117 110.834 147.19 110.827 147.264 110.825Z" fill="#263238"/>
<path d="M140.96 112.893C140.96 112.91 140.81 112.938 140.59 113.039C140.301 113.167 140.048 113.367 139.856 113.619C139.665 113.872 139.541 114.169 139.496 114.482C139.457 114.723 139.471 114.88 139.454 114.88C139.404 114.751 139.389 114.612 139.412 114.476C139.438 114.14 139.559 113.818 139.761 113.548C139.963 113.281 140.239 113.078 140.556 112.966C140.681 112.906 140.821 112.881 140.96 112.893Z" fill="#263238"/>
<path d="M147.281 114.971C147.264 114.971 147.261 114.8 147.194 114.535C147.113 114.193 146.951 113.876 146.722 113.609C146.494 113.342 146.205 113.134 145.88 113.001C145.629 112.892 145.461 112.865 145.465 112.847C145.617 112.836 145.769 112.863 145.908 112.924C146.258 113.043 146.57 113.254 146.811 113.534C147.049 113.815 147.209 114.154 147.275 114.517C147.314 114.666 147.316 114.821 147.281 114.971Z" fill="#263238"/>
<path d="M129.311 60.9583C129.311 61.0073 122.913 61.0494 115.015 61.0494C107.118 61.0494 100.72 61.0073 100.72 60.9583C100.72 60.9092 107.118 60.8672 115.015 60.8672C122.913 60.8672 129.311 60.9057 129.311 60.9583Z" fill="#E0E0E0"/>
<path d="M119.711 62.1155C119.711 62.1646 117.619 62.2066 115.018 62.2066C112.417 62.2066 110.325 62.1646 110.325 62.1155C110.325 62.0665 112.417 62.0244 115.018 62.0244C117.619 62.0244 119.711 62.063 119.711 62.1155Z" fill="#E0E0E0"/>
<path d="M31.5713 172.766L31.9897 185.877L48.3285 185.601C48.2064 184.043 39.0224 181.117 39.0224 181.117L38.9562 172.303L31.5713 172.766Z" fill="#0DC78B"/>
<g opacity="0.3">
<path opacity="0.3" d="M31.5713 172.766L31.9897 185.877L48.3285 185.601C48.2064 184.043 39.0224 181.117 39.0224 181.117L38.9562 172.303L31.5713 172.766Z" fill="black"/>
</g>
<path d="M34.6323 180.438C34.4762 180.488 34.3442 180.594 34.2617 180.736C34.1793 180.878 34.1523 181.045 34.186 181.205C34.231 181.363 34.3348 181.498 34.4761 181.583C34.6174 181.667 34.7855 181.694 34.9461 181.658C35.1125 181.605 35.2528 181.491 35.3393 181.34C35.4258 181.188 35.4522 181.009 35.4133 180.839C35.3501 180.679 35.227 180.55 35.0702 180.479C34.9133 180.408 34.735 180.401 34.573 180.459" fill="#263238"/>
<path d="M31.9891 185.867L31.9473 184.542L47.6689 184.772C47.6689 184.772 48.4011 185.079 48.3279 185.591L31.9891 185.867Z" fill="#263238"/>
<path d="M39.2824 181.25C39.2824 181.331 38.8815 181.376 38.4944 181.637C38.1074 181.899 37.9052 182.241 37.8285 182.209C37.7518 182.178 37.8668 181.718 38.341 181.407C38.8152 181.097 39.2824 181.177 39.2824 181.25Z" fill="#263238"/>
<path d="M41.4244 181.957C41.4418 182.034 41.1001 182.177 40.8351 182.519C40.5701 182.861 40.4865 183.216 40.4167 183.216C40.347 183.216 40.2808 182.763 40.619 182.345C40.9572 181.926 41.4209 181.881 41.4244 181.957Z" fill="#263238"/>
<path d="M42.3969 183.924C42.3237 183.945 42.2051 183.548 42.3969 183.105C42.5887 182.662 42.9618 182.484 42.9966 182.551C43.0315 182.617 42.8048 182.854 42.6479 183.22C42.491 183.586 42.4736 183.924 42.3969 183.924Z" fill="#263238"/>
<path d="M39.1053 179.064C39.0705 179.137 38.7043 179.036 38.2546 179.064C37.8048 179.092 37.4526 179.252 37.4108 179.186C37.3689 179.12 37.7002 178.837 38.2336 178.788C38.7671 178.739 39.1402 179.001 39.1053 179.064Z" fill="#263238"/>
<path d="M39.3606 177.097C39.0926 177.172 38.8093 177.172 38.5413 177.097C38.2451 177.05 37.9559 176.967 37.68 176.85C37.5172 176.779 37.3588 176.699 37.2058 176.609C37.1143 176.558 37.0299 176.494 36.9548 176.421C36.9016 176.365 36.8686 176.292 36.861 176.215C36.8535 176.138 36.8717 176.061 36.913 175.995C36.9519 175.939 37.0038 175.892 37.0645 175.859C37.1251 175.826 37.1927 175.808 37.2616 175.807C37.3653 175.804 37.4688 175.817 37.5685 175.845C37.7442 175.883 37.9159 175.938 38.081 176.009C38.3595 176.13 38.6172 176.293 38.8446 176.494C39.2316 176.843 39.3641 177.132 39.3362 177.15C39.3083 177.167 39.1131 176.93 38.7226 176.647C38.3637 176.382 37.9505 176.198 37.5127 176.11C37.3383 176.069 37.1919 176.069 37.164 176.145C37.1361 176.222 37.1466 176.187 37.164 176.239C37.2191 176.293 37.2813 176.339 37.3488 176.375C37.49 176.463 37.6354 176.543 37.7846 176.616C38.0415 176.736 38.3088 176.833 38.5831 176.905C38.8463 176.952 39.1061 177.016 39.3606 177.097Z" fill="#263238"/>
<path d="M47.8045 63.2847C47.7407 61.7573 47.1039 60.3099 46.021 59.2308C44.938 58.1518 43.4884 57.5202 41.9607 57.4619H41.6434C38.2439 57.5316 36.4133 60.4605 36.5633 63.8566L36.3262 78.3997C39.1713 80.2581 41.9049 81.6423 44.1504 80.7637L44.499 74.7142C44.499 74.7142 47.7835 74.3307 47.9474 71.0706C48.0311 69.4667 47.93 66.2101 47.8045 63.2847Z" fill="#FFBE9D"/>
<path d="M44.5136 74.6818C43.0071 74.6517 41.5435 74.1748 40.3086 73.3115C40.3086 73.3115 41.1942 75.7208 44.4613 75.5535L44.5136 74.6818Z" fill="#EB996E"/>
<path d="M46.8461 65.6968C46.8425 65.8183 46.7917 65.9336 46.7045 66.0182C46.6172 66.1028 46.5004 66.1501 46.3789 66.1501C46.32 66.1533 46.261 66.1449 46.2054 66.1253C46.1498 66.1056 46.0986 66.0751 46.0548 66.0356C46.011 65.996 45.9755 65.9482 45.9504 65.8948C45.9252 65.8414 45.9109 65.7836 45.9082 65.7247C45.9109 65.6029 45.9615 65.4871 46.0489 65.4023C46.1363 65.3175 46.2536 65.2705 46.3754 65.2714C46.4344 65.2676 46.4936 65.2757 46.5494 65.2952C46.6053 65.3147 46.6567 65.3451 46.7005 65.3848C46.7444 65.4244 46.7799 65.4725 46.8049 65.5261C46.8299 65.5796 46.8439 65.6377 46.8461 65.6968Z" fill="#263238"/>
<path d="M47.0447 64.8323C46.9819 64.8916 46.6402 64.6161 46.1381 64.5987C45.6361 64.5813 45.2595 64.8184 45.2072 64.7556C45.1549 64.6928 45.2455 64.6196 45.4094 64.508C45.6324 64.3652 45.8946 64.2957 46.1591 64.3093C46.4189 64.3192 46.669 64.4107 46.8738 64.5708C47.0238 64.6963 47.0726 64.8079 47.0447 64.8323Z" fill="#263238"/>
<path d="M42.1663 65.6928C42.1618 65.814 42.1107 65.9288 42.0237 66.0132C41.9366 66.0976 41.8204 66.1452 41.6991 66.146C41.6409 66.1489 41.5828 66.1402 41.528 66.1205C41.4732 66.1008 41.4228 66.0705 41.3797 66.0313C41.3366 65.9921 41.3017 65.9448 41.2769 65.8921C41.2522 65.8394 41.238 65.7823 41.2354 65.7242C41.239 65.6033 41.2893 65.4885 41.3758 65.404C41.4623 65.3194 41.5781 65.2717 41.6991 65.2709C41.8167 65.2661 41.9315 65.3076 42.0188 65.3865C42.1061 65.4653 42.1591 65.5753 42.1663 65.6928Z" fill="#263238"/>
<path d="M42.1105 64.7375C42.0513 64.7967 41.7096 64.5213 41.2075 64.5039C40.7054 64.4864 40.3288 64.7235 40.2765 64.6608C40.2242 64.598 40.3149 64.5248 40.4788 64.4132C40.7007 64.2708 40.9616 64.2014 41.2249 64.2145C41.4862 64.2222 41.7381 64.3139 41.9432 64.476C42.0931 64.598 42.1419 64.7131 42.1105 64.7375Z" fill="#263238"/>
<path d="M43.7878 68.5143C44.0564 68.4428 44.3327 68.4042 44.6107 68.3993C44.7362 68.3993 44.8582 68.3714 44.8861 68.2842C44.8987 68.152 44.8733 68.0189 44.8129 67.9007C44.7048 67.5869 44.5932 67.2556 44.4642 66.9104C43.9935 65.5158 43.6553 64.3477 43.7111 64.3303C43.7669 64.3128 44.1992 65.4356 44.6699 66.8442L44.9977 67.8379C45.0711 67.996 45.0872 68.1748 45.043 68.3435C45.0228 68.3879 44.9928 68.4272 44.9554 68.4586C44.918 68.49 44.8741 68.5126 44.8268 68.5248C44.7546 68.5395 44.6809 68.5465 44.6072 68.5457C44.3338 68.5688 44.0586 68.5583 43.7878 68.5143Z" fill="#263238"/>
<path d="M42.1127 62.6581C42.0604 62.7941 41.5618 62.7279 40.9725 62.7976C40.3833 62.8673 39.9056 63.0242 39.8289 62.9022C39.794 62.8429 39.8777 62.7174 40.0695 62.5849C40.3242 62.4199 40.6147 62.3182 40.9167 62.2885C41.2186 62.2549 41.5242 62.2919 41.8093 62.3966C42.0255 62.4838 42.1336 62.5919 42.1127 62.6581Z" fill="#263238"/>
<path d="M46.954 63.0917C46.8424 63.1998 46.4205 63.0673 45.908 63.0429C45.3954 63.0185 44.9596 63.0813 44.862 62.9592C44.8201 62.9 44.8933 62.7884 45.0886 62.6873C45.3552 62.563 45.6496 62.5101 45.9428 62.5339C46.2369 62.5448 46.5224 62.6351 46.7692 62.7954C46.954 62.9348 47.0063 63.0394 46.954 63.0917Z" fill="#263238"/>
<path d="M36.7378 66.251C36.6855 66.2232 34.5238 65.5014 34.5098 67.7364C34.4959 69.9714 36.7378 69.5216 36.7448 69.4553C36.7518 69.3891 36.7378 66.251 36.7378 66.251Z" fill="#FFBE9D"/>
<path d="M36.0697 68.6087C36.0697 68.6087 36.0278 68.6331 35.9616 68.6645C35.8688 68.7019 35.765 68.7019 35.6722 68.6645C35.529 68.5722 35.4128 68.4435 35.3356 68.2915C35.2584 68.1396 35.223 67.9699 35.2329 67.7998C35.2283 67.6079 35.2664 67.4173 35.3444 67.2419C35.3658 67.172 35.404 67.1084 35.4557 67.0568C35.5073 67.0051 35.5709 66.9669 35.6408 66.9455C35.6853 66.9333 35.7327 66.9375 35.7743 66.9573C35.8159 66.9772 35.849 67.0114 35.8674 67.0536C35.8988 67.1164 35.8849 67.1617 35.8953 67.1652C35.9058 67.1687 35.9442 67.1268 35.9267 67.0362C35.9139 66.9804 35.8833 66.9302 35.8396 66.8932C35.7774 66.8475 35.6999 66.8275 35.6234 66.8374C35.5312 66.8557 35.4452 66.8973 35.3738 66.9584C35.3023 67.0194 35.2478 67.0979 35.2154 67.1861C35.1192 67.3798 35.0714 67.594 35.076 67.8102C35.0643 68.0086 35.1113 68.2059 35.2112 68.3777C35.311 68.5495 35.4592 68.688 35.6373 68.7761C35.696 68.793 35.7576 68.7968 35.8179 68.7871C35.8782 68.7775 35.9356 68.7546 35.986 68.7203C36.0627 68.661 36.0767 68.6122 36.0697 68.6087Z" fill="#EB996E"/>
<path d="M40.365 66.8057C40.3498 66.8067 40.3347 66.8018 40.323 66.7921C40.3112 66.7823 40.3037 66.7684 40.3019 66.7532C40.3004 66.7458 40.3004 66.7382 40.3019 66.7308C40.3034 66.7235 40.3063 66.7164 40.3106 66.7102C40.3148 66.704 40.3203 66.6987 40.3266 66.6947C40.333 66.6906 40.3401 66.6879 40.3475 66.6866C40.3549 66.6851 40.3626 66.6852 40.37 66.6869C40.3774 66.6886 40.3843 66.692 40.3903 66.6966C40.3963 66.7013 40.4012 66.7072 40.4047 66.7139C40.4082 66.7207 40.4102 66.7281 40.4105 66.7357C40.4126 66.7433 40.413 66.7512 40.4118 66.759C40.4106 66.7668 40.4077 66.7743 40.4034 66.7809C40.3991 66.7875 40.3935 66.7931 40.3869 66.7974C40.3802 66.8017 40.3728 66.8045 40.365 66.8057Z" fill="#EB996E"/>
<path d="M41.3295 66.6245C41.3015 66.6245 41.2701 66.6035 41.2666 66.5651C41.2632 66.5268 41.2666 66.4919 41.3085 66.4884C41.3168 66.4879 41.325 66.4891 41.3328 66.4918C41.3406 66.4945 41.3478 66.4988 41.354 66.5043C41.3601 66.5098 41.3652 66.5165 41.3687 66.5239C41.3723 66.5314 41.3744 66.5394 41.3748 66.5477C41.3769 66.5557 41.3774 66.5641 41.3762 66.5723C41.3751 66.5805 41.3723 66.5884 41.3681 66.5955C41.3639 66.6027 41.3583 66.6089 41.3517 66.6139C41.345 66.6188 41.3375 66.6224 41.3295 66.6245Z" fill="#EB996E"/>
<path d="M41.9786 66.6348C41.9472 66.6348 41.9193 66.5999 41.9123 66.5476C41.9054 66.4952 41.9298 66.4568 41.9612 66.4533C41.9926 66.4499 42.0205 66.4882 42.024 66.5371C42.0275 66.5859 42.0065 66.6313 41.9786 66.6348Z" fill="#EB996E"/>
<path d="M40.8148 67.4261C40.7833 67.4261 40.7588 67.4051 40.7588 67.3876C40.7588 67.3701 40.7868 67.3525 40.8183 67.3525C40.8499 67.3525 40.8709 67.3701 40.8709 67.3911C40.8709 67.4121 40.8464 67.4261 40.8148 67.4261Z" fill="#EB996E"/>
<path d="M41.6994 67.2555C41.684 67.2547 41.6694 67.2481 41.6584 67.2372C41.6475 67.2262 41.6409 67.2116 41.6401 67.1962C41.6391 67.1884 41.6397 67.1805 41.6418 67.1729C41.6439 67.1653 41.6475 67.1583 41.6524 67.1521C41.6573 67.1459 41.6633 67.1408 41.6702 67.137C41.6771 67.1332 41.6846 67.1307 41.6924 67.1299C41.7082 67.1299 41.7233 67.1361 41.7344 67.1473C41.7455 67.1584 41.7518 67.1735 41.7518 67.1892C41.7528 67.2048 41.7481 67.2202 41.7384 67.2325C41.7287 67.2447 41.7148 67.2529 41.6994 67.2555Z" fill="#EB996E"/>
<path d="M46.2924 66.8834C46.2845 66.8843 46.2766 66.8838 46.269 66.8816C46.2614 66.8795 46.2543 66.8759 46.2481 66.871C46.2419 66.8661 46.2367 66.86 46.2329 66.8531C46.2291 66.8462 46.2267 66.8387 46.2258 66.8308C46.2227 66.8155 46.2257 66.7996 46.2342 66.7864C46.2428 66.7733 46.2561 66.7641 46.2714 66.7607C46.2863 66.7607 46.3008 66.7659 46.3122 66.7755C46.3236 66.7851 46.3313 66.7984 46.3338 66.8131C46.3363 66.8279 46.3335 66.843 46.326 66.8559C46.3184 66.8687 46.3065 66.8785 46.2924 66.8834Z" fill="#EB996E"/>
<path d="M46.9545 66.8476C46.9461 66.8476 46.9377 66.8459 46.93 66.8425C46.9224 66.8391 46.9155 66.8341 46.9099 66.8278C46.9043 66.8215 46.9 66.8142 46.8975 66.8061C46.895 66.7981 46.8942 66.7896 46.8952 66.7813C46.8929 66.7652 46.8967 66.7489 46.9057 66.7354C46.9147 66.7219 46.9283 66.7121 46.944 66.708C46.9523 66.7085 46.9603 66.7105 46.9678 66.7141C46.9753 66.7177 46.9819 66.7227 46.9874 66.7288C46.9929 66.735 46.9972 66.7422 46.9999 66.75C47.0026 66.7578 47.0038 66.7661 47.0033 66.7743C46.9998 66.8127 46.9789 66.8476 46.9545 66.8476Z" fill="#EB996E"/>
<path d="M45.7124 66.8788C45.699 66.8809 45.6853 66.8776 45.6742 66.8698C45.6631 66.8619 45.6554 66.8501 45.6529 66.8368C45.6519 66.83 45.6523 66.8232 45.6541 66.8166C45.6559 66.8101 45.659 66.804 45.6633 66.7987C45.6676 66.7935 45.6729 66.7891 45.679 66.786C45.685 66.7829 45.6916 66.7811 45.6984 66.7807C45.7119 66.7775 45.726 66.7798 45.7379 66.787C45.7497 66.7942 45.7581 66.8058 45.7615 66.8192C45.7625 66.8336 45.7579 66.8477 45.7488 66.8588C45.7397 66.8699 45.7267 66.877 45.7124 66.8788Z" fill="#EB996E"/>
<path d="M46.1727 67.5479C46.1579 67.5523 46.142 67.5507 46.1283 67.5435C46.1146 67.5364 46.1043 67.5242 46.0995 67.5095C46.0954 67.5025 46.0929 67.4947 46.0921 67.4867C46.0913 67.4786 46.0922 67.4705 46.0949 67.4629C46.0975 67.4553 46.1018 67.4483 46.1074 67.4425C46.113 67.4367 46.1198 67.4321 46.1274 67.4292C46.1422 67.4248 46.1581 67.4264 46.1718 67.4335C46.1855 67.4407 46.1958 67.4529 46.2006 67.4676C46.2042 67.4747 46.2063 67.4824 46.2068 67.4903C46.2073 67.4982 46.2062 67.5061 46.2036 67.5136C46.201 67.5211 46.1969 67.528 46.1916 67.5339C46.1863 67.5397 46.1799 67.5445 46.1727 67.5479Z" fill="#EB996E"/>
<path d="M46.7341 67.4687C46.7284 67.4668 46.723 67.4639 46.7184 67.46C46.7138 67.4561 46.71 67.4513 46.7073 67.4459C46.7045 67.4406 46.7028 67.4347 46.7023 67.4287C46.7018 67.4227 46.7025 67.4166 46.7043 67.4109C46.7062 67.4051 46.7091 67.3998 46.713 67.3952C46.7169 67.3906 46.7217 67.3868 46.7271 67.384C46.7324 67.3812 46.7383 67.3796 46.7443 67.3791C46.7503 67.3786 46.7564 67.3793 46.7621 67.3811C46.7689 67.3818 46.7754 67.384 46.7812 67.3876C46.787 67.3911 46.792 67.3959 46.7957 67.4017C46.7994 67.4074 46.8017 67.4138 46.8026 67.4206C46.8035 67.4273 46.8028 67.4342 46.8007 67.4407C46.7984 67.447 46.7948 67.4529 46.7901 67.4578C46.7855 67.4627 46.7798 67.4666 46.7736 67.4693C46.7673 67.4719 46.7606 67.4732 46.7538 67.4731C46.747 67.473 46.7403 67.4715 46.7341 67.4687Z" fill="#EB996E"/>
<path d="M42.6569 69.5506C42.6923 69.5131 43.0297 69.8165 43.5273 70.0473C44.025 70.2781 44.4712 70.3507 44.4644 70.4031C44.1159 70.427 43.767 70.362 43.4505 70.214C43.134 70.0661 42.8603 69.8401 42.6551 69.5573L42.6569 69.5506Z" fill="#263238"/>
<path d="M49.8477 58.8662C49.7108 58.8254 49.5813 58.763 49.4641 58.6814C49.3909 58.591 49.3374 58.4863 49.3068 58.3741C49.2762 58.2618 49.2692 58.1445 49.2863 58.0294C49.3011 57.9141 49.2868 57.7969 49.2448 57.6885C49.2028 57.5801 49.1344 57.484 49.0457 57.4088C48.7703 57.2554 48.4111 57.5169 48.1182 57.4088C47.8254 57.3007 47.794 56.8893 47.6406 56.6103C47.5339 56.435 47.3682 56.3036 47.1732 56.2397C46.9782 56.1758 46.7668 56.1836 46.5771 56.2616C46.3191 56.3767 46.0401 56.6277 45.7961 56.4813C45.552 56.3349 45.6148 56.035 45.5206 55.8049C45.4859 55.7295 45.436 55.6621 45.3741 55.6068C45.3122 55.5515 45.2397 55.5095 45.1609 55.4833C45.0822 55.4572 44.9989 55.4475 44.9162 55.4548C44.8335 55.4621 44.7533 55.4864 44.6803 55.5259C44.4642 55.655 44.2619 55.9374 44.0318 55.8328C43.8017 55.7282 43.847 55.4109 43.6657 55.2749C43.5867 55.2296 43.4947 55.2125 43.4047 55.2264C43.3147 55.2403 43.2321 55.2845 43.1706 55.3516C43.0479 55.4867 42.9393 55.6339 42.8463 55.7909C42.7986 55.8684 42.7327 55.9331 42.6543 55.9793C42.5759 56.0255 42.4874 56.0518 42.3965 56.0559C42.1978 56.0559 42.0479 55.8607 41.9049 55.7317C41.3854 55.2923 40.5695 55.383 40.0081 55.7735C39.6577 56.0321 39.3625 56.3581 39.1399 56.7324C38.5386 56.5991 37.9138 56.6146 37.3199 56.7777C35.9879 57.1682 34.928 58.4757 35.0082 59.8599C35.05 60.5085 35.315 61.1186 35.4231 61.7602C35.497 62.5285 35.5098 63.3015 35.4614 64.0719C35.4614 64.8425 35.5103 65.5503 36.0158 66.1325L36.6818 66.3034C36.7277 66.3832 36.7801 66.459 36.8387 66.53C36.9335 66.667 37.0742 66.7655 37.2354 66.8078C37.3966 66.85 37.5676 66.8331 37.7174 66.7602C37.8646 66.6279 37.9629 66.4497 37.9963 66.2546C38.4042 64.8599 38.8122 63.3536 38.6239 61.9311C38.565 61.5494 38.6231 61.1589 38.7905 60.811C38.9579 60.4631 39.2269 60.174 39.5618 59.982C39.7722 59.8575 39.997 59.7591 40.2313 59.6891C40.4617 59.6455 40.6982 59.6455 40.9286 59.6891C41.421 59.7841 41.8566 60.0682 42.142 60.4806C42.3407 60.7665 42.4907 61.1396 42.8393 61.2267C43.188 61.3139 43.5541 61.0315 43.9272 61.0315C44.3003 61.0315 44.6245 61.3418 44.9105 61.6138C45.1964 61.8857 45.5729 62.1507 45.9565 62.0357C46.34 61.9206 46.4865 61.5615 46.8177 61.4499C47.064 61.3921 47.3229 61.4256 47.5464 61.544C47.7674 61.6626 48.0014 61.7551 48.2438 61.8195C48.3653 61.8514 48.4935 61.8469 48.6125 61.8067C48.7315 61.7664 48.8361 61.692 48.9132 61.5928C49.0631 61.3523 48.969 61.0036 49.1468 60.7804C49.3246 60.5573 49.5931 60.5747 49.8442 60.4771C49.9993 60.4107 50.1318 60.3007 50.2256 60.1605C50.3194 60.0203 50.3705 59.8559 50.3728 59.6872C50.375 59.5185 50.3282 59.3528 50.2381 59.2101C50.148 59.0675 50.0184 58.9541 49.8651 58.8837L49.8477 58.8662Z" fill="#263238"/>
<path d="M35.417 63.0222C35.417 62.9943 35.6436 63.0222 35.9958 62.9734C36.4528 62.9258 36.894 62.7796 37.2889 62.5448C37.6838 62.3101 38.023 61.9923 38.2831 61.6136C38.3809 61.4462 38.488 61.2844 38.6039 61.1289C38.5813 61.3288 38.5081 61.5196 38.3912 61.6833C38.1458 62.1027 37.7979 62.4529 37.3801 62.7011C36.9624 62.9494 36.4885 63.0874 36.0028 63.1024C35.8039 63.1253 35.6024 63.0977 35.417 63.0222Z" fill="#455A64"/>
<path d="M35.2881 63.8594C35.88 63.8749 36.4701 63.7864 37.0314 63.5979C37.5684 63.3566 38.0601 63.0252 38.4854 62.6182C38.5028 62.6182 38.4052 62.8134 38.1751 63.054C37.8687 63.3593 37.5017 63.5969 37.0977 63.7513C36.6861 63.9219 36.2423 64.0004 35.7971 63.9815C35.6202 63.9815 35.4458 63.9397 35.2881 63.8594Z" fill="#455A64"/>
<path d="M32.8949 108.305L28.8398 121.084L31.4235 178.949L39.3279 177.99L40.3635 150.466L44.6277 119.678L45.0566 108.782L32.8949 108.305Z" fill="#263238"/>
<path d="M35.4969 165.075L27.7529 175.668L40.7967 185.507C41.6614 184.203 36.2257 176.243 36.2257 176.243L41.5987 169.27L35.4969 165.075Z" fill="#0DC78B"/>
<path d="M33.1919 173.001C33.0375 172.944 32.8677 172.947 32.7152 173.008C32.5627 173.069 32.4381 173.184 32.3655 173.332C32.3032 173.483 32.3013 173.653 32.3603 173.806C32.4194 173.959 32.5347 174.084 32.6828 174.155C32.8459 174.216 33.0262 174.215 33.1882 174.15C33.3502 174.086 33.4821 173.963 33.558 173.806C33.6056 173.64 33.5876 173.463 33.5078 173.31C33.4279 173.158 33.2923 173.042 33.1291 172.987" fill="#263238"/>
<path d="M27.7529 175.668L28.5374 174.598L40.7828 184.458C40.7828 184.458 41.1698 185.155 40.7828 185.504L27.7529 175.668Z" fill="#263238"/>
<path d="M36.3304 176.512C36.2815 176.575 35.9398 176.362 35.4726 176.331C35.0054 176.299 34.6358 176.442 34.5975 176.373C34.5591 176.303 34.9287 176.024 35.497 176.052C36.0654 176.08 36.3896 176.463 36.3304 176.512Z" fill="#263238"/>
<path d="M37.5922 178.394C37.5608 178.464 37.2052 178.367 36.7833 178.471C36.3614 178.576 36.086 178.82 36.0267 178.768C35.9674 178.715 36.1975 178.325 36.724 178.203C37.2505 178.081 37.6375 178.346 37.5922 178.394Z" fill="#263238"/>
<path d="M37.156 180.535C37.0863 180.504 37.2362 180.12 37.6651 179.894C38.094 179.667 38.4949 179.754 38.481 179.828C38.467 179.901 38.1323 179.95 37.7836 180.138C37.435 180.326 37.2223 180.577 37.156 180.535Z" fill="#263238"/>
<path d="M37.5402 174.685C37.4705 174.723 37.2438 174.416 36.8673 174.169C36.4907 173.921 36.1455 173.813 36.1455 173.743C36.1455 173.674 36.5953 173.639 37.0381 173.939C37.4809 174.238 37.6169 174.66 37.5402 174.685Z" fill="#263238"/>
<path d="M38.9591 173.293C38.9591 173.321 38.6592 173.171 38.3106 172.798C38.1054 172.578 37.9285 172.333 37.7841 172.069C37.6968 171.914 37.621 171.752 37.5574 171.585C37.5174 171.489 37.4904 171.388 37.4772 171.285C37.4726 171.21 37.4921 171.136 37.5329 171.073C37.5737 171.01 37.6337 170.962 37.7039 170.936C37.7696 170.916 37.8392 170.912 37.907 170.923C37.9747 170.935 38.0389 170.962 38.0944 171.002C38.1766 171.064 38.2495 171.136 38.3106 171.219C38.4242 171.358 38.5257 171.508 38.6139 171.665C38.759 171.931 38.8613 172.218 38.9173 172.516C38.9993 172.783 38.9993 173.068 38.9173 173.335C38.8719 173.335 38.8754 173.025 38.7394 172.561C38.6582 172.291 38.5409 172.033 38.3908 171.794C38.3057 171.653 38.2101 171.519 38.1049 171.393C37.9933 171.253 37.8747 171.163 37.7945 171.198C37.7143 171.233 37.7562 171.222 37.7527 171.285C37.7638 171.361 37.7849 171.434 37.8155 171.505C37.8702 171.661 37.9354 171.814 38.0107 171.961C38.1373 172.216 38.288 172.457 38.4605 172.683C38.7534 173.056 38.987 173.262 38.9591 173.293Z" fill="#263238"/>
<path d="M45.0576 108.782L49.6461 108.964C49.6461 108.964 59.8552 145.473 58.8266 148.674C57.798 151.875 38.9035 173.116 38.9035 173.116L33.248 167.188C33.248 167.188 39.301 156.892 42.0171 153.967C43.9627 151.875 48.9906 147.854 48.9906 147.854L42.5297 134.828L45.0576 108.782Z" fill="#263238"/>
<path d="M45.5034 122.977C45.452 123.173 45.3868 123.365 45.3081 123.552C45.1722 123.901 44.9769 124.448 44.7468 125.103C44.2865 126.421 43.7008 128.259 43.2056 130.334C42.7105 132.408 42.3932 134.305 42.2084 135.689C42.1143 136.386 42.0446 136.941 42.0027 137.328C41.9877 137.53 41.9586 137.73 41.9156 137.928C41.8979 137.726 41.8979 137.523 41.9156 137.321C41.9365 136.93 41.9853 136.369 42.062 135.672C42.2701 133.861 42.5868 132.064 43.0104 130.292C43.4384 128.518 43.9717 126.772 44.6073 125.062C44.8549 124.406 45.0676 123.883 45.2245 123.524C45.3019 123.334 45.3952 123.151 45.5034 122.977Z" fill="#455A64"/>
<path d="M38.9039 173.116L38.7923 173.015L38.4855 172.708L37.3244 171.519L33.1927 167.227L33.1543 167.188L33.1857 167.136C34.6536 164.675 36.4039 161.7 38.4506 158.608C40.03 156.15 41.8649 153.866 43.9248 151.795C44.7812 150.961 45.6845 150.178 46.6305 149.448C47.0663 149.127 47.4743 148.82 47.8648 148.545L48.9666 147.799H48.9875L51.1841 148.29L51.7664 148.426C51.8346 148.437 51.9013 148.456 51.9651 148.482C51.8971 148.477 51.8295 148.466 51.7629 148.451L51.1737 148.343L48.9666 147.9H49.0049L47.9171 148.66C47.53 148.935 47.1256 149.249 46.6932 149.57C45.7595 150.306 44.8667 151.093 44.0189 151.927C41.978 154 40.1574 156.278 38.5866 158.726C36.5399 161.812 34.7826 164.779 33.2973 167.234V167.14L37.3802 171.477L38.5099 172.691L38.8028 173.015C38.8402 173.045 38.8741 173.078 38.9039 173.116Z" fill="#455A64"/>
<path d="M50.6844 101.411C50.7018 101.505 52.344 100.92 52.5219 100.275C52.6997 99.6296 52.6509 97.7677 52.6509 97.7677L48.4668 95.2363L48.4877 98.723C49.0581 98.9381 49.5616 99.2999 49.9473 99.772C50.333 100.244 50.5873 100.81 50.6844 101.411Z" fill="#FFBE9D"/>
<path d="M46.0469 74.1348L47.8983 75.3168C47.8983 75.3168 48.4771 76.7498 49.2163 77.4088C49.9555 78.0678 51.2281 79.3997 51.2281 79.3997L51.7895 81.415L55.8306 80.3865L54.0873 74.5462L53.5782 73.0016C53.5782 73.0016 52.6926 71.6453 51.5489 72.367C51.5489 72.367 51.6919 71.8614 51.2002 71.83C50.796 71.83 50.3929 71.8721 49.9973 71.9556C49.6986 71.7388 49.3442 71.6118 48.9757 71.5895C48.7146 71.5911 48.4542 71.618 48.1982 71.6697C48.1982 71.6697 48.0622 71.0944 47.7554 71.1676C47.4485 71.2408 47.058 71.7882 46.9499 72.1125C46.8803 72.5156 46.8697 72.9267 46.9186 73.3328L46.0469 74.1348Z" fill="#FFBE9D"/>
<path d="M51.7488 72.3496C51.4619 72.5122 51.2282 72.7544 51.0759 73.047C50.918 73.3624 50.8424 73.7126 50.8562 74.0651C50.8584 74.2754 50.8771 74.4853 50.912 74.6927C50.9294 74.8008 50.9469 74.9123 50.9678 75.0239C50.9793 75.1319 51.0027 75.2383 51.0375 75.3412C51.0602 75.3807 51.0913 75.4146 51.1287 75.4405C51.1661 75.4665 51.2088 75.4837 51.2537 75.4911C51.3484 75.5173 51.4484 75.5173 51.5431 75.4911C51.6332 75.4681 51.7153 75.4209 51.7805 75.3545C51.8457 75.2881 51.8914 75.2051 51.9127 75.1146C52.0103 74.7659 51.8883 74.3719 51.9406 74.0476C51.9545 73.8964 52.0141 73.7529 52.1114 73.6362C52.1839 73.5474 52.2809 73.4819 52.3904 73.4479C52.5752 73.3956 52.6728 73.4758 52.6658 73.4793C52.5807 73.4755 52.4956 73.4873 52.4148 73.5142C52.3116 73.564 52.2243 73.6417 52.1627 73.7383C52.1011 73.835 52.0677 73.947 52.0661 74.0616C52.0278 74.351 52.1707 74.7171 52.0661 75.1599C52.0314 75.2809 51.9645 75.3902 51.8727 75.4762C51.7808 75.5622 51.6674 75.6218 51.5444 75.6486C51.4215 75.6754 51.2936 75.6685 51.1742 75.6285C51.0549 75.5885 50.9486 75.5169 50.8667 75.4214C50.8233 75.3034 50.7951 75.1804 50.783 75.0553C50.7621 74.9402 50.7446 74.8287 50.7272 74.7066C50.6953 74.4908 50.6801 74.2728 50.6819 74.0546C50.6762 73.6767 50.77 73.3039 50.9539 72.9737C51.0792 72.7517 51.2608 72.5665 51.4803 72.4368C51.6442 72.3496 51.7453 72.3496 51.7488 72.3496Z" fill="#EB996E"/>
<path d="M53.115 74.5219C53.115 74.5709 52.8919 74.5919 52.6269 74.6059C52.3619 74.62 52.1388 74.627 52.1283 74.5779C52.1178 74.5289 52.334 74.4413 52.6164 74.4238C52.8989 74.4062 53.1185 74.4728 53.115 74.5219Z" fill="#EB996E"/>
<path d="M50.8903 75.3481C50.8903 75.3481 50.9357 75.4318 50.9461 75.5991C50.9572 75.7217 50.9418 75.8453 50.9009 75.9614C50.86 76.0775 50.7945 76.1835 50.709 76.272C50.6459 76.3353 50.5709 76.3855 50.4883 76.4196C50.4057 76.4537 50.3172 76.4711 50.2279 76.4708C50.1231 76.4649 50.0215 76.4332 49.9321 76.3784C49.8426 76.3237 49.7682 76.2476 49.7153 76.157C49.607 75.9724 49.5348 75.7689 49.5026 75.5573C49.4631 75.3481 49.4317 75.1319 49.4085 74.9087C49.3631 74.4873 49.3479 74.0632 49.3632 73.6396C49.3603 73.2854 49.4108 72.9327 49.5131 72.5936C49.5888 72.3626 49.7382 72.1629 49.9385 72.0252C50.0087 71.9708 50.0938 71.9392 50.1825 71.9346C50.1825 71.9346 50.1023 71.9799 49.9803 72.081C49.8128 72.2281 49.6917 72.4207 49.6316 72.6354C49.5544 72.962 49.5193 73.2971 49.527 73.6326C49.522 74.0483 49.5418 74.464 49.5863 74.8774C49.6028 75.2845 49.6938 75.6851 49.8548 76.0594C49.8919 76.1291 49.9457 76.1885 50.0114 76.2323C50.0772 76.2761 50.1527 76.303 50.2313 76.3104C50.3738 76.3133 50.512 76.2622 50.6184 76.1674C50.7753 76.015 50.8667 75.8074 50.8729 75.5887C50.8713 75.5081 50.8772 75.4276 50.8903 75.3481Z" fill="#EB996E"/>
<path d="M49.276 75.0303C49.3143 75.0303 49.2062 75.379 48.6937 75.5498C48.533 75.5539 48.3758 75.5024 48.2487 75.4039C48.1216 75.3054 48.0325 75.1661 47.9964 75.0094C47.9022 74.669 47.8599 74.3164 47.8708 73.9634C47.8636 73.3259 47.9821 72.6932 48.2195 72.1015C48.3015 71.916 48.4475 71.7662 48.6309 71.6796C48.7634 71.6238 48.8436 71.6412 48.8436 71.6517C48.8436 71.6621 48.7704 71.6761 48.6623 71.7423C48.513 71.8412 48.3993 71.9855 48.338 72.1538C48.143 72.7371 48.044 73.3483 48.0452 73.9634C48.0333 74.2965 48.0673 74.6297 48.1463 74.9536C48.1724 75.0749 48.2353 75.1852 48.3264 75.2694C48.4175 75.3536 48.5324 75.4077 48.6553 75.4243C48.8294 75.3842 48.9902 75.3001 49.1226 75.1802C49.2376 75.0931 49.262 75.0268 49.276 75.0303Z" fill="#EB996E"/>
<path d="M48.2259 71.6691C48.248 71.8192 48.2397 71.9721 48.2015 72.1189C48.1728 72.4981 48.036 72.861 47.8075 73.1649C47.7323 73.2602 47.6284 73.3286 47.5112 73.3602C47.4519 73.3752 47.3902 73.3773 47.33 73.3665C47.2699 73.3557 47.2128 73.3321 47.1625 73.2974C47.0854 73.2475 47.0206 73.1808 46.9729 73.1023C46.9252 73.0238 46.8959 72.9356 46.887 72.8442C46.8545 72.6896 46.8754 72.5286 46.9463 72.3874C46.9777 72.3874 46.9463 72.5687 47.0126 72.8198C47.0245 72.8911 47.0515 72.9592 47.0918 73.0193C47.132 73.0794 47.1847 73.1303 47.2462 73.1684C47.3161 73.2064 47.3979 73.2164 47.475 73.1963C47.552 73.1762 47.6185 73.1276 47.6611 73.0603C47.8636 72.7802 48.0017 72.4587 48.0655 72.1189C48.1457 71.8295 48.2015 71.6517 48.2259 71.6691Z" fill="#EB996E"/>
<path d="M53.2476 76.7042C52.9992 76.4805 52.7384 76.271 52.4665 76.0766C52.1651 75.9297 51.8555 75.8005 51.5391 75.6896C51.7155 75.6574 51.8967 75.6612 52.0716 75.7007C52.2466 75.7403 52.4117 75.8148 52.5572 75.9197C52.7188 75.9978 52.8631 76.1075 52.9816 76.2422C53.1002 76.3769 53.1906 76.534 53.2476 76.7042Z" fill="#EB996E"/>
<path d="M53.9485 77.6699C53.703 78.0784 53.3352 78.3993 52.8971 78.5871C52.459 78.7748 51.9729 78.8199 51.5078 78.7159C51.955 78.6635 52.3948 78.5606 52.8188 78.4091C53.2225 78.2068 53.6015 77.9588 53.9485 77.6699Z" fill="#EB996E"/>
<path d="M47.9201 70.8496C47.9026 71.521 47.7129 72.1766 47.3692 72.7536C47.0254 73.3306 46.5391 73.8096 45.957 74.1446C46.4314 73.7008 46.8526 73.2036 47.2123 72.6627C47.5162 72.0872 47.7537 71.4789 47.9201 70.8496Z" fill="#EB996E"/>
<path d="M48.2687 81.7081C48.2687 81.7081 49.4646 82.259 50.0539 83.9849C50.4549 85.1634 52.7212 89.2847 52.7212 89.2847L51.7903 81.4152L55.7895 80.0205C55.7895 80.0205 59.1682 87.374 59.9736 91.8754C60.779 96.2861 58.5789 99.1975 56.2323 99.1138C53.8858 99.0301 48.2129 95.0796 48.2129 95.0796L48.2687 81.7081Z" fill="#0DC78B"/>
<path d="M51.7904 81.415C51.8337 81.5668 51.864 81.7219 51.8811 81.8788C51.9264 82.2274 51.9892 82.6424 52.0624 83.1549C52.2053 84.2323 52.3936 85.7246 52.5889 87.3704C52.6621 88.0119 52.7353 88.6291 52.8016 89.1974C52.9027 89.7901 52.9968 90.3445 53.084 90.8466C53.1594 91.2773 53.2678 91.7016 53.4082 92.1158C53.6558 92.8131 53.858 93.1967 53.8336 93.2071C53.7701 93.1246 53.7152 93.0358 53.6698 92.9421C53.5404 92.6843 53.4241 92.4201 53.3211 92.1506C53.1613 91.7367 53.0376 91.3098 52.9515 90.8745C52.8573 90.3724 52.7562 89.8285 52.6447 89.2288C52.5749 88.6604 52.4982 88.0433 52.4215 87.4017C52.2262 85.756 52.0728 84.2637 51.9473 83.1793C51.8985 82.6668 51.8567 82.2379 51.8253 81.8997C51.7944 81.7401 51.7826 81.5774 51.7904 81.415Z" fill="#263238"/>
<g opacity="0.3">
<path opacity="0.3" d="M60.1411 94.2639C60.1411 93.4654 57.3517 94.4557 56.2743 95.1844C55.173 95.9838 54.3315 97.0898 53.8545 98.3643C53.8545 98.3643 55.7617 99.4626 57.2262 98.964C59.3042 98.2597 60.1166 95.6342 60.1411 94.2639Z" fill="black"/>
</g>
<path d="M35.165 76.4993C35.165 76.4993 27.6058 80.1534 26.7969 82.3918C25.988 84.6303 27.3338 90.3834 27.3338 90.3834L30.3185 105.91L30.9391 111.712L29.3247 114.055L30.0221 116.461C38.1705 117.545 45.789 117.772 52.2848 116.164L51.835 110.816L48.8364 98.4203L48.4459 88.0054L48.2646 81.7084L44.2026 78.3786C44.2026 78.3786 43.5401 80.1917 41.863 79.8117C40.1859 79.4316 36.2529 75.4463 36.2529 75.4463L35.165 76.4993Z" fill="#0DC78B"/>
<path d="M27.6099 91.8291C27.84 92.0662 32.6099 104.73 35.978 106.292C39.3462 107.854 41.3302 107.31 42.7946 106.909C44.259 106.508 50.6641 101.986 50.6641 101.986C50.6641 101.986 50.2143 98.9455 48.3524 98.8478C47.175 98.7982 45.996 98.8919 44.8413 99.1268L42.5819 97.631C42.5819 97.631 41.2709 95.0682 40.5143 94.9601L36.1245 85.1973C36.1245 85.1973 32.0415 77.2302 27.983 80.9087C24.0325 84.4825 27.6099 91.8291 27.6099 91.8291Z" fill="#0DC78B"/>
<path d="M44.9282 79.3235C44.8657 79.4634 44.7835 79.5937 44.6842 79.7105C44.4408 80.0425 44.148 80.3353 43.816 80.5787C43.5767 80.7476 43.3118 80.8771 43.0315 80.9622C42.7071 81.0517 42.37 81.0859 42.0343 81.0633C41.2775 80.9943 40.5375 80.7999 39.8446 80.488C39.1383 80.1993 38.479 79.8068 37.8886 79.3235C37.4177 78.9267 36.9793 78.493 36.5775 78.0264C36.2289 77.6324 35.9743 77.2977 35.8 77.0641C35.6997 76.949 35.6131 76.8226 35.542 76.6875C35.6568 76.7931 35.7607 76.9099 35.8523 77.0362C36.0476 77.2558 36.3195 77.5766 36.6752 77.9567C37.0846 78.4054 37.525 78.8248 37.9932 79.2119C38.5726 79.6744 39.2148 80.0524 39.9004 80.3346C40.5746 80.6374 41.2924 80.8315 42.0273 80.9099C42.6248 80.9667 43.2239 80.8179 43.7253 80.488C44.061 80.2569 44.3626 79.98 44.6214 79.6652C44.7158 79.5444 44.8183 79.4303 44.9282 79.3235Z" fill="#263238"/>
<path d="M47.8638 85.2188C47.9126 85.2188 48.1009 88.2348 48.2822 91.9586C48.4635 95.6824 48.5716 98.7019 48.5193 98.7054C48.467 98.7089 48.2822 95.6894 48.1009 91.9655C47.9196 88.2417 47.8115 85.2222 47.8638 85.2188Z" fill="#263238"/>
<path d="M28.9978 81.0662L29.0815 81.0278L29.3395 80.9232C29.6764 80.7971 30.0278 80.7139 30.3855 80.6756C30.9744 80.6114 31.5703 80.6805 32.1289 80.8779C32.8699 81.1533 33.5429 81.5849 34.1023 82.1436C34.793 82.8277 35.3803 83.6088 35.8457 84.4622C36.1072 84.9225 36.3164 85.435 36.543 85.9476C36.7697 86.4601 37.0172 86.9936 37.2648 87.548L40.5876 94.9084L40.5249 94.8631C40.8027 94.9579 41.0457 95.1341 41.2222 95.3687C41.4104 95.5904 41.5851 95.8233 41.7452 96.066C42.0723 96.5561 42.3726 97.0636 42.6448 97.5862L42.6274 97.5653L43.513 98.4509L43.4572 98.4265L47.7598 98.7159L48.3142 98.7508C48.5112 98.7659 48.705 98.8094 48.8895 98.8798C49.2525 99.0321 49.5671 99.2804 49.7996 99.5981C50.2489 100.239 50.5545 100.969 50.6956 101.739C50.6956 101.816 50.727 101.892 50.7375 101.966V102.021L50.6922 102.053C48.8093 103.371 46.9544 104.636 45.1134 105.777C44.6497 106.055 44.1894 106.338 43.7187 106.585C43.6036 106.652 43.4851 106.707 43.37 106.767C43.25 106.827 43.1266 106.881 43.0004 106.927C42.7507 107.016 42.4956 107.089 42.2369 107.147C41.2402 107.411 40.2026 107.483 39.179 107.36C38.2097 107.227 37.2638 106.959 36.3687 106.565C36.1484 106.478 35.9341 106.376 35.7272 106.261C35.623 106.206 35.5239 106.142 35.4308 106.069C35.3356 106.002 35.2448 105.929 35.1588 105.85C34.8181 105.55 34.5042 105.221 34.2209 104.866C33.2231 103.555 32.3478 102.154 31.6058 100.682C30.2112 98.0151 29.2628 95.7731 28.6038 94.2285C28.2865 93.458 28.0354 92.8582 27.8646 92.4433C27.6938 92.0284 27.5996 91.8227 27.5996 91.8227C27.7178 92.0149 27.817 92.218 27.896 92.4294L28.67 94.2006C29.3465 95.7348 30.3158 97.9698 31.7174 100.623C32.4694 102.082 33.3491 103.472 34.3464 104.776C34.8778 105.508 35.6021 106.077 36.4384 106.422C37.3207 106.808 38.2524 107.07 39.2069 107.199C40.2099 107.318 41.2264 107.244 42.202 106.983C42.4552 106.927 42.7044 106.855 42.9481 106.767C43.0675 106.722 43.1839 106.669 43.2968 106.61C43.4161 106.557 43.5325 106.497 43.6455 106.432C44.1127 106.188 44.5695 105.909 45.0402 105.627C46.8777 104.49 48.7326 103.224 50.6189 101.91L50.5806 101.997L50.5387 101.777C50.4039 101.035 50.1101 100.331 49.6775 99.7131C49.4641 99.4216 49.1763 99.1928 48.8442 99.0507C48.4957 98.9468 48.1339 98.8951 47.7703 98.8972L43.4677 98.5939H43.4363L43.4119 98.5695L42.5297 97.6839C42.2604 97.1681 41.9648 96.6665 41.6441 96.1811C41.4877 95.9482 41.3177 95.7246 41.1351 95.5116C40.9798 95.3061 40.7694 95.149 40.5284 95.0584H40.4795V95.0235L37.1811 87.6491L36.4663 86.0452C36.2292 85.5257 36.027 85.0236 35.769 84.5668C35.3155 83.7199 34.7412 82.9435 34.064 82.2621C33.5191 81.7072 32.8616 81.2756 32.1358 80.9964C31.5928 80.7993 31.0133 80.7232 30.4378 80.7733C30.0817 80.805 29.7306 80.8787 29.3918 80.9929L29.1303 81.0871L28.9978 81.0662Z" fill="#263238"/>
<path d="M45.3188 98.6422C45.3188 98.7503 44.3669 98.712 43.2094 98.6178L41.724 98.4993C41.517 98.497 41.311 98.4701 41.1104 98.4191C41.1104 98.3598 42.0622 98.3494 43.2233 98.447C43.8056 98.4923 44.3321 98.5481 44.7121 98.5899L45.3188 98.6422Z" fill="#263238"/>
<path d="M37.1562 95.1527C37.7052 95.0248 38.2663 94.9558 38.8299 94.947C39.39 94.8798 39.9556 94.8716 40.5174 94.9226C39.9673 95.0507 39.4051 95.1197 38.8403 95.1283C38.2814 95.1955 37.7169 95.2037 37.1562 95.1527Z" fill="#263238"/>
<g opacity="0.3">
<path opacity="0.3" d="M44.8129 105.861C44.2901 104.949 43.5797 104.158 42.7287 103.541C41.8776 102.923 40.9052 102.494 39.8757 102.28C37.7837 101.876 35.2976 102.58 33.5996 103.877C34.1542 104.778 34.9019 105.546 35.7889 106.123C36.6758 106.701 37.6798 107.074 38.7286 107.217C40.8555 107.558 43.0321 107.073 44.8129 105.861Z" fill="black"/>
</g>
<g opacity="0.3">
<path opacity="0.3" d="M35.9775 77.1543C36.5563 78.5908 37.3722 79.9751 38.5926 80.9339C39.8129 81.8927 41.4796 82.3669 42.951 81.8893C43.7111 81.6452 44.4433 81.0594 44.5165 80.2679C43.0229 80.8431 41.3754 80.8792 39.8581 80.3701C38.3407 79.8609 37.0485 78.8383 36.2042 77.4786" fill="black"/>
</g>
<g opacity="0.3">
<path opacity="0.3" d="M48.4633 95.2367C48.9218 92.3331 48.9112 89.3748 48.4319 86.4746C48.397 86.2723 48.275 86.0108 48.0832 86.0597C47.8914 86.1085 47.8914 86.3037 47.8845 86.4641C47.8414 89.4268 47.9835 92.3893 48.3098 95.3343" fill="black"/>
</g>
<path d="M47.8989 114.256C47.8451 114.284 47.7876 114.304 47.7281 114.315L47.2399 114.451C47.0273 114.507 46.7657 114.573 46.4589 114.636C46.1521 114.699 45.8034 114.786 45.4129 114.849C44.6388 114.992 43.7044 115.117 42.6654 115.197C41.5356 115.285 40.4019 115.312 39.2693 115.278C38.1372 115.233 37.0082 115.128 35.8872 114.964C34.8412 114.803 33.9311 114.615 33.1675 114.416C32.784 114.329 32.4423 114.221 32.1215 114.134C31.8008 114.047 31.5636 113.967 31.3544 113.893L30.8768 113.726C30.8204 113.707 30.7656 113.684 30.7129 113.656C30.7724 113.66 30.8311 113.671 30.8872 113.691L31.3754 113.827C31.5881 113.89 31.8461 113.963 32.1494 114.036C32.4528 114.11 32.7945 114.211 33.1954 114.291C33.959 114.472 34.8795 114.64 35.9081 114.8C36.9367 114.96 38.0734 115.051 39.2728 115.096C40.4722 115.142 41.6124 115.096 42.6479 115.03C43.6835 114.964 44.6144 114.842 45.3885 114.713C45.779 114.66 46.1277 114.587 46.4345 114.531C46.7413 114.476 47.0063 114.423 47.219 114.375L47.7176 114.273C47.777 114.259 47.838 114.253 47.8989 114.256Z" fill="#263238"/>
<g opacity="0.3">
<path opacity="0.3" d="M32.3103 113.942C32.4779 113.719 32.6949 113.539 32.9441 113.414C33.1934 113.289 33.4681 113.224 33.7468 113.224C34.3031 113.225 34.8567 113.301 35.3925 113.45C39.1542 114.279 43.0567 114.225 46.7941 113.293C46.8067 113.524 46.7535 113.754 46.6405 113.956C46.5275 114.158 46.3595 114.323 46.156 114.434C45.7389 114.635 45.2889 114.759 44.8276 114.8C40.6435 115.584 36.313 115.075 32.2754 114.102" fill="black"/>
</g>
<path d="M226.043 113.726H179.06V147.505H226.043V113.726Z" fill="#0DC78B"/>
<path d="M191.654 113.726C191.72 113.726 191.654 120.859 191.654 120.859H188.167V113.726H191.654Z" fill="#263238"/>
<g opacity="0.4">
<path opacity="0.4" d="M202.548 147.505H226.042V113.726H202.548V147.505Z" fill="black"/>
</g>
<path d="M186.778 140.891H180.488V145.343H186.778V140.891Z" fill="#FAFAFA"/>
<path d="M186.789 145.35H180.495V140.884H186.803L186.789 145.35ZM180.513 145.333H186.789V140.901H180.495L180.513 145.333Z" fill="#263238"/>
<path d="M191.084 140.891H187.939V145.343H191.084V140.891Z" fill="#FAFAFA"/>
<path d="M191.095 145.35H187.933V140.884H191.095V145.35ZM187.957 145.333H191.095V140.901H187.957V145.333Z" fill="#263238"/>
<path d="M223.947 147.532H170.499V185.956H223.947V147.532Z" fill="#0DC78B"/>
<path d="M184.836 147.532C184.91 147.532 184.836 155.642 184.836 155.642H180.879V147.532H184.836Z" fill="#263238"/>
<g opacity="0.4">
<path opacity="0.4" d="M197.226 185.953H223.948V147.529H197.226V185.953Z" fill="black"/>
</g>
<path d="M179.282 178.432H172.127V183.494H179.282V178.432Z" fill="#FAFAFA"/>
<path d="M179.292 183.505H172.127V178.425H179.299L179.292 183.505ZM172.127 183.488H179.275V178.442H172.127V183.488Z" fill="#263238"/>
<path d="M184.181 178.432H180.604V183.494H184.181V178.432Z" fill="#FAFAFA"/>
<path d="M184.192 183.505H180.598V178.425H184.192V183.505ZM180.615 183.488H184.175V178.442H180.615V183.488Z" fill="#263238"/>
<path d="M226.043 147.505C226.043 147.554 215.524 147.596 202.55 147.596C189.576 147.596 179.06 147.554 179.06 147.505C179.06 147.456 189.576 147.414 202.55 147.414C215.524 147.414 226.043 147.456 226.043 147.505Z" fill="#263238"/>
</g>
</svg>
