<svg width="230" height="230" viewBox="0 0 230 230" fill="none" xmlns="http://www.w3.org/2000/svg">
<mask id="mask0" mask-type="alpha" maskUnits="userSpaceOnUse" x="0" y="0" width="230" height="230">
<circle cx="115" cy="115" r="115" fill="#C4C4C4"/>
</mask>
<g mask="url(#mask0)">
<path d="M103.612 229.919C170.197 229.919 224.174 226.768 224.174 222.881C224.174 218.993 170.197 215.842 103.612 215.842C37.028 215.842 -16.9492 218.993 -16.9492 222.881C-16.9492 226.768 37.028 229.919 103.612 229.919Z" fill="#F5F5F5"/>
<path d="M182.749 82.9439C182.351 83.2361 182.046 83.4538 181.698 83.6838C181.35 83.9139 181.02 84.1253 180.678 84.3492C180.001 84.772 179.311 85.1886 178.62 85.5928C177.221 86.3762 175.797 87.11 174.324 87.7629C172.852 88.4281 171.345 89.0135 169.809 89.5164C169.045 89.7899 168.249 90.0014 167.459 90.219L166.259 90.5112L165.96 90.5859L165.749 90.6294L165.494 90.6791C165.133 90.7466 164.767 90.782 164.4 90.7848C163.641 90.8007 162.887 90.6764 162.174 90.418C161.525 90.1817 160.916 89.846 160.37 89.4231C159.497 88.7304 158.754 87.8883 158.175 86.9359C157.268 85.4155 156.582 83.7742 156.136 82.0609C155.306 78.9632 154.871 75.7729 154.843 72.566C154.83 72.129 154.978 71.7025 155.259 71.3674C155.54 71.0324 155.934 70.8122 156.367 70.7485C156.799 70.6849 157.24 70.7822 157.606 71.0221C157.971 71.262 158.236 71.6277 158.35 72.0499V72.1369C159.085 74.9139 160.02 77.6341 161.148 80.2764C161.629 81.4388 162.256 82.5357 163.013 83.5408C163.258 83.8679 163.564 84.1445 163.915 84.3554C164.157 84.4611 164.126 84.3554 164.12 84.3554C164.556 84.168 165.002 84.006 165.457 83.8704C166.079 83.6154 166.756 83.3854 167.397 83.1056C168.69 82.5832 169.965 81.9614 171.227 81.3334C172.489 80.7054 173.714 80.0152 174.958 79.2939C175.58 78.9457 176.202 78.5788 176.78 78.2058L178.496 77.1052L178.639 77.0119C179.424 76.4914 180.383 76.3007 181.307 76.481C182.232 76.6612 183.049 77.1979 183.581 77.9752C184.114 78.7525 184.319 79.7079 184.153 80.6353C183.986 81.5626 183.462 82.3874 182.693 82.9315L182.749 82.9439Z" fill="#FFB573"/>
<path d="M158.58 74.941L158.766 69.7676L152.996 71.5957C152.923 72.562 153.16 73.5264 153.672 74.3492C154.184 75.172 154.945 75.8105 155.844 76.1722L158.58 74.941Z" fill="#FFB573"/>
<path d="M155.508 66.7139L153.394 68.3493C153.2 68.4986 153.048 68.6943 152.95 68.9181C152.852 69.142 152.812 69.3869 152.834 69.6302L152.996 71.5951L158.766 69.767L157.752 67.3109C157.666 67.1032 157.534 66.9182 157.365 66.7701C157.196 66.6221 156.995 66.515 156.778 66.4573C156.56 66.3995 156.333 66.3926 156.113 66.4372C155.892 66.4817 155.685 66.5764 155.508 66.7139Z" fill="#FFB573"/>
<path d="M181.991 73.9643C177.955 74.6545 173.714 79.0196 173.714 79.0196C173.714 79.0196 174.747 83.7702 175.58 88.5021C186.25 87.1279 189.62 72.6648 181.991 73.9643Z" fill="#0DC78B"/>
<path d="M177.252 79.7906C177.917 92.1223 177.917 104.481 177.252 116.813L202.553 118.678C204.773 105.396 204.344 92.8049 204.586 80.2258C204.655 76.6131 203.585 73.2927 199.985 72.9507C198.654 72.8264 195.632 72.789 194.457 72.8139C190.906 72.8548 187.359 73.1039 183.837 73.5601C183.078 73.6907 182.326 73.8399 181.617 74.0078C180.322 74.2976 179.172 75.0382 178.372 76.0974C177.573 77.1567 177.176 78.4656 177.252 79.7906Z" fill="#0DC78B"/>
<path opacity="0.2" d="M199.047 80.1885C199.047 80.1885 200.825 86.0086 204.475 87.3454C204.475 85.0261 204.513 82.7068 204.556 80.3937L199.047 80.1885Z" fill="black"/>
<path d="M177.289 115.054C177.289 115.054 159.027 132.663 152.766 145.696C146.255 159.252 134.491 185.019 134.491 185.019L138.358 186.953C138.358 186.953 160.793 157.765 162.292 149.831C170.475 135.971 191.131 129.579 194.669 117.678C187.158 115.445 177.289 115.054 177.289 115.054Z" fill="#FFB573"/>
<path d="M185.585 116.812C185.585 116.812 182.824 141.728 183.657 155.582C184.577 170.76 192.362 198.213 192.362 198.213L196.093 198.02C196.093 198.02 197.219 174.622 192.934 157.883C195.422 146.783 202.722 130.523 202.51 118.672C196.923 117.627 191.265 117.005 185.585 116.812Z" fill="#FFB573"/>
<path d="M198.642 197.821C197.709 196.944 196.428 195.955 196.229 193.512C196.229 193.512 191.777 195.557 192.088 197.243C192.399 198.928 192.318 204.325 189.371 207.707C188.96 208.18 190.191 208.727 191.553 208.217C193.866 207.353 194.072 206.489 194.662 204.53C195.172 202.851 197.703 201.098 198.723 200.14C199.575 199.319 199.575 198.698 198.642 197.821Z" fill="#FFB573"/>
<path d="M137.283 190.397C137.818 189.241 137.656 187.593 139.018 185.858C139.018 185.858 136.53 182.786 135.256 183.906C133.981 185.025 130.281 185.926 126.028 184.527C125.406 184.328 125.071 186.132 126.389 186.735C128.578 187.736 130.194 188.445 132.06 189.297C133.651 190.024 133.925 190.54 135.125 191.23C136.151 191.784 136.742 191.585 137.283 190.397Z" fill="#FFB573"/>
<path d="M185.938 73.6224C188.985 72.3788 188.718 69.7175 187.966 67.2427L194.532 61.3418C194.028 64.8426 193.425 70.6129 195.968 72.8016C195.968 72.8016 194.532 77.5584 187.592 78.771C184.875 77.7325 184.154 74.2256 185.938 73.6224Z" fill="#FFB573"/>
<path opacity="0.2" d="M191.709 63.7051L187.979 67.2369C188.178 67.8444 188.321 68.4688 188.408 69.1023C189.409 69.1894 192.089 67.7344 192.138 66.1799C192.118 65.3383 191.973 64.5044 191.709 63.7051Z" fill="black"/>
<path d="M210.655 50.6036L207.64 45.8965L213.509 44.4229C213.509 44.4229 215.375 49.1361 213.509 50.3424L210.655 50.6036Z" fill="#FFB573"/>
<path d="M199.631 74.0636L199.973 73.9206L200.396 73.7279L201.266 73.3113C201.844 73.019 202.423 72.6895 202.989 72.3661C204.118 71.7046 205.205 70.9714 206.241 70.1712C207.257 69.3767 208.211 68.5057 209.095 67.5658C209.524 67.0932 209.928 66.6082 210.338 66.1108L210.848 65.4206C210.964 65.2551 211.066 65.0804 211.153 64.8983C211.234 64.7231 211.303 64.5423 211.358 64.3573C211.427 64.1266 211.469 63.8887 211.482 63.6484C211.557 62.9769 211.638 62.3053 211.663 61.6338C211.688 60.9622 211.713 60.2783 211.725 59.6005C211.737 58.9227 211.725 58.2387 211.644 57.561C211.548 56.1942 211.359 54.8355 211.078 53.4944C210.935 52.8228 210.792 52.1451 210.593 51.4922C210.506 51.1626 210.394 50.8393 210.289 50.5159L209.984 49.6268L209.891 49.3718C209.747 48.9694 209.753 48.5285 209.909 48.1304C210.064 47.7323 210.358 47.4038 210.737 47.2054C211.115 47.007 211.553 46.9521 211.969 47.0509C212.385 47.1496 212.751 47.3953 213 47.7427C213.304 48.1593 213.516 48.464 213.746 48.8309C213.976 49.1977 214.169 49.5335 214.368 49.8941C214.766 50.6092 215.114 51.3429 215.443 52.0891C216.075 53.5903 216.573 55.1447 216.929 56.734C217.298 58.3302 217.531 59.9547 217.626 61.5903C217.682 62.411 217.682 63.2256 217.676 64.0775C217.687 64.5854 217.651 65.0932 217.57 65.5947C217.48 66.1418 217.345 66.6805 217.166 67.2052C216.982 67.7197 216.762 68.2204 216.507 68.7037L216.301 69.0643L216.134 69.3504L215.798 69.8976C215.341 70.626 214.843 71.3277 214.305 71.9993C213.248 73.3305 212.068 74.5588 210.78 75.6679C209.51 76.765 208.149 77.753 206.713 78.6215C205.992 79.0443 205.258 79.4485 204.5 79.8215C204.12 80.0081 203.741 80.1884 203.343 80.3625L202.721 80.6112L202.019 80.8724C201.14 81.1895 200.171 81.1511 199.32 80.7653C198.469 80.3796 197.802 79.6769 197.461 78.8068C197.12 77.9368 197.132 76.968 197.494 76.1065C197.856 75.2451 198.54 74.559 199.401 74.1942L199.631 74.0636Z" fill="#FFB573"/>
<path d="M196.677 72.8016C199.649 72.8016 205.177 70.4512 205.177 70.4512C205.177 70.4512 208.442 76.4702 208.908 79.629C207.015 82.4332 204.199 84.4841 200.949 85.4242C197.324 83.5215 195.676 78.7709 196.677 72.8016Z" fill="#0DC78B"/>
<path d="M168.342 145.155C168.342 145.155 161.091 142.183 157 137.071C161.601 128.267 172.309 115.781 175.461 114.854C175.858 113.832 176.321 112.837 176.848 111.876L197.368 114.929C196.261 124.89 174.765 140.212 168.342 145.155Z" fill="#263238"/>
<path opacity="0.2" d="M183.546 124.692C180.735 125.973 177.949 132.925 177.11 138.428C181.272 135.183 185.237 131.695 188.986 127.981C186.717 126.178 184.105 124.443 183.546 124.692Z" fill="black"/>
<path d="M182.618 146.927C182.618 146.927 187.941 148.407 197.324 146.765C199.04 137.351 205.83 122.671 203.623 118.33C204.058 117.354 204.154 116.259 203.896 115.221L178.589 112.112C176.512 115.259 182.394 137.544 182.618 146.927Z" fill="#263238"/>
<path d="M208.075 41.5625L211.277 40.9407C211.504 40.8995 211.739 40.9391 211.94 41.0527C212.141 41.1663 212.296 41.3466 212.378 41.5625L213.484 44.4414L207.615 45.9151L207.291 42.632C207.262 42.3876 207.326 42.1411 207.472 41.9425C207.617 41.7439 207.833 41.608 208.075 41.5625Z" fill="#FFB573"/>
<path d="M188.177 50.5596C184.148 50.1305 182.289 52.5431 184.863 57.2502C188.09 52.7234 188.177 50.5596 188.177 50.5596Z" fill="#263238"/>
<path d="M197.448 57.7052C196.279 62.263 195.825 64.9865 193.04 66.9079C188.855 69.793 183.57 66.5845 183.358 61.7718C183.165 57.4191 185.105 50.7223 189.974 49.7523C191.046 49.5348 192.155 49.5946 193.197 49.9261C194.238 50.2576 195.178 50.8498 195.927 51.6465C196.676 52.4431 197.208 53.4179 197.475 54.4782C197.741 55.5385 197.732 56.6493 197.448 57.7052Z" fill="#FFB573"/>
<path d="M196.441 62.0939L193.04 60.2285C193.04 60.2285 193.519 57.3993 195.303 56.3981C193.755 55.5401 192.723 53.3202 192.816 52.288C190.385 52.9098 186.822 52.4808 185.354 51.604C182.687 49.9936 182.793 46.8846 184.826 45.7031C185.491 47.7675 186.554 48.8495 189.067 47.668C191.579 46.4866 195.086 46.0575 196.41 48.0287C197.734 49.9998 200.987 48.4142 202.784 50.1055C203.206 50.4595 203.525 50.9212 203.707 51.4417C203.889 51.9622 203.927 52.5222 203.817 53.0625C203.707 53.6027 203.453 54.1032 203.081 54.5108C202.71 54.9185 202.235 55.2183 201.708 55.3784C204.811 57.8532 202.025 61.5591 196.441 62.0939Z" fill="#263238"/>
<path d="M200.371 55.143C201.257 54.9863 202.17 55.1607 202.936 55.6331C203.702 56.1054 204.267 56.8427 204.525 57.7048C203.511 56.6726 201.534 55.1989 200.371 55.143Z" fill="#263238"/>
<path d="M200.613 55.0871C201.222 55.4543 201.945 55.5844 202.643 55.4524C203.342 55.3205 203.967 54.9359 204.4 54.3721C203.355 54.8446 201.478 55.3794 200.613 55.0871Z" fill="#263238"/>
<path d="M198.636 61.8153C197.964 62.7933 196.93 63.4643 195.763 63.6807C194.221 63.9481 193.606 62.5304 194.165 61.1562C194.669 59.9126 196.08 58.2834 197.567 58.669C199.053 59.0545 199.451 60.6152 198.636 61.8153Z" fill="#FFB573"/>
<path d="M190.211 57.6486C190.136 58.0217 189.881 58.2704 189.633 58.2704C189.384 58.2704 189.247 57.8787 189.322 57.5056C189.396 57.1325 189.651 56.8838 189.894 56.8838C190.136 56.8838 190.279 57.2755 190.211 57.6486Z" fill="#263238"/>
<path d="M185.964 56.8344C185.895 57.2075 185.634 57.4562 185.392 57.4562C185.149 57.4562 185.006 57.0645 185.075 56.6852C185.143 56.3059 185.41 56.0634 185.653 56.0945C185.895 56.1256 186.039 56.4613 185.964 56.8344Z" fill="#263238"/>
<path d="M187.133 57.251C186.466 58.3122 185.656 59.2767 184.727 60.1175C184.948 60.35 185.217 60.5316 185.516 60.6497C185.814 60.7678 186.135 60.8196 186.455 60.8015L187.133 57.251Z" fill="#ED893E"/>
<path d="M187.929 62.3564C187.645 62.3713 187.361 62.3504 187.083 62.2942C187.054 62.2881 187.028 62.2714 187.011 62.2471C186.993 62.2229 186.986 62.1931 186.99 62.1636C186.993 62.1487 186.999 62.1346 187.007 62.1221C187.016 62.1095 187.027 62.0989 187.039 62.0907C187.052 62.0826 187.067 62.0771 187.082 62.0747C187.096 62.0723 187.112 62.0729 187.127 62.0765C187.591 62.1778 188.072 62.1674 188.532 62.0463C188.991 61.9253 189.415 61.6969 189.769 61.3801C189.79 61.3587 189.818 61.3463 189.848 61.3457C189.878 61.3451 189.906 61.3564 189.928 61.377C189.949 61.3976 189.962 61.4259 189.962 61.4557C189.963 61.4854 189.951 61.5141 189.931 61.5356C189.383 62.0401 188.673 62.3313 187.929 62.3564Z" fill="#263238"/>
<path d="M192.53 55.9077C192.487 55.9021 192.446 55.8846 192.412 55.8572C192.378 55.8298 192.352 55.7934 192.337 55.7522C192.26 55.481 192.12 55.2317 191.929 55.0244C191.738 54.817 191.501 54.6574 191.237 54.5583C191.18 54.5424 191.132 54.5047 191.103 54.4535C191.074 54.4022 191.066 54.3416 191.081 54.2847C191.089 54.2562 191.101 54.2294 191.119 54.206C191.137 54.1826 191.159 54.1631 191.185 54.1485C191.211 54.134 191.239 54.1248 191.268 54.1215C191.297 54.1182 191.327 54.1208 191.355 54.1293C191.693 54.2449 191.997 54.4404 192.243 54.6991C192.489 54.9579 192.668 55.2723 192.766 55.6154C192.776 55.6431 192.78 55.6725 192.778 55.7018C192.776 55.7311 192.768 55.7597 192.755 55.7858C192.741 55.812 192.723 55.8351 192.7 55.8539C192.678 55.8727 192.652 55.8868 192.623 55.8952C192.593 55.9054 192.562 55.9096 192.53 55.9077Z" fill="#263238"/>
<path d="M184.584 54.036C184.532 54.0253 184.486 53.9967 184.453 53.9552C184.435 53.932 184.421 53.9054 184.413 53.8768C184.404 53.8482 184.402 53.8183 184.405 53.7888C184.409 53.7593 184.418 53.7307 184.433 53.7049C184.447 53.679 184.467 53.6563 184.49 53.638C184.762 53.407 185.085 53.2455 185.433 53.1675C185.781 53.0895 186.142 53.0973 186.486 53.1904C186.515 53.1988 186.541 53.2128 186.563 53.2316C186.586 53.2504 186.604 53.2736 186.618 53.2997C186.631 53.3259 186.639 53.3545 186.641 53.3837C186.643 53.413 186.639 53.4424 186.629 53.4702C186.611 53.526 186.571 53.5723 186.519 53.599C186.467 53.6258 186.406 53.6309 186.35 53.6132C186.076 53.5461 185.79 53.545 185.515 53.6098C185.241 53.6747 184.985 53.8037 184.77 53.9863C184.744 54.0072 184.714 54.0225 184.682 54.0311C184.65 54.0396 184.617 54.0413 184.584 54.036Z" fill="#263238"/>
<path d="M101.903 176.73H91.0273L89.3174 139.963H103.613L101.903 176.73Z" fill="#0DC78B"/>
<path opacity="0.2" d="M103.059 151.845C101.178 153.322 98.8563 154.125 96.4649 154.125C94.0735 154.125 91.7514 153.322 89.8707 151.845L89.311 139.969H103.613L103.059 151.845Z" fill="black"/>
<path d="M64.4389 121.334C49.3477 121.334 34.9965 110.042 31.048 95.0686L24.0216 68.3746C23.3698 66.115 23.2496 63.7352 23.6702 61.4214C24.0909 59.1076 25.0412 56.9224 26.4467 55.0369C27.8437 53.259 29.6333 51.8285 31.6754 50.8577C33.7175 49.8868 35.9566 49.4018 38.2174 49.4406H59.7132C61.0534 49.4871 62.3232 50.0522 63.2549 51.0168C64.1865 51.9813 64.7072 53.2699 64.7072 54.6109C64.7072 55.952 64.1865 57.2406 63.2549 58.2051C62.3232 59.1697 61.0534 59.7348 59.7132 59.7812H38.2236C37.5464 59.7396 36.8688 59.8587 36.2464 60.1289C35.6239 60.399 35.0742 60.8126 34.642 61.3357C34.206 61.9696 33.9229 62.6959 33.815 63.4576C33.7071 64.2193 33.7774 64.9957 34.0202 65.7257L41.0591 92.4259C43.8012 102.829 54.0796 110.981 64.4513 110.981C65.1454 110.956 65.8372 111.072 66.4855 111.321C67.1338 111.57 67.7253 111.947 68.2248 112.43C68.7243 112.912 69.1216 113.49 69.3929 114.13C69.6642 114.769 69.8041 115.456 69.8041 116.151C69.8041 116.845 69.6642 117.533 69.3929 118.172C69.1216 118.811 68.7243 119.389 68.2248 119.872C67.7253 120.354 67.1338 120.731 66.4855 120.98C65.8372 121.229 65.1454 121.345 64.4513 121.321L64.4389 121.334Z" fill="#0DC78B"/>
<path d="M128.485 121.334C127.791 121.358 127.099 121.242 126.451 120.993C125.803 120.744 125.211 120.367 124.712 119.885C124.212 119.402 123.815 118.824 123.543 118.185C123.272 117.545 123.132 116.858 123.132 116.164C123.132 115.469 123.272 114.782 123.543 114.142C123.815 113.503 124.212 112.925 124.712 112.443C125.211 111.96 125.803 111.583 126.451 111.334C127.099 111.085 127.791 110.969 128.485 110.993C138.857 110.993 149.135 102.841 151.877 92.4386L158.91 65.7383C159.153 65.0084 159.223 64.232 159.115 63.4703C159.007 62.7085 158.724 61.9822 158.288 61.3484C157.856 60.8253 157.306 60.4117 156.684 60.1415C156.061 59.8714 155.384 59.7523 154.707 59.7939H133.217C132.523 59.818 131.831 59.7021 131.183 59.4531C130.535 59.2041 129.943 58.8271 129.443 58.3446C128.944 57.8621 128.547 57.284 128.275 56.6447C128.004 56.0054 127.864 55.3181 127.864 54.6236C127.864 53.9291 128.004 53.2418 128.275 52.6025C128.547 51.9632 128.944 51.3851 129.443 50.9026C129.943 50.4201 130.535 50.0431 131.183 49.7941C131.831 49.5451 132.523 49.4292 133.217 49.4533H154.707C156.967 49.4149 159.206 49.9001 161.248 50.871C163.29 51.8418 165.08 53.272 166.477 55.0495C167.883 56.9351 168.833 59.1202 169.254 61.434C169.674 63.7478 169.554 66.1276 168.902 68.3872L161.87 95.0813C157.921 110.042 143.564 121.334 128.485 121.334Z" fill="#0DC78B"/>
<g opacity="0.2">
<path opacity="0.2" d="M64.8801 54.6265C64.8801 53.2555 64.3359 51.9406 63.367 50.9706C62.3982 50.0006 61.0839 49.4548 59.7129 49.4531H41.7241L42.9677 59.7937H59.7129C61.0833 59.7937 62.3976 59.2493 63.3667 58.2803C64.3357 57.3113 64.8801 55.997 64.8801 54.6265Z" fill="black"/>
<path opacity="0.2" d="M64.4388 110.993C58.5876 110.993 52.7738 108.406 48.3154 104.277L49.0429 110.303C49.3641 112.983 49.9197 115.629 50.7032 118.212C55.0012 120.235 59.6886 121.296 64.4388 121.321C65.1329 121.345 65.8247 121.229 66.473 120.98C67.1213 120.731 67.7128 120.354 68.2123 119.872C68.7118 119.389 69.1091 118.811 69.3804 118.172C69.6517 117.533 69.7915 116.845 69.7915 116.151C69.7915 115.456 69.6517 114.769 69.3804 114.13C69.1091 113.49 68.7118 112.912 68.2123 112.43C67.7128 111.947 67.1213 111.57 66.473 111.321C65.8247 111.072 65.1329 110.956 64.4388 110.98V110.993Z" fill="black"/>
<path opacity="0.2" d="M123.305 116.166C123.306 117.536 123.851 118.85 124.82 119.818C125.789 120.787 127.102 121.332 128.472 121.334C133.224 121.309 137.914 120.248 142.214 118.225C142.997 115.642 143.553 112.995 143.874 110.315L144.595 104.29C140.143 108.419 134.329 111.006 128.472 111.006C127.103 111.007 125.791 111.551 124.822 112.519C123.854 113.486 123.308 114.798 123.305 116.166Z" fill="black"/>
<path opacity="0.2" d="M133.216 49.4531C131.876 49.4996 130.606 50.0647 129.675 51.0292C128.743 51.9938 128.222 53.2824 128.222 54.6234C128.222 55.9644 128.743 57.2531 129.675 58.2176C130.606 59.1822 131.876 59.7472 133.216 59.7937H149.955L151.199 49.4531H133.216Z" fill="black"/>
</g>
<path d="M91.8975 36.1094H87.4951V36.7312H91.8975V36.1094Z" fill="#0DC78B"/>
<path d="M83.6651 36.1094H67.8589V36.7312H83.6651V36.1094Z" fill="#0DC78B"/>
<path d="M96.4615 146.99C85.6395 146.99 75.2135 142.919 67.2554 135.585C59.2973 128.251 54.3895 118.192 53.5073 107.406L48.1038 41.2832C48.072 40.9015 48.1197 40.5173 48.2441 40.155C48.3684 39.7927 48.5666 39.4602 48.8261 39.1784C49.0856 38.8967 49.4008 38.6719 49.7517 38.5183C50.1026 38.3647 50.4816 38.2857 50.8646 38.2861H142.065C142.447 38.2866 142.826 38.3663 143.176 38.5202C143.527 38.6741 143.842 38.8989 144.101 39.1804C144.36 39.462 144.559 39.7941 144.683 40.156C144.808 40.5179 144.856 40.9017 144.825 41.2832L139.422 107.406C138.538 118.192 133.629 128.252 125.67 135.585C117.711 142.919 107.284 146.99 96.4615 146.99Z" fill="#0DC78B"/>
<path opacity="0.1" d="M82.5397 135.058C82.7227 135.234 82.838 135.468 82.8655 135.72C82.8931 135.973 82.831 136.227 82.6902 136.438C82.5494 136.649 82.3389 136.804 82.0954 136.876C81.8519 136.947 81.591 136.931 81.3583 136.83C75.5172 134.146 70.4956 129.956 66.8087 124.69C63.1218 119.424 60.9025 113.272 60.3786 106.865L55.4788 46.9854C55.4608 46.7593 55.4897 46.532 55.5637 46.3176C55.6376 46.1032 55.755 45.9064 55.9085 45.7394C56.062 45.5725 56.2483 45.4391 56.4558 45.3474C56.6632 45.2558 56.8874 45.208 57.1142 45.207H64.5447C64.9587 45.206 65.3577 45.3619 65.6612 45.6435C65.9647 45.9251 66.1502 46.3113 66.1801 46.7242L70.9493 109.526C71.6089 119.136 75.7081 128.187 82.4962 135.02L82.5397 135.058Z" fill="white"/>
<path d="M118.61 189.838H74.3189C74.04 189.837 73.7646 189.775 73.5124 189.656C73.2601 189.537 73.0371 189.364 72.8591 189.15C72.6811 188.935 72.5525 188.684 72.4824 188.414C72.4123 188.144 72.4025 187.861 72.4535 187.587L73.8401 180.219C74.1705 178.463 75.1037 176.878 76.4786 175.737C77.8534 174.596 79.5836 173.971 81.3702 173.97H111.559C113.345 173.971 115.076 174.596 116.45 175.737C117.825 176.878 118.758 178.463 119.089 180.219L120.475 187.587C120.526 187.861 120.517 188.144 120.447 188.414C120.376 188.684 120.248 188.935 120.07 189.15C119.892 189.364 119.669 189.537 119.417 189.656C119.164 189.775 118.889 189.837 118.61 189.838Z" fill="#0DC78B"/>
<path opacity="0.2" d="M120.475 187.587H72.4535C72.4025 187.861 72.4123 188.143 72.4824 188.413C72.5525 188.683 72.6811 188.934 72.8591 189.149C73.0371 189.364 73.2601 189.537 73.5124 189.656C73.7646 189.775 74.04 189.837 74.3189 189.838H118.61C118.889 189.837 119.164 189.775 119.417 189.656C119.669 189.537 119.892 189.364 120.07 189.149C120.248 188.934 120.376 188.683 120.447 188.413C120.517 188.143 120.526 187.861 120.475 187.587Z" fill="black"/>
<path d="M132.278 189.838H60.6461C59.6022 189.838 58.7559 190.684 58.7559 191.728V219.436C58.7559 220.48 59.6022 221.326 60.6461 221.326H132.278C133.322 221.326 134.168 220.48 134.168 219.436V191.728C134.168 190.684 133.322 189.838 132.278 189.838Z" fill="#0DC78B"/>
<path opacity="0.7" d="M132.278 189.838H60.6461C59.6022 189.838 58.7559 190.684 58.7559 191.728V219.436C58.7559 220.48 59.6022 221.326 60.6461 221.326H132.278C133.322 221.326 134.168 220.48 134.168 219.436V191.728C134.168 190.684 133.322 189.838 132.278 189.838Z" fill="white"/>
<path d="M35.1332 102.418C33.4543 93.7129 47.5133 91.0889 53.8433 96.6416C60.024 102.064 56.803 106.827 65.5953 105.397C74.3876 103.966 75.283 112.392 70.6817 115.464C66.0803 118.535 73.4301 124.865 65.6513 127.589C56.0258 130.965 46.9972 127.906 40.5056 124.704C34.0139 121.501 27.4166 106.354 35.1332 102.418Z" fill="#263238"/>
<path d="M63.2319 155.339C63.2319 155.339 93.3334 171.867 91.7602 182.313C87.9175 205.855 87.8118 218.322 87.8118 218.322H83.596C83.596 218.322 79.5978 194.768 81.7306 182.742C79.1065 177.351 46.7852 178.47 48.9739 155.314L63.2319 155.339Z" fill="#263238"/>
<path opacity="0.2" d="M49.0864 160.326C50.33 169.131 57.5865 173.502 64.9486 176.244C59.5079 170.082 53.3085 163.485 49.0864 160.326Z" fill="black"/>
<path d="M88.1734 217.539H83.2487C83.1449 217.536 83.0435 217.571 82.9651 217.639C82.8866 217.708 82.8369 217.803 82.8259 217.906L82.3285 221.948C82.3251 222.073 82.347 222.197 82.3927 222.314C82.4385 222.43 82.5072 222.536 82.5949 222.626C82.6825 222.715 82.7871 222.786 82.9027 222.834C83.0182 222.882 83.1422 222.906 83.2674 222.905C85.4313 222.868 86.4759 222.75 89.2118 222.75C90.8907 222.75 91.9167 222.924 94.2422 222.924C96.5678 222.924 96.574 220.698 95.5915 220.493C91.2389 219.579 90.6171 219.075 89.1123 217.881C88.8467 217.665 88.5159 217.545 88.1734 217.539Z" fill="#263238"/>
<path d="M60.2478 123.112C61.5909 123.529 63.0086 123.976 64.3953 124.356C65.7819 124.735 67.1872 125.176 68.58 125.525C69.9729 125.873 71.3719 126.209 72.7461 126.47C73.4239 126.588 74.1141 126.718 74.7732 126.793L75.2706 126.861L75.7494 126.899L76.222 126.936H76.3028C76.3028 126.936 76.2406 126.98 76.2655 126.986C76.2904 126.992 76.3588 126.948 76.4583 126.812C76.7188 126.401 76.908 125.949 77.0179 125.475C77.3293 124.183 77.5044 122.861 77.5402 121.533C77.6148 120.127 77.6024 118.685 77.5402 117.242C77.478 115.8 77.391 114.313 77.279 112.89V112.84C77.258 112.505 77.3605 112.174 77.5672 111.91C77.7738 111.646 78.0703 111.468 78.4002 111.408C78.73 111.348 79.0704 111.411 79.3566 111.586C79.6429 111.76 79.855 112.034 79.9528 112.355C80.8223 115.326 81.3889 118.378 81.6441 121.464C81.7922 123.122 81.7421 124.792 81.4949 126.439C81.3381 127.434 81.0166 128.397 80.5435 129.286C80.2268 129.863 79.805 130.376 79.2999 130.797C78.7085 131.288 78.0063 131.628 77.2542 131.786C77.0739 131.823 76.8811 131.855 76.707 131.873H76.4396H74.9473L74.3255 131.842C73.4985 131.805 72.715 131.705 71.9191 131.606C70.3522 131.401 68.8101 131.115 67.324 130.773C64.328 130.119 61.3734 129.288 58.4757 128.285C57.8171 128.033 57.2808 127.537 56.9778 126.9C56.6749 126.263 56.6284 125.533 56.8481 124.863C57.0678 124.193 57.5369 123.633 58.1581 123.299C58.7794 122.965 59.5053 122.882 60.1857 123.068L60.2478 123.112Z" fill="#803E3C"/>
<path d="M78.9519 109.003L75.333 111.49C75.333 111.49 75.5942 111.932 76.2657 113.007C76.9373 114.083 78.0565 114.742 79.07 114.064C81.5883 112.802 78.9519 109.003 78.9519 109.003Z" fill="#7F3E3B"/>
<path d="M75.4011 109.352L76.1908 108.4C76.3273 108.235 76.4987 108.101 76.6928 108.01C76.8868 107.919 77.0987 107.871 77.3132 107.871C77.5277 107.871 77.7395 107.919 77.9336 108.01C78.1276 108.101 78.299 108.235 78.4355 108.4L78.9516 109.022L75.3327 111.509L75.1213 110.701C75.0528 110.47 75.0425 110.226 75.0913 109.991C75.1402 109.755 75.2466 109.536 75.4011 109.352Z" fill="#7F3E3B"/>
<path d="M64.4824 129.044C64.7311 133.577 64.3331 141.349 63.2387 155.34H41.2269C41.5751 146.952 41.059 143.83 36.1094 128.279C35.9908 127.905 35.9501 127.51 35.9899 127.12C36.0297 126.729 36.1491 126.351 36.3408 126.008C36.5326 125.666 36.7925 125.366 37.1045 125.128C37.4166 124.889 37.7741 124.718 38.1552 124.623C40.1842 124.102 42.2389 123.687 44.311 123.379C47.5754 122.854 50.8732 122.563 54.1791 122.509C55.4724 122.509 56.8217 122.565 58.0715 122.639C59.7408 122.732 61.3174 123.436 62.5001 124.617C63.6828 125.799 64.3885 127.375 64.4824 129.044Z" fill="#7F3E3B"/>
<path opacity="0.2" d="M38.6033 129.025C38.9377 131.228 38.8406 133.475 38.3173 135.641C37.9007 134.155 37.4343 132.563 36.9058 130.822L38.6033 129.025Z" fill="black"/>
<path opacity="0.2" d="M53.4889 133.527C53.4889 131.438 50.7778 128.827 48.8813 128.397C50.2493 129.168 52.7987 131.904 53.4889 133.527Z" fill="black"/>
<path d="M44.2983 112.206C45.2 115.315 46.3379 121.085 44.2983 123.399C44.2983 123.399 45.4549 126.545 51.3558 126.023C57.8412 125.444 54.1664 122.528 54.1664 122.528C50.5537 121.993 50.4355 119.363 50.8086 116.838L44.2983 112.206Z" fill="#7F3E3B"/>
<path opacity="0.2" d="M46.9539 114.096L50.8091 116.838C50.7095 117.425 50.6617 118.02 50.6661 118.616C49.2919 118.535 47.3021 117.217 47.0348 115.812C46.902 115.25 46.8746 114.668 46.9539 114.096Z" fill="black"/>
<path d="M39.2555 108.754C41.8235 113.424 42.8122 115.457 46.4062 116.781C51.8159 118.765 56.9769 114.593 55.8763 109.245C54.8627 104.432 50.8335 97.5988 45.2186 97.9097C43.9803 97.9729 42.7788 98.3515 41.728 99.0096C40.6773 99.6677 39.8121 100.583 39.2147 101.67C38.6173 102.756 38.3074 103.977 38.3146 105.217C38.3217 106.457 38.6456 107.674 39.2555 108.754Z" fill="#7F3E3B"/>
<path d="M37.4334 102.064C39.6097 99.0918 43.0296 105.422 43.4338 107.418C43.838 109.414 42.9115 112.224 39.8025 112C36.6935 111.777 35.1016 105.254 37.4334 102.064Z" fill="#263238"/>
<path d="M36.9922 101.286C41.606 103.549 44.2859 102.231 46.1514 101.062C48.0168 99.893 54.6514 100.546 53.1466 99.0412C51.6419 97.5364 49.3226 96.1933 45.5296 96.784C41.7365 97.3747 36.9922 101.286 36.9922 101.286Z" fill="#263238"/>
<path d="M20.8627 217.029L15.8198 215.642C15.7314 215.617 15.6371 215.625 15.5539 215.664C15.4707 215.703 15.404 215.77 15.3659 215.853L13.5627 219.74C13.5195 219.836 13.4978 219.941 13.4991 220.047C13.5004 220.153 13.5246 220.258 13.5701 220.354C13.6156 220.449 13.6813 220.534 13.7627 220.602C13.844 220.67 13.9392 220.719 14.0415 220.747C15.8074 221.201 16.5287 220.654 18.4874 221.866C19.9611 222.774 21.9322 222.874 24.208 222.874C26.1231 222.874 26.3408 220.878 25.5075 220.722C21.7767 220.026 22.1747 218.788 21.528 217.514C21.456 217.392 21.3599 217.286 21.2455 217.202C21.131 217.119 21.0008 217.06 20.8627 217.029Z" fill="#263238"/>
<path d="M57.1944 155.34C57.1944 155.34 54.0169 174.84 50.9763 190.708C50.5162 193.108 49.428 195.539 47.3388 196.814C36.4945 203.436 20.4458 217.533 20.4458 217.533L15.7822 216.053C15.7822 216.053 30.9169 192.71 38.789 191.653C38.789 185.112 32.5709 168.454 41.2264 155.34H57.1944Z" fill="#263238"/>
<path d="M40.9344 154.506C40.7109 154.621 40.5403 154.818 40.4581 155.055C40.3758 155.293 40.3883 155.552 40.4929 155.781C40.723 156.123 53.9363 156.49 57.3749 156.465C60.8134 156.44 64.5629 156.272 64.3453 155.657C64.1277 155.041 64.2645 153.99 63.8043 153.965C63.3442 153.94 42.3086 154.108 40.9344 154.506Z" fill="#0DC78B"/>
<path d="M46.9164 106.87C47.103 107.262 47.4636 107.492 47.7185 107.362C47.9735 107.231 48.0294 106.827 47.8491 106.435C47.6688 106.043 47.3019 105.813 47.047 105.944C46.7921 106.075 46.7361 106.454 46.9164 106.87Z" fill="#263238"/>
<path d="M51.3813 104.781C51.5617 105.172 51.9223 105.402 52.1772 105.272C52.4322 105.141 52.4944 104.731 52.3078 104.339C52.1213 103.947 51.7668 103.717 51.5057 103.854C51.2445 103.991 51.1637 104.389 51.3813 104.781Z" fill="#263238"/>
<path d="M51.3813 103.93L52.1959 103.215C52.1959 103.215 52.0529 104.172 51.3813 103.93Z" fill="#263238"/>
<path d="M50.5229 105.863C51.2926 106.599 52.1586 107.226 53.0972 107.729C52.9678 107.962 52.7899 108.165 52.5753 108.324C52.3608 108.483 52.1147 108.593 51.8536 108.649L50.5229 105.863Z" fill="#630F0F"/>
<path d="M50.8213 110.969C51.0338 110.909 51.2416 110.835 51.4431 110.745C51.4586 110.737 51.4725 110.727 51.484 110.714C51.4956 110.702 51.5045 110.687 51.5103 110.671C51.516 110.654 51.5186 110.637 51.5177 110.62C51.5168 110.603 51.5126 110.586 51.5052 110.571C51.498 110.556 51.4878 110.543 51.4754 110.532C51.463 110.521 51.4486 110.513 51.433 110.508C51.4174 110.502 51.4009 110.5 51.3844 110.501C51.368 110.503 51.352 110.507 51.3373 110.515C50.8555 110.759 50.323 110.886 49.7828 110.886C49.2427 110.886 48.7101 110.759 48.2283 110.515C48.2 110.498 48.1662 110.492 48.1339 110.499C48.1016 110.506 48.0731 110.525 48.0542 110.552C48.0369 110.581 48.0311 110.616 48.038 110.649C48.0449 110.683 48.064 110.712 48.0915 110.732C48.9344 111.169 49.9159 111.254 50.8213 110.969Z" fill="#263238"/>
<path d="M39.7408 113.293C40.4808 114.013 41.476 114.408 42.5078 114.394C43.8695 114.363 44.1618 113.045 43.4467 111.963C42.8249 110.993 41.3326 109.83 40.1201 110.383C39.8578 110.51 39.6312 110.7 39.4607 110.936C39.2902 111.172 39.1813 111.447 39.1436 111.736C39.106 112.025 39.1409 112.318 39.2451 112.59C39.3494 112.862 39.5197 113.104 39.7408 113.293Z" fill="#7F3E3B"/>
<path d="M45.3306 106.342C45.3816 106.326 45.4264 106.295 45.4588 106.253C45.4911 106.21 45.5094 106.159 45.5109 106.106C45.542 104.931 46.7981 104.079 46.8105 104.072C46.8383 104.054 46.8621 104.03 46.8806 104.002C46.8991 103.974 46.9119 103.942 46.9182 103.909C46.9246 103.876 46.9244 103.843 46.9176 103.81C46.9109 103.777 46.8977 103.746 46.8789 103.718C46.8613 103.69 46.8381 103.665 46.8107 103.646C46.7833 103.628 46.7523 103.614 46.7197 103.608C46.687 103.602 46.6534 103.602 46.6209 103.609C46.5883 103.616 46.5576 103.63 46.5307 103.65C46.4685 103.687 45.0384 104.657 45.0011 106.093C45.0002 106.127 45.006 106.16 45.0181 106.191C45.0301 106.223 45.0482 106.251 45.0713 106.275C45.0944 106.3 45.122 106.319 45.1527 106.333C45.1833 106.346 45.2163 106.354 45.2498 106.354L45.3306 106.342Z" fill="#263238"/>
<path d="M52.326 101.64C52.3675 101.627 52.4051 101.603 52.4355 101.572C52.4658 101.541 52.488 101.502 52.5001 101.46C52.5085 101.428 52.5103 101.393 52.5054 101.36C52.5005 101.327 52.4891 101.295 52.4717 101.266C52.4544 101.237 52.4315 101.212 52.4043 101.192C52.3772 101.172 52.3463 101.157 52.3135 101.149C51.9253 101.038 51.5158 101.023 51.1203 101.105C50.7249 101.187 50.3555 101.365 50.044 101.622C50.0203 101.646 50.0015 101.674 49.9887 101.705C49.9758 101.736 49.9692 101.769 49.9692 101.802C49.9692 101.836 49.9758 101.869 49.9887 101.9C50.0015 101.931 50.0203 101.959 50.044 101.982C50.0672 102.007 50.0952 102.026 50.1262 102.04C50.1572 102.053 50.1905 102.06 50.2243 102.06C50.258 102.06 50.2914 102.053 50.3224 102.04C50.3534 102.026 50.3814 102.007 50.4046 101.982C50.6562 101.786 50.9506 101.652 51.2639 101.59C51.5772 101.528 51.9006 101.541 52.2078 101.628C52.2457 101.641 52.2862 101.646 52.326 101.64Z" fill="#263238"/>
<path d="M40.3747 129.697C38.4409 131.823 36.4884 134.105 34.7038 136.387C33.8084 137.531 32.9628 138.707 32.2166 139.882C31.4676 140.978 30.8301 142.147 30.3139 143.37C30.1229 143.81 29.9972 144.275 29.9408 144.751V144.918C29.9419 144.937 29.9419 144.956 29.9408 144.974L29.9906 145.173L30.09 145.571L30.2393 146.031C30.717 147.363 31.2649 148.669 31.8808 149.943C33.1244 152.604 34.5359 155.284 35.8853 157.958C36.0379 158.257 36.0752 158.601 35.9902 158.926C35.9052 159.251 35.7037 159.533 35.4242 159.719C35.1447 159.905 34.8065 159.981 34.4742 159.934C34.1419 159.887 33.8385 159.719 33.6219 159.462C31.6105 157.102 29.7595 154.609 28.0816 152.001C27.1933 150.645 26.4057 149.225 25.725 147.754L25.4638 147.132C25.383 146.914 25.3084 146.678 25.2275 146.448L25.1156 146.106C25.0783 145.963 25.0348 145.764 25.0037 145.602C24.9564 145.283 24.9294 144.961 24.9229 144.639C24.9397 143.601 25.1223 142.572 25.4638 141.592C26.0393 139.985 26.7812 138.443 27.6774 136.99C28.5169 135.598 29.4247 134.298 30.3574 133.03C31.2901 131.761 32.2539 130.542 33.2675 129.342C34.281 128.142 35.2883 127.004 36.4138 125.841C36.6608 125.579 36.9571 125.368 37.2858 125.22C37.6144 125.072 37.9691 124.99 38.3293 124.979C38.6896 124.968 39.0486 125.028 39.3856 125.156C39.7227 125.283 40.0313 125.476 40.2938 125.723C40.5564 125.97 40.7677 126.267 40.9157 126.595C41.0637 126.924 41.1455 127.279 41.1565 127.639C41.1675 127.999 41.1074 128.358 40.9796 128.695C40.8519 129.032 40.659 129.341 40.412 129.603L40.3747 129.697Z" fill="#803E3C"/>
<path d="M46.9473 106.019L47.7556 105.304C47.7556 105.304 47.6499 106.268 46.9473 106.019Z" fill="#263238"/>
<path d="M35.3819 157.279L40.7667 159.456L35.9353 162.011C35.9353 162.011 33.0501 160.115 33.2491 157.889L35.3819 157.279Z" fill="#7F3E3B"/>
<path d="M41.9292 163.871L39.5975 164.947C39.3835 165.045 39.1435 165.072 38.913 165.024C38.6824 164.976 38.4734 164.855 38.3166 164.679L35.9351 162.012L40.7665 159.456L42.4205 162.329C42.4967 162.461 42.5445 162.607 42.5609 162.759C42.5772 162.91 42.5618 163.063 42.5156 163.208C42.4694 163.354 42.3933 163.487 42.2924 163.602C42.1914 163.716 42.0677 163.807 41.9292 163.871Z" fill="#7F3E3B"/>
<path d="M61.9886 126.084C61.1119 123.597 60.3906 122.838 60.3906 122.838C59.6831 122.582 58.9357 122.454 58.1832 122.459C59.1408 125.232 61.715 131.873 52.3942 132.607C43.0734 133.341 39.7218 123.951 39.7218 123.951C38.0554 123.951 37.4336 124.542 37.4336 124.542C40.2877 131.382 43.1853 138.222 39.299 140.417C39.9581 143.694 40.0638 147.878 39.8648 152.138C43.6392 151.379 58.7241 149.309 64.9795 150.111C64.9173 145.901 64.7246 142.313 64.4447 139.266C66.7827 136.344 63.3815 128.839 61.9886 126.084Z" fill="#0DC78B"/>
<path opacity="0.8" d="M61.9886 126.084C61.1119 123.597 60.3906 122.838 60.3906 122.838C59.6831 122.582 58.9357 122.454 58.1832 122.459C59.1408 125.232 61.715 131.873 52.3942 132.607C43.0734 133.341 39.7218 123.951 39.7218 123.951C38.0554 123.951 37.4336 124.542 37.4336 124.542C40.2877 131.382 43.1853 138.222 39.299 140.417C39.9581 143.694 40.0638 147.878 39.8648 152.138C43.6392 151.379 58.7241 149.309 64.9795 150.111C64.9173 145.901 64.7246 142.313 64.4447 139.266C66.7827 136.344 63.3815 128.839 61.9886 126.084Z" fill="#FAFAFA"/>
</g>
</svg>
