<?xml version="1.0" standalone="no"?><svg xmlns="http://www.w3.org/2000/svg" viewBox="0 0 1440 320"><path fill="#F5F6FF" fill-opacity="1" d="M0,128L26.7,154.7C53.3,181,107,235,160,234.7C213.3,235,267,181,320,133.3C373.3,85,427,43,480,21.3C533.3,0,587,0,640,48C693.3,96,747,192,800,224C853.3,256,907,224,960,192C1013.3,160,1067,128,1120,144C1173.3,160,1227,224,1280,224C1333.3,224,1387,160,1413,128L1440,96L1440,320L1413.3,320C1386.7,320,1333,320,1280,320C1226.7,320,1173,320,1120,320C1066.7,320,1013,320,960,320C906.7,320,853,320,800,320C746.7,320,693,320,640,320C586.7,320,533,320,480,320C426.7,320,373,320,320,320C266.7,320,213,320,160,320C106.7,320,53,320,27,320L0,320Z"></path></svg>